<?xml version="1.0" encoding="utf-8"?>
<!-- Generator: Adobe Illustrator 16.0.4, SVG Export Plug-In . SVG Version: 6.00 Build 0)  -->
<!DOCTYPE svg PUBLIC "-//W3C//DTD SVG 1.0//EN" "http://www.w3.org/TR/2001/REC-SVG-20010904/DTD/svg10.dtd">
<svg version="1.0" xmlns="http://www.w3.org/2000/svg" xmlns:xlink="http://www.w3.org/1999/xlink" x="0px" y="0px"
	 width="171.381px" height="86.728px" viewBox="0 0 171.381 86.728" enable-background="new 0 0 171.381 86.728"
	 xml:space="preserve">
<g id="Layer_1">
</g>
<g id="home">
	<g>
		<g>
			<g>
				<path fill="#9DD30D" d="M32.572,63.062c-0.274,0.734-0.137,1.284,0.413,1.649l-1.787,2.474l-1.237,1.374
					c-1.374,1.649-3.298,2.842-5.771,3.573l-1.925,0.55c-1.009,0.185-1.855,0.161-2.542-0.068c-0.688-0.228-1.354-0.618-1.993-1.168
					c-2.474-2.199-3.849-4.9-4.123-8.109c-0.093-1.1-0.069-2.151,0.068-3.161c0.138-1.007,0.297-2.014,0.481-3.023V56.19
					l-0.275,0.275c-0.367,0.274-0.711,0.527-1.03,0.756c-0.322,0.229-0.666,0.436-1.031,0.618c-0.734,0.367-1.421,0.666-2.062,0.894
					c-0.642,0.229-1.374,0.391-2.199,0.48c-1.099,0.093-2.404-0.158-3.916-0.756C2.13,57.863,1.145,57.2,0.688,56.466
					C0.228,55.551,0,54.679,0,53.854c0.09-1.558,0.389-3.024,0.894-4.398c0.502-1.374,1.121-2.749,1.855-4.123
					c0.732-1.465,1.694-3.023,2.886-4.673c0.183-0.275,0.412-0.526,0.688-0.756c0.274-0.228,0.502-0.434,0.688-0.618
					c0.549-0.732,1.213-1.396,1.992-1.993c0.777-0.595,1.581-1.168,2.405-1.718c0.55-0.458,1.145-0.825,1.787-1.1
					c0.64-0.275,1.374-0.503,2.198-0.688l1.925-0.412c0.915-0.183,1.786-0.228,2.611-0.138c0.824,0.093,1.649,0.229,2.474,0.412
					c0.457,0.093,1.145,0.322,2.062,0.688c0.824,0.367,1.1,0.779,0.824,1.237c-0.367,0.55-1.009,0.642-1.924,0.274
					c-1.834-0.64-3.346-0.412-4.535,0.688c-0.55,0.459-1.078,0.894-1.581,1.306c-0.504,0.412-0.985,0.894-1.442,1.443
					c-0.55,0.734-1.192,1.466-1.925,2.198c-0.734,0.734-1.191,1.604-1.374,2.611c-0.185,0.46-0.367,0.849-0.55,1.169
					c-0.185,0.321-0.367,0.665-0.55,1.03c-0.185,0.55-0.344,1.078-0.48,1.581c-0.138,0.504-0.299,1.03-0.481,1.58
					c-0.275,0.734-0.367,1.443-0.275,2.13c0.091,0.688,0.046,1.398-0.137,2.131c0,0.092,0.09,0.322,0.274,0.687l0.688-0.412
					l1.1-1.236l4.947-6.322l0.412-0.688c0.458-1.1,0.87-2.199,1.237-3.299c0.365-1.099,0.732-2.198,1.1-3.298
					c0.183-0.64,0.481-1.121,0.894-1.443c0.412-0.32,1.075-0.481,1.992-0.481c0.183,0,0.413-0.021,0.688-0.068
					c0.275-0.045,0.503-0.021,0.688,0.068c1.282,0,2.13,0.23,2.542,0.688c0.413,0.46,0.571,1.1,0.481,1.924
					c0,1.01-0.047,1.993-0.138,2.955c-0.092,0.962-0.229,1.948-0.412,2.955c-0.093,0.734-0.206,1.49-0.344,2.268
					c-0.138,0.78-0.298,1.536-0.48,2.268c-0.185,0.917-0.322,1.811-0.413,2.681c-0.092,0.872-0.185,1.765-0.274,2.68
					c-0.185,0.734-0.299,1.512-0.344,2.337c-0.047,0.824-0.116,1.604-0.206,2.336c0,0.367,0.045,0.688,0.138,0.962l0.412,3.573
					c0,0.093,0.045,0.161,0.138,0.207c0.09,0.047,0.137,0.115,0.137,0.206l0.55-0.275l6.598-10.583l2.886-3.985
					c0.183-0.365,0.275-0.595,0.275-0.688c0-0.09,0.183-0.389,0.55-0.893c0.364-0.503,0.777-1.076,1.236-1.719
					c0.458-0.64,0.87-1.213,1.237-1.718c0.365-0.502,0.55-0.801,0.55-0.893c0.274,0.274,0.365,0.803,0.274,1.58
					c-0.092,0.779-0.274,1.58-0.55,2.405c-0.274,0.824-0.528,1.649-0.756,2.474c-0.229,0.825-0.344,1.467-0.344,1.924
					c0,0.917-0.206,1.811-0.618,2.681c-0.412,0.872-0.894,1.741-1.443,2.611c-0.55,0.872-1.123,1.696-1.718,2.474
					C33.419,61.437,32.938,62.237,32.572,63.062z"/>
				<path fill="#9DD30D" d="M34.771,58.664c0.09-3.848,0.481-7.353,1.168-10.514c0.688-3.161,1.671-6.206,2.955-9.14
					c0.732-1.739,1.581-3.389,2.543-4.947c0.962-1.558,1.992-3.114,3.092-4.673c0.732-0.825,1.512-1.558,2.337-2.199
					c0.824-0.641,1.877-0.87,3.161-0.688c1.007,0.185,1.969,0.185,2.886,0c0.915-0.183,1.877-0.183,2.887,0
					c1.189,0.185,2.357,0.436,3.504,0.756c1.145,0.322,2.269,0.666,3.367,1.031c0.275,0,0.55,0.229,0.825,0.687
					c0.183,0.734,0.365,1.422,0.55,2.062c0.183,0.643,0.365,1.33,0.55,2.062c0.183,0.734,0.274,1.192,0.274,1.375
					c0,0.917-0.092,1.559-0.274,1.924c-0.185,0.367-0.392,0.666-0.619,0.894c-0.229,0.229-0.48,0.48-0.756,0.756
					c-0.185,0.185-0.412,0.138-0.687-0.138c-0.185-0.365-0.392-0.708-0.619-1.03c-0.229-0.32-0.436-0.664-0.618-1.031
					c-0.274-0.64-0.505-1.258-0.688-1.855c-0.185-0.595-0.412-1.168-0.687-1.718c-0.275-0.732-0.711-1.213-1.306-1.443
					c-0.598-0.228-1.261-0.434-1.993-0.618c-0.55-0.09-0.985,0.047-1.306,0.412c-0.322,0.367-0.618,0.734-0.894,1.1
					c-1.741,1.924-3.14,4.033-4.191,6.322c-1.055,2.291-1.993,4.628-2.817,7.009c-0.46,1.375-0.894,2.772-1.306,4.192
					c-0.412,1.422-0.619,2.91-0.619,4.467c0.091,1.009,0.069,1.992-0.068,2.955c-0.138,0.962-0.161,1.947-0.068,2.954
					c0,1.192,0.228,2.475,0.687,3.849c0.183,0.367,1.031,0.597,2.543,0.688c1.512,0.092,3.183-0.688,5.017-2.337
					c2.563-2.199,5.199-4.374,7.902-6.528c2.701-2.151,4.694-4.145,5.979-5.979c0.365-0.457,0.709-0.915,1.031-1.374
					c0.319-0.457,0.618-0.915,0.893-1.374c0.365-0.183,0.596-0.365,0.688-0.55c0.091,0.185,0.183,0.321,0.275,0.412
					c0.09,0.092,0.137,0.185,0.137,0.274c-0.092,0.46-0.137,0.94-0.137,1.443c0,0.505-0.093,0.94-0.275,1.306
					c-0.367,0.643-0.985,1.374-1.855,2.199c-0.872,0.824-1.811,1.673-2.817,2.542c-1.009,0.872-1.972,1.719-2.886,2.543
					c-0.917,0.824-1.56,1.559-1.925,2.199c-0.274,0.459-0.642,0.803-1.1,1.03c-0.459,0.23-0.871,0.573-1.236,1.031
					c-0.46,0.459-1.146,1.123-2.062,1.992c-0.917,0.872-2.017,1.742-3.299,2.611c-1.284,0.872-2.749,1.649-4.397,2.337
					c-1.649,0.688-3.392,1.031-5.223,1.031c-1.467,0.092-2.704-0.229-3.711-0.963c-1.01-0.731-1.879-1.694-2.611-2.886
					C35.32,62.65,34.588,60.498,34.771,58.664z"/>
				<path fill="#9DD30D" d="M82.048,65.398v0.413c-0.367,0-0.46,0.137-0.275,0.412c0.275,0.734,0.297,1.443,0.068,2.13
					c-0.229,0.688-0.48,1.398-0.756,2.131c-0.274,1.009-0.756,1.879-1.442,2.611c-0.688,0.734-1.398,1.467-2.131,2.198
					c-0.274,0.185-0.573,0.344-0.894,0.481c-0.321,0.138-0.618,0.299-0.893,0.481c-0.46,0.185-0.872,0.367-1.237,0.549
					c-0.367,0.186-0.779,0.367-1.237,0.55c-1.284,0.367-2.404,0.207-3.367-0.48c-0.962-0.688-1.535-1.671-1.718-2.955
					c-0.185-1.282-0.274-2.519-0.274-3.711c0-1.189-0.048-2.427-0.138-3.711v-1.786c0.09-1.282,0.183-2.588,0.274-3.917
					c0.091-1.327,0.229-2.633,0.413-3.917c0.183-1.558,0.389-3.138,0.618-4.742c0.228-1.602,0.481-3.183,0.756-4.741l0.138-0.138
					c0.274-1.1,0.319-2.014,0.138-2.748c0.09,0,0.137-0.046,0.137-0.138l1.237-8.109c0-0.457-0.048-0.869-0.138-1.236
					c-0.092-0.365-0.185-0.777-0.274-1.237c-0.185-0.732,0.09-1.1,0.824-1.1c0.457,0.093,0.915,0.161,1.374,0.206
					c0.458,0.048,0.915,0.069,1.375,0.069c0.55,0,0.915,0.137,1.1,0.412c0-0.09,0.045-0.138,0.137-0.138
					c0.091,0,0.183-0.045,0.275-0.138c0.09-0.182,0.138-0.502,0.138-0.962c0.09,0,0.158-0.021,0.206-0.068
					c0.045-0.045,0.113-0.068,0.206-0.068c0,0.092,0.021,0.16,0.068,0.206c0.045,0.047,0.069,0.115,0.069,0.206
					c0,0.092-0.093,0.229-0.275,0.412c-0.185,0.55-0.047,0.872,0.412,0.962c0.732,0.275,1.306,0.666,1.719,1.168
					c0.412,0.505,0.801,1.031,1.168,1.581c0.55,0.917,0.915,1.834,1.1,2.749c0.183,0.917,0.319,1.879,0.412,2.886
					c0,0.185-0.048,0.391-0.138,0.618c-0.092,0.23-0.185,0.437-0.274,0.619c-0.275,0.185-0.367,0.459-0.275,0.824v0.55
					c0.091,0.093,0.138,0.274,0.138,0.55c-0.093,0.092-0.185,0.597-0.275,1.512c-0.092,0.734-0.185,1.443-0.274,2.13
					c-0.093,0.688-0.229,1.398-0.412,2.131c-0.185,0.734-0.344,1.397-0.481,1.993c-0.138,0.597-0.298,1.26-0.48,1.992l-1.1,6.185
					c-0.185,0.55-0.322,1.123-0.412,1.718c-0.093,0.598-0.186,1.169-0.275,1.719v0.137c0,0.093-0.023,0.161-0.068,0.207
					c-0.048,0.047-0.069,0.115-0.069,0.206c-0.092,0.092-0.137,0.229-0.137,0.412c0,0.185,0.045,0.322,0.137,0.412l-0.137,0.138
					v0.274c0,0.275-0.024,0.528-0.069,0.756c-0.047,0.23-0.116,0.481-0.206,0.756l0.138,0.138l0.138-0.138
					c0.09-0.183,0.182-0.389,0.274-0.618c0.09-0.228,0.183-0.481,0.275-0.756h0.137c0-0.183,0.045-0.296,0.138-0.344
					c0.09-0.045,0.138-0.159,0.138-0.344c0.183-0.365,0.274-0.687,0.274-0.962v-0.138c0.458-1.007,0.894-1.992,1.306-2.954
					c0.412-0.963,0.847-1.946,1.306-2.955c0-0.275,0.091-0.412,0.275-0.412c0.183,0.185,0.319,0.274,0.412,0.274l0.274,0.55
					c0.365-0.09,0.503-0.068,0.413,0.068c-0.093,0.138-0.138,0.254-0.138,0.344c0,0.093-0.093,0.322-0.275,0.688
					c-0.185,0.642-0.298,1.284-0.344,1.924c-0.047,0.643-0.023,1.329,0.069,2.062C81.45,64.986,81.681,65.309,82.048,65.398z
					 M75.038,20.594l-2.062,0.275c-1.01,0.185-1.329,0.779-0.962,1.786c0.183,0.46,0.365,0.872,0.55,1.237
					c0.183,0.367,0.274,0.779,0.274,1.237c-0.092,1.374,0.458,2.542,1.649,3.504c1.189,0.963,2.474,1.398,3.849,1.306
					c0.732,0,1.351-0.158,1.855-0.48c0.502-0.32,0.846-0.846,1.03-1.581c0.458-2.106,0.183-3.938-0.824-5.497
					c-0.185-0.55-0.505-0.824-0.962-0.824c-0.734-0.183-1.443-0.365-2.131-0.55c-0.688-0.183-1.397-0.365-2.13-0.55L75.038,20.594z"
					/>
				<path fill="#9DD30D" d="M131.525,44.921c0.457-0.091,0.801-0.114,1.03-0.069c0.228,0.048,0.296,0.392,0.206,1.031
					c-0.274,2.384-1.1,4.628-2.474,6.734c-1.56,2.017-2.934,4.102-4.123,6.253c-1.192,2.154-2.109,4.422-2.749,6.804
					c-0.367,1.191-0.872,2.336-1.512,3.436c-0.643,1.1-1.191,2.246-1.649,3.437c-0.55,1.648-1.078,3.322-1.58,5.017
					c-0.505,1.696-1.031,3.414-1.581,5.153c-0.274,0.734-0.872,1.282-1.786,1.649c-1.375,0.824-2.887,1.512-4.536,2.062
					c-2.291,0.824-3.528-0.047-3.711-2.611c0-0.55-0.092-1.076-0.274-1.58c-0.185-0.503-0.274-1.031-0.274-1.581
					c-0.093-1.007-0.138-2.062-0.138-3.161s0-2.151,0-3.161l0.274-8.246c0-0.274,0.021-0.571,0.069-0.894
					c0.045-0.319,0.068-0.663,0.068-1.03c-0.367,0.274-1.01,0.597-1.924,0.962c-1.192,0.734-2.453,1.216-3.78,1.443
					c-1.329,0.229-2.68,0.253-4.054,0.068c-1.284-0.09-2.659-0.32-4.123-0.688c-0.917-0.09-1.697-0.365-2.337-0.824
					c-0.642-0.457-1.191-1.053-1.649-1.787c-2.108-3.206-3.253-6.504-3.436-9.896c-0.185-3.389,0.457-6.824,1.924-10.308
					c0.641-1.374,1.42-2.68,2.337-3.917c0.915-1.236,1.877-2.45,2.886-3.642c0.732-0.915,1.512-1.74,2.337-2.475
					c0.824-0.731,1.694-1.419,2.611-2.062c0.732-0.457,1.557-0.777,2.474-0.962c0.915-0.183,1.787-0.412,2.611-0.687
					c0.55-0.183,1.1-0.32,1.649-0.413c0.55-0.09,1.145-0.183,1.786-0.274c0.825-0.09,1.649-0.09,2.475,0
					c1.189,0.185,1.924,0.185,2.198,0c0.275-0.183,0.503-0.825,0.688-1.924c0.732-3.299,1.443-6.598,2.13-9.896
					c0.688-3.299,1.396-6.643,2.131-10.033c0.183-0.732,0.32-1.465,0.412-2.199c0.09-0.732-0.047-1.465-0.412-2.199
					c-0.275-0.365-0.322-0.732-0.138-1.1c0.183-0.364,0.55-0.64,1.1-0.824c1.189-0.183,2.337-0.344,3.436-0.481
					c1.1-0.137,2.244,0.024,3.437,0.481c0.365,0.093,0.663,0.274,0.894,0.55c0.228,0.274,0.434,0.55,0.618,0.824
					c0.64,1.56,0.962,3.116,0.962,4.673c0,1.56-0.092,3.116-0.274,4.673c-0.186,1.467-0.367,2.934-0.55,4.398
					c-0.185,1.467-0.367,2.979-0.55,4.535c0,0.275-0.093,0.412-0.275,0.412c-0.274,0.093-0.618,0.413-1.03,0.963
					s-0.528,0.917-0.344,1.099c0.183,0.093,0.32,0.093,0.412,0c0.09-0.09,0.228-0.137,0.412-0.137
					c0.183-0.183,0.412-0.275,0.688-0.275c0,0.185,0.021,0.322,0.068,0.412c0.046,0.093,0.021,0.23-0.068,0.413
					c-0.275,0.459-0.55,0.94-0.824,1.442c-0.275,0.505-0.505,0.986-0.688,1.443c-0.185,0.46-0.299,0.962-0.344,1.512
					c-0.047,0.55-0.161,1.055-0.344,1.512c-0.459,2.109-0.917,4.147-1.374,6.116c-0.46,1.972-0.825,4.01-1.1,6.116
					c-0.367,1.741-0.573,3.483-0.618,5.223c-0.048,1.741-0.161,3.483-0.344,5.223c-0.093,0.185-0.093,0.322,0,0.412
					c0.09,0.093,0.138,0.185,0.138,0.274l0.412-0.549c0.09-0.365,0.183-0.688,0.274-0.963c0.091-0.274,0.183-0.595,0.275-0.962
					l0.137,2.062l-0.274,3.986c-0.093,0.367-0.367,0.687-0.824,0.962l0.549-1.237c0-0.183-0.092-0.457-0.274-0.824
					c-0.093,0.185-0.206,0.298-0.344,0.344c-0.138,0.047-0.206,0.16-0.206,0.343c-0.185,0.643-0.299,1.261-0.344,1.855
					c-0.047,0.598-0.161,1.216-0.344,1.855c-0.092,0.55-0.206,1.1-0.343,1.649c-0.138,0.55-0.207,1.1-0.207,1.649
					c-0.092,0.367-0.068,0.734,0.069,1.1c0.138,0.367,0.206,0.734,0.206,1.1c0,0.459-0.047,0.734-0.138,0.824
					c-0.734,0.46-1.009,1.01-0.824,1.649c0.183,0.642,0.183,1.237,0,1.787c-0.093,0.092-0.048,0.229,0.137,0.412l0.275-0.138
					c-0.275-0.55-0.229-0.938,0.138-1.168c0.365-0.228,0.64-0.571,0.824-1.031c1.282-2.749,2.588-5.542,3.917-8.384
					c1.327-2.839,2.68-5.635,4.055-8.384c0.55-1.007,1.168-1.992,1.855-2.954c0.687-0.963,1.396-1.901,2.13-2.817
					c0.183-0.183,0.412-0.297,0.688-0.344c0.274-0.046,0.55-0.114,0.824-0.206c0,0.185-0.023,0.343-0.068,0.48
					C131.546,44.577,131.525,44.738,131.525,44.921z M94.691,63.475c-0.092,0-0.137,0.047-0.137,0.138
					c0,0.092,0.045,0.185,0.137,0.274c0-0.09,0.021-0.137,0.069-0.137c0.045,0,0.068-0.046,0.068-0.138
					C94.829,63.521,94.782,63.475,94.691,63.475z M96.753,53.991c0.275,1.01,0.503,2.04,0.688,3.093
					c0.183,1.055,0.457,2.085,0.824,3.092c0.275,1.192,0.915,1.33,1.925,0.413c1.281-1.008,2.381-2.107,3.298-3.299
					c0.915-1.189,1.74-2.474,2.475-3.849c0.457-1.007,0.962-2.014,1.512-3.023c0.55-1.007,0.914-2.015,1.1-3.023
					c0.457-2.199,0.777-4.398,0.962-6.597c0.183-2.199,0.412-4.443,0.687-6.734c0.183-0.365,0.183-0.732,0-1.1
					c-0.55-0.641-1.466-0.962-2.748-0.962c-1.284,0-2.199,0.274-2.749,0.824c-1.559,1.649-2.704,3.414-3.436,5.291
					c-0.734,1.879-1.33,3.827-1.787,5.842l-1.237,3.985c-0.274,1.009-0.528,2.017-0.756,3.023
					C97.279,51.978,97.028,52.984,96.753,53.991z M97.028,62.787v0.138h0.138L97.028,62.787z M109.123,78.593
					c0.182-0.64,0.412-1.282,0.687-1.924c0.275-0.641,0.412-1.327,0.412-2.062c0.091-1.282,0.091-2.52,0-3.711
					c-0.092-1.189-0.137-2.427-0.137-3.711c0-0.183-0.048-0.297-0.138-0.344c-0.093-0.045-0.185-0.159-0.275-0.344
					c-0.092,0.185-0.185,0.299-0.274,0.344c-0.093,0.047-0.138,0.161-0.138,0.344c-0.185,0.274-0.274,0.55-0.274,0.824
					c0,0.275-0.048,0.55-0.138,0.825c-0.734,1.467-1.055,2.934-0.962,4.397c0.09,1.467,0.183,2.934,0.274,4.398
					c0.091,0.185,0.159,0.299,0.206,0.344c0.046,0.047,0.114,0.161,0.207,0.344l0.274-0.825v-0.138c0,0.093,0.09-0.045,0.275-0.412
					c0.09,0.46,0.113,0.804,0.068,1.031C109.145,78.204,109.123,78.41,109.123,78.593z M119.155,53.854l-0.137-0.138l-0.138,0.138
					c0.09,0,0.138,0.047,0.138,0.137L119.155,53.854z M123.278,24.58c0-0.183-0.023-0.297-0.068-0.344
					c-0.047-0.045-0.068-0.114-0.068-0.206l-0.275,0.138c0,0.274,0.045,0.459,0.138,0.55
					C123.094,24.718,123.187,24.672,123.278,24.58z"/>
				<path fill="#9DD30D" d="M169.456,49.318c0.55-0.274,1.189-0.412,1.925-0.412c-0.186,0.367-0.275,0.734-0.275,1.1
					c0,0.46-0.185,0.894-0.55,1.306c-0.367,0.412-0.642,0.849-0.824,1.306c0,0.092-0.048,0.138-0.138,0.138
					c-0.46,1.559-1.306,2.703-2.543,3.436c-1.236,0.734-2.452,1.467-3.642,2.199c-0.734,0.459-1.49,0.779-2.268,0.962
					c-0.78,0.185-1.536,0.412-2.268,0.688c-0.735,0.092-1.422,0.137-2.062,0.137c-0.643,0-1.285,0.093-1.925,0.275
					c-0.824,0.274-1.467,0.803-1.924,1.58c-0.46,0.78-0.872,1.49-1.237,2.131c-0.459,0.734-0.872,1.353-1.236,1.855
					c-0.367,0.504-0.917,1.03-1.649,1.58c-1.284,1.01-2.59,2.04-3.917,3.093c-1.329,1.054-2.772,1.718-4.329,1.992
					c-2.934,0.55-5.683,0.048-8.247-1.512c-0.185-0.183-0.343-0.344-0.48-0.48c-0.138-0.138-0.299-0.297-0.481-0.481
					c-0.459-0.55-0.893-1.1-1.306-1.649c-0.412-0.55-0.756-1.145-1.03-1.786c-1.284-2.475-1.832-5.131-1.649-7.972
					c0-0.09,0.021-0.138,0.068-0.138c0.046,0,0.069-0.045,0.069-0.137c0-0.183,0.021-0.344,0.068-0.481
					c0.045-0.138,0.068-0.296,0.068-0.481v-0.137c0.091-0.458,0.138-1.053,0.138-1.787c0.091-0.09,0.138-0.183,0.138-0.274
					c0-0.091,0.045-0.138,0.138-0.138c0.09-0.275,0.183-0.526,0.274-0.756c0.091-0.228,0.138-0.481,0.138-0.756
					c0-0.183-0.047-0.275-0.138-0.275c0.365-1.557,0.732-3.137,1.1-4.741c0.365-1.602,0.824-3.183,1.374-4.741
					c0.915-2.382,1.855-4.764,2.817-7.147c0.963-2.381,2.313-4.58,4.055-6.597c0.458-0.457,0.938-0.87,1.443-1.237
					c0.502-0.364,0.983-0.777,1.443-1.236c0.55-0.458,1.121-0.962,1.718-1.512c0.595-0.55,1.258-0.777,1.993-0.688
					c0.549,0.092,1.03,0.322,1.442,0.688c0.412,0.367,0.847,0.642,1.306,0.824c0.183,0.093,0.389,0.185,0.619,0.275
					c0.228,0.092,0.434,0.092,0.618,0c0.824-0.275,1.671-0.435,2.542-0.481c0.87-0.045,1.719,0.023,2.543,0.206
					c0.915,0.275,1.832,0.779,2.749,1.512c0.365,0.367,0.663,0.756,0.894,1.168c0.228,0.413,0.525,0.849,0.893,1.306v0.275
					c-0.367,1.191-0.274,2.291,0.275,3.299c0.55,1.009,0.869,2.016,0.962,3.023c0.09,1.1,0.228,2.198,0.412,3.298
					c0.183,1.1,0.275,2.154,0.275,3.161c0,0.825-0.069,1.628-0.206,2.405c-0.138,0.779-0.299,1.535-0.481,2.268
					c0,0.185-0.023,0.344-0.068,0.481c-0.048,0.138-0.024,0.299,0.068,0.48c-0.185,0.186-0.367,0.598-0.55,1.237l-0.412,0.55
					c-0.46,0.734-0.734,1.512-0.825,2.337c-0.092,0.824-0.504,1.604-1.236,2.336c-0.185,0.093-0.254,0.275-0.206,0.55
					c0.045,0.274,0.113,0.505,0.206,0.688c0.274,0.274,0.595,0.322,0.962,0.137c0.55-0.182,1.076-0.412,1.58-0.687
					c0.503-0.275,0.984-0.55,1.443-0.825l3.161-2.198c0.457-0.365,0.894-0.709,1.306-1.031c0.412-0.32,0.846-0.618,1.306-0.894
					c0.457-0.457,0.824-0.64,1.1-0.55c0.732,0.275,1.237,0.206,1.512-0.206c0.275-0.412,0.55-0.846,0.824-1.306
					C169.409,49.778,169.456,49.594,169.456,49.318z M133.311,59.489c0.09,0.55,0.09,1.123,0,1.718
					c-0.093,0.597-0.138,1.216-0.138,1.855c0,0.092,0.09,0.229,0.274,0.412l0.413-0.55c0-0.457,0.021-0.894,0.068-1.306
					c0.045-0.412,0.296-0.801,0.756-1.168c-0.46,0.092-0.688,0.023-0.688-0.206c0-0.228,0-0.434,0-0.619l-0.274-0.549
					c-0.185-2.932-0.437-4.192-0.756-3.78C132.645,55.709,132.761,57.107,133.311,59.489z M133.311,64.574l-0.138,0.138l0.138,0.137
					V64.574z M133.86,67.048c0.731,1.649,1.648,2.062,2.748,1.237l-0.824-2.062l-0.55-1.1l-0.412,1.374
					c0,0.093,0.045,0.161,0.137,0.206c0.091,0.048,0.091,0.116,0,0.206c0,0.368-0.047,0.643-0.137,0.825l-0.55-0.412L133.86,67.048z
					 M134.547,59.901c0,0.092,0.021,0.161,0.069,0.206c0.045,0.047,0.068,0.161,0.068,0.344v-0.55H134.547z M136.884,68.835
					c0-0.091,0.045-0.138,0.138-0.138l-0.413-0.412L136.884,68.835z M149.115,60.451c0.458-0.458,0.365-0.825-0.274-1.1
					c-1.284-0.457-2.292-1.121-3.023-1.993c-0.734-0.869-1.33-1.855-1.787-2.955c-0.185-0.364-0.367-0.687-0.55-0.962l-0.412-1.236
					c0-0.091-0.047-0.183-0.138-0.275v-0.137c-1.1-4.674-1.1-9.392,0-14.156c0.091-0.183,0.138-0.413,0.138-0.688
					c-0.734,1.649-1.443,3.299-2.131,4.948c-0.687,1.648-1.305,3.346-1.854,5.085c-0.46,1.191-0.711,2.017-0.756,2.474
					c-0.048,0.46,0.021,1.329,0.206,2.611c0.09,0.55,0.228,1.078,0.412,1.58c0.183,0.505,0.045,1.031-0.412,1.581
					c-0.093,0.092-0.138,0.322-0.138,0.688c0.09,0.642,0.159,1.284,0.206,1.924c0.045,0.642,0.068,1.329,0.068,2.062
					c0.091,0.734,0.159,1.443,0.206,2.13c0.046,0.688,0.159,1.398,0.344,2.131c0.275,1.009,0.688,1.924,1.237,2.748
					c0.55,0.735,0.962,1.1,1.237,1.1c0.274,0,0.777-0.228,1.512-0.687c0.183-0.183,0.319-0.275,0.412-0.275
					c0.64,0.093,1.1-0.068,1.374-0.48c0.275-0.413,0.55-0.847,0.825-1.306L149.115,60.451z M150.902,57.428
					c0.09-0.183,0.045-0.503-0.138-0.962c-0.185-0.275-0.391-0.526-0.618-0.757c-0.229-0.228-0.437-0.48-0.619-0.756
					c-0.185-0.274-0.298-0.57-0.343-0.893c-0.048-0.32-0.161-0.571-0.344-0.756c-0.275-0.275-0.779-0.503-1.512-0.688
					c-0.093-0.09-0.206-0.068-0.344,0.068c-0.138,0.138-0.206,0.299-0.206,0.481c0,0.734,0.365,1.58,1.1,2.542
					c0.732,0.963,1.464,1.536,2.198,1.719C150.353,57.702,150.627,57.702,150.902,57.428z M147.191,51.38l0.274,0.275
					c-0.092,0-0.16,0.023-0.206,0.068c-0.047,0.048-0.115,0.069-0.206,0.069v0.137l0.412-0.274c0-0.091,0.021-0.159,0.069-0.206
					c0.045-0.046,0.068-0.114,0.068-0.206l-0.412-0.413l-0.274,0.138L147.191,51.38z M153.926,51.518
					c0.55-0.55,0.824-1.1,0.824-1.649c0-0.09-0.047-0.138-0.137-0.138c0.274-1.007,0.571-1.945,0.894-2.817
					c0.319-0.869,0.48-1.808,0.48-2.817c0.09-1.557,0.045-3.113-0.138-4.673c-0.185-1.557-0.274-3.113-0.274-4.673
					c0-1.007-0.229-1.786-0.688-2.336c-0.459-0.55-1.055-1.053-1.786-1.512c-1.834-1.008-2.887-0.55-3.161,1.374
					c-0.093,0.367-0.116,0.688-0.069,0.962c0.046,0.275,0.021,0.55-0.068,0.825l-0.962,4.123h-0.138
					c0.09,0.185,0.183,0.412,0.275,0.687c0.09,0.275,0.137,0.505,0.137,0.688v5.085c-0.092,1.1,0.069,2.154,0.481,3.161
					c0.412,1.01,0.709,2.017,0.894,3.023v0.413c0,0.55,0.09,0.962,0.274,1.236l-0.412,0.275v0.412
					c0.732-0.275,1.076-0.159,1.03,0.344c-0.047,0.504,0.069,0.848,0.344,1.03h0.688l1.1-2.199L153.926,51.518z"/>
			</g>
			<g>
				<path fill="#9DD30D" d="M46.249,9.972c0.048,0.009-0.072-0.27-0.085-0.322C46.121,9.739,46.278,10.045,46.249,9.972z"/>
				<polygon fill="#9DD30D" points="45.856,10.876 45.821,10.756 45.839,11.077 				"/>
				<path fill="#9DD30D" d="M45.259,11.113c0.248,0.457,0.184-0.165,0.358-0.037l0.061,0.102l-0.104-0.406
					C45.468,10.887,45.403,11.211,45.259,11.113z"/>
				<path fill="#9DD30D" d="M44.521,10.209c0.097,0.179-0.005,0.189,0.099,0.028c-0.015-0.019-0.021-0.028-0.033-0.042
					C44.576,10.203,44.558,10.211,44.521,10.209z"/>
				<path fill="#9DD30D" d="M44.587,10.195C44.646,10.156,44.482,10.055,44.587,10.195L44.587,10.195z"/>
				<path fill="#9DD30D" d="M44.338,10.423l0.016-0.2c-0.063-0.104-0.148-0.098-0.153-0.188
					C44.15,10.16,44.214,10.262,44.338,10.423z"/>
				<path fill="#9DD30D" d="M44.401,10.803l0.015-0.088C44.39,10.673,44.371,10.66,44.401,10.803z"/>
				<path fill="#9DD30D" d="M44.446,10.529l-0.03,0.186c0.044,0.071,0.108,0.228,0.02-0.07
					C44.486,10.788,44.448,10.645,44.446,10.529z"/>
				<path fill="#9DD30D" d="M44.528,10.581c0.09,0.085,0.176,0.125,0.16,0.325C44.821,10.775,44.661,10.448,44.528,10.581z"/>
				<path fill="#9DD30D" d="M45.427,11.621l0.118,0.116l-0.012-0.182C45.539,11.646,45.363,11.474,45.427,11.621z"/>
				<path fill="#9DD30D" d="M43.712,10.389c0.037,0.104,0.141,0.259,0.202,0.386l0.014-0.142
					C43.866,10.576,43.778,10.538,43.712,10.389z"/>
				<path fill="#9DD30D" d="M43.914,10.774l-0.019,0.212C43.986,10.974,43.966,10.885,43.914,10.774z"/>
				<polygon fill="#9DD30D" points="44.605,11.339 44.604,10.91 44.579,11.355 				"/>
				<polygon fill="#9DD30D" points="43.351,10.522 43.304,10.267 43.361,10.658 				"/>
				<path fill="#9DD30D" d="M43.133,10.658c-0.044-0.208-0.194-0.304-0.205-0.439c-0.05,0.062-0.032,0.25-0.017,0.419
					C42.928,10.533,42.992,10.531,43.133,10.658z"/>
				<path fill="#9DD30D" d="M42.924,10.888c0.005-0.056-0.003-0.15-0.013-0.25C42.903,10.693,42.903,10.77,42.924,10.888z"/>
				<path fill="#9DD30D" d="M43.718,11c-0.033-0.058-0.115-0.212-0.196-0.258l0.158,0.27L43.718,11z"/>
				<path fill="#9DD30D" d="M43.685,11.02l-0.005-0.008c-0.044,0.008-0.073,0.013-0.085,0.016
					C43.604,11.026,43.633,11.023,43.685,11.02z"/>
				<path fill="#9DD30D" d="M43.728,10.998L43.718,11C43.732,11.027,43.739,11.035,43.728,10.998z"/>
				<path fill="#9DD30D" d="M44.259,11.179c0.013,0.182-0.027,0.398,0.184,0.598C44.399,11.564,44.278,11.451,44.259,11.179z"/>
				<path fill="#9DD30D" d="M43.923,11.335l0.125,0.025c-0.033-0.074-0.098-0.177-0.104-0.267L43.923,11.335z"/>
				<polygon fill="#9DD30D" points="43.914,11.444 43.923,11.335 43.877,11.326 				"/>
				<path fill="#9DD30D" d="M43.208,11.084c0.012,0.141-0.03,0.17-0.073,0.212c0.081,0.033,0.15,0.039,0.206,0.016
					C43.309,11.219,43.264,11.049,43.208,11.084z"/>
				<path fill="#9DD30D" d="M43.45,11.078l-0.002,0.02C43.465,11.12,43.473,11.126,43.45,11.078z"/>
				<path fill="#9DD30D" d="M42.631,11.521c0.01,0.015,0.021,0.032,0.03,0.048l-0.019-0.05L42.631,11.521z"/>
				<path fill="#9DD30D" d="M43.372,11.36c0.066,0.038,0.061-0.042,0.047-0.14c-0.02,0.042-0.043,0.074-0.078,0.091
					C43.354,11.354,43.365,11.38,43.372,11.36z"/>
				<path fill="#9DD30D" d="M42.839,11.08c0.047,0.049,0.095,0.09,0.141,0.125C42.919,11.124,42.813,11.004,42.839,11.08z"/>
				<path fill="#9DD30D" d="M43.399,11.025l0.002-0.016C43.36,10.955,43.376,10.984,43.399,11.025z"/>
				<path fill="#9DD30D" d="M43.399,11.025c-0.003,0.05,0.01,0.127,0.02,0.195c0.016-0.031,0.027-0.072,0.029-0.123
					C43.437,11.078,43.417,11.051,43.399,11.025z"/>
				<path fill="#9DD30D" d="M43.293,13.401c-0.11-0.264-0.112-0.556,0.104-0.317c0.002-0.238-0.44-1.07-0.735-1.516
					c0.049,0.115,0.096,0.221,0.072,0.42c0.096,0.127,0.355,0.236,0.383,0.51c-0.062,0.192-0.143-0.046-0.264-0.156
					c0.196,0.303,0.057,0.547,0.3,1.014l0.03-0.219C43.218,13.21,43.233,13.349,43.293,13.401z"/>
				<path fill="#9DD30D" d="M42.853,11.512l0.024-0.051c-0.065-0.025-0.143-0.114-0.292-0.292c-0.008,0.158,0.022,0.261,0.058,0.35
					l0.205-0.052L42.853,11.512z"/>
				<path fill="#9DD30D" d="M43.05,11.381c0.095,0.297,0.057,0.462,0.25,0.743c0.104-0.069-0.025-0.271-0.011-0.424
					c-0.156,0.146-0.017-0.182-0.224-0.287c0.016-0.065,0.042-0.093,0.069-0.117c-0.05-0.021-0.102-0.05-0.155-0.091l0.013,0.016
					l0,0l0.002,0.003c0.024,0.032,0.036,0.054,0.019,0.037l-0.002,0.007c0.015,0.041,0.027,0.077,0.038,0.111
					c-0.079-0.036-0.04-0.07-0.038-0.111l-0.017-0.044l-0.002-0.003l-0.115,0.24C42.934,11.482,42.977,11.451,43.05,11.381z"/>
				<path fill="#9DD30D" d="M44.603,12.434c-0.016-0.023-0.024-0.043-0.033-0.063C44.572,12.409,44.577,12.435,44.603,12.434z"/>
				<path fill="#9DD30D" d="M44.454,12.291c-0.004-0.045-0.041-0.165,0.016-0.152c0.074,0.07,0.058,0.137,0.1,0.231
					c-0.006-0.087,0.005-0.245-0.137-0.35l0.004,0.044c-0.116-0.068-0.365-0.387-0.367-0.431
					C44.2,11.882,44.298,12.059,44.454,12.291z"/>
				<path fill="#9DD30D" d="M43.783,11.909l-0.094,0.204l0.186,0.215l-0.067-0.146C43.92,12.203,43.821,12.027,43.783,11.909z"/>
				<polygon fill="#9DD30D" points="42.55,11.388 42.436,11.078 42.537,11.543 				"/>
				<polygon fill="#9DD30D" points="42.367,11.516 42.257,11.252 42.275,11.434 				"/>
				<path fill="#9DD30D" d="M33.139,20.199l-0.006,0.096C33.142,20.262,33.142,20.23,33.139,20.199z"/>
				<path fill="#9DD30D" d="M33.459,20.052l-0.058-0.129C33.422,20,33.443,20.054,33.459,20.052z"/>
				<path fill="#9DD30D" d="M37.563,13.891c-0.187-0.205-0.447-0.537-0.293-0.254l0.163,0.268
					C37.453,13.832,37.503,13.846,37.563,13.891z"/>
				<path fill="#9DD30D" d="M35.225,17.231l0.063,0.075c-0.035-0.104-0.068-0.199-0.101-0.288
					C35.2,17.085,35.212,17.156,35.225,17.231z"/>
				<path fill="#9DD30D" d="M35.79,18.402l-0.178-0.135C35.664,18.318,35.722,18.365,35.79,18.402z"/>
				<path fill="#9DD30D" d="M31.577,21.389l0.096,0.311C31.752,21.655,31.643,21.531,31.577,21.389z"/>
				<path fill="#9DD30D" d="M40.385,12.573c-0.109-0.085-0.178-0.11-0.223-0.106C40.309,12.598,40.481,12.816,40.385,12.573z"/>
				<path fill="#9DD30D" d="M31.709,17.188c0,0.064,0.02,0.127,0.052,0.188C31.763,17.313,31.75,17.253,31.709,17.188z"/>
				<path fill="#9DD30D" d="M39.999,12.544c0.026,0.022,0.04,0.034,0.062,0.054c0.019-0.066,0.042-0.124,0.101-0.131
					C40.054,12.37,39.959,12.323,39.999,12.544z"/>
				<path fill="#9DD30D" d="M25.062,24.201c-0.012-0.01-0.018-0.016-0.03-0.028C25.048,24.213,25.054,24.213,25.062,24.201z"/>
				<path fill="#9DD30D" d="M21.99,22.038c0.012-0.026,0.04-0.038,0.066-0.054C22.036,21.97,22.014,21.98,21.99,22.038z"/>
				<path fill="#9DD30D" d="M41.512,11.766C41.545,11.729,41.504,11.731,41.512,11.766L41.512,11.766z"/>
				<path fill="#9DD30D" d="M42.235,12.798c0.006,0.036,0.019,0.08,0.047,0.146C42.254,12.874,42.239,12.828,42.235,12.798z"/>
				<path fill="#9DD30D" d="M40.447,14.498h-0.005C40.483,14.547,40.476,14.537,40.447,14.498z"/>
				<path fill="#9DD30D" d="M41.634,11.865c-0.031-0.027-0.062-0.048-0.092-0.059C41.561,11.824,41.59,11.844,41.634,11.865z"/>
				<path fill="#9DD30D" d="M41.564,11.734c0.021,0.005,0.035,0.009,0.05,0.011C41.598,11.695,41.578,11.668,41.564,11.734z"/>
				<path fill="#9DD30D" d="M41.46,11.809c0.021-0.016,0.05-0.013,0.082-0.002c-0.018-0.016-0.028-0.029-0.03-0.041
					C41.501,11.776,41.486,11.79,41.46,11.809z"/>
				<path fill="#9DD30D" d="M28.167,21.868c-0.009-0.008-0.014-0.012-0.023-0.022C28.158,21.982,28.168,21.955,28.167,21.868z"/>
				<polygon fill="#9DD30D" points="38.008,17.324 38.005,17.309 37.995,17.303 				"/>
				<path fill="#9DD30D" d="M37.972,17.608c-0.119-0.379-0.062-0.354,0.023-0.306l-0.468-0.777L37.972,17.608z"/>
				<path fill="#9DD30D" d="M32.435,20.675l0.232,0.195c0.092,0.477-0.07,0.382,0.209,0.683c-0.441-0.878,0.35-0.299-0.093-1.176
					l0.164,0.147c-0.024,0.002,0,0.056-0.024,0.056c0.35,0.348-0.232-0.68,0-0.646c0.094,0.036,0.202,0.14,0.216,0.265l0.018-0.283
					c0.046-0.003,0.116,0.152,0.069,0.155l0.163-0.174l0.013,0.025c-0.044-0.151-0.092-0.396-0.107-0.503
					c0.117,0.099,0.024,0.105,0.094,0.208v-0.27c0.163,0.202,0.187,0.468,0.094,0.477c0.561,0.813-0.024-0.267,0.466,0.122
					l-0.046,0.165c0.327,0.458,0.314,0.235,0.596,0.48c-0.114-0.146-0.646-0.649-0.641-0.93c0.068,0.049,0.129,0.056,0.102-0.153
					c0.163,0.309,0.187,0.199,0.256,0.141l0.212,0.411c0.022-0.163-0.095-0.367-0.142-0.578c0.115-0.011,0.304,0.296,0.468,0.551
					c0.188-0.016-0.374-0.452-0.235-0.624c0.209,0.089,0.21-0.125,0.23-0.449c0.164,0.093,0.119,0.258,0.213,0.357l-0.096-0.367
					c0.023-0.002,0.07,0.101,0.094,0.153c-0.001-0.161-0.211-0.411-0.166-0.577c-0.211-0.465,0.562,0.544,0.418-0.033
					c0.094,0.099,0.118,0.258,0.213,0.41c-0.004-0.428,0.02-0.323-0.076-0.85l0.266,0.203c-0.253-0.26-0.332-0.684-0.388-1.036
					c-0.11-0.132-0.206-0.247-0.259-0.3l0.045-0.304c0.057,0.058,0.114,0.206,0.177,0.391c-0.007-0.039-0.014-0.078-0.021-0.114
					c0.137,0.121,0.232,0.373,0.312,0.623c-0.062-0.07-0.127-0.146-0.191-0.221c0.09,0.269,0.199,0.563,0.336,0.799
					c-0.015-0.054-0.017-0.104-0.007-0.139c0.024,0.072,0.051,0.137,0.077,0.176c0.028,0.039-0.003-0.061-0.031-0.178l0.278,0.436
					l-0.087-0.186l0.36,0.174c-0.092-0.54-0.317-1.283-0.177-1.6c0.116,0.365,0.275,0.553,0.481,0.951
					c-0.287-0.385-0.091,0.276-0.26,0.257c0.087,0.009,0.174,0.206,0.191,0.28l0.02-0.498c0.166,0.327,0.176,0.219,0.304,0.322
					c-0.382-0.618-0.061-0.516-0.074-0.76c0.12,0.213,0.213,0.444,0.076,0.45c0.376,0.418-0.239-0.835,0.095-0.488
					c-0.023,0.019-0.056-0.007-0.008,0.108c-0.038-0.225,0.194-0.154,0.257,0.053l-0.024,0.019c0.218-0.019,0.544-0.282,0.286-0.842
					c0.038,0.07,0.32,0.67,0.367,0.786l-0.643-2.003c0.217,0.482,0.907,1.54,0.898,1.884c0.077,0.045,0.171,0.094,0.174-0.117
					c-0.063-0.052-0.426-0.64-0.41-0.704c0.383,0.467,0.223,0.241,0.588,0.618c-0.095-0.079-0.43-0.838-0.349-0.851
					c0.046,0.116,0.383,0.724,0.397,0.812l-0.202-0.81c0.023,0.152,0.31,0.616,0.453,0.802c-0.091-0.133,0.153-0.062,0.163-0.157
					l-0.16-0.131c0.25,0.012-0.332-1.113-0.119-1.175c0.052,0.162,0.414,0.95,0.558,0.991c-0.146-0.393-0.714-1.885-0.688-2.259
					l0.141,0.196l0.011-0.309c0.199,0.601,0.569,1.893,0.681,2.412c0.157,0.132,0.147,0.24,0.245,0.167
					c0.14,0.179,0.096,0.33,0.069,0.358l0.316,0.001c-0.231-0.428-0.03-0.533-0.222-0.888l-0.045,0.588
					c-0.232-0.428-0.469-1.312-0.25-1.327c0.135,0.149,0.357,0.79,0.435,0.933c-0.054-0.16,0.025-0.371,0.095-0.274l0.043,0.271
					c0.18,0.113-0.129-0.658,0.197-0.304c0.056,0.006,0.404,0.497,0.281,0.237c-0.313-0.463-1.098-1.991-1.239-2.386
					c0.031,0.025,0.458,0.362,0.627,0.583c0.262,0.355,0.36,0.979,0.585,1.285c-0.057-0.12-0.092-0.286-0.1-0.341
					c0.094,0.079,0.166,0.377,0.232,0.275c-0.204-0.449,0.21-0.06-0.141-0.396c0.029-0.173,0.143,0.041,0.241-0.033
					c-0.176-0.268-0.384-1.022-0.353-1.195c0.051,0.116,0.144,0.251,0.187,0.313c0.209-0.061,0.413,0.099,0.594,0.017
					c0.068,0.1,0.219,0.189,0.274,0.397c-0.013-0.09-0.062-0.252-0.012-0.289c0.292,0.335-0.094,0.118,0.21,0.542
					c-0.117-0.262-0.03-0.423-0.029-0.622c-0.215-0.387-0.219,0.01-0.219,0.207c-0.267-0.55-0.406-1.189-0.339-1.533
					c0.086-0.207,0.236,0.326,0.225,0.234c0.329-0.035-0.215-1.076,0.21-0.789c0.259,0.309,0.334,0.698,0.474,0.942
					c-0.059,0.19-0.293-0.136-0.369-0.082l0.181,0.118c0.017,0.136-0.023,0.263-0.116,0.181c0.229,0.28,0.505-0.161,0.857,0.03
					c-0.017-0.137-0.006-0.29-0.104-0.418l-0.045,0.082c-0.196-0.255-0.054-0.454-0.201-0.546c-0.001-0.244-0.042-0.607,0.164-0.509
					l0.21,0.393c-0.058-0.117-0.197-0.2-0.177-0.061c-0.028-0.204,0.45,0.452,0.268-0.104l-0.219-0.236
					c0.001-0.246-0.077-0.73,0.099-0.657c-0.234-0.374-0.008,0.058-0.303-0.37c0.336,0.547-0.311,0.117,0.084,0.672
					c-0.334-0.501-0.253-0.16-0.578-0.569c0.065,0.132,0.158,0.236,0.029,0.217c0.01,0.042,0.023,0.095,0.031,0.128l-0.012-0.008
					l0.014,0.014c0.004,0.022,0.006,0.025,0.004,0.005c0.051,0.047,0.102,0.107,0.144,0.179c0.093,0.327-0.067,0.391-0.047,0.572
					c-0.087-0.035-0.046-0.163-0.144-0.29l0.031,0.272c-0.146-0.291-0.384-0.417-0.327-0.653l-0.13,0.046
					c-0.15-0.131-0.282-0.149-0.286,0.004c-0.089-0.037,0.007,0.394-0.051,0.14l-0.108,0.272l-0.037-0.073
					c-0.21,0.055-0.16,0.671-0.635,0.245c-0.028,0.104-0.051,0.225-0.2,0.192l-0.144-0.242c-0.041,0.126-0.369-0.13-0.275,0.15
					c-0.422-0.634-0.466,0.053-0.669,0.005l0.159,0.331c-0.108,0.031-0.156,0.173-0.211,0.366l0.153,0.285
					c0.016,0.291-0.372-0.069-0.522,0.045c-0.045-0.116,0.012-0.109,0.075-0.057c-0.53-0.553-0.176,0.687-0.598,0.303
					c0.01,0.128-0.041,0.108-0.11,0.052c0.004-0.003,0.006-0.011,0.004-0.021c-0.006-0.001-0.014,0.002-0.02,0.007
					c-0.045-0.04-0.098-0.085-0.141-0.123c0.054,0.062,0.102,0.11,0.131,0.128c-0.031,0.024-0.065,0.087-0.08,0.185l-0.181-0.299
					c-0.002,0.007-0.006,0.008-0.008,0.016c-0.108-0.09,0.036,0.167,0.183,0.387c0,0.063,0.008,0.137,0.028,0.221
					c-0.298-0.479-0.046,0.236-0.378-0.269c0.1,0.278-0.156,0.327,0.102,0.887c-0.039-0.07-0.072-0.097-0.047-0.114
					c-0.089-0.035-0.179-0.066-0.149,0.112l-0.229-0.38l0.152,0.592c-0.199-0.2-0.303-0.323-0.387-0.663
					c0.064,0.559-0.053,0.251,0.036,0.792l-0.126-0.259c-0.049,0.04,0.042,0.425-0.1,0.233c-0.375-0.418-0.635,0.251-1.183-0.031
					c0.453,0.713-0.322-0.258-0.03,0.326c-0.11-0.166-0.206-0.242-0.237-0.422c-0.067,0.257-0.388-0.153-0.239,0.393
					c-0.111-0.168-0.103-0.277-0.174-0.373c0.007,0.044,0.029,0.18-0.043,0.084c-0.071-0.097-0.054-0.16-0.069-0.251
					c-0.147,0.116,0.124,0.668,0.382,1.185c-0.211-0.198-0.233-0.143-0.114,0.224c-0.118-0.152-0.258-0.302-0.188-0.415
					c-0.07,0.006-0.479-0.061-0.266,0.352c-0.072-0.094-0.096,0.012-0.086,0.066c-0.141,0.044-0.171,0.013-0.275,0.117l0.07,0.049
					c0.213,0.518-0.046,0.164-0.114,0.277l-0.024-0.053c-0.419-0.232-0.009,0.223-0.451-0.062l0.175,0.301
					c0.33,0.67-0.407-0.282-0.406,0.039l0.142,0.149c0.047,0.265-0.677-0.789-0.793-0.834c-0.046-0.048-0.023-0.104-0.023-0.158
					c-0.396-0.289,0.188,0.414,0.096,0.582c-0.14-0.203-0.258-0.568-0.373-0.56c-0.141-0.149,0.097,0.85-0.252,0.503
					c0.116,0.152,0.232,0.304,0.233,0.464c-0.069,0.113-0.604-0.488-0.417,0.087c-0.037-0.038-0.065-0.08-0.088-0.121
					c-0.004,0.177-0.13,0.358-0.026,0.668c-0.627-1.023-0.206,0.77-0.718-0.211l-0.208,0.178l-0.046-0.103
					c-0.186,0.014-0.115,0.273-0.047,0.537c-0.07-0.05-0.092-0.153-0.115-0.206c-0.324-0.086-0.324-0.033-0.256,0.55L30.16,18.48
					c0.046,0.211-0.575-0.338-0.602,0.146c-0.017-0.038-0.044-0.103-0.05-0.155c-0.054,0.5-1.031-0.592-0.531,0.62l-0.016,0.369
					c0.254-0.016,0.223,0.521,0.406,0.671c-0.05,0.112-0.391-0.243-0.318-0.354l0.044,0.049c-0.269-0.626-0.367-0.082-0.568-0.5
					c-0.396,0.238-0.96,0.108-1.36,0.256l0.276,0.456l-0.149,0.035c-0.09-0.094-0.227-0.351-0.122-0.375
					c-0.181-0.246-0.053,0.302-0.005,0.406c-0.282-0.104-0.193-0.591-0.258-0.575l-0.061,0.073l0.044,0.047
					c0.03,0.226,0.124,0.435-0.004,0.466c-0.118-0.062-0.178-0.278-0.216-0.283c-0.016-0.033-0.033-0.045-0.051,0.008l-0.188,0.038
					l0.247,0.347c0.013,0.221-0.17,0.054,0.111,0.445c-0.428-0.605-0.749,0.061-0.915-0.111c0.021,0.326-0.086,0.371-0.231,0.398
					c0.068,0.063,0.283,0.482,0.146,0.482c-0.36-0.9-0.38-0.287-0.757-0.88c0.271,0.383-0.269,0.252,0.126,0.793
					c-0.126-0.028-0.154-0.329-0.317-0.505c-0.068,0.453-0.59-0.008-0.814,0.221c0.045,0.119,0.169,0.278,0.186,0.479l-0.398-0.526
					c-0.03,0.081,0.237,0.697-0.036,0.332c0.057,0.093,0.141,0.232,0.119,0.285c-0.78-0.351-0.931,0.93-1.91,0.072
					c0.164,0.198,0.124,0.241,0.069,0.274c0.058,0.04,0.113,0.293,0.183,0.451l-0.404-0.352c0.129,0.465-0.236,0.131-0.099,0.569
					l0.045-0.106c0.092,0.545,0.564,1.064,0.798,1.719c-0.109-0.619,0.625,0.726,0.495-0.17c0.092,0.114,0.046,0.222,0.126,0.362
					c-0.061-0.296-0.027-0.377,0.128-0.296l0.015,0.073c0.271-0.188,0.507,0.03,0.917,0.074l-0.155-0.308
					c0.089,0.014,0.146,0.106,0.212,0.172c-0.116-0.514-0.214,0.057-0.355-0.505c0.36,0.605,0.508-0.196,0.879,0.508
					c0.113-0.042-0.187-0.353-0.074-0.394l0.114,0.186l-0.081-0.267c0.09,0.013,0.231,0.244,0.306,0.409
					c-0.025-0.012-0.03,0.068-0.042,0.09c0.193,0.194,0.232-0.188,0.298-0.126l-0.159-0.077c0.223-0.309,0.709-0.199,0.812-0.736
					l-0.088-0.138c0.095-0.374,0.247,0.081,0.428-0.157l0.006,0.039c-0.018-0.169,0.012-0.272,0.084-0.285
					c0.019,0.2,0.267,0.281,0.274,0.509c0.102-0.402,0.013-0.284-0.084-0.901l0.146,0.227c-0.049-0.245-0.098-0.363-0.009-0.481
					c0,0.254,0.247,0.335,0.267,0.662c0.497,0.415,0.118-0.71,0.598,0.013c-0.202-0.724-0.392-0.271-0.396-0.445
					c-0.155-0.194-0.141-0.547-0.033-0.515c0.086-0.022,0.541,0.796,0.735,0.689c-0.021,0.005,0.002,0.057-0.019,0.062
					c0.155,0.137,0.035-0.299,0.261-0.064c-0.144-0.43,0.13-0.033-0.104-0.557l-0.124,0.205c0.038-0.184-0.156-0.832,0.155-0.62
					c0.038,0.111,0.053,0.271,0.056,0.364c0.123,0.128,0.047-0.146,0.174-0.014c0.236,0.522-0.168,0.216-0.09,0.662
					c0.158,0.191,0.03-0.474,0.244,0.113c-0.264-0.749,0.242-0.005,0.114-0.61l0.142,0.313c-0.003-0.059-0.029-0.226,0.015-0.236
					l0.124,0.433c-0.058-0.392,0.359,0.2,0.371-0.039c-0.211,0.119-0.23-0.346-0.434-0.525c0.064-0.545,0.551,0.728,0.777,0.429
					c-0.018,0.063-0.244-0.107-0.251-0.282c0.089,0.034,0.223,0.114,0.338,0.258c0.166-0.166-0.188-0.301-0.198-0.533
					c0.254,0.341,0.021-0.201,0.048-0.365l0.157,0.312c0.324,0.085-0.266-0.682,0.058-0.542l0.132,0.476l0.05-0.166l0.155,0.367
					c-0.017-0.322,0.053-0.272,0.217-0.229c-0.137-0.207-0.271-0.574-0.178-0.635c0.163,0.151,0.112,0.315,0.231,0.198
					c0.066,0.212,0.155,0.475-0.051,0.219c0.038,0.108,0.073,0.21,0.11,0.315c0.182,0.176,0.21-0.046,0.26-0.074
					c-0.025-0.002-0.059-0.007-0.093-0.045l-0.013-0.535c0.091,0.101,0.112,0.207,0.135,0.312c0.024-0.055-0.02-0.212,0.027-0.27
					c0.113,0.261,0.25,0.52,0.224,0.683l0.054-0.38c0.068,0.103,0.254,0.25,0.275,0.355c0.186,0.094,0.017-0.625,0.262-0.502
					c-0.018-0.053-0.026-0.108-0.016-0.159c0.165-0.011,0.445,0.235,0.427-0.191l0.325,0.405c0.072-0.167-0.419-0.505-0.299-0.782
					c0.073-0.219,0.257,0.356,0.374,0.456c-0.048-0.267-0.163-0.795,0.162-0.499C32.528,20.668,32.458,20.62,32.435,20.675z
					 M33.851,19.669c0.004,0.08,0.051,0.312-0.066,0.141C33.632,19.438,33.746,19.595,33.851,19.669z M35.762,17.706
					c0.031,0.113-0.028,0.082-0.129-0.016C35.647,17.65,35.685,17.646,35.762,17.706z M41.171,12.24l0.003,0.016
					C41.047,12.165,41.095,12.202,41.171,12.24z M41.376,12.31c-0.006-0.05-0.027-0.095-0.053-0.136
					c0.026,0.084-0.003,0.105-0.049,0.1C41.323,12.353,41.367,12.4,41.376,12.31z M26.712,19.956l0.065,0.069
					C26.761,20.145,26.738,20.056,26.712,19.956z"/>
				<path fill="#9DD30D" d="M35.726,18.267c-0.037-0.048-0.07-0.104-0.102-0.161C35.64,18.163,35.671,18.224,35.726,18.267z"/>
				<polygon fill="#9DD30D" points="31.56,21.33 31.554,21.33 31.577,21.389 				"/>
				<path fill="#9DD30D" d="M40.515,16.008c-0.05-0.031-0.095-0.08-0.135-0.134C40.417,15.951,40.462,16.009,40.515,16.008z"/>
				<path fill="#9DD30D" d="M41.883,11.418l-0.054,0.126c0.036-0.036,0.084,0.024,0.129,0.065
					C41.923,11.535,41.855,11.438,41.883,11.418z"/>
				<path fill="#9DD30D" d="M43.554,13.021c-0.005-0.046,0.025-0.018,0.021-0.063l-0.069-0.147
					C43.453,12.847,43.468,12.984,43.554,13.021z"/>
				<path fill="#9DD30D" d="M42.447,12.434c0.13,0.265,0.145,0.147,0.185,0.068c-0.004,0.003-0.006,0.006-0.011,0.005
					C42.471,12.123,42.458,12.279,42.447,12.434z"/>
				<path fill="#9DD30D" d="M42.643,12.485c0.014-0.021,0.031-0.036,0.056-0.034C42.638,12.299,42.659,12.432,42.643,12.485z"/>
				<path fill="#9DD30D" d="M41.476,12.049c0.061,0.056-0.141-0.349-0.072-0.248C41.279,11.445,41.392,12.306,41.476,12.049z"/>
				<polygon fill="#9DD30D" points="42.898,13.291 42.727,12.973 42.812,13.254 				"/>
				<path fill="#9DD30D" d="M42.293,13.281l0.143,0.043c-0.026-0.055-0.029-0.092-0.024-0.125
					C42.344,13.218,42.246,13.184,42.293,13.281z"/>
				<path fill="#9DD30D" d="M42.411,13.199c0.034-0.008,0.062-0.029,0.055-0.092C42.45,13.119,42.418,13.146,42.411,13.199z"/>
				<polygon fill="#9DD30D" points="42.807,13.454 42.746,13.399 42.664,13.408 				"/>
				<path fill="#9DD30D" d="M41.185,13.722l-0.062,0.145c0.041,0.117,0.104,0.173,0.124,0.108
					C41.234,13.885,41.255,13.822,41.185,13.722z"/>
				<path fill="#9DD30D" d="M41.942,14.465c-0.062-0.055-0.099-0.127-0.166-0.228l0.188,0.407L41.942,14.465z"/>
				<path fill="#9DD30D" d="M41.671,14.706c0.043,0.117-0.002,0.396,0.123,0.307C41.751,14.896,41.814,14.753,41.671,14.706z"/>
				<polygon fill="#9DD30D" points="39.8,14.99 39.824,14.971 39.491,14.313 				"/>
				<path fill="#9DD30D" d="M39.183,17.281c0.206,0.094-0.179-0.42,0.036-0.281c-0.05-0.17-0.176-0.113-0.214-0.262
					C39.013,16.939,38.926,16.868,39.183,17.281z"/>
				<path fill="#9DD30D" d="M39.005,16.738c-0.001-0.033-0.004-0.07-0.013-0.119C38.992,16.672,38.997,16.707,39.005,16.738z"/>
				<polygon fill="#9DD30D" points="21.546,21.793 21.409,21.683 21.55,21.893 				"/>
				<path fill="#9DD30D" d="M21.58,22.369l-0.185-0.433l0.1,0.419C21.507,22.328,21.528,22.276,21.58,22.369z"/>
				<path fill="#9DD30D" d="M34.52,20.386l-0.047-0.104c-0.069-0.101-0.093-0.1-0.141-0.096L34.52,20.386z"/>
				<polygon fill="#9DD30D" points="33.249,20.661 33.273,20.659 33.04,20.303 				"/>
				<path fill="#9DD30D" d="M32.571,21.631c0.048-0.003,0.048-0.11,0.094-0.114C32.619,21.628,32.316,21.168,32.571,21.631z"/>
			</g>
		</g>
	</g>
</g>
</svg>
