<svg version="1.0" xmlns="http://www.w3.org/2000/svg" xmlns:xlink="http://www.w3.org/1999/xlink" x="0px" y="0px"
	 width="97.895px" height="33.276px" viewBox="0 0 97.895 33.276" enable-background="new 0 0 97.895 33.276" xml:space="preserve">

<g>
	<linearGradient id="arrow" gradientUnits="userSpaceOnUse" x1="0" y1="16.6379" x2="97.8945" y2="16.6379">
		<stop  offset="0" style="stop-color:#D50062"/>
		<stop  offset="0.4201" style="stop-color:#BD5A3E"/>
		<stop  offset="1" style="stop-color:#9DD30D"/>
	</linearGradient>
	<path fill="url(#arrow)" d="M25.221,33.276c-0.502,0-0.989-0.14-1.413-0.404L1.263,18.903C0.484,18.42,0,17.552,0,16.635
		c0-0.93,0.472-1.778,1.261-2.268L23.818,0.395c0.794-0.498,1.867-0.529,2.701-0.066c0.845,0.469,1.371,1.363,1.371,2.332v7.008
		l42.116-0.003V2.661c0-0.969,0.526-1.863,1.371-2.332c0.824-0.461,1.896-0.436,2.705,0.068l22.55,13.97
		c0.792,0.492,1.263,1.34,1.263,2.27c0,0.928-0.47,1.773-1.259,2.266L74.078,32.875c-0.819,0.498-1.871,0.52-2.699,0.064
		c-0.851-0.476-1.374-1.368-1.374-2.332v-7.006l-42.116,0.003v7.003c0,0.971-0.526,1.865-1.375,2.332
		C26.126,33.159,25.676,33.276,25.221,33.276z M73.065,20.542v9.361l21.418-13.267L73.065,3.367v9.358l-48.236,0.004V3.367
		L3.413,16.634l21.417,13.268v-9.358L73.065,20.542z"/>
</g>
</svg>
