<?xml version="1.0" encoding="utf-8"?>
<!-- Generator: Adobe Illustrator 16.0.4, SVG Export Plug-In . SVG Version: 6.00 Build 0)  -->
<!DOCTYPE svg PUBLIC "-//W3C//DTD SVG 1.0//EN" "http://www.w3.org/TR/2001/REC-SVG-20010904/DTD/svg10.dtd">
<svg version="1.0" xmlns="http://www.w3.org/2000/svg" xmlns:xlink="http://www.w3.org/1999/xlink" x="0px" y="0px"
	 width="200.534px" height="77.438px" viewBox="0 0 200.534 77.438" enable-background="new 0 0 200.534 77.438"
	 xml:space="preserve">
<g id="Layer_1">
</g>
<g id="home">
	<g>
		<g>
			<path fill="#58595B" d="M0.022,50.088c-0.067-2.252,0.016-4.521,0.255-6.811c0.24-2.287,0.733-4.523,1.486-6.709
				c1.091-3.073,2.202-6.111,3.329-9.117c1.126-3.004,2.44-5.975,3.943-8.911c0.068-0.067,0.103-0.169,0.103-0.308
				c-0.069-0.205-0.069-0.392,0-0.562c0.068-0.17,0.169-0.359,0.307-0.563c0.272-0.41,0.443-0.718,0.512-0.923
				c2.049-4.097,4.746-7.817,8.093-11.164c0.135-0.137,0.272-0.272,0.409-0.41c0.137-0.136,0.272-0.271,0.411-0.41
				c0.545-0.409,0.973-0.938,1.28-1.587c0.308-0.648,0.836-1.144,1.587-1.485C23.581,0.377,25.664,0,27.985,0
				c2.321,0,4.472,0.068,6.453,0.205c0.137,0,0.291,0.018,0.461,0.051c0.17,0.035,0.324,0.052,0.461,0.052
				c0.545,0.138,1.059,0.496,1.537,1.075c0.477,0.581,0.922,1.247,1.333,1.998c0.409,0.752,0.75,1.484,1.023,2.201
				C39.525,6.3,39.729,6.83,39.868,7.17l0.204,1.64c0.206,0.614,0.308,1.229,0.308,1.844c0,0.138,0.017,0.222,0.052,0.256
				c0.034,0.035,0.051,0.12,0.051,0.256c0.067,0.273,0.067,0.548,0,0.819l-0.819,1.229c-0.138,0.138-0.41,0.273-0.819,0.409
				c-0.615,0.139-1.196,0.139-1.743,0c-0.683-0.066-1.126-0.341-1.331-0.818c-0.138-0.205-0.273-0.513-0.41-0.923
				c-0.069-0.067-0.086-0.118-0.051-0.153c0.034-0.033,0.015-0.119-0.051-0.256c0-0.751,0.016-1.537,0.051-2.355
				c0.034-0.82-0.358-1.502-1.179-2.049c-0.273-0.272-0.512-0.443-0.716-0.513c-0.614-0.409-1.418-0.358-2.408,0.153
				c-0.99,0.513-1.997,1.178-3.021,1.998c-1.023,0.819-1.93,1.639-2.714,2.458c-0.785,0.819-1.246,1.366-1.383,1.64
				c-0.614,1.639-1.331,3.379-2.151,5.223c-0.819,1.844-1.673,3.739-2.56,5.686c-0.888,1.946-1.726,3.859-2.509,5.736
				c-0.786,1.879-1.453,3.636-1.998,5.275c-0.273,0.752-0.547,1.52-0.819,2.305c-0.273,0.785-0.512,1.554-0.717,2.305
				c-0.547,2.527-0.87,5.07-0.973,7.631c-0.101,2.561-0.086,5.139,0.053,7.732c0,0.549,0.135,1.196,0.409,1.947
				c0.272,0.752,0.648,1.484,1.126,2.202c0.478,0.717,0.989,1.4,1.537,2.048c0.545,0.65,1.091,1.145,1.64,1.486
				c1.023,0.683,2.15,0.717,3.379,0.102c1.229-0.614,2.408-1.484,3.535-2.611s2.116-2.287,2.97-3.482
				c0.853-1.194,1.449-2.031,1.792-2.51c1.366-1.98,2.612-4.011,3.739-6.095c1.126-2.083,2.305-4.114,3.535-6.095l1.228-2.151
				l0.513-0.921l1.434-2.254c0.068-0.067,0.169-0.067,0.308,0c0.204,0.205,0.307,0.41,0.307,0.614
				c-0.138,0.409-0.223,0.804-0.256,1.179c-0.036,0.375-0.086,0.768-0.154,1.178v0.307c0,0.205-0.017,0.395-0.051,0.563
				c-0.035,0.171-0.086,0.358-0.154,0.563l-0.204,1.434v0.41c-0.069,0.138-0.088,0.223-0.052,0.256
				c0.034,0.035,0.052,0.12,0.052,0.256c0,0.069-0.088,0.087-0.257,0.052c-0.172-0.034-0.394-0.067-0.666-0.103
				c-0.273-0.033-0.513-0.067-0.717-0.103c-0.205-0.034-0.308-0.017-0.308,0.052c0,0.273,0.103,0.444,0.308,0.512
				c0.204,0.068,0.307,0.205,0.307,0.41c0,0.342-0.154,0.905-0.461,1.689c-0.307,0.786-0.564,1.316-0.769,1.588
				c-0.069,0.138-0.069,0.256,0,0.358c0.068,0.103,0.068,0.222,0,0.358c-0.684,1.229-1.4,2.51-2.151,3.842
				c-0.751,1.331-1.535,2.646-2.356,3.943c-0.819,1.298-1.656,2.51-2.509,3.636c-0.854,1.127-1.724,2.101-2.611,2.919
				c-2.187,1.844-4.389,3.416-6.606,4.713c-2.221,1.296-4.969,2.082-8.247,2.355c-1.572,0.205-3.073-0.138-4.507-1.024
				c-2.596-1.776-4.371-3.926-5.326-6.453c-0.958-2.526-1.537-5.053-1.741-7.579L0.022,50.088z"/>
			<path fill="#58595B" d="M47.754,48.449l0.103,6.966c0,0.138,0.016,0.222,0.051,0.256c0.034,0.036,0.051,0.12,0.051,0.257
				c0.068-0.137,0.137-0.205,0.206-0.205c0.066,0,0.135-0.068,0.204-0.205l1.331-2.254c0.272-0.614,0.733-1.467,1.383-2.561
				c0.648-1.092,1.314-2.219,1.998-3.38c0.683-1.16,1.348-2.287,1.998-3.38c0.646-1.092,1.108-1.911,1.381-2.459l1.333-2.561
				c0.067-0.137,0.135-0.221,0.204-0.256c0.068-0.034,0.137-0.085,0.206-0.154c0.204,0.205,0.307,0.377,0.307,0.513
				c-0.069,0.409-0.103,0.819-0.103,1.229c0,0.409-0.069,0.785-0.204,1.126c-0.41,1.229-0.958,2.527-1.64,3.893
				c-0.684,1.366-1.383,2.731-2.099,4.097c-0.718,1.367-1.418,2.699-2.101,3.995c-0.682,1.298-1.263,2.527-1.741,3.688
				c-0.204,0.614-0.478,1.214-0.819,1.793c-0.343,0.581-0.684,1.144-1.025,1.69c-0.137,0.342-0.409,0.512-0.819,0.512
				c-0.615,0.138-1.229,0.24-1.844,0.307c-0.613,0.069-1.228,0.139-1.843,0.205c-1.094,0.068-1.947-0.256-2.562-0.973
				S40.634,59,40.327,57.977c-0.306-1.025-0.512-2.101-0.613-3.228c-0.103-1.126-0.189-2.064-0.256-2.816
				c-0.274-2.936-0.343-5.736-0.205-8.399c0.135-2.663,0.477-5.359,1.023-8.092c0.545-3.004,1.194-5.941,1.947-8.809
				c0.75-2.869,1.535-5.736,2.355-8.605c0.546-1.705,1.126-3.396,1.741-5.069c0.615-1.673,1.229-3.362,1.844-5.071
				c0.272-0.682,0.579-1.331,0.92-1.945c0.341-0.615,0.58-1.297,0.718-2.049c0.205-0.682,0.529-1.109,0.973-1.28
				c0.444-0.17,0.938-0.323,1.486-0.461c0.545-0.136,1.057-0.239,1.535-0.308c0.478-0.066,0.99-0.136,1.537-0.205
				c0.341,0,0.699-0.016,1.076-0.051c0.375-0.033,0.699,0.153,0.973,0.563c0.068,0.138,0.086,0.273,0.052,0.409
				c-0.035,0.138-0.052,0.274-0.052,0.41l0.206,1.537c0.205,0.957,0.102,1.912-0.307,2.867c-0.069,0.068-0.103,0.138-0.103,0.205
				c-0.069,0.615-0.12,1.264-0.154,1.946c-0.035,0.684-0.12,1.366-0.257,2.048c-0.204,1.094-0.427,2.188-0.665,3.278
				c-0.24,1.093-0.666,2.151-1.28,3.175c-0.547,0.957-1.093,1.931-1.638,2.92c-0.549,0.99-1.094,1.964-1.64,2.919
				c-0.137,0.274-0.308,0.53-0.512,0.769c-0.205,0.24-0.376,0.496-0.512,0.768c-0.343,0.82-0.549,1.64-0.615,2.459
				c0,0.068,0.015,0.103,0.051,0.103c0.034,0,0.051,0.035,0.051,0.103c0-0.067,0.017-0.103,0.052-0.103
				c0.033,0,0.051-0.034,0.051-0.103l0.205-0.717c0,0.137-0.017,0.256-0.051,0.358c-0.035,0.103-0.051,0.222-0.051,0.358
				l-0.615,3.994c-0.069,0.548-0.153,1.076-0.256,1.588c-0.103,0.513-0.189,1.043-0.257,1.588c-0.067,0.343-0.051,0.65,0.052,0.922
				c0.102,0.273,0.118,0.547,0.051,0.82c0,0.888-0.12,1.844-0.358,2.867c-0.24,1.024-0.461,2.049-0.666,3.073
				c-0.206,1.024-0.376,2.032-0.513,3.021C47.515,46.727,47.55,47.631,47.754,48.449z M49.598,19.257
				c0.066-0.067,0.102-0.136,0.102-0.204l-0.102-0.103c-0.069,0.068-0.103,0.138-0.103,0.204
				C49.496,19.224,49.529,19.257,49.598,19.257z M50.417,19.257h-0.205l-0.307,0.923c-0.069,0.137-0.088,0.222-0.052,0.256
				c0.034,0.035,0.052,0.119,0.052,0.256l0.615-1.127c0-0.067-0.019-0.119-0.052-0.154C50.433,19.377,50.417,19.326,50.417,19.257z
				 M50.725,18.848l-0.204-0.205c-0.138,0.138-0.241,0.205-0.308,0.205l0.102,0.205C50.451,19.053,50.586,18.984,50.725,18.848z
				 M50.417,15.262c0,0.07-0.035,0.104-0.103,0.104l0.103,0.102l0.103-0.102C50.451,15.365,50.417,15.332,50.417,15.262z
				 M50.828,17.823c0.135-0.41,0.205-0.579,0.205-0.513v-0.307l-0.205,0.409V17.823z M51.236,16.287h0.205
				c0,0.137,0.017,0.239,0.052,0.307c0.034,0.069,0.051,0.172,0.051,0.308l0.307-0.513l3.074-10.755
				c0.066-0.136,0.051-0.272-0.052-0.409c-0.102-0.137-0.189-0.272-0.255-0.41c-0.138,0.138-0.292,0.291-0.461,0.461
				c-0.172,0.171-0.326,0.324-0.461,0.461l-0.819,2.766v0.102c-0.411,0.206-0.564,0.462-0.461,0.77
				c0.102,0.307,0.084,0.598-0.052,0.87c-0.137,0.138-0.189,0.325-0.153,0.563c0.034,0.24,0.052,0.461,0.052,0.666h-0.206
				c-0.205,0.205-0.308,0.273-0.308,0.205c-0.067,0.137-0.101,0.342-0.101,0.614c0.476-0.136,0.681-0.085,0.615,0.153
				c-0.069,0.24-0.103,0.428-0.103,0.563L51.236,16.287z"/>
			<path fill="#58595B" d="M66.293,52.445v0.307c-0.273,0-0.343,0.103-0.206,0.307c0.206,0.548,0.221,1.076,0.052,1.588
				c-0.172,0.513-0.36,1.043-0.564,1.588c-0.205,0.752-0.562,1.4-1.076,1.946c-0.512,0.548-1.042,1.093-1.588,1.64
				c-0.204,0.137-0.427,0.256-0.665,0.357c-0.24,0.104-0.461,0.223-0.666,0.359c-0.343,0.137-0.65,0.273-0.922,0.409
				c-0.273,0.138-0.581,0.273-0.922,0.409c-0.958,0.273-1.793,0.154-2.509-0.357c-0.718-0.513-1.145-1.246-1.28-2.203
				c-0.138-0.955-0.206-1.877-0.206-2.766c0-0.887-0.035-1.809-0.101-2.766v-1.331c0.066-0.956,0.135-1.929,0.204-2.919
				c0.067-0.989,0.169-1.963,0.308-2.92c0.137-1.16,0.29-2.338,0.461-3.533c0.169-1.194,0.358-2.373,0.564-3.534l0.101-0.103
				c0.206-0.819,0.238-1.502,0.103-2.049c0.068,0,0.103-0.033,0.103-0.102l0.92-6.045c0-0.34-0.035-0.647-0.101-0.921
				c-0.069-0.272-0.139-0.579-0.206-0.922c-0.137-0.546,0.067-0.819,0.615-0.819c0.341,0.068,0.682,0.12,1.025,0.153
				c0.341,0.035,0.683,0.052,1.023,0.052c0.41,0,0.683,0.102,0.821,0.307c0-0.067,0.034-0.102,0.101-0.102
				c0.068,0,0.137-0.034,0.206-0.104c0.066-0.136,0.102-0.374,0.102-0.717c0.067,0,0.118-0.016,0.154-0.051
				c0.034-0.033,0.084-0.052,0.154-0.052c0,0.069,0.017,0.12,0.052,0.153c0.032,0.036,0.051,0.087,0.051,0.154
				c0,0.068-0.069,0.172-0.204,0.307c-0.139,0.41-0.036,0.65,0.307,0.718c0.545,0.204,0.973,0.496,1.28,0.87
				c0.307,0.377,0.596,0.769,0.87,1.179c0.41,0.683,0.683,1.366,0.821,2.048c0.135,0.684,0.238,1.4,0.306,2.151
				c0,0.138-0.034,0.292-0.101,0.461c-0.069,0.171-0.139,0.325-0.205,0.461c-0.206,0.138-0.275,0.343-0.206,0.614v0.41
				c0.068,0.068,0.103,0.205,0.103,0.41c-0.069,0.068-0.138,0.444-0.205,1.127c-0.069,0.547-0.138,1.074-0.206,1.587
				c-0.069,0.513-0.171,1.042-0.308,1.588c-0.137,0.547-0.255,1.042-0.358,1.485c-0.103,0.445-0.223,0.939-0.358,1.485l-0.821,4.608
				c-0.137,0.41-0.24,0.838-0.306,1.281c-0.069,0.445-0.139,0.87-0.206,1.28v0.103c0,0.068-0.017,0.12-0.051,0.153
				c-0.035,0.035-0.051,0.087-0.051,0.153c-0.069,0.069-0.103,0.172-0.103,0.308c0,0.138,0.034,0.24,0.103,0.308l-0.103,0.102v0.205
				c0,0.205-0.019,0.395-0.051,0.564c-0.035,0.17-0.087,0.357-0.153,0.562l0.102,0.103l0.103-0.103
				c0.068-0.137,0.135-0.289,0.205-0.461c0.067-0.17,0.137-0.358,0.206-0.563h0.101c0-0.136,0.034-0.221,0.103-0.256
				c0.068-0.034,0.102-0.118,0.102-0.256c0.137-0.272,0.206-0.513,0.206-0.718v-0.102c0.341-0.751,0.666-1.486,0.973-2.203
				s0.63-1.449,0.973-2.201c0-0.205,0.068-0.308,0.206-0.308c0.135,0.138,0.238,0.204,0.306,0.204l0.206,0.41
				c0.272-0.066,0.374-0.051,0.307,0.051c-0.069,0.104-0.103,0.189-0.103,0.256c0,0.07-0.069,0.24-0.205,0.513
				c-0.138,0.479-0.223,0.958-0.257,1.435c-0.035,0.479-0.017,0.99,0.051,1.536C65.848,52.137,66.02,52.377,66.293,52.445z
				 M61.069,19.053l-1.535,0.204c-0.753,0.138-0.991,0.581-0.718,1.331c0.137,0.344,0.272,0.65,0.41,0.923
				c0.135,0.273,0.205,0.581,0.205,0.921c-0.069,1.025,0.341,1.896,1.229,2.613c0.887,0.717,1.844,1.041,2.868,0.973
				c0.545,0,1.007-0.118,1.383-0.358c0.375-0.239,0.63-0.631,0.769-1.179c0.341-1.569,0.135-2.935-0.615-4.097
				c-0.138-0.409-0.376-0.614-0.717-0.614c-0.547-0.137-1.076-0.272-1.587-0.41c-0.512-0.136-1.042-0.271-1.588-0.409L61.069,19.053
				z"/>
			<path fill="#58595B" d="M68.443,47.426c0.068-2.869,0.36-5.48,0.872-7.836c0.512-2.356,1.245-4.625,2.202-6.812
				c0.545-1.297,1.177-2.526,1.895-3.688c0.718-1.16,1.485-2.32,2.305-3.482c0.546-0.614,1.126-1.16,1.741-1.639
				c0.615-0.477,1.398-0.648,2.356-0.512c0.75,0.137,1.468,0.137,2.151,0c0.681-0.137,1.398-0.137,2.15,0
				c0.887,0.137,1.758,0.324,2.613,0.562c0.853,0.24,1.69,0.496,2.509,0.77c0.205,0,0.411,0.17,0.615,0.512
				c0.135,0.547,0.272,1.059,0.409,1.536c0.137,0.479,0.274,0.991,0.411,1.536c0.137,0.548,0.204,0.889,0.204,1.024
				c0,0.684-0.067,1.162-0.204,1.435c-0.137,0.273-0.291,0.496-0.461,0.666c-0.17,0.171-0.358,0.357-0.562,0.562
				c-0.139,0.139-0.308,0.104-0.514-0.102c-0.137-0.273-0.29-0.529-0.461-0.769c-0.17-0.239-0.324-0.495-0.461-0.769
				c-0.205-0.477-0.375-0.938-0.512-1.383c-0.137-0.443-0.308-0.871-0.512-1.28c-0.205-0.546-0.53-0.904-0.973-1.075
				c-0.446-0.17-0.94-0.324-1.486-0.461c-0.409-0.067-0.734,0.035-0.973,0.307c-0.24,0.273-0.461,0.548-0.666,0.82
				c-1.298,1.434-2.34,3.005-3.124,4.711c-0.787,1.708-1.486,3.449-2.101,5.225c-0.341,1.023-0.665,2.066-0.973,3.123
				c-0.307,1.061-0.461,2.17-0.461,3.33c0.067,0.752,0.052,1.484-0.051,2.202c-0.103,0.717-0.12,1.452-0.051,2.202
				c0,0.889,0.169,1.844,0.512,2.868c0.135,0.273,0.769,0.444,1.895,0.512c1.126,0.069,2.371-0.512,3.739-1.741
				c1.91-1.639,3.874-3.26,5.889-4.865c2.015-1.604,3.499-3.089,4.457-4.455c0.272-0.342,0.528-0.683,0.768-1.025
				c0.238-0.341,0.461-0.682,0.666-1.023c0.272-0.137,0.442-0.272,0.512-0.41c0.068,0.138,0.137,0.24,0.206,0.307
				c0.066,0.069,0.102,0.139,0.102,0.205c-0.069,0.343-0.102,0.701-0.102,1.076s-0.069,0.701-0.206,0.973
				c-0.273,0.479-0.734,1.024-1.383,1.639c-0.648,0.615-1.35,1.247-2.1,1.896c-0.751,0.649-1.469,1.28-2.151,1.896
				c-0.682,0.614-1.162,1.161-1.434,1.639c-0.205,0.342-0.478,0.598-0.819,0.768c-0.343,0.172-0.65,0.428-0.922,0.769
				c-0.343,0.343-0.854,0.837-1.537,1.485c-0.683,0.649-1.503,1.297-2.458,1.946c-0.957,0.649-2.05,1.229-3.278,1.741
				c-1.229,0.512-2.528,0.768-3.893,0.768c-1.094,0.069-2.015-0.17-2.766-0.717c-0.751-0.545-1.4-1.263-1.945-2.15
				C68.854,50.396,68.308,48.792,68.443,47.426z"/>
		</g>
		<g>
			<g>
				<path fill="#58595B" d="M134.895,50.703c-0.205,0.547-0.102,0.957,0.307,1.229l-1.331,1.844l-0.922,1.024
					c-1.025,1.229-2.459,2.117-4.303,2.663l-1.434,0.409c-0.751,0.138-1.383,0.121-1.895-0.051c-0.512-0.17-1.008-0.461-1.485-0.871
					c-1.844-1.639-2.869-3.652-3.073-6.043c-0.069-0.82-0.051-1.604,0.051-2.355c0.103-0.752,0.221-1.502,0.359-2.254v-0.717
					l-0.206,0.205c-0.274,0.205-0.529,0.393-0.769,0.562c-0.24,0.172-0.495,0.325-0.769,0.461c-0.547,0.273-1.059,0.496-1.535,0.666
					c-0.479,0.172-1.025,0.291-1.64,0.359c-0.819,0.068-1.792-0.119-2.918-0.564c-1.128-0.443-1.862-0.938-2.202-1.484
					c-0.343-0.682-0.513-1.332-0.513-1.947c0.068-1.16,0.291-2.253,0.666-3.277s0.836-2.049,1.383-3.072
					c0.546-1.092,1.264-2.254,2.152-3.482c0.137-0.205,0.307-0.393,0.512-0.564c0.206-0.17,0.375-0.322,0.513-0.461
					c0.409-0.545,0.903-1.04,1.484-1.484c0.58-0.443,1.179-0.871,1.793-1.281c0.409-0.34,0.853-0.614,1.331-0.819
					c0.477-0.204,1.025-0.374,1.639-0.512l1.435-0.308c0.681-0.136,1.331-0.17,1.946-0.102c0.614,0.068,1.229,0.171,1.844,0.307
					c0.341,0.068,0.853,0.24,1.537,0.512c0.614,0.273,0.819,0.582,0.614,0.922c-0.275,0.41-0.753,0.479-1.435,0.205
					c-1.366-0.477-2.493-0.307-3.379,0.513c-0.41,0.343-0.804,0.665-1.179,0.973s-0.734,0.665-1.076,1.075
					c-0.409,0.548-0.888,1.094-1.434,1.64c-0.547,0.547-0.888,1.195-1.024,1.946c-0.138,0.342-0.273,0.632-0.41,0.87
					c-0.137,0.239-0.273,0.496-0.409,0.769c-0.138,0.41-0.257,0.803-0.36,1.178c-0.101,0.376-0.223,0.768-0.358,1.178
					c-0.204,0.547-0.273,1.076-0.204,1.588c0.066,0.512,0.032,1.042-0.103,1.588c0,0.068,0.067,0.24,0.204,0.512l0.514-0.307
					l0.819-0.922l3.687-4.713l0.308-0.512c0.341-0.819,0.648-1.639,0.922-2.458c0.272-0.819,0.545-1.64,0.819-2.458
					c0.137-0.478,0.359-0.836,0.667-1.076c0.307-0.238,0.8-0.358,1.484-0.358c0.137,0,0.307-0.017,0.512-0.052
					c0.206-0.033,0.375-0.016,0.513,0.052c0.954,0,1.587,0.171,1.895,0.513c0.307,0.342,0.425,0.819,0.358,1.434
					c0,0.752-0.035,1.485-0.103,2.202c-0.067,0.718-0.17,1.452-0.307,2.202c-0.068,0.547-0.154,1.111-0.255,1.69
					c-0.103,0.581-0.223,1.144-0.359,1.69c-0.137,0.684-0.24,1.349-0.306,1.997c-0.069,0.649-0.138,1.315-0.206,1.997
					c-0.137,0.548-0.223,1.127-0.255,1.741c-0.035,0.614-0.087,1.196-0.153,1.741c0,0.273,0.032,0.513,0.101,0.717l0.308,2.664
					c0,0.068,0.034,0.12,0.103,0.153c0.067,0.035,0.103,0.087,0.103,0.153l0.409-0.205l4.917-7.887l2.15-2.971
					c0.137-0.271,0.206-0.443,0.206-0.512c0-0.067,0.135-0.289,0.409-0.666c0.272-0.374,0.579-0.802,0.922-1.28
					c0.341-0.478,0.648-0.904,0.922-1.28c0.272-0.375,0.41-0.598,0.41-0.666c0.204,0.205,0.272,0.599,0.204,1.178
					c-0.069,0.581-0.204,1.178-0.41,1.793c-0.204,0.615-0.394,1.229-0.562,1.844c-0.172,0.615-0.256,1.093-0.256,1.434
					c0,0.684-0.154,1.35-0.461,1.998c-0.307,0.649-0.665,1.298-1.076,1.945c-0.409,0.65-0.836,1.265-1.28,1.844
					C135.526,49.492,135.167,50.088,134.895,50.703z"/>
				<path fill="#58595B" d="M148.722,25.812c-0.273,0.205-0.53,0.41-0.769,0.615c-0.24,0.205-0.461,0.445-0.666,0.717
					c-1.572,1.434-2.801,3.295-3.688,5.582c-0.888,2.289-1.366,4.524-1.434,6.709c0,0.889,0.103,1.742,0.307,2.561
					c0,0.274,0.238,0.479,0.718,0.615c0.272,0.138,0.527,0.273,0.768,0.41c0.238,0.137,0.494,0.24,0.769,0.307
					c0.135,0.068,0.308,0.068,0.512,0c0.205-0.066,0.375-0.136,0.512-0.205c0.137-0.136,0.238-0.205,0.308-0.205
					c0.545-0.204,0.887-0.426,1.025-0.666c0.135-0.238,0.204-0.63,0.204-1.178c0-0.066,0.016-0.136,0.051-0.204
					c0.034-0.067,0.052-0.136,0.052-0.205l1.434-3.073c0.066-0.205,0.238-0.512,0.512-0.922c0.204-0.34,0.41-0.699,0.615-1.075
					c0.204-0.374,0.375-0.769,0.512-1.179c0.272-0.545,0.512-1.126,0.717-1.74c0.205-0.615,0.409-1.229,0.615-1.844
					c0.272-0.682,0.75-0.955,1.434-0.82c0.204,0,0.409-0.016,0.615-0.051c0.204-0.033,0.409-0.051,0.614-0.051
					c0.34,0,0.7,0.018,1.076,0.051c0.373,0.035,0.733,0.051,1.074,0.051c0.067,0,0.137,0.018,0.206,0.052
					c0.066,0.035,0.135,0.052,0.205,0.052c0.272-0.137,0.426-0.17,0.461-0.104c0.034,0.069,0.084,0.172,0.154,0.309
					c0.135,0.137,0.272,0.256,0.41,0.357c0.135,0.104,0.238,0.257,0.306,0.461c0.067,0.139,0.034,0.291-0.102,0.461
					c-0.139,0.172-0.273,0.325-0.411,0.461c-0.342,1.435-0.562,2.938-0.665,4.508c-0.103,1.571-0.324,2.766-0.666,3.584
					c-0.138,0.343-0.273,0.786-0.41,1.332c-0.137,0.548-0.343,0.922-0.615,1.127c-0.069,0.068-0.24,0.138-0.512,0.205
					c-0.274,0.068-0.376,0.035-0.308-0.103l-0.205,1.126c-0.342,0.069-0.614,0.377-0.82,0.923l-0.308,0.819
					c-0.341,0.479-0.409,0.922-0.204,1.331l-1.638,4.917c-0.069,0-0.103,0.018-0.103,0.051c0,0.035-0.035,0.052-0.103,0.052
					c-0.273,0.752-0.581,1.47-0.922,2.151c-0.341,0.683-0.751,1.297-1.228,1.844c0-0.067-0.019-0.119-0.052-0.154
					c-0.035-0.033-0.051-0.084-0.051-0.153c-0.069,0.069-0.138,0.103-0.204,0.103c-0.274,0.342-0.446,0.734-0.513,1.178
					c-0.068,0.445-0.171,0.871-0.308,1.28c0,0.069,0.034,0.138,0.103,0.204c0.067,0,0.118-0.016,0.154-0.051
					c0.034-0.033,0.084-0.051,0.153-0.051c-0.069,0.205-0.204,0.342-0.41,0.41c0,0.068-0.034,0.119-0.102,0.153
					c-0.069,0.035-0.103,0.087-0.103,0.153l0.308,0.308c-0.137,0.069-0.273,0.239-0.409,0.513l-0.308,2.048v0.409l0.512-0.307
					c0,0.138-0.019,0.24-0.052,0.307c-0.034,0.069-0.051,0.139-0.051,0.205c0,0.138,0.017,0.223,0.051,0.256
					c0.034,0.035,0.052,0.121,0.052,0.257l0.308-0.308c0.204-0.271,0.307-0.579,0.307-0.922c0.066-0.819,0.255-1.588,0.562-2.305
					s0.667-1.416,1.076-2.1c0.137-0.341,0.221-0.631,0.257-0.871c0.034-0.238,0.084-0.527,0.153-0.87
					c0.409-0.956,0.87-1.844,1.383-2.663c0.512-0.82,0.938-1.707,1.28-2.664c0.341-0.545,0.666-1.108,0.973-1.689
					c0.307-0.579,0.63-1.143,0.973-1.69c0.137-0.204,0.308-0.374,0.512-0.513c0.206-0.135,0.411-0.271,0.615-0.408
					c0,0.068,0.034,0.137,0.103,0.204c0.068,0.069,0.137,0.103,0.205,0.103c0.547,0.138,0.733,0.291,0.564,0.461
					c-0.171,0.171-0.292,0.324-0.358,0.461c-0.342,0.342-0.65,0.65-0.922,0.922c-0.273,0.273-0.581,0.581-0.922,0.922
					c-0.139,0.205-0.223,0.428-0.257,0.666c-0.035,0.24-0.086,0.496-0.154,0.768c-0.067,0.138-0.153,0.461-0.255,0.974
					c-0.103,0.513-0.223,0.837-0.36,0.974h-0.307c-0.068,0-0.102,0.017-0.102,0.051c0,0.035-0.035,0.051-0.103,0.051l0.103,0.205
					c0.135,0.138,0.205,0.273,0.205,0.41c-0.343,0.752-0.65,1.484-0.922,2.201c-0.273,0.717-0.512,1.452-0.716,2.203
					c-0.206,0.547-0.343,1.041-0.41,1.484c-0.069,0.445-0.171,0.939-0.308,1.486c0,0.273,0.034,0.529,0.103,0.768
					c0.066,0.24,0.102,0.461,0.102,0.666c0,0.138,0,0.307,0,0.512s-0.171,0.24-0.512,0.103c0,0.069-0.035,0.171-0.103,0.308
					c-0.137,0.273-0.205,0.445-0.205,0.512l-0.716,5.02c-0.138,0.75-0.223,1.468-0.256,2.15c-0.036,0.682-0.086,1.399-0.154,2.151
					c0,0.136,0.034,0.257,0.103,0.358c0.066,0.103,0.135,0.221,0.205,0.359c0,0.066-0.019,0.136-0.051,0.204
					c-0.036,0.067-0.052,0.136-0.052,0.205l-0.409-0.308v-0.512c-0.274,0.271-0.411,0.443-0.411,0.512
					c-0.069,0.137-0.138,0.308-0.204,0.512c-0.069,0.205,0.101,0.273,0.512,0.205c0.341,0,0.512,0.068,0.512,0.205l-0.205,1.024
					l-0.307-0.204l-0.205-0.41l-0.307,0.307l-0.411,0.308c0,0.067-0.035,0.103-0.103,0.103h-0.102l-0.206-0.41l-0.716,0.615
					c-0.342,0.41-0.65,0.443-0.922,0.102l-0.307-0.307c-0.069,0.067-0.103,0.205-0.103,0.41c0,0.136,0.017,0.238,0.052,0.307
					c0.034,0.067,0.051,0.137,0.051,0.205c-0.069,0.137-0.139,0.221-0.205,0.256c-0.069,0.033-0.138,0.085-0.206,0.154l-1.331,0.205
					c-0.273,0.136-0.446,0.204-0.512,0.204c-0.206,0.067-0.376,0.103-0.514,0.103c-0.137,0-0.17-0.171-0.101-0.512
					c0-0.205-0.052-0.41-0.154-0.615c-0.103-0.205-0.189-0.41-0.257-0.614l-0.614-1.741c0.137,0,0.238-0.035,0.307-0.103
					c0,0.341,0.034,0.546,0.103,0.614c0.067,0.067,0.204,0.17,0.409,0.308c0-0.069,0.017-0.12,0.052-0.153
					c0.034-0.035,0.051-0.087,0.051-0.154l-0.819-3.585c0-0.138-0.069-0.204-0.204-0.204c-0.549-0.41-0.549-0.82,0-1.229
					c0.135-0.138,0.135-0.24,0-0.308c-0.139-0.068-0.206-0.137-0.206-0.205c-0.069-0.273-0.035-0.684,0.103-1.229
					c0-0.205,0.015-0.428,0.051-0.666c0.034-0.24,0.017-0.395-0.051-0.461c-0.273-0.068-0.376-0.172-0.307-0.307
					c0.067-0.137,0.103-0.239,0.103-0.309c0.34-0.34,0.494-0.732,0.461-1.178c-0.035-0.443-0.018-0.871,0.051-1.28
					c0.068-0.614,0.085-1.212,0.051-1.792c-0.035-0.58-0.051-1.109-0.051-1.588l-0.41,3.176h-0.102
					c0.066-0.41,0.102-0.82,0.102-1.23c0-0.409,0.067-0.783,0.206-1.126c0.272-1.435,0.512-2.851,0.716-4.251
					c0.205-1.398,0.477-2.816,0.819-4.25c0.272-1.025,0.564-2.065,0.871-3.125c0.308-1.059,0.597-2.1,0.87-3.124
					c0.137-0.204,0.103-0.409-0.102-0.614c-0.069-0.068-0.138-0.085-0.204-0.052c-0.069,0.036-0.172,0.019-0.308-0.051
					c-0.549,0-1.042,0-1.486,0c-0.444,0-0.939-0.067-1.485-0.205c-1.368-0.205-2.545-0.733-3.534-1.588
					c-0.991-0.853-1.554-2.03-1.69-3.534c-0.272-4.369,1.025-8.501,3.893-12.394c0.615-0.886,1.332-1.673,2.151-2.356
					c0.819-0.682,1.706-1.296,2.663-1.844c1.501-0.818,2.748-1.331,3.739-1.535c0.988-0.205,2.269-0.137,3.84,0.204l2.971,1.024
					l0.308,0.307c-0.137,0-0.274,0.035-0.411,0.104c-0.204,0-0.409,0.035-0.613,0.102l2.149,0.922
					c0.341,0.205,0.632,0.41,0.872,0.615c0.238,0.205,0.426,0.512,0.562,0.922c0.206,0.479,0,0.717-0.613,0.717
					c-0.275-0.066-0.53-0.103-0.768-0.103c-0.242,0-0.427,0.138-0.564,0.409c0,0.07-0.103,0.139-0.307,0.205
					c-0.205,0.069-0.24-0.033-0.103-0.307c0.137-0.546,0.052-0.922-0.255-1.127c-0.308-0.205-0.6-0.443-0.872-0.717
					c-0.204-0.205-0.496-0.393-0.87-0.564c-0.376-0.169-0.769-0.322-1.179-0.46c-0.409-0.136-0.804-0.221-1.177-0.257
					c-0.376-0.033-0.667,0.018-0.872,0.154c-0.41,0.342-0.819,0.615-1.229,0.819C149.44,25.198,149.063,25.472,148.722,25.812z
					 M137.865,35.851h-0.103c0,0.205-0.035,0.343-0.103,0.409h0.206V35.851z M138.479,41.689c-0.206,0.957,0.205,1.605,1.229,1.946
					c-0.41-1.092-0.753-2.167-1.025-3.228c-0.273-1.057-0.41-2.166-0.41-3.328c-0.274,0.889-0.308,1.776-0.102,2.663
					c0.066,0.343,0.153,0.665,0.255,0.974C138.53,41.023,138.545,41.349,138.479,41.689z M141.45,42.816
					c0.066-0.067,0.135-0.103,0.205-0.103c-0.139-0.136-0.274-0.341-0.411-0.614l-0.102,0.102L141.45,42.816z M141.757,41.996
					c0.066,0,0.102-0.033,0.102-0.102v-0.103l-0.102,0.103V41.996z M141.962,68.525c0.067-0.068,0.103-0.137,0.103-0.204
					c0-0.069-0.036-0.103-0.103-0.103l-0.103,0.103L141.962,68.525z M142.781,58.181c0-0.136,0.017-0.256,0.051-0.358
					c0.034-0.103,0.052-0.221,0.052-0.358h-0.103l-0.204,0.717H142.781z M142.577,58.795c0-0.066,0.034-0.102,0.102-0.102v-0.103
					c-0.068,0-0.102,0.034-0.102,0.103V58.795z M143.6,77.027v-0.512h-0.205c0,0.137,0.016,0.221,0.051,0.256
					c0.034,0.033,0.052,0.119,0.052,0.256H143.6z M144.522,76.516c0.068-0.068,0.137-0.119,0.206-0.154
					c0.066-0.034,0.135-0.119,0.205-0.256c-0.069-0.137-0.139-0.222-0.205-0.256c-0.069-0.035-0.138-0.086-0.206-0.153
					c-0.137,0.272-0.204,0.443-0.204,0.513C144.249,76.275,144.318,76.378,144.522,76.516z M147.185,66.887l0.103,0.104l0.205-0.205
					c-0.069,0-0.102-0.035-0.102-0.104L147.185,66.887z M147.288,64.326l0.308,0.41c0.067,0.068,0.135,0.103,0.204,0.103
					c0.068,0.068,0.103,0.204,0.103,0.409l0.205-0.409v-1.229l-0.205-0.205c-0.069,0-0.12,0.018-0.153,0.052
					c-0.036,0.034-0.086,0.051-0.154,0.051c0.067,0.069,0.103,0.138,0.103,0.205v0.409L147.288,64.326z M148.926,55.107v0.308
					l0.308-0.308v-0.717C149.029,54.733,148.926,54.972,148.926,55.107z M150.156,50.806c0,0.138-0.069,0.273-0.204,0.409
					c0.067,0.069,0.135,0.104,0.204,0.104c0-0.068,0.068-0.239,0.205-0.513H150.156z M150.36,47.631l1.229-0.82
					c0.067-0.066,0.103-0.204,0.103-0.41c-0.069,0-0.12,0.019-0.154,0.053c-0.036,0.034-0.086,0.051-0.154,0.051
					c-0.069-0.067-0.138-0.104-0.205-0.104c-0.206-0.204-0.307-0.204-0.307,0L150.36,47.631z M150.771,49.064
					c0.068-0.137,0.103-0.238,0.103-0.308c0-0.067,0.034-0.136,0.102-0.204c-0.068,0-0.137-0.034-0.205-0.104
					c0,0.139-0.017,0.24-0.051,0.308c-0.035,0.069-0.052,0.138-0.052,0.205L150.771,49.064z M151.282,61.868
					c0,0.069-0.067,0.171-0.205,0.308h0.205V61.868z M151.59,44.66c-0.068,0-0.102,0.035-0.102,0.103v0.204
					c0,0.139,0.034,0.205,0.102,0.205l0.206-0.103c0.135-0.136,0.238-0.204,0.308-0.204c0.339,0.068,0.527-0.034,0.562-0.309
					c0.034-0.271,0.118-0.512,0.256-0.717c-0.138,0.205-0.307,0.41-0.512,0.615C152.205,44.66,151.931,44.729,151.59,44.66z
					 M152.103,45.684l0.204-0.102l-0.204-0.205c0,0.068-0.019,0.103-0.052,0.103c-0.036,0-0.051,0.034-0.051,0.103L152.103,45.684z
					 M153.126,43.021l-0.103,0.204l0.103,0.205c0.137-0.272,0.204-0.374,0.204-0.308L153.126,43.021z M153.331,41.996l0.103,0.104
					c0.068,0,0.103-0.034,0.103-0.104l-0.103-0.102L153.331,41.996z M153.434,41.484c0,0.068,0.034,0.138,0.103,0.205l0.512-0.41
					l-0.307-0.307L153.434,41.484z M153.844,40.768l-0.206,0.103c0.067,0,0.103,0.018,0.103,0.051c0,0.036,0.034,0.052,0.103,0.052
					c0.066,0,0.101-0.016,0.101-0.052c0-0.033,0.068-0.051,0.206-0.051C154.083,40.803,153.979,40.768,153.844,40.768z"/>
				<path fill="#58595B" d="M163.369,51.933c0,0.479-0.17,0.614-0.512,0.409c-0.41-0.205-0.753-0.238-1.025-0.102
					c-0.204,0.068-0.444,0.051-0.716-0.052c-0.273-0.103-0.547-0.187-0.819-0.256c-0.138,0-0.275-0.034-0.41-0.103
					c-0.138-0.067-0.274-0.103-0.411-0.103c-0.409,0-0.785-0.238-1.126-0.717c-0.343-0.614-0.581-1.229-0.716-1.844
					c-0.138-0.614-0.206-1.263-0.206-1.946c0-0.955,0.034-1.895,0.103-2.816c0.067-0.922,0.135-1.86,0.204-2.817
					c0-0.546,0.017-1.108,0.053-1.69c0.032-0.579,0.05-1.143,0.05-1.689v-0.103c0.341-0.546,0.495-1.127,0.461-1.741
					c-0.036-0.615,0.015-1.229,0.153-1.844c0.135-0.41,0.238-0.836,0.308-1.281c0.066-0.443,0.135-0.903,0.204-1.383l0.922-4.404
					l0.615-1.945l0.204-0.922c0.068-0.478,0.58-0.682,1.537-0.615c1.638,0.205,2.867,1.094,3.688,2.664
					c0.135,0.204,0.169,0.444,0.101,0.717c-0.069,0.273-0.137,0.547-0.204,0.818c-0.069,0.274-0.153,0.513-0.257,0.718
					c-0.101,0.204-0.223,0.409-0.358,0.614c-0.069,0.138-0.103,0.377-0.103,0.717l-0.409,1.332h0.102
					c0,0.068,0.017,0.12,0.052,0.153c0.034,0.036,0.051,0.087,0.051,0.153c0,0.205,0.034,0.41,0.103,0.615l0.615-1.229v0.308
					c-0.139,0.343-0.241,0.684-0.308,1.023c-0.069,0.344-0.241,0.684-0.513,1.025c-0.137,0.138-0.205,0.324-0.205,0.562
					c0,0.24-0.035,0.496-0.103,0.769c-0.205,0.614-0.325,1.247-0.358,1.896c-0.035,0.649-0.086,1.315-0.154,1.997
					c-0.137,0.753-0.273,1.485-0.41,2.202s-0.273,1.451-0.409,2.202c-0.069,0.205-0.103,0.428-0.103,0.666c0,0.24,0,0.461,0,0.665
					l-0.307,1.844c0,0.41,0.067,0.889,0.206,1.436c0,0.068,0.066,0.102,0.205,0.102c0.135,0,0.238-0.033,0.307-0.102
					c0.477-0.547,0.938-1.109,1.383-1.691c0.442-0.578,0.938-1.143,1.484-1.689l1.64-2.049c0.546-0.614,1.058-1.245,1.535-1.895
					c0.478-0.648,0.956-1.348,1.436-2.1c0.135-0.205,0.272-0.648,0.409-1.332c0.137-1.16,0.392-2.287,0.769-3.381
					c0.375-1.091,0.836-2.218,1.383-3.379l1.741-4.303c0.137-0.341,0.411-0.512,0.819-0.512l2.664,0.512
					c0.478,0.273,0.717,0.649,0.717,1.127c-0.069,0.342,0.034,0.785,0.308,1.332c0.135,0.409,0.102,0.717-0.103,0.921
					c-0.205,0.205-0.376,0.41-0.512,0.614l-0.307,0.513c-0.139,0.41-0.273,0.837-0.41,1.28c-0.137,0.445-0.375,0.837-0.716,1.178
					c-0.138,0.139-0.206,0.291-0.206,0.461c0,0.172-0.068,0.325-0.205,0.461c0,0.205-0.069,0.377-0.204,0.512
					c-0.069,0.139-0.103,0.274-0.103,0.41c0.068,0,0.119-0.016,0.154-0.051c0.034-0.033,0.118-0.051,0.257-0.051
					c0-0.137,0.065-0.205,0.204-0.205l-0.308,1.023c-0.273,0.684-0.512,1.47-0.717,2.356c-0.068,0.409-0.137,0.819-0.205,1.229
					c-0.069,0.409-0.069,0.785,0,1.127c0.137,0.342,0.118,0.665-0.051,0.973c-0.172,0.307-0.223,0.633-0.153,0.973v0.513
					l0.204,0.103c0.272-0.205,0.392-0.221,0.358-0.051c-0.034,0.17-0.051,0.291-0.051,0.357l-0.308,1.127h-0.204v-0.205h-0.104
					c0,0.138,0.034,0.205,0.104,0.205c0,0.205-0.019,0.41-0.051,0.615c-0.036,0.204-0.053,0.444-0.053,0.717
					c0.068-0.068,0.104-0.137,0.104-0.205l0.307-0.308c0,0.069-0.019,0.138-0.051,0.205c-0.035,0.069-0.052,0.138-0.052,0.205
					l-0.204,1.331v0.922c0.067,0.205,0.118,0.428,0.153,0.666c0.034,0.24,0.016,0.461-0.051,0.666c0,0.205-0.069,0.581-0.206,1.127
					c-0.069,0.137-0.137,0.24-0.204,0.307c-0.069,0.069,0.034,0.104,0.308,0.104c0.067,0,0.118,0.068,0.153,0.204
					c0.034,0.138,0.051,0.273,0.051,0.409c-0.137,0.274-0.153,0.53-0.051,0.77c0.103,0.239,0.222,0.427,0.358,0.562
					c0.137,0.205,0.238,0.24,0.307,0.103c0.068-0.136,0.137-0.238,0.205-0.308c0.547-0.819,1.093-1.774,1.64-2.867
					c0.545-0.887,1.091-1.775,1.638-2.664c0.545-0.887,1.092-1.809,1.64-2.766c0.341-0.545,0.716-1.109,1.126-1.689
					s0.819-1.143,1.229-1.69l0.204-0.204c0,0.068,0.017,0.119,0.051,0.153c0.034,0.034,0.052,0.086,0.052,0.153l-0.307,1.024
					c0,0.138-0.069,0.256-0.205,0.358c-0.138,0.102-0.069,0.223,0.205,0.358c0,0.273-0.139,0.548-0.41,0.819
					c-0.069,0.205-0.137,0.377-0.205,0.512c-0.069,0.139-0.138,0.309-0.205,0.513c0,0.138,0.032,0.24,0.102,0.308
					c0.067,0.068,0.103,0.171,0.103,0.307l0.205,1.229c0.067,0.138,0.033,0.325-0.102,0.563c-0.139,0.24-0.275,0.428-0.411,0.563
					l-0.922,1.331l-1.741,2.561c-0.138,0.139-0.205,0.24-0.205,0.308c0,0.479-0.12,0.854-0.359,1.127
					c-0.24,0.273-0.528,0.548-0.87,0.819l-0.307,0.615c-0.205,0.342-0.446,0.547-0.717,0.613c-0.274,0.069-0.547,0.172-0.819,0.309
					l-2.561,0.614c-0.82,0.138-1.452,0.017-1.895-0.358c-0.446-0.375-0.837-0.904-1.179-1.588c-0.547-0.955-0.905-1.946-1.076-2.971
					s-0.255-2.049-0.255-3.072c-0.069-0.682-0.103-1.348-0.103-1.998c0-0.648,0-1.313,0-1.997v-0.718l-1.333,1.435
					c-0.273,0.343-0.529,0.649-0.767,0.922c-0.241,0.274-0.53,0.548-0.871,0.819V46.4c0.135,0,0.238-0.033,0.308-0.102
					c0.067,0,0.204-0.103,0.41-0.307l-1.229,2.662c-0.41,0.889-1.025,1.572-1.844,2.049l-0.205,0.41l-0.307,0.205
					c-0.138,0.273-0.343,0.409-0.615,0.409C163.813,51.728,163.573,51.797,163.369,51.933z M158.146,43.123h-0.205
					c0,0.343,0,0.633,0,0.871c0,0.24-0.035,0.529-0.103,0.871h0.205c0-0.342,0.017-0.631,0.051-0.871
					C158.127,43.756,158.146,43.466,158.146,43.123z M158.042,46.299h-0.205v0.308c0,0.478,0,0.938,0,1.382
					c0,0.445,0.034,0.871,0.103,1.281c0.066,0.409,0.306,0.649,0.716,0.717c0.067,0,0.103,0.035,0.103,0.102l0.204,0.205v-0.409
					l-0.717-2.151C158.11,47.188,158.042,46.709,158.042,46.299z M158.042,42.714h0.103c0.067,0,0.102-0.034,0.102-0.103
					l1.229-5.941l0.308-1.434l0.41-1.537v-0.204h-0.204c-0.615,0.478-0.958,0.991-1.025,1.536c0,0.548-0.051,1.111-0.153,1.69
					c-0.103,0.581-0.189,1.144-0.257,1.69c-0.137,0.752-0.24,1.469-0.307,2.15C158.179,41.246,158.11,41.963,158.042,42.714z
					 M159.99,50.806c0.066-0.067,0.101-0.136,0.101-0.204l-0.615-0.309v0.309L159.99,50.806z M163.369,51.933l0.308-0.205
					l0.307-0.308c-0.137,0-0.24-0.016-0.307-0.051c-0.069-0.033-0.137-0.051-0.205-0.051l-0.922,0.717
					c0.205,0,0.358-0.016,0.461-0.051S163.232,51.933,163.369,51.933z M164.291,51.215c0,0.069-0.036,0.139-0.103,0.205
					c0.137,0,0.272-0.033,0.41-0.102h-0.204C164.325,51.318,164.291,51.284,164.291,51.215z M164.803,51.011
					c0-0.067-0.036-0.103-0.102-0.103C164.701,50.977,164.735,51.011,164.803,51.011z M165.008,32.881v-0.103l-0.103,0.103v0.102
					C164.973,32.982,165.008,32.949,165.008,32.881z M167.057,44.045h0.102c0-0.066-0.036-0.102-0.102-0.102V44.045z
					 M168.388,45.889v-0.102l-0.102,0.205L168.388,45.889z M168.594,44.455c0.066,0,0.102,0.018,0.102,0.051
					c0,0.035,0.034,0.051,0.103,0.051l1.537-1.74l0.205-0.41V42.1c-0.069,0-0.103,0.018-0.103,0.051
					c0,0.035-0.036,0.051-0.102,0.051l-1.229,1.537L168.594,44.455z M171.666,47.426l-0.103,0.102c0,0.069,0.067,0.24,0.206,0.513
					l0.204-0.614v-1.639c0-0.137-0.017-0.221-0.051-0.257c-0.035-0.033-0.052-0.085-0.052-0.153
					c-0.137,0.137-0.205,0.273-0.205,0.41V47.426z M171.973,48.553c0-0.068-0.035-0.137-0.103-0.205h-0.101v0.307
					c0,0.138,0.015,0.256,0.05,0.359c0.034,0.102,0.051,0.222,0.051,0.357C171.938,49.235,171.973,48.962,171.973,48.553z
					 M172.177,50.806h0.104c0-0.136-0.017-0.257-0.051-0.358c-0.036-0.103-0.053-0.221-0.053-0.359c0-0.066-0.017-0.102-0.05-0.102
					c-0.036,0-0.051-0.033-0.051-0.103l-0.206,0.204l0.307,1.435l0.104,0.103c0.067-0.066,0.067-0.103,0-0.103
					C172.281,51.182,172.245,50.943,172.177,50.806z M172.792,52.035c-0.068,0-0.12-0.016-0.154-0.051
					c-0.036-0.035-0.086-0.052-0.154-0.052s-0.102,0.017-0.102,0.052s-0.035,0.051-0.103,0.051l0.204,0.205h0.103L172.792,52.035z
					 M173.817,36.773l-0.308,0.307c-0.138,0.547-0.24,1.041-0.307,1.484c-0.069,0.445-0.139,0.94-0.205,1.486
					c-0.138,0.888-0.241,1.759-0.307,2.611c-0.069,0.855-0.172,1.726-0.308,2.612h0.102L173.817,36.773z M173.817,36.773
					c0-0.137,0.015-0.239,0.05-0.309c0.034-0.066,0.051-0.169,0.051-0.307h-0.204c0,0.138,0.017,0.24,0.052,0.307
					C173.799,36.534,173.817,36.637,173.817,36.773z M174.125,35.339c0-0.067,0.034-0.103,0.102-0.103l-0.102-0.103l-0.103,0.103
					C174.022,35.305,174.055,35.339,174.125,35.339z M176.276,46.196l-0.307-0.308l-0.206,0.205c0.137,0.138,0.206,0.24,0.206,0.307
					L176.276,46.196z M175.969,48.757l-0.103,0.103c0,0.068,0.034,0.103,0.103,0.103l0.101-0.103L175.969,48.757z M176.07,52.035
					c-0.069,0-0.137,0.035-0.204,0.102c0.135,0.139,0.272,0.343,0.41,0.615c0.066,0,0.102-0.016,0.102-0.051
					c0-0.034,0.034-0.052,0.103-0.052C176.342,52.514,176.207,52.309,176.07,52.035z M175.969,46.913
					c0-0.067,0.015-0.103,0.051-0.103c0.034,0,0.05-0.033,0.05-0.102h-0.101V46.913z"/>
				<path fill="#58595B" d="M192.971,52.445v0.307c-0.273,0-0.343,0.103-0.206,0.307c0.206,0.548,0.222,1.076,0.053,1.588
					c-0.172,0.513-0.36,1.043-0.564,1.588c-0.204,0.752-0.562,1.4-1.075,1.946c-0.512,0.548-1.042,1.093-1.588,1.64
					c-0.204,0.137-0.427,0.256-0.665,0.357c-0.24,0.104-0.461,0.223-0.666,0.359c-0.343,0.137-0.65,0.273-0.922,0.409
					c-0.273,0.138-0.581,0.273-0.922,0.409c-0.957,0.273-1.793,0.154-2.51-0.357c-0.717-0.513-1.145-1.246-1.28-2.203
					c-0.138-0.955-0.206-1.877-0.206-2.766c0-0.887-0.035-1.809-0.101-2.766v-1.331c0.066-0.956,0.135-1.929,0.204-2.919
					c0.067-0.989,0.169-1.963,0.308-2.92c0.137-1.16,0.29-2.338,0.461-3.533c0.169-1.194,0.358-2.373,0.564-3.534l0.101-0.103
					c0.206-0.819,0.238-1.502,0.104-2.049c0.067,0,0.103-0.033,0.103-0.102l0.921-6.045c0-0.34-0.036-0.647-0.102-0.921
					c-0.069-0.272-0.139-0.579-0.206-0.922c-0.137-0.546,0.067-0.819,0.615-0.819c0.341,0.068,0.682,0.12,1.025,0.153
					c0.341,0.035,0.683,0.052,1.023,0.052c0.41,0,0.683,0.102,0.821,0.307c0-0.067,0.034-0.102,0.101-0.102
					c0.068,0,0.137-0.034,0.206-0.104c0.066-0.136,0.102-0.374,0.102-0.717c0.067,0,0.118-0.016,0.154-0.051
					c0.034-0.033,0.084-0.052,0.154-0.052c0,0.069,0.017,0.12,0.052,0.153c0.032,0.036,0.051,0.087,0.051,0.154
					c0,0.068-0.069,0.172-0.204,0.307c-0.139,0.41-0.035,0.65,0.307,0.718c0.545,0.204,0.973,0.496,1.28,0.87
					c0.307,0.377,0.596,0.769,0.87,1.179c0.41,0.683,0.683,1.366,0.821,2.048c0.135,0.684,0.238,1.4,0.306,2.151
					c0,0.138-0.034,0.292-0.101,0.461c-0.069,0.171-0.139,0.325-0.205,0.461c-0.206,0.138-0.275,0.343-0.206,0.614v0.41
					c0.068,0.068,0.103,0.205,0.103,0.41c-0.069,0.068-0.138,0.444-0.204,1.127c-0.069,0.547-0.139,1.074-0.206,1.587
					c-0.069,0.513-0.171,1.042-0.308,1.588c-0.137,0.547-0.255,1.042-0.358,1.485c-0.103,0.445-0.223,0.939-0.358,1.485
					l-0.821,4.608c-0.137,0.41-0.24,0.838-0.306,1.281c-0.069,0.445-0.138,0.87-0.206,1.28v0.103c0,0.068-0.017,0.12-0.051,0.153
					c-0.036,0.035-0.051,0.087-0.051,0.153c-0.069,0.069-0.103,0.172-0.103,0.308c0,0.138,0.034,0.24,0.103,0.308l-0.103,0.102
					v0.205c0,0.205-0.019,0.395-0.051,0.564c-0.035,0.17-0.087,0.357-0.153,0.562l0.102,0.103l0.103-0.103
					c0.068-0.137,0.135-0.289,0.205-0.461c0.068-0.17,0.137-0.358,0.206-0.563h0.102c0-0.136,0.034-0.221,0.103-0.256
					c0.068-0.034,0.102-0.118,0.102-0.256c0.137-0.272,0.206-0.513,0.206-0.718v-0.102c0.341-0.751,0.666-1.486,0.973-2.203
					s0.63-1.449,0.973-2.201c0-0.205,0.068-0.308,0.206-0.308c0.135,0.138,0.238,0.204,0.306,0.204l0.206,0.41
					c0.272-0.066,0.374-0.051,0.307,0.051c-0.069,0.104-0.103,0.189-0.103,0.256c0,0.07-0.069,0.24-0.205,0.513
					c-0.138,0.479-0.223,0.958-0.256,1.435c-0.036,0.479-0.017,0.99,0.05,1.536C192.526,52.137,192.698,52.377,192.971,52.445z
					 M187.747,19.053l-1.535,0.204c-0.753,0.138-0.991,0.581-0.718,1.331c0.137,0.344,0.272,0.65,0.41,0.923
					c0.135,0.273,0.204,0.581,0.204,0.921c-0.069,1.025,0.342,1.896,1.229,2.613c0.887,0.717,1.844,1.041,2.868,0.973
					c0.545,0,1.007-0.118,1.383-0.358c0.375-0.239,0.63-0.631,0.769-1.179c0.341-1.569,0.135-2.935-0.615-4.097
					c-0.138-0.409-0.376-0.614-0.717-0.614c-0.547-0.137-1.076-0.272-1.587-0.41c-0.512-0.136-1.042-0.271-1.588-0.409
					L187.747,19.053z"/>
			</g>
			<g>
				<path fill="#58595B" d="M191.31,24.656c1.076-5.065,5.723-8.304,8.827-12.129c2.113-2.604-4.822-6.136-6.51-4.055
					c-3.306,4.072-8.389,7.652-9.534,13.049C183.454,24.537,190.755,27.275,191.31,24.656L191.31,24.656z"/>
			</g>
		</g>
	</g>
</g>
</svg>
