<?xml version="1.0" encoding="utf-8"?>
<!-- Generator: Adobe Illustrator 16.0.4, SVG Export Plug-In . SVG Version: 6.00 Build 0)  -->
<!DOCTYPE svg PUBLIC "-//W3C//DTD SVG 1.0//EN" "http://www.w3.org/TR/2001/REC-SVG-20010904/DTD/svg10.dtd">
<svg version="1.0" xmlns="http://www.w3.org/2000/svg" xmlns:xlink="http://www.w3.org/1999/xlink" x="0px" y="0px"
	 width="35.279px" height="39.046px" viewBox="0 0 35.279 39.046" enable-background="new 0 0 35.279 39.046" xml:space="preserve">
<g id="Layer_1">
</g>
<g id="home">
	<g>
		<path fill="#58595B" d="M16.734,39.046c9.249,0,16.732-7.481,16.732-16.733c0-8.598-6.507-15.708-14.874-16.639V3.72h2.789V0
			h-9.296v3.72h2.789v1.954C6.507,6.604,0,13.667,0,22.312C0,31.564,7.483,39.046,16.734,39.046z M16.734,7.439
			c8.181,0,14.874,6.691,14.874,14.873c0,8.184-6.693,14.874-14.874,14.874c-8.182,0-14.875-6.69-14.875-14.874
			C1.859,14.131,8.552,7.439,16.734,7.439z"/>
		<path fill="#58595B" d="M16.734,10.229v12.084l6.042-10.457C21.01,10.834,18.918,10.229,16.734,10.229z"/>
		<path fill="#58595B" d="M28.726,3.628l-2.696,2.694c2.696,1.58,4.974,3.859,6.554,6.555l2.696-2.695
			C33.606,7.534,31.329,5.302,28.726,3.628z"/>
	</g>
</g>
</svg>
