<?xml version="1.0" encoding="utf-8"?>
<!-- Generator: Adobe Illustrator 16.0.4, SVG Export Plug-In . SVG Version: 6.00 Build 0)  -->
<!DOCTYPE svg PUBLIC "-//W3C//DTD SVG 1.0//EN" "http://www.w3.org/TR/2001/REC-SVG-20010904/DTD/svg10.dtd">
<svg version="1.0" xmlns="http://www.w3.org/2000/svg" xmlns:xlink="http://www.w3.org/1999/xlink" x="0px" y="0px"
	 width="364.232px" height="78.89px" viewBox="0 0 364.232 78.89" enable-background="new 0 0 364.232 78.89" xml:space="preserve">
<g id="Layer_1">
</g>
<g id="home">
	<g>
		<g>
			<path fill="#58595B" d="M24.714,50.005c-0.209,0.558-0.104,0.975,0.312,1.252l-1.355,1.877l-0.938,1.042
				c-1.043,1.252-2.503,2.156-4.38,2.712l-1.46,0.417c-0.766,0.14-1.407,0.122-1.929-0.053c-0.521-0.172-1.026-0.469-1.512-0.886
				c-1.877-1.669-2.92-3.719-3.129-6.152c-0.069-0.835-0.052-1.633,0.053-2.397c0.104-0.766,0.225-1.529,0.364-2.295v-0.73
				L10.532,45c-0.278,0.208-0.539,0.4-0.782,0.573c-0.244,0.174-0.505,0.331-0.782,0.469c-0.557,0.279-1.078,0.506-1.564,0.679
				c-0.486,0.174-1.042,0.296-1.668,0.364c-0.834,0.07-1.825-0.12-2.972-0.573C1.616,46.061,0.868,45.557,0.521,45
				C0.173,44.306,0,43.645,0,43.019c0.068-1.182,0.295-2.294,0.678-3.337c0.381-1.043,0.851-2.086,1.408-3.129
				c0.556-1.109,1.285-2.294,2.189-3.545c0.139-0.209,0.312-0.398,0.521-0.573c0.208-0.173,0.381-0.329,0.521-0.47
				c0.417-0.556,0.92-1.059,1.512-1.512c0.59-0.451,1.199-0.887,1.825-1.303c0.417-0.348,0.868-0.627,1.355-0.834
				c0.485-0.21,1.043-0.383,1.668-0.522l1.46-0.312c0.694-0.139,1.355-0.173,1.981-0.104c0.626,0.07,1.252,0.174,1.877,0.312
				c0.348,0.07,0.869,0.244,1.564,0.521c0.626,0.278,0.834,0.592,0.626,0.939c-0.279,0.416-0.767,0.486-1.46,0.209
				c-1.392-0.487-2.539-0.314-3.441,0.521c-0.417,0.349-0.818,0.678-1.199,0.99c-0.383,0.312-0.748,0.678-1.095,1.095
				c-0.417,0.558-0.904,1.113-1.46,1.669c-0.558,0.557-0.904,1.217-1.043,1.98c-0.14,0.349-0.278,0.644-0.417,0.887
				c-0.141,0.244-0.278,0.505-0.417,0.782C8.515,37.7,8.395,38.101,8.29,38.482c-0.104,0.383-0.227,0.782-0.365,1.199
				c-0.208,0.557-0.278,1.096-0.208,1.616c0.068,0.521,0.034,1.062-0.104,1.616c0,0.07,0.068,0.244,0.209,0.521l0.521-0.312
				l0.835-0.938l3.754-4.797l0.312-0.521c0.348-0.834,0.66-1.669,0.938-2.503c0.277-0.834,0.556-1.668,0.834-2.503
				c0.139-0.485,0.365-0.851,0.678-1.095c0.313-0.242,0.816-0.365,1.513-0.365c0.139,0,0.312-0.016,0.521-0.052
				c0.208-0.034,0.381-0.017,0.521,0.052c0.973,0,1.616,0.175,1.929,0.521c0.312,0.349,0.434,0.835,0.365,1.46
				c0,0.766-0.036,1.513-0.104,2.242c-0.07,0.729-0.175,1.478-0.312,2.242c-0.07,0.557-0.157,1.131-0.261,1.721
				c-0.104,0.591-0.227,1.165-0.365,1.721c-0.141,0.695-0.244,1.373-0.312,2.033c-0.07,0.661-0.141,1.339-0.209,2.033
				c-0.14,0.558-0.227,1.147-0.261,1.772c-0.036,0.626-0.088,1.218-0.156,1.773c0,0.278,0.034,0.521,0.104,0.73l0.312,2.71
				c0,0.07,0.034,0.122,0.104,0.156c0.068,0.036,0.104,0.089,0.104,0.157l0.417-0.209l5.005-8.029l2.19-3.024
				c0.138-0.276,0.208-0.451,0.208-0.521c0-0.068,0.139-0.295,0.417-0.678c0.277-0.381,0.59-0.816,0.938-1.303
				c0.348-0.486,0.66-0.921,0.938-1.304c0.277-0.382,0.417-0.607,0.417-0.678c0.209,0.208,0.277,0.609,0.209,1.199
				c-0.07,0.591-0.209,1.199-0.417,1.824c-0.209,0.626-0.401,1.252-0.573,1.877c-0.175,0.626-0.261,1.113-0.261,1.46
				c0,0.696-0.157,1.374-0.47,2.034c-0.312,0.662-0.678,1.321-1.095,1.98c-0.417,0.662-0.853,1.288-1.304,1.877
				C25.355,48.771,24.991,49.379,24.714,50.005z"/>
			<path fill="#58595B" d="M26.381,46.668c0.068-2.92,0.365-5.579,0.887-7.978c0.521-2.397,1.268-4.708,2.241-6.934
				c0.556-1.32,1.199-2.571,1.93-3.755c0.729-1.181,1.512-2.362,2.346-3.545c0.556-0.626,1.147-1.182,1.773-1.669
				c0.625-0.485,1.424-0.659,2.398-0.521c0.764,0.14,1.494,0.14,2.189,0c0.694-0.139,1.424-0.139,2.189,0
				c0.903,0.14,1.789,0.33,2.659,0.573c0.869,0.244,1.721,0.505,2.555,0.782c0.209,0,0.418,0.174,0.626,0.521
				c0.139,0.557,0.277,1.078,0.417,1.563c0.139,0.487,0.277,1.009,0.417,1.564c0.139,0.558,0.209,0.904,0.209,1.044
				c0,0.694-0.07,1.182-0.209,1.459c-0.14,0.278-0.296,0.505-0.469,0.678c-0.175,0.174-0.365,0.365-0.573,0.574
				c-0.141,0.14-0.313,0.104-0.521-0.105c-0.141-0.276-0.297-0.537-0.47-0.782c-0.174-0.242-0.331-0.503-0.469-0.78
				c-0.209-0.487-0.383-0.956-0.521-1.409c-0.141-0.451-0.313-0.887-0.521-1.304c-0.209-0.556-0.539-0.92-0.991-1.095
				c-0.452-0.173-0.956-0.329-1.512-0.469c-0.417-0.068-0.748,0.035-0.99,0.312c-0.245,0.278-0.47,0.558-0.678,0.834
				c-1.321,1.46-2.383,3.061-3.181,4.798c-0.8,1.737-1.513,3.511-2.138,5.317c-0.349,1.043-0.678,2.104-0.991,3.181
				c-0.312,1.078-0.469,2.207-0.469,3.389c0.068,0.766,0.052,1.512-0.053,2.242c-0.104,0.729-0.122,1.478-0.052,2.242
				c0,0.904,0.173,1.877,0.521,2.92c0.139,0.278,0.782,0.452,1.929,0.521c1.147,0.07,2.415-0.521,3.807-1.772
				c1.945-1.668,3.944-3.319,5.996-4.953c2.05-1.633,3.562-3.145,4.536-4.536c0.276-0.347,0.537-0.694,0.782-1.043
				c0.242-0.347,0.469-0.693,0.678-1.043c0.276-0.138,0.451-0.276,0.521-0.417c0.068,0.141,0.138,0.245,0.208,0.313
				c0.068,0.069,0.104,0.14,0.104,0.208c-0.07,0.349-0.104,0.714-0.104,1.095c0,0.384-0.07,0.714-0.208,0.991
				c-0.279,0.487-0.748,1.043-1.408,1.668c-0.661,0.626-1.373,1.27-2.138,1.93c-0.766,0.661-1.496,1.304-2.189,1.929
				c-0.696,0.626-1.184,1.184-1.46,1.669c-0.209,0.349-0.487,0.609-0.835,0.782c-0.349,0.174-0.661,0.435-0.938,0.781
				c-0.349,0.349-0.869,0.853-1.563,1.513c-0.696,0.661-1.53,1.322-2.503,1.981c-0.975,0.661-2.086,1.251-3.337,1.772
				s-2.572,0.782-3.963,0.782c-1.112,0.069-2.051-0.173-2.815-0.73c-0.766-0.556-1.426-1.285-1.981-2.189
				C26.798,49.693,26.242,48.06,26.381,46.668z"/>
			<path fill="#58595B" d="M62.252,51.777v0.313c-0.278,0-0.349,0.104-0.208,0.312c0.208,0.558,0.225,1.095,0.052,1.616
				c-0.175,0.521-0.365,1.061-0.573,1.616c-0.209,0.767-0.574,1.426-1.095,1.981c-0.521,0.558-1.062,1.113-1.617,1.669
				c-0.208,0.14-0.435,0.261-0.678,0.364c-0.244,0.104-0.469,0.227-0.678,0.365c-0.349,0.141-0.661,0.278-0.938,0.417
				c-0.278,0.141-0.591,0.278-0.938,0.417c-0.975,0.279-1.824,0.156-2.555-0.363c-0.729-0.522-1.165-1.269-1.304-2.243
				c-0.14-0.973-0.208-1.911-0.208-2.815c0-0.902-0.036-1.842-0.104-2.815v-1.355c0.068-0.974,0.139-1.964,0.209-2.973
				c0.068-1.007,0.172-1.997,0.312-2.972c0.139-1.182,0.295-2.381,0.469-3.598c0.173-1.216,0.365-2.415,0.574-3.598l0.104-0.104
				c0.209-0.834,0.243-1.528,0.104-2.085c0.068,0,0.104-0.034,0.104-0.104l0.938-6.152c0-0.347-0.036-0.66-0.104-0.938
				c-0.069-0.277-0.14-0.59-0.208-0.938c-0.141-0.556,0.068-0.834,0.625-0.834c0.348,0.069,0.694,0.122,1.043,0.156
				c0.348,0.036,0.694,0.052,1.043,0.052c0.417,0,0.694,0.104,0.834,0.313c0-0.069,0.034-0.104,0.104-0.104
				c0.068,0,0.139-0.034,0.209-0.104c0.068-0.139,0.104-0.381,0.104-0.729c0.068,0,0.121-0.016,0.157-0.053
				c0.034-0.034,0.086-0.052,0.156-0.052c0,0.069,0.016,0.122,0.052,0.156c0.034,0.036,0.053,0.088,0.053,0.156
				c0,0.07-0.07,0.175-0.209,0.312c-0.141,0.418-0.036,0.662,0.312,0.73c0.556,0.208,0.991,0.505,1.304,0.887
				c0.312,0.383,0.607,0.781,0.887,1.199c0.417,0.695,0.693,1.391,0.834,2.085c0.139,0.696,0.243,1.426,0.312,2.19
				c0,0.14-0.035,0.296-0.104,0.469c-0.069,0.175-0.14,0.331-0.208,0.47c-0.209,0.141-0.278,0.35-0.209,0.625v0.417
				c0.068,0.07,0.104,0.209,0.104,0.417c-0.07,0.07-0.14,0.453-0.208,1.147c-0.07,0.558-0.141,1.095-0.209,1.616
				c-0.07,0.521-0.174,1.061-0.312,1.616c-0.141,0.558-0.261,1.061-0.365,1.513s-0.227,0.957-0.365,1.512L59.02,48.65
				c-0.141,0.416-0.244,0.852-0.312,1.303c-0.07,0.453-0.141,0.886-0.209,1.304v0.104c0,0.07-0.018,0.122-0.052,0.156
				c-0.036,0.036-0.053,0.089-0.053,0.157c-0.069,0.069-0.104,0.174-0.104,0.312c0,0.14,0.034,0.244,0.104,0.312l-0.104,0.104v0.209
				c0,0.208-0.019,0.4-0.053,0.573c-0.036,0.174-0.088,0.365-0.156,0.573l0.104,0.104l0.104-0.104
				c0.068-0.139,0.138-0.295,0.208-0.469c0.068-0.173,0.139-0.365,0.209-0.574h0.104c0-0.138,0.034-0.225,0.104-0.261
				c0.068-0.034,0.104-0.12,0.104-0.26c0.139-0.277,0.209-0.521,0.209-0.73V51.36c0.347-0.764,0.678-1.512,0.99-2.241
				c0.312-0.73,0.642-1.477,0.99-2.242c0-0.209,0.068-0.313,0.209-0.313c0.139,0.141,0.243,0.209,0.312,0.209l0.209,0.417
				c0.276-0.068,0.381-0.052,0.312,0.052c-0.07,0.104-0.104,0.192-0.104,0.261c0,0.07-0.069,0.245-0.208,0.521
				c-0.141,0.487-0.227,0.975-0.261,1.461c-0.036,0.486-0.018,1.008,0.052,1.563C61.799,51.465,61.974,51.709,62.252,51.777z
				 M56.934,17.783l-1.563,0.209c-0.767,0.14-1.009,0.591-0.73,1.355c0.139,0.349,0.277,0.661,0.417,0.938
				c0.139,0.278,0.209,0.591,0.209,0.938c-0.07,1.043,0.347,1.929,1.251,2.659c0.903,0.729,1.877,1.061,2.92,0.99
				c0.556,0,1.025-0.12,1.408-0.365c0.381-0.242,0.642-0.642,0.781-1.199c0.348-1.598,0.139-2.988-0.625-4.171
				c-0.141-0.417-0.383-0.626-0.73-0.626c-0.557-0.138-1.095-0.276-1.616-0.417c-0.521-0.139-1.061-0.276-1.616-0.417L56.934,17.783
				z"/>
			<path fill="#58595B" d="M99.792,36.24c0.347-0.068,0.607-0.086,0.781-0.052c0.173,0.035,0.226,0.296,0.157,0.782
				c-0.209,1.809-0.835,3.511-1.877,5.109c-1.184,1.529-2.227,3.113-3.129,4.744c-0.904,1.635-1.6,3.355-2.085,5.162
				c-0.279,0.904-0.662,1.772-1.147,2.606c-0.487,0.835-0.904,1.705-1.251,2.607c-0.418,1.251-0.818,2.521-1.199,3.806
				c-0.383,1.288-0.782,2.591-1.199,3.911c-0.209,0.557-0.662,0.973-1.356,1.251c-1.042,0.626-2.189,1.148-3.44,1.564
				c-1.738,0.627-2.678-0.036-2.815-1.981c0-0.417-0.07-0.816-0.209-1.199c-0.14-0.381-0.208-0.782-0.208-1.199
				c-0.07-0.764-0.104-1.564-0.104-2.398s0-1.633,0-2.398l0.208-6.257c0-0.208,0.017-0.433,0.053-0.678
				c0.034-0.242,0.052-0.503,0.052-0.782c-0.278,0.209-0.766,0.453-1.46,0.73c-0.904,0.557-1.86,0.922-2.867,1.095
				c-1.009,0.175-2.034,0.192-3.076,0.052c-0.975-0.068-2.018-0.242-3.129-0.521c-0.695-0.069-1.287-0.277-1.772-0.626
				c-0.487-0.348-0.904-0.799-1.251-1.355c-1.601-2.433-2.469-4.936-2.607-7.508c-0.14-2.571,0.348-5.179,1.46-7.821
				c0.485-1.043,1.077-2.033,1.772-2.972c0.694-0.938,1.425-1.859,2.19-2.763c0.556-0.695,1.146-1.32,1.772-1.878
				c0.626-0.556,1.285-1.077,1.981-1.564c0.556-0.347,1.181-0.59,1.877-0.729c0.694-0.139,1.355-0.313,1.981-0.521
				c0.417-0.139,0.834-0.243,1.251-0.312s0.868-0.139,1.355-0.209c0.626-0.068,1.252-0.068,1.877,0c0.903,0.14,1.46,0.14,1.669,0
				c0.208-0.139,0.381-0.626,0.521-1.46c0.556-2.503,1.095-5.005,1.616-7.508s1.059-5.04,1.616-7.612
				c0.139-0.556,0.242-1.111,0.312-1.669c0.068-0.556-0.036-1.11-0.312-1.668c-0.209-0.277-0.244-0.556-0.104-0.834
				c0.139-0.277,0.417-0.486,0.834-0.626c0.903-0.139,1.773-0.261,2.607-0.365s1.702,0.019,2.606,0.365
				c0.277,0.07,0.504,0.209,0.678,0.417c0.173,0.209,0.329,0.417,0.47,0.626c0.485,1.183,0.729,2.364,0.729,3.545
				c0,1.184-0.069,2.364-0.208,3.547c-0.141,1.111-0.278,2.225-0.417,3.336c-0.141,1.112-0.279,2.26-0.417,3.441
				c0,0.208-0.07,0.312-0.209,0.312c-0.209,0.07-0.47,0.312-0.782,0.729c-0.312,0.418-0.4,0.696-0.261,0.835
				c0.139,0.069,0.243,0.069,0.313,0c0.068-0.068,0.172-0.104,0.312-0.104c0.139-0.139,0.312-0.209,0.521-0.209
				c0,0.141,0.016,0.245,0.052,0.313c0.034,0.069,0.017,0.174-0.052,0.312c-0.209,0.349-0.417,0.714-0.626,1.095
				c-0.208,0.383-0.383,0.748-0.521,1.095c-0.14,0.349-0.227,0.73-0.261,1.147c-0.035,0.417-0.122,0.8-0.261,1.147
				c-0.349,1.6-0.695,3.146-1.043,4.64c-0.349,1.496-0.625,3.042-0.834,4.641c-0.278,1.321-0.435,2.644-0.469,3.963
				c-0.036,1.321-0.122,2.643-0.261,3.962c-0.07,0.141-0.07,0.245,0,0.313c0.068,0.069,0.104,0.14,0.104,0.208l0.312-0.417
				c0.068-0.276,0.139-0.521,0.208-0.729c0.069-0.209,0.139-0.451,0.209-0.73l0.104,1.564l-0.209,3.024
				c-0.069,0.278-0.278,0.521-0.625,0.729l0.417-0.938c0-0.138-0.07-0.347-0.209-0.626c-0.07,0.141-0.156,0.227-0.261,0.261
				c-0.104,0.036-0.156,0.122-0.156,0.261c-0.14,0.487-0.227,0.957-0.261,1.408c-0.036,0.453-0.122,0.922-0.261,1.407
				c-0.07,0.417-0.156,0.835-0.261,1.252s-0.156,0.834-0.156,1.251c-0.07,0.278-0.052,0.558,0.052,0.834
				c0.104,0.279,0.157,0.558,0.157,0.835c0,0.349-0.036,0.557-0.104,0.625c-0.558,0.349-0.766,0.766-0.626,1.252
				c0.139,0.486,0.139,0.938,0,1.355c-0.07,0.069-0.036,0.174,0.104,0.312l0.208-0.104c-0.208-0.417-0.174-0.711,0.104-0.886
				c0.277-0.173,0.485-0.434,0.626-0.782c0.973-2.086,1.963-4.205,2.972-6.361c1.007-2.154,2.033-4.275,3.076-6.36
				c0.417-0.765,0.887-1.513,1.408-2.241c0.521-0.731,1.059-1.443,1.616-2.139c0.139-0.139,0.312-0.225,0.521-0.261
				c0.208-0.034,0.417-0.087,0.625-0.156c0,0.14-0.018,0.261-0.052,0.364C99.808,35.979,99.792,36.102,99.792,36.24z M71.845,50.318
				c-0.069,0-0.104,0.035-0.104,0.104c0,0.07,0.034,0.141,0.104,0.209c0-0.068,0.017-0.104,0.053-0.104
				c0.034,0,0.052-0.035,0.052-0.105C71.949,50.354,71.913,50.318,71.845,50.318z M73.409,43.123
				c0.209,0.766,0.382,1.548,0.521,2.346c0.139,0.8,0.347,1.582,0.626,2.348c0.208,0.903,0.693,1.008,1.46,0.312
				c0.973-0.764,1.807-1.599,2.502-2.503c0.694-0.902,1.32-1.877,1.877-2.919c0.348-0.765,0.73-1.528,1.147-2.295
				c0.417-0.764,0.694-1.528,0.834-2.294c0.348-1.668,0.59-3.337,0.73-5.005c0.139-1.669,0.312-3.371,0.521-5.11
				c0.138-0.276,0.138-0.555,0-0.834c-0.418-0.485-1.113-0.729-2.086-0.729c-0.975,0-1.668,0.208-2.086,0.625
				c-1.183,1.253-2.051,2.591-2.606,4.015c-0.558,1.426-1.009,2.904-1.355,4.433l-0.938,3.023c-0.209,0.766-0.401,1.53-0.574,2.294
				C73.809,41.595,73.618,42.359,73.409,43.123z M73.618,49.797V49.9h0.104L73.618,49.797z M82.794,61.788
				c0.139-0.485,0.313-0.972,0.521-1.46c0.209-0.485,0.313-1.007,0.313-1.563c0.068-0.973,0.068-1.911,0-2.815
				c-0.07-0.903-0.104-1.842-0.104-2.815c0-0.139-0.036-0.226-0.104-0.261c-0.07-0.034-0.14-0.121-0.209-0.261
				c-0.069,0.14-0.14,0.227-0.208,0.261c-0.07,0.035-0.104,0.122-0.104,0.261c-0.14,0.208-0.208,0.417-0.208,0.625
				c0,0.209-0.036,0.417-0.104,0.626c-0.558,1.112-0.8,2.226-0.73,3.337c0.068,1.112,0.139,2.226,0.209,3.337
				c0.068,0.14,0.12,0.227,0.156,0.261c0.034,0.036,0.087,0.122,0.156,0.261l0.209-0.626V60.85c0,0.07,0.068-0.033,0.208-0.312
				c0.068,0.349,0.087,0.609,0.053,0.782C82.811,61.493,82.794,61.65,82.794,61.788z M90.406,43.019l-0.104-0.104l-0.104,0.104
				c0.068,0,0.104,0.036,0.104,0.104L90.406,43.019z M93.535,20.808c0-0.139-0.019-0.226-0.053-0.261
				c-0.035-0.034-0.052-0.087-0.052-0.157l-0.209,0.104c0,0.209,0.034,0.349,0.104,0.417C93.395,20.911,93.465,20.877,93.535,20.808
				z"/>
			<path fill="#58595B" d="M128.571,39.577c0.417-0.208,0.902-0.312,1.46-0.312c-0.141,0.278-0.209,0.557-0.209,0.834
				c0,0.349-0.14,0.679-0.417,0.99c-0.278,0.313-0.487,0.644-0.626,0.991c0,0.07-0.035,0.104-0.104,0.104
				c-0.349,1.183-0.991,2.052-1.93,2.606c-0.938,0.558-1.86,1.113-2.764,1.669c-0.557,0.349-1.13,0.591-1.72,0.729
				c-0.592,0.141-1.165,0.312-1.721,0.521c-0.558,0.07-1.079,0.105-1.564,0.105c-0.487,0-0.975,0.068-1.46,0.207
				c-0.626,0.209-1.112,0.609-1.46,1.199c-0.349,0.592-0.661,1.131-0.938,1.616c-0.349,0.558-0.661,1.027-0.938,1.408
				c-0.278,0.383-0.695,0.782-1.251,1.199c-0.975,0.766-1.965,1.548-2.972,2.346c-1.009,0.801-2.104,1.304-3.285,1.513
				c-2.226,0.417-4.312,0.035-6.257-1.147c-0.14-0.139-0.261-0.261-0.365-0.365c-0.104-0.104-0.227-0.224-0.364-0.364
				c-0.349-0.417-0.678-0.835-0.991-1.252c-0.312-0.417-0.573-0.868-0.782-1.355c-0.974-1.877-1.39-3.893-1.251-6.048
				c0-0.068,0.017-0.104,0.052-0.104c0.034,0,0.053-0.034,0.053-0.104c0-0.138,0.016-0.261,0.052-0.364
				c0.034-0.104,0.053-0.226,0.053-0.365v-0.104c0.068-0.347,0.104-0.798,0.104-1.355c0.068-0.068,0.104-0.138,0.104-0.209
				c0-0.068,0.034-0.104,0.104-0.104c0.068-0.209,0.139-0.399,0.208-0.574c0.069-0.171,0.104-0.364,0.104-0.573
				c0-0.139-0.035-0.208-0.104-0.208c0.277-1.181,0.556-2.381,0.835-3.597c0.276-1.217,0.625-2.416,1.043-3.599
				c0.693-1.808,1.407-3.614,2.138-5.423c0.729-1.807,1.754-3.476,3.076-5.005c0.347-0.347,0.712-0.66,1.095-0.938
				c0.381-0.277,0.746-0.59,1.095-0.938c0.417-0.347,0.851-0.73,1.304-1.147c0.451-0.417,0.954-0.59,1.512-0.521
				c0.417,0.07,0.782,0.244,1.095,0.521c0.313,0.278,0.643,0.487,0.991,0.626c0.138,0.069,0.295,0.14,0.469,0.208
				c0.173,0.07,0.329,0.07,0.47,0c0.625-0.208,1.268-0.329,1.929-0.365c0.66-0.034,1.304,0.019,1.93,0.157
				c0.693,0.208,1.39,0.591,2.085,1.146c0.277,0.279,0.504,0.574,0.678,0.887c0.173,0.312,0.399,0.644,0.678,0.99v0.209
				c-0.278,0.904-0.208,1.738,0.209,2.503c0.417,0.766,0.66,1.529,0.729,2.294c0.068,0.834,0.173,1.668,0.313,2.502
				c0.138,0.835,0.208,1.635,0.208,2.398c0,0.626-0.052,1.235-0.156,1.825c-0.104,0.592-0.227,1.165-0.365,1.721
				c0,0.14-0.018,0.261-0.052,0.365c-0.036,0.104-0.018,0.227,0.052,0.364c-0.14,0.141-0.278,0.453-0.417,0.938l-0.312,0.418
				c-0.349,0.557-0.558,1.146-0.626,1.772c-0.07,0.626-0.383,1.218-0.938,1.772c-0.14,0.07-0.192,0.209-0.156,0.417
				c0.034,0.209,0.086,0.383,0.156,0.521c0.209,0.209,0.451,0.244,0.73,0.104c0.417-0.139,0.815-0.312,1.199-0.521
				c0.381-0.209,0.746-0.417,1.095-0.626l2.398-1.668c0.347-0.277,0.678-0.538,0.99-0.782c0.312-0.243,0.642-0.47,0.991-0.678
				c0.347-0.347,0.625-0.485,0.834-0.417c0.556,0.208,0.938,0.156,1.146-0.155c0.209-0.314,0.417-0.644,0.626-0.992
				C128.535,39.926,128.571,39.786,128.571,39.577z M101.146,47.294c0.068,0.417,0.068,0.852,0,1.304
				c-0.07,0.452-0.104,0.922-0.104,1.407c0,0.07,0.068,0.175,0.208,0.313l0.313-0.418c0-0.347,0.016-0.678,0.052-0.99
				c0.034-0.312,0.225-0.607,0.573-0.887c-0.349,0.07-0.521,0.019-0.521-0.156c0-0.173,0-0.329,0-0.469l-0.208-0.417
				c-0.141-2.225-0.331-3.181-0.573-2.868C100.641,44.426,100.729,45.487,101.146,47.294z M101.146,51.152l-0.104,0.104l0.104,0.104
				V51.152z M101.563,53.029c0.556,1.251,1.251,1.563,2.085,0.938l-0.625-1.564l-0.418-0.834l-0.312,1.043
				c0,0.069,0.034,0.122,0.104,0.156c0.068,0.036,0.068,0.088,0,0.156c0,0.278-0.036,0.487-0.104,0.626l-0.417-0.313L101.563,53.029
				z M102.085,47.606c0,0.07,0.016,0.122,0.052,0.156c0.034,0.036,0.052,0.122,0.052,0.261v-0.417H102.085z M103.857,54.385
				c0-0.068,0.034-0.104,0.104-0.104l-0.313-0.312L103.857,54.385z M113.138,48.023c0.348-0.347,0.277-0.625-0.208-0.834
				c-0.975-0.347-1.738-0.851-2.294-1.512c-0.558-0.66-1.009-1.408-1.356-2.242c-0.14-0.277-0.278-0.521-0.417-0.729l-0.312-0.939
				c0-0.068-0.036-0.138-0.104-0.208v-0.104c-0.834-3.545-0.834-7.125,0-10.74c0.068-0.139,0.104-0.313,0.104-0.521
				c-0.558,1.25-1.095,2.502-1.616,3.753s-0.991,2.538-1.408,3.858c-0.349,0.904-0.539,1.529-0.573,1.877
				c-0.036,0.349,0.017,1.009,0.156,1.981c0.068,0.417,0.173,0.817,0.313,1.199c0.138,0.383,0.034,0.782-0.313,1.199
				c-0.07,0.069-0.104,0.244-0.104,0.521c0.069,0.486,0.121,0.974,0.157,1.459c0.034,0.487,0.052,1.009,0.052,1.564
				c0.068,0.558,0.12,1.095,0.156,1.616c0.034,0.521,0.121,1.061,0.261,1.616c0.209,0.767,0.521,1.46,0.938,2.086
				c0.417,0.558,0.73,0.834,0.938,0.834c0.209,0,0.59-0.173,1.147-0.521c0.139-0.138,0.242-0.208,0.312-0.208
				c0.485,0.07,0.834-0.053,1.043-0.365c0.208-0.312,0.417-0.642,0.626-0.99L113.138,48.023z M114.493,45.729
				c0.069-0.139,0.035-0.381-0.104-0.729c-0.141-0.209-0.297-0.399-0.47-0.574c-0.174-0.172-0.331-0.364-0.469-0.573
				c-0.141-0.208-0.227-0.434-0.261-0.678c-0.036-0.243-0.122-0.434-0.261-0.573c-0.209-0.209-0.592-0.382-1.147-0.521
				c-0.07-0.068-0.156-0.053-0.261,0.052s-0.156,0.228-0.156,0.365c0,0.558,0.277,1.199,0.834,1.929
				c0.556,0.73,1.111,1.165,1.669,1.304C114.076,45.938,114.285,45.938,114.493,45.729z M111.678,41.142l0.209,0.208
				c-0.07,0-0.122,0.019-0.156,0.053c-0.036,0.035-0.088,0.052-0.156,0.052v0.104l0.312-0.209c0-0.068,0.017-0.12,0.052-0.156
				c0.034-0.034,0.053-0.086,0.053-0.156l-0.313-0.312l-0.208,0.104L111.678,41.142z M116.788,41.246
				c0.417-0.418,0.625-0.835,0.625-1.252c0-0.068-0.035-0.104-0.104-0.104c0.208-0.764,0.433-1.476,0.678-2.138
				c0.242-0.659,0.364-1.371,0.364-2.138c0.068-1.181,0.034-2.362-0.104-3.545c-0.141-1.182-0.209-2.362-0.209-3.546
				c0-0.764-0.175-1.355-0.521-1.772c-0.349-0.417-0.8-0.798-1.355-1.146c-1.392-0.765-2.189-0.418-2.398,1.042
				c-0.07,0.279-0.088,0.521-0.052,0.73c0.034,0.208,0.016,0.417-0.053,0.625l-0.729,3.129h-0.104
				c0.068,0.14,0.139,0.312,0.209,0.521c0.068,0.208,0.104,0.383,0.104,0.521v3.858c-0.069,0.834,0.053,1.634,0.365,2.398
				c0.312,0.766,0.538,1.529,0.678,2.294v0.312c0,0.417,0.068,0.729,0.209,0.938l-0.313,0.209v0.312
				c0.556-0.209,0.816-0.121,0.782,0.261c-0.036,0.383,0.053,0.645,0.261,0.782h0.521l0.834-1.669L116.788,41.246z"/>
			<path fill="#58595B" d="M140.771,43.436c-0.417,0.558-0.558,1.078-0.417,1.564c0.068,0.278,0,0.557-0.209,0.834
				c-0.278,0.14-0.312,0.383-0.104,0.729c0.068,0.209,0.277,0.487,0.626,0.835c0.347,0.349,0.521,0.87,0.521,1.563l0.312,0.417
				c0.139,0.141,0.261,0.261,0.365,0.365s0.087,0.297-0.052,0.574c0,0.14,0.086,0.278,0.261,0.418
				c0.172,0.139,0.329,0.277,0.469,0.416c0.139,0.14,0.209,0.278,0.209,0.417l0.208,1.564c0.068,0.349,0.104,0.695,0.104,1.042
				c0,0.35,0.068,0.696,0.209,1.043c0.138,0.487,0.068,1.009-0.209,1.564v0.208c0.209,0.349,0.312,0.644,0.312,0.887
				c0,0.244-0.069,0.539-0.208,0.887c-0.209,0.14-0.383,0.364-0.521,0.679c-0.141,0.312-0.209,0.572-0.209,0.781h0.209l-1.043,1.877
				c-0.14,0.14-0.208,0.296-0.208,0.469c0,0.175-0.036,0.365-0.104,0.573v0.209c-0.417,0.141-0.678,0.384-0.782,0.73
				c-0.104,0.349-0.227,0.695-0.365,1.042c-0.557,0.973-1.392,1.911-2.503,2.815c-0.557,0.419-1.112,0.799-1.668,1.147
				c-0.558,0.347-1.183,0.59-1.877,0.73c-0.278,0-0.521,0.052-0.73,0.156c-0.208,0.104-0.417,0.19-0.625,0.262
				c-0.904,0.346-1.791,0.555-2.659,0.624c-0.87,0.068-1.791,0.034-2.764-0.104c-0.766-0.069-1.512-0.208-2.242-0.417
				c-0.729-0.208-1.441-0.487-2.138-0.834c-0.208-0.14-0.417-0.297-0.625-0.469c-0.209-0.175-0.417-0.331-0.626-0.47
				c-0.834-0.695-1.182-1.582-1.043-2.659c0.141-1.077,0.383-2.033,0.73-2.867c0.14-0.556,0.312-1.095,0.521-1.616
				c0.208-0.521,0.452-1.025,0.729-1.513c0.141-0.347,0.401-0.816,0.782-1.407c0.383-0.59,0.746-0.955,1.095-1.095
				c-0.349,0.14-0.607,0.349-0.782,0.625c-0.173,0.279-0.364,0.521-0.573,0.73c0.349-0.765,0.766-1.477,1.251-2.138
				c0.486-0.66,1.007-1.338,1.564-2.034c0.485-0.555,0.99-1.11,1.512-1.668c0.521-0.556,1.164-1.007,1.93-1.355
				c0.139,0,0.208-0.068,0.208-0.209h0.104c0.068-0.068,0.173-0.034,0.312,0.104c0,0.141-0.069,0.209-0.208,0.209
				c-0.558,0.486-1.061,1.008-1.512,1.563c-0.453,0.558-0.957,1.113-1.513,1.669c-0.14,0.14-0.296,0.261-0.469,0.365
				c-0.175,0.104-0.192,0.297-0.053,0.573c0.765-0.765,1.477-1.494,2.138-2.19c0.66-0.693,1.372-1.39,2.138-2.085
				c0.626-0.556,1.252-1.06,1.877-1.512c0.626-0.452,1.252-0.921,1.877-1.407c0.277-0.21,0.365-0.382,0.261-0.522
				c-0.104-0.139-0.191-0.277-0.261-0.417c-0.069,0-0.122,0.018-0.156,0.052c-0.035,0.036-0.088,0.054-0.156,0.054
				c-0.557,0.348-1.026,0.694-1.407,1.043c-0.383,0.348-0.748,0.729-1.096,1.146l-0.104,0.104c-0.141,0.07-0.313,0.122-0.521,0.156
				c-0.209,0.036-0.383,0.122-0.521,0.262c0.139-0.418,0.276-0.695,0.417-0.834l2.815-2.399c0.209-0.209,0.209-0.451,0-0.73
				l-3.024-3.649l-5.839-6.569c-0.973-1.182-1.599-2.642-1.877-4.38c-0.277-1.736-0.034-3.405,0.729-5.005
				c0.349-0.694,0.938-1.425,1.772-2.19c0.835-0.764,1.808-1.372,2.92-1.824c1.111-0.452,2.294-0.694,3.546-0.73
				c1.251-0.034,2.467,0.331,3.649,1.095c0.209,0.141,0.485,0.313,0.834,0.521c0.348,0.209,0.643,0.436,0.887,0.678
				c0.243,0.245,0.399,0.506,0.469,0.782c0.069,0.278-0.104,0.626-0.521,1.043c-0.141,0.14-0.558,0.088-1.252-0.156
				c-0.695-0.243-1.112-0.399-1.251-0.47c-0.834-0.208-1.478-0.104-1.93,0.313s-0.817,0.956-1.095,1.616
				c-0.278,0.661-0.453,1.392-0.521,2.189c-0.069,0.8-0.104,1.478-0.104,2.033c-0.07,0.558,0,1.113,0.208,1.669
				c0.209,0.557,0.485,1.112,0.834,1.668c0.626,0.975,1.304,1.913,2.034,2.815c0.729,0.904,1.476,1.809,2.241,2.712
				c0.277,0.349,0.59,0.678,0.938,0.99c0.348,0.312,0.694,0.609,1.043,0.887c0.139,0.14,0.348,0.14,0.626,0
				c0.347-0.277,0.642-0.538,0.886-0.782c0.243-0.243,0.538-0.47,0.887-0.678c0.765-0.556,1.546-1.129,2.347-1.721
				c0.798-0.59,1.58-1.199,2.346-1.825c0.068,0.07,0.139,0.104,0.209,0.104c-0.417,0.626-0.87,1.183-1.355,1.669L140.771,43.436z
				 M126.067,61.163c-0.349,0.417-0.696,0.852-1.043,1.303c-0.349,0.453-0.453,0.991-0.312,1.617
				c0.068,0.208,0.242,0.521,0.521,0.938c0.276-0.139,0.537-0.157,0.781-0.053c0.243,0.104,0.538,0.156,0.887,0.156
				c0.765,0.141,1.528,0.036,2.294-0.312c0.485-0.277,0.955-0.537,1.408-0.782c0.451-0.242,0.92-0.537,1.407-0.887
				c0.626-0.485,1.252-0.954,1.877-1.407c0.626-0.451,1.147-1.06,1.564-1.825c0.417-0.834,0.765-1.685,1.043-2.555
				c0.277-0.868,0.417-1.894,0.417-3.076l-1.043-3.232c-0.208-0.209-0.349-0.277-0.417-0.209c-0.487,0.349-0.956,0.714-1.407,1.096
				c-0.453,0.384-0.923,0.781-1.408,1.199c-0.278,0.208-0.487,0.469-0.626,0.781c-0.14,0.313-0.312,0.61-0.521,0.887l-1.668,1.877
				c-0.349,0.349-0.695,0.714-1.043,1.095c-0.349,0.383-0.695,0.782-1.043,1.199c-0.278,0.349-0.539,0.714-0.782,1.096
				C126.709,60.451,126.414,60.816,126.067,61.163z M139.623,64.187c0-0.068-0.018-0.12-0.052-0.156
				c-0.036-0.034-0.052-0.086-0.052-0.156h-0.521c0.068,0.14,0.104,0.278,0.104,0.417l0.104,0.209c-0.14,0-0.244,0.035-0.312,0.104
				l-0.626,0.521v-0.104c-0.07,0.14-0.14,0.208-0.208,0.208c-0.07,0-0.175,0.07-0.313,0.209c-0.349,0.278-0.678,0.556-0.99,0.834
				c-0.313,0.277-0.644,0.556-0.991,0.834l-1.042,0.521c-0.349,0.277-0.678,0.522-0.991,0.731c-0.312,0.207-0.644,0.416-0.99,0.625
				l-2.086,0.521v-0.208c0.139-0.141,0.382-0.279,0.73-0.418l0.729-0.312h-0.521c-0.557,0.068-1.095,0.139-1.616,0.209
				c-0.521,0.068-1.061,0-1.616-0.209c-0.14-0.07-0.261-0.088-0.365-0.052c-0.104,0.034-0.227,0.052-0.364,0.052
				c-0.418-0.07-0.835-0.052-1.252,0.052c-0.417,0.104-0.87,0.087-1.355-0.052h-0.312l0.729,0.521
				c0.417,0.209,0.799,0.312,1.147,0.312c0.347,0,0.798-0.069,1.355-0.207c0-0.071-0.141-0.176-0.417-0.314h0.625l0.521,0.314
				c-0.14,0.067-0.244,0.138-0.312,0.207c-0.07,0.068-0.175,0.104-0.312,0.104c-0.209,0.068-0.521,0.104-0.938,0.104v0.209
				c0.347,0,0.712,0.016,1.095,0.052c0.381,0.034,0.746,0.052,1.095,0.052c1.39,0.139,2.745-0.104,4.066-0.729
				c0.277-0.209,0.66-0.314,1.147-0.314c0.347-0.069,0.887-0.296,1.616-0.678c0.73-0.383,1.163-0.747,1.304-1.095l0.729-0.938
				L139.623,64.187z M132.741,68.984c-0.07,0-0.141-0.037-0.209-0.105l-0.104,0.105H132.741z M139.728,63.665l0.209-0.104h-0.313
				C139.623,63.631,139.657,63.665,139.728,63.665z"/>
			<path fill="#58595B" d="M177.162,52.299c-0.278,0.417-0.644,0.696-1.095,0.835c-0.453,0.14-0.886,0.208-1.304,0.208
				c-1.183,0-2.138-0.295-2.867-0.887c-0.729-0.589-1.287-1.337-1.668-2.241c-0.384-0.903-0.644-1.877-0.782-2.92
				c-0.141-1.043-0.209-2.016-0.209-2.92c0-1.181,0.156-2.954,0.47-5.318c0.312-2.362,0.834-4.727,1.563-7.091
				c0.73-2.362,1.65-4.432,2.764-6.204c1.111-1.773,2.467-2.659,4.066-2.659c0.974,0,1.633,0.383,1.981,1.146
				c0.348,0.767,0.521,1.53,0.521,2.295c0,1.809-0.244,3.562-0.729,5.266c-0.487,1.704-1.043,3.426-1.669,5.162
				c-0.625,1.738-1.183,3.493-1.668,5.266c-0.487,1.772-0.73,3.598-0.73,5.475l0.104,1.355l0.626-0.207
				c1.46-1.878,2.779-3.581,3.962-5.111c1.182-1.528,2.276-3.058,3.285-4.588c1.007-1.528,1.998-3.11,2.972-4.745
				c0.973-1.632,2.016-3.527,3.129-5.683c0.138-0.277,0.364-0.66,0.678-1.147c0.312-0.485,0.659-0.954,1.043-1.407
				c0.381-0.451,0.764-0.851,1.146-1.199c0.382-0.348,0.746-0.521,1.095-0.521c0.835,0,1.547,0.383,2.138,1.147
				c0.59,0.766,0.887,1.529,0.887,2.294c0,0.069-0.261,1.026-0.782,2.867c-0.521,1.844-1.112,3.91-1.772,6.205
				c-0.662,2.294-1.287,4.467-1.877,6.517c-0.592,2.052-0.957,3.321-1.095,3.807c-0.209,0.766-0.365,1.53-0.47,2.294
				c-0.104,0.766-0.331,1.53-0.678,2.294l-0.104,0.209l-0.208-0.209l0.104-0.625l-0.104-0.209l-0.104,0.104
				c-0.209,0.834-0.312,1.668-0.312,2.502c0.417,0.558,0.537,1.08,0.364,1.564c-0.174,0.487-0.4,0.73-0.678,0.73l-0.104,0.208
				c-0.14,0.558-0.174,1.199-0.104,1.93c0.068,0.729,0.104,1.373,0.104,1.929c0,0.141-0.035,0.331-0.104,0.573
				c-0.07,0.245-0.141,0.437-0.209,0.574c-0.695,0.834-1.078,1.651-1.147,2.45c-0.069,0.8-0.104,1.687-0.104,2.659
				s-0.209,1.878-0.626,2.712l-0.729,0.729c-0.418,0.068-0.782,0.261-1.096,0.573c-0.312,0.312-0.573,0.66-0.781,1.043
				c-0.209,0.381-0.365,0.695-0.47,0.938c-0.104,0.242-0.156,0.329-0.156,0.261c-0.558,0.693-1.199,1.319-1.93,1.877
				c-0.729,0.556-1.303,1.146-1.72,1.772c-0.418,0.209-1.079,0.47-1.981,0.782c-0.904,0.312-1.861,0.607-2.868,0.887
				c-1.009,0.276-1.981,0.521-2.92,0.729s-1.616,0.312-2.033,0.312c-1.321,0-2.206-0.4-2.659-1.199
				c-0.451-0.8-0.678-1.756-0.678-2.867c0-0.209,0.07-0.644,0.209-1.304c0.14-0.66,0.312-1.339,0.521-2.033
				c0.208-0.695,0.417-1.321,0.625-1.877c0.209-0.558,0.417-0.834,0.626-0.834v0.209l-0.104,0.834
				c0.277-0.209,0.59-0.521,0.938-0.939c0.348-0.417,0.712-0.834,1.095-1.251c0.382-0.417,0.765-0.8,1.147-1.147
				c0.381-0.349,0.678-0.557,0.887-0.625c-0.209,1.319-0.714,2.484-1.513,3.493c-0.8,1.007-1.199,2.172-1.199,3.493
				c0,0.694,0.121,1.494,0.365,2.398c0.243,0.902,0.782,1.355,1.616,1.355c0.068,0,0.225-0.018,0.47-0.052
				c0.242-0.036,0.364-0.088,0.364-0.156l-0.104-0.209c-0.767-0.209-1.252-0.644-1.46-1.304c-0.209-0.661-0.313-1.339-0.313-2.033
				c0-0.349,0-0.678,0-0.99c0-0.313,0.034-0.644,0.104-0.991l0.104-0.312v0.312c0,0.485-0.018,0.938-0.052,1.355
				c-0.036,0.418-0.019,0.869,0.052,1.356c0.139,0.555,0.365,1.11,0.678,1.668c0.312,0.556,0.816,0.834,1.512,0.834
				c1.32,0,2.52-0.714,3.598-2.138c1.077-1.426,2.05-3.269,2.92-5.526c0.868-2.26,1.599-4.76,2.19-7.508
				c0.589-2.746,1.11-5.439,1.563-8.082c0.451-2.641,0.816-5.058,1.095-7.247c0.277-2.189,0.486-3.841,0.626-4.953l0.209-0.104
				l-0.104-0.104L185.4,40.62c-0.349,0.626-0.714,1.217-1.095,1.772c-0.383,0.558-0.748,1.147-1.095,1.772
				c-0.975,1.669-1.877,3.129-2.712,4.38c-0.834,1.252-1.946,2.539-3.337,3.858l-2.398,0.417l-0.312,0.209l0.312,0.104
				C175.458,52.925,176.258,52.647,177.162,52.299z M171.74,33.737c-0.07,0.07-0.104,0.141-0.104,0.209h0.104l0.104-0.104
				C171.845,33.773,171.809,33.737,171.74,33.737z M184.671,61.059l-0.104,0.104v0.104c0.068,0,0.104-0.034,0.104-0.104V61.059z
				 M184.983,59.703c0,0.208-0.036,0.349-0.104,0.417l0.209,0.104l0.104-0.209c-0.07-0.068-0.104-0.12-0.104-0.156
				C185.088,59.825,185.052,59.772,184.983,59.703z M185.4,56.991l-0.104,0.104h0.104c0-0.068,0.034-0.104,0.104-0.104H185.4z
				 M185.817,55.011c-0.07,0-0.14,0.035-0.208,0.104v0.209c0.068-0.068,0.138-0.104,0.208-0.104V55.011z M189.05,40.411
				l-0.312-0.104c-0.278,1.112-0.521,2.189-0.729,3.232c-0.209,1.043-0.418,2.121-0.626,3.232c-0.209,1.112-0.453,2.226-0.73,3.337
				c-0.278,1.112-0.486,2.226-0.625,3.337v0.312l0.208-0.208c0.626-2.086,1.111-4.24,1.46-6.466
				C188.042,44.861,188.493,42.637,189.05,40.411z"/>
			<path fill="#58595B" d="M252.868,36.24c0.347-0.068,0.607-0.086,0.781-0.052c0.173,0.035,0.226,0.296,0.157,0.782
				c-0.209,1.809-0.835,3.511-1.877,5.109c-1.184,1.529-2.227,3.113-3.129,4.744c-0.904,1.635-1.6,3.355-2.085,5.162
				c-0.279,0.904-0.662,1.772-1.147,2.606c-0.487,0.835-0.904,1.705-1.251,2.607c-0.418,1.251-0.818,2.521-1.199,3.806
				c-0.383,1.288-0.782,2.591-1.199,3.911c-0.209,0.557-0.662,0.973-1.356,1.251c-1.042,0.626-2.189,1.148-3.44,1.564
				c-1.738,0.627-2.678-0.036-2.815-1.981c0-0.417-0.07-0.816-0.209-1.199c-0.14-0.381-0.208-0.782-0.208-1.199
				c-0.07-0.764-0.104-1.564-0.104-2.398s0-1.633,0-2.398l0.208-6.257c0-0.208,0.017-0.433,0.053-0.678
				c0.034-0.242,0.052-0.503,0.052-0.782c-0.278,0.209-0.766,0.453-1.46,0.73c-0.904,0.557-1.86,0.922-2.867,1.095
				c-1.009,0.175-2.034,0.192-3.076,0.052c-0.975-0.068-2.018-0.242-3.129-0.521c-0.695-0.069-1.287-0.277-1.772-0.626
				c-0.487-0.348-0.904-0.799-1.251-1.355c-1.601-2.433-2.469-4.936-2.607-7.508c-0.14-2.571,0.348-5.179,1.46-7.821
				c0.485-1.043,1.077-2.033,1.772-2.972c0.694-0.938,1.425-1.859,2.19-2.763c0.556-0.695,1.146-1.32,1.772-1.878
				c0.626-0.556,1.285-1.077,1.981-1.564c0.556-0.347,1.181-0.59,1.877-0.729c0.694-0.139,1.355-0.313,1.981-0.521
				c0.417-0.139,0.834-0.243,1.251-0.312s0.868-0.139,1.355-0.209c0.626-0.068,1.252-0.068,1.877,0c0.903,0.14,1.46,0.14,1.669,0
				c0.208-0.139,0.381-0.626,0.521-1.46c0.556-2.503,1.095-5.005,1.616-7.508s1.059-5.04,1.616-7.612
				c0.139-0.556,0.242-1.111,0.312-1.669c0.068-0.556-0.036-1.11-0.312-1.668c-0.209-0.277-0.244-0.556-0.104-0.834
				c0.139-0.277,0.417-0.486,0.834-0.626c0.903-0.139,1.773-0.261,2.607-0.365s1.702,0.019,2.606,0.365
				c0.277,0.07,0.504,0.209,0.678,0.417c0.173,0.209,0.329,0.417,0.47,0.626c0.485,1.183,0.729,2.364,0.729,3.545
				c0,1.184-0.069,2.364-0.208,3.547c-0.141,1.111-0.278,2.225-0.417,3.336c-0.141,1.112-0.279,2.26-0.417,3.441
				c0,0.208-0.07,0.312-0.209,0.312c-0.209,0.07-0.47,0.312-0.782,0.729c-0.312,0.418-0.4,0.696-0.261,0.835
				c0.139,0.069,0.243,0.069,0.313,0c0.068-0.068,0.172-0.104,0.312-0.104c0.139-0.139,0.312-0.209,0.521-0.209
				c0,0.141,0.016,0.245,0.052,0.313c0.034,0.069,0.017,0.174-0.052,0.312c-0.209,0.349-0.417,0.714-0.626,1.095
				c-0.208,0.383-0.383,0.748-0.521,1.095c-0.14,0.349-0.227,0.73-0.261,1.147c-0.035,0.417-0.122,0.8-0.261,1.147
				c-0.349,1.6-0.695,3.146-1.043,4.64c-0.349,1.496-0.625,3.042-0.834,4.641c-0.278,1.321-0.435,2.644-0.469,3.963
				c-0.036,1.321-0.122,2.643-0.261,3.962c-0.07,0.141-0.07,0.245,0,0.313c0.068,0.069,0.104,0.14,0.104,0.208l0.312-0.417
				c0.068-0.276,0.139-0.521,0.208-0.729c0.069-0.209,0.139-0.451,0.209-0.73l0.104,1.564l-0.209,3.024
				c-0.069,0.278-0.278,0.521-0.625,0.729l0.417-0.938c0-0.138-0.07-0.347-0.209-0.626c-0.07,0.141-0.156,0.227-0.261,0.261
				c-0.104,0.036-0.156,0.122-0.156,0.261c-0.14,0.487-0.227,0.957-0.261,1.408c-0.036,0.453-0.122,0.922-0.261,1.407
				c-0.07,0.417-0.156,0.835-0.261,1.252s-0.156,0.834-0.156,1.251c-0.07,0.278-0.052,0.558,0.052,0.834
				c0.104,0.279,0.157,0.558,0.157,0.835c0,0.349-0.036,0.557-0.104,0.625c-0.558,0.349-0.766,0.766-0.626,1.252
				c0.139,0.486,0.139,0.938,0,1.355c-0.07,0.069-0.036,0.174,0.104,0.312l0.208-0.104c-0.208-0.417-0.174-0.711,0.104-0.886
				c0.277-0.173,0.485-0.434,0.626-0.782c0.973-2.086,1.963-4.205,2.972-6.361c1.007-2.154,2.033-4.275,3.076-6.36
				c0.417-0.765,0.887-1.513,1.408-2.241c0.521-0.731,1.059-1.443,1.616-2.139c0.139-0.139,0.312-0.225,0.521-0.261
				c0.208-0.034,0.417-0.087,0.625-0.156c0,0.14-0.018,0.261-0.052,0.364C252.884,35.979,252.868,36.102,252.868,36.24z
				 M224.921,50.318c-0.069,0-0.104,0.035-0.104,0.104c0,0.07,0.034,0.141,0.104,0.209c0-0.068,0.017-0.104,0.053-0.104
				c0.034,0,0.052-0.035,0.052-0.105C225.025,50.354,224.989,50.318,224.921,50.318z M226.485,43.123
				c0.209,0.766,0.382,1.548,0.521,2.346c0.139,0.8,0.347,1.582,0.626,2.348c0.208,0.903,0.693,1.008,1.46,0.312
				c0.973-0.764,1.807-1.599,2.502-2.503c0.694-0.902,1.32-1.877,1.877-2.919c0.348-0.765,0.73-1.528,1.147-2.295
				c0.417-0.764,0.694-1.528,0.834-2.294c0.348-1.668,0.59-3.337,0.73-5.005c0.139-1.669,0.312-3.371,0.521-5.11
				c0.138-0.276,0.138-0.555,0-0.834c-0.418-0.485-1.113-0.729-2.086-0.729c-0.975,0-1.668,0.208-2.086,0.625
				c-1.183,1.253-2.051,2.591-2.606,4.015c-0.558,1.426-1.009,2.904-1.355,4.433l-0.938,3.023c-0.209,0.766-0.401,1.53-0.574,2.294
				C226.885,41.595,226.694,42.359,226.485,43.123z M226.694,49.797V49.9h0.104L226.694,49.797z M235.87,61.788
				c0.139-0.485,0.313-0.972,0.521-1.46c0.209-0.485,0.313-1.007,0.313-1.563c0.068-0.973,0.068-1.911,0-2.815
				c-0.07-0.903-0.104-1.842-0.104-2.815c0-0.139-0.036-0.226-0.104-0.261c-0.07-0.034-0.14-0.121-0.209-0.261
				c-0.069,0.14-0.14,0.227-0.208,0.261c-0.07,0.035-0.104,0.122-0.104,0.261c-0.14,0.208-0.208,0.417-0.208,0.625
				c0,0.209-0.036,0.417-0.104,0.626c-0.558,1.112-0.8,2.226-0.73,3.337c0.068,1.112,0.139,2.226,0.209,3.337
				c0.068,0.14,0.12,0.227,0.156,0.261c0.034,0.036,0.087,0.122,0.156,0.261l0.209-0.626V60.85c0,0.07,0.068-0.033,0.208-0.312
				c0.068,0.349,0.087,0.609,0.053,0.782C235.887,61.493,235.87,61.65,235.87,61.788z M243.482,43.019l-0.104-0.104l-0.104,0.104
				c0.068,0,0.104,0.036,0.104,0.104L243.482,43.019z M246.611,20.808c0-0.139-0.019-0.226-0.053-0.261
				c-0.035-0.034-0.052-0.087-0.052-0.157l-0.209,0.104c0,0.209,0.034,0.349,0.104,0.417
				C246.471,20.911,246.541,20.877,246.611,20.808z"/>
			<path fill="#58595B" d="M255.787,51.257c0,0.486-0.174,0.625-0.521,0.417c-0.417-0.209-0.766-0.243-1.042-0.104
				c-0.209,0.07-0.453,0.052-0.73-0.053c-0.278-0.104-0.558-0.19-0.834-0.26c-0.141,0-0.278-0.035-0.417-0.104
				c-0.141-0.068-0.279-0.104-0.417-0.104c-0.418,0-0.801-0.243-1.147-0.729c-0.349-0.625-0.592-1.252-0.729-1.878
				c-0.141-0.624-0.209-1.285-0.209-1.98c0-0.973,0.034-1.93,0.104-2.868c0.068-0.938,0.139-1.894,0.208-2.867
				c0-0.556,0.017-1.13,0.053-1.721c0.034-0.59,0.052-1.163,0.052-1.721v-0.104c0.348-0.556,0.504-1.146,0.47-1.772
				c-0.036-0.626,0.016-1.251,0.156-1.877c0.139-0.417,0.242-0.851,0.312-1.304c0.068-0.45,0.139-0.921,0.209-1.407l0.938-4.484
				l0.625-1.981l0.209-0.938c0.068-0.485,0.59-0.694,1.564-0.626c1.668,0.209,2.92,1.114,3.754,2.712
				c0.139,0.208,0.173,0.453,0.104,0.729c-0.07,0.278-0.141,0.558-0.209,0.834c-0.07,0.279-0.156,0.521-0.261,0.73
				c-0.104,0.208-0.227,0.417-0.365,0.626c-0.069,0.14-0.104,0.383-0.104,0.73l-0.418,1.354h0.104c0,0.07,0.017,0.122,0.053,0.156
				c0.034,0.036,0.052,0.088,0.052,0.157c0,0.209,0.034,0.418,0.104,0.625l0.625-1.25v0.312c-0.14,0.349-0.244,0.696-0.312,1.043
				c-0.07,0.349-0.244,0.695-0.521,1.043c-0.14,0.14-0.208,0.33-0.208,0.573c0,0.244-0.036,0.505-0.104,0.782
				c-0.209,0.626-0.331,1.27-0.365,1.929c-0.036,0.662-0.088,1.34-0.156,2.034c-0.141,0.766-0.278,1.512-0.417,2.241
				c-0.141,0.73-0.278,1.479-0.417,2.242c-0.07,0.209-0.104,0.436-0.104,0.678c0,0.246,0,0.47,0,0.678l-0.312,1.877
				c0,0.417,0.068,0.904,0.208,1.46c0,0.07,0.068,0.104,0.209,0.104c0.139,0,0.242-0.034,0.312-0.104
				c0.485-0.556,0.955-1.129,1.408-1.721c0.451-0.589,0.954-1.163,1.512-1.72l1.668-2.086c0.556-0.626,1.077-1.268,1.564-1.93
				c0.485-0.659,0.973-1.371,1.46-2.138c0.139-0.208,0.277-0.659,0.417-1.355c0.139-1.181,0.399-2.328,0.782-3.44
				c0.381-1.111,0.851-2.259,1.408-3.441l1.772-4.38c0.139-0.347,0.417-0.521,0.834-0.521l2.711,0.521
				c0.486,0.278,0.73,0.661,0.73,1.147c-0.07,0.349,0.034,0.8,0.312,1.355c0.139,0.417,0.104,0.729-0.104,0.939
				c-0.208,0.207-0.383,0.416-0.521,0.624l-0.312,0.521c-0.14,0.418-0.278,0.853-0.417,1.304c-0.14,0.453-0.383,0.853-0.729,1.199
				c-0.141,0.141-0.209,0.297-0.209,0.47c0,0.175-0.07,0.33-0.209,0.469c0,0.209-0.069,0.383-0.208,0.521
				c-0.07,0.142-0.104,0.278-0.104,0.417c0.068,0,0.121-0.017,0.156-0.052c0.034-0.034,0.121-0.053,0.261-0.053
				c0-0.138,0.068-0.208,0.209-0.208l-0.313,1.043c-0.278,0.695-0.521,1.496-0.729,2.398c-0.07,0.417-0.141,0.834-0.209,1.251
				c-0.069,0.417-0.069,0.8,0,1.147c0.139,0.349,0.121,0.678-0.052,0.99c-0.175,0.312-0.227,0.644-0.156,0.99v0.521l0.208,0.104
				c0.277-0.209,0.399-0.225,0.365-0.052c-0.036,0.174-0.052,0.296-0.052,0.364l-0.313,1.147h-0.208v-0.209h-0.104
				c0,0.141,0.034,0.209,0.104,0.209c0,0.209-0.019,0.417-0.053,0.626c-0.035,0.208-0.052,0.452-0.052,0.729
				c0.068-0.068,0.104-0.139,0.104-0.208l0.312-0.313c0,0.07-0.018,0.141-0.052,0.209c-0.036,0.07-0.053,0.14-0.053,0.208
				l-0.208,1.355v0.939c0.068,0.208,0.12,0.435,0.156,0.678c0.034,0.244,0.017,0.469-0.052,0.678c0,0.208-0.07,0.591-0.209,1.147
				c-0.07,0.14-0.14,0.244-0.209,0.312c-0.069,0.069,0.035,0.104,0.313,0.104c0.068,0,0.12,0.07,0.156,0.209
				c0.034,0.14,0.052,0.278,0.052,0.418c-0.14,0.277-0.156,0.539-0.052,0.781c0.104,0.244,0.225,0.435,0.365,0.573
				c0.139,0.209,0.242,0.244,0.312,0.104c0.068-0.139,0.139-0.243,0.209-0.312c0.556-0.835,1.111-1.808,1.668-2.92
				c0.556-0.903,1.111-1.808,1.669-2.712c0.556-0.902,1.11-1.841,1.668-2.815c0.347-0.556,0.73-1.129,1.147-1.72
				c0.417-0.59,0.834-1.164,1.251-1.721l0.209-0.209c0,0.07,0.016,0.122,0.052,0.157c0.034,0.035,0.052,0.087,0.052,0.155
				l-0.312,1.043c0,0.141-0.07,0.261-0.209,0.365c-0.14,0.104-0.069,0.228,0.209,0.365c0,0.278-0.14,0.557-0.417,0.834
				c-0.07,0.209-0.141,0.383-0.209,0.521c-0.069,0.14-0.14,0.312-0.208,0.521c0,0.14,0.034,0.244,0.104,0.312
				c0.068,0.07,0.104,0.175,0.104,0.312l0.209,1.252c0.068,0.14,0.034,0.33-0.104,0.573c-0.14,0.244-0.278,0.436-0.417,0.573
				l-0.938,1.356l-1.772,2.607c-0.141,0.14-0.209,0.243-0.209,0.312c0,0.487-0.122,0.87-0.365,1.147
				c-0.244,0.278-0.539,0.558-0.886,0.834l-0.313,0.626c-0.208,0.349-0.452,0.558-0.729,0.626c-0.278,0.069-0.558,0.174-0.834,0.312
				l-2.607,0.626c-0.834,0.14-1.478,0.018-1.929-0.365c-0.453-0.382-0.853-0.921-1.199-1.616c-0.558-0.973-0.923-1.981-1.095-3.024
				c-0.175-1.043-0.261-2.085-0.261-3.128c-0.07-0.694-0.104-1.372-0.104-2.033c0-0.66,0-1.338,0-2.034V42.08l-1.355,1.46
				c-0.279,0.349-0.539,0.661-0.782,0.938c-0.244,0.278-0.539,0.557-0.887,0.834v0.312c0.139,0,0.243-0.034,0.313-0.104
				c0.068,0,0.208-0.104,0.417-0.313l-1.252,2.712c-0.417,0.904-1.042,1.6-1.877,2.085l-0.208,0.417l-0.313,0.209
				c-0.14,0.278-0.349,0.417-0.625,0.417C256.238,51.048,255.996,51.118,255.787,51.257z M250.469,42.288h-0.208
				c0,0.349,0,0.644,0,0.887c0,0.244-0.036,0.539-0.104,0.887h0.209c0-0.348,0.016-0.643,0.052-0.887
				C250.451,42.932,250.469,42.637,250.469,42.288z M250.365,45.521h-0.209v0.312c0,0.487,0,0.956,0,1.407
				c0,0.453,0.034,0.887,0.104,1.304c0.068,0.417,0.312,0.662,0.729,0.73c0.068,0,0.104,0.035,0.104,0.104l0.209,0.209v-0.417
				l-0.73-2.189C250.434,46.426,250.365,45.938,250.365,45.521z M250.365,41.871h0.104c0.069,0,0.104-0.034,0.104-0.104l1.252-6.048
				l0.312-1.46l0.417-1.563v-0.209h-0.208c-0.626,0.487-0.975,1.009-1.043,1.564c0,0.557-0.053,1.131-0.156,1.721
				c-0.104,0.591-0.192,1.165-0.261,1.72c-0.141,0.767-0.245,1.496-0.313,2.19C250.504,40.377,250.434,41.107,250.365,41.871z
				 M252.347,50.109c0.068-0.068,0.104-0.139,0.104-0.209l-0.625-0.312V49.9L252.347,50.109z M255.787,51.257l0.313-0.209
				l0.312-0.312c-0.141,0-0.244-0.018-0.312-0.054c-0.07-0.034-0.141-0.052-0.209-0.052l-0.938,0.729
				c0.209,0,0.365-0.016,0.47-0.052C255.526,51.275,255.647,51.257,255.787,51.257z M256.726,50.527c0,0.069-0.035,0.14-0.104,0.209
				c0.138,0,0.276-0.035,0.417-0.105h-0.209C256.76,50.631,256.726,50.597,256.726,50.527z M257.247,50.318
				c0-0.069-0.036-0.104-0.104-0.104C257.143,50.283,257.177,50.318,257.247,50.318z M257.456,31.86v-0.104l-0.104,0.104v0.104
				C257.42,31.965,257.456,31.931,257.456,31.86z M259.541,43.227h0.104c0-0.068-0.036-0.104-0.104-0.104V43.227z M260.897,45.104
				V45l-0.104,0.208L260.897,45.104z M261.105,43.645c0.068,0,0.104,0.018,0.104,0.052c0,0.036,0.034,0.052,0.104,0.052l1.563-1.772
				l0.209-0.417v-0.312c-0.07,0-0.104,0.018-0.104,0.052c0,0.036-0.036,0.052-0.104,0.052l-1.251,1.564L261.105,43.645z
				 M264.233,46.668l-0.104,0.104c0,0.07,0.068,0.244,0.208,0.521l0.209-0.626V45c0-0.139-0.019-0.225-0.053-0.261
				c-0.035-0.034-0.052-0.087-0.052-0.156c-0.14,0.14-0.209,0.278-0.209,0.417V46.668z M264.547,47.816
				c0-0.069-0.036-0.14-0.104-0.21h-0.104v0.313c0,0.14,0.017,0.26,0.053,0.364c0.034,0.104,0.052,0.227,0.052,0.366
				C264.511,48.511,264.547,48.232,264.547,47.816z M264.755,50.109h0.104c0-0.139-0.018-0.261-0.052-0.365
				c-0.036-0.104-0.053-0.225-0.053-0.365c0-0.068-0.018-0.104-0.052-0.104c-0.036,0-0.052-0.034-0.052-0.104l-0.209,0.208
				l0.312,1.46l0.104,0.104c0.068-0.068,0.068-0.104,0-0.104C264.859,50.492,264.823,50.249,264.755,50.109z M265.381,51.36
				c-0.07,0-0.122-0.016-0.156-0.052c-0.036-0.033-0.088-0.052-0.156-0.052c-0.07,0-0.104,0.019-0.104,0.052
				c0,0.036-0.036,0.052-0.104,0.052l0.209,0.209h0.104L265.381,51.36z M266.424,35.823l-0.312,0.312
				c-0.141,0.558-0.245,1.061-0.313,1.513c-0.07,0.452-0.14,0.956-0.208,1.512c-0.141,0.904-0.245,1.791-0.313,2.659
				c-0.069,0.87-0.174,1.756-0.312,2.659h0.104L266.424,35.823z M266.424,35.823c0-0.139,0.017-0.243,0.052-0.312
				c0.034-0.067,0.053-0.173,0.053-0.313h-0.209c0,0.141,0.017,0.246,0.052,0.313C266.406,35.58,266.424,35.685,266.424,35.823z
				 M266.736,34.363c0-0.068,0.034-0.104,0.104-0.104l-0.104-0.104l-0.104,0.104C266.632,34.329,266.666,34.363,266.736,34.363z
				 M268.927,45.417l-0.313-0.313l-0.208,0.209c0.139,0.141,0.208,0.244,0.208,0.312L268.927,45.417z M268.613,48.023l-0.104,0.104
				c0,0.07,0.035,0.104,0.104,0.104l0.104-0.104L268.613,48.023z M268.718,51.36c-0.07,0-0.14,0.036-0.209,0.104
				c0.139,0.141,0.277,0.349,0.418,0.626c0.068,0,0.104-0.017,0.104-0.053c0-0.034,0.034-0.052,0.104-0.052
				C268.995,51.848,268.856,51.64,268.718,51.36z M268.613,46.146c0-0.068,0.017-0.104,0.053-0.104c0.034,0,0.052-0.034,0.052-0.104
				h-0.104V46.146z"/>
			<path fill="#58595B" d="M284.672,47.711l0.104,7.091c0,0.142,0.016,0.227,0.052,0.261c0.034,0.036,0.052,0.122,0.052,0.261
				c0.068-0.139,0.139-0.209,0.209-0.209c0.068,0,0.139-0.068,0.208-0.208l1.356-2.294c0.276-0.626,0.746-1.494,1.407-2.607
				c0.66-1.111,1.338-2.258,2.033-3.441c0.694-1.181,1.372-2.327,2.034-3.44c0.659-1.111,1.129-1.945,1.407-2.503l1.355-2.607
				c0.068-0.138,0.139-0.225,0.209-0.261c0.068-0.034,0.139-0.086,0.208-0.156c0.209,0.209,0.313,0.383,0.313,0.521
				c-0.07,0.417-0.104,0.834-0.104,1.252c0,0.417-0.07,0.8-0.209,1.146c-0.417,1.251-0.974,2.573-1.668,3.963
				c-0.695,1.392-1.408,2.781-2.138,4.172c-0.73,1.391-1.443,2.746-2.138,4.065c-0.695,1.322-1.287,2.573-1.772,3.755
				c-0.209,0.625-0.487,1.234-0.835,1.824c-0.349,0.592-0.695,1.165-1.042,1.721c-0.141,0.349-0.418,0.521-0.835,0.521
				c-0.625,0.14-1.251,0.244-1.877,0.312c-0.625,0.07-1.251,0.141-1.877,0.209c-1.112,0.07-1.981-0.261-2.606-0.99
				c-0.626-0.73-1.095-1.617-1.408-2.659c-0.312-1.043-0.521-2.138-0.625-3.285c-0.104-1.147-0.192-2.102-0.261-2.867
				c-0.279-2.988-0.349-5.84-0.209-8.551c0.139-2.712,0.485-5.457,1.043-8.238c0.556-3.059,1.215-6.048,1.981-8.968
				c0.764-2.92,1.563-5.84,2.398-8.76c0.556-1.736,1.146-3.457,1.772-5.161c0.626-1.703,1.251-3.424,1.877-5.162
				c0.277-0.694,0.59-1.355,0.938-1.981c0.347-0.626,0.59-1.319,0.729-2.086c0.209-0.693,0.538-1.129,0.991-1.303
				c0.451-0.173,0.955-0.329,1.512-0.47c0.556-0.139,1.077-0.242,1.564-0.312c0.485-0.068,1.007-0.139,1.564-0.209
				c0.347,0,0.712-0.016,1.095-0.052c0.381-0.034,0.712,0.156,0.99,0.573c0.068,0.141,0.087,0.278,0.053,0.417
				c-0.036,0.141-0.053,0.279-0.053,0.417l0.209,1.564c0.208,0.975,0.104,1.947-0.313,2.92c-0.069,0.07-0.104,0.14-0.104,0.209
				c-0.07,0.625-0.123,1.287-0.157,1.98c-0.035,0.696-0.122,1.392-0.261,2.086c-0.208,1.113-0.435,2.226-0.678,3.337
				c-0.244,1.113-0.678,2.189-1.303,3.232c-0.558,0.975-1.113,1.965-1.669,2.972c-0.557,1.009-1.112,2-1.668,2.973
				c-0.141,0.278-0.313,0.539-0.521,0.782c-0.209,0.244-0.383,0.505-0.521,0.781c-0.349,0.835-0.558,1.669-0.626,2.503
				c0,0.07,0.017,0.104,0.053,0.104c0.034,0,0.052,0.036,0.052,0.104c0-0.068,0.017-0.104,0.052-0.104
				c0.034,0,0.053-0.034,0.053-0.104l0.208-0.729c0,0.14-0.018,0.261-0.052,0.364c-0.036,0.104-0.052,0.227-0.052,0.365
				l-0.626,4.067c-0.07,0.557-0.156,1.095-0.261,1.616s-0.192,1.061-0.261,1.616c-0.07,0.35-0.052,0.661,0.052,0.938
				c0.104,0.278,0.121,0.557,0.053,0.834c0,0.904-0.122,1.877-0.365,2.92c-0.244,1.043-0.47,2.085-0.678,3.128
				c-0.209,1.043-0.383,2.069-0.521,3.076C284.428,45.956,284.463,46.877,284.672,47.711z M286.549,17.992
				c0.068-0.069,0.104-0.139,0.104-0.209l-0.104-0.104c-0.07,0.07-0.104,0.141-0.104,0.209
				C286.444,17.957,286.479,17.992,286.549,17.992z M287.383,17.992h-0.208l-0.313,0.938c-0.07,0.14-0.088,0.226-0.052,0.261
				c0.034,0.035,0.052,0.122,0.052,0.26l0.626-1.146c0-0.068-0.018-0.121-0.053-0.156C287.399,18.114,287.383,18.062,287.383,17.992
				z M287.695,17.574l-0.208-0.208c-0.141,0.14-0.244,0.208-0.312,0.208l0.104,0.209C287.417,17.783,287.556,17.715,287.695,17.574z
				 M287.383,13.925c0,0.07-0.036,0.104-0.104,0.104l0.104,0.104l0.104-0.104C287.417,14.029,287.383,13.995,287.383,13.925z
				 M287.8,16.532c0.139-0.418,0.209-0.589,0.209-0.521v-0.313l-0.209,0.417V16.532z M288.217,14.968h0.209
				c0,0.14,0.017,0.244,0.052,0.312c0.034,0.07,0.053,0.175,0.053,0.313l0.312-0.521l3.128-10.949
				c0.069-0.139,0.053-0.277-0.052-0.417c-0.104-0.138-0.192-0.277-0.261-0.418c-0.14,0.141-0.297,0.297-0.469,0.47
				c-0.175,0.175-0.331,0.331-0.47,0.47l-0.834,2.815v0.104c-0.417,0.209-0.573,0.47-0.47,0.782
				c0.104,0.313,0.087,0.609-0.052,0.888c-0.141,0.139-0.192,0.33-0.156,0.572c0.034,0.244,0.052,0.471,0.052,0.678h-0.208
				c-0.209,0.209-0.313,0.279-0.313,0.209c-0.069,0.14-0.104,0.349-0.104,0.625c0.486-0.138,0.694-0.086,0.626,0.157
				c-0.07,0.244-0.104,0.435-0.104,0.573L288.217,14.968z"/>
			<path fill="#58595B" d="M292.7,46.668c0.068-2.92,0.365-5.579,0.887-7.978c0.521-2.397,1.268-4.708,2.241-6.934
				c0.556-1.32,1.199-2.571,1.93-3.755c0.729-1.181,1.512-2.362,2.346-3.545c0.556-0.626,1.147-1.182,1.773-1.669
				c0.625-0.485,1.424-0.659,2.398-0.521c0.764,0.14,1.494,0.14,2.189,0c0.694-0.139,1.424-0.139,2.189,0
				c0.903,0.14,1.789,0.33,2.659,0.573c0.869,0.244,1.721,0.505,2.555,0.782c0.209,0,0.418,0.174,0.626,0.521
				c0.139,0.557,0.277,1.078,0.417,1.563c0.139,0.487,0.277,1.009,0.417,1.564c0.139,0.558,0.209,0.904,0.209,1.044
				c0,0.694-0.07,1.182-0.209,1.459c-0.14,0.278-0.296,0.505-0.469,0.678c-0.175,0.174-0.365,0.365-0.573,0.574
				c-0.141,0.14-0.313,0.104-0.521-0.105c-0.141-0.276-0.297-0.537-0.47-0.782c-0.174-0.242-0.331-0.503-0.469-0.78
				c-0.209-0.487-0.383-0.956-0.521-1.409c-0.141-0.451-0.313-0.887-0.521-1.304c-0.209-0.556-0.539-0.92-0.991-1.095
				c-0.452-0.173-0.956-0.329-1.512-0.469c-0.417-0.068-0.748,0.035-0.99,0.312c-0.245,0.278-0.47,0.558-0.678,0.834
				c-1.321,1.46-2.383,3.061-3.181,4.798c-0.8,1.737-1.513,3.511-2.138,5.317c-0.349,1.043-0.678,2.104-0.991,3.181
				c-0.312,1.078-0.469,2.207-0.469,3.389c0.068,0.766,0.052,1.512-0.053,2.242c-0.104,0.729-0.122,1.478-0.052,2.242
				c0,0.904,0.173,1.877,0.521,2.92c0.139,0.278,0.782,0.452,1.929,0.521c1.147,0.07,2.415-0.521,3.807-1.772
				c1.945-1.668,3.944-3.319,5.996-4.953c2.05-1.633,3.562-3.145,4.536-4.536c0.276-0.347,0.537-0.694,0.782-1.043
				c0.242-0.347,0.469-0.693,0.678-1.043c0.276-0.138,0.451-0.276,0.521-0.417c0.068,0.141,0.138,0.245,0.208,0.313
				c0.068,0.069,0.104,0.14,0.104,0.208c-0.07,0.349-0.104,0.714-0.104,1.095c0,0.384-0.07,0.714-0.208,0.991
				c-0.279,0.487-0.748,1.043-1.408,1.668c-0.661,0.626-1.373,1.27-2.138,1.93c-0.766,0.661-1.496,1.304-2.189,1.929
				c-0.696,0.626-1.184,1.184-1.46,1.669c-0.209,0.349-0.487,0.609-0.835,0.782c-0.349,0.174-0.661,0.435-0.938,0.781
				c-0.349,0.349-0.869,0.853-1.563,1.513c-0.696,0.661-1.53,1.322-2.503,1.981c-0.975,0.661-2.086,1.251-3.337,1.772
				s-2.572,0.782-3.963,0.782c-1.112,0.069-2.051-0.173-2.815-0.73c-0.766-0.556-1.426-1.285-1.981-2.189
				C293.117,49.693,292.562,48.06,292.7,46.668z"/>
			<path fill="#58595B" d="M317.726,43.54c-0.068-2.015,0.209-3.945,0.834-5.788c0.626-1.841,1.528-3.562,2.712-5.161
				c0-0.068,0.034-0.104,0.104-0.104c0.626-1.39,1.442-2.571,2.451-3.546c1.007-0.973,2.102-1.877,3.284-2.711
				c0.765-0.556,1.616-1.007,2.555-1.355c0.938-0.347,1.964-0.417,3.076-0.209c0.348,0.071,0.66,0.071,0.938,0
				c0.277-0.068,0.59-0.104,0.938-0.104c0.418,0,0.73,0.035,0.938,0.104c0.486,0.141,0.955,0.297,1.408,0.47
				c0.451,0.175,0.887,0.365,1.304,0.573c0.625,0.279,1.215,0.662,1.772,1.147c0.139,0,0.209,0.14,0.209,0.417
				c-0.141,0.349-0.227,0.729-0.261,1.147c-0.036,0.417-0.122,0.834-0.261,1.251c-0.417,1.112-1.009,2.104-1.773,2.972
				c-0.766,0.87-1.634,1.687-2.606,2.451c-0.558,0.486-1.131,0.922-1.721,1.303c-0.592,0.383-1.27,0.644-2.033,0.782
				c-0.209,0.07-0.417,0.175-0.626,0.312c-0.208,0.141-0.453,0.279-0.729,0.418c-0.349,0.14-0.644,0.278-0.887,0.417
				c-0.244,0.14-0.539,0.244-0.887,0.312c-0.695,0.07-1.217,0.487-1.563,1.251c-0.487,1.252-0.887,2.503-1.199,3.755
				c-0.313,1.251-0.47,2.538-0.47,3.857c0,0.558,0.277,1.009,0.834,1.357c0.974,0.416,2.016,0.52,3.129,0.312
				c1.111-0.209,2.189-0.573,3.232-1.095s1.981-1.095,2.815-1.721s1.46-1.111,1.877-1.46l4.067-3.858l2.815-3.128
				c0.347-0.486,0.764-0.59,1.251-0.313c0.277,0.209,0.399,0.417,0.365,0.626c-0.036,0.209-0.122,0.453-0.261,0.729l-0.521,0.73
				c-1.183,1.183-2.364,2.346-3.546,3.493c-1.183,1.147-2.398,2.242-3.649,3.285c-0.349,0.278-0.938,0.766-1.772,1.46
				c-0.834,0.695-1.861,1.391-3.076,2.085c-1.218,0.696-2.591,1.287-4.119,1.772c-1.53,0.487-3.128,0.626-4.797,0.418
				c-3.477-0.209-5.492-2.259-6.048-6.153c-0.07-0.417-0.104-0.834-0.104-1.251S317.726,43.957,317.726,43.54z M336.913,28.42
				c-0.209-0.139-0.418-0.329-0.626-0.574c-0.209-0.242-0.453-0.434-0.73-0.573c-0.278-0.139-0.625-0.068-1.042,0.209
				c-1.184,0.625-2.122,1.529-2.815,2.712c-0.418,0.694-0.887,1.354-1.408,1.98c-0.521,0.625-0.853,1.393-0.99,2.294
				c0,0.07-0.104,0.208-0.313,0.417l-0.729,1.772c-0.07,0.141-0.104,0.383-0.104,0.73l0.626-0.209l1.043-0.626
				c1.39-0.764,2.623-1.65,3.701-2.658c1.077-1.008,1.998-2.207,2.764-3.598c0.139-0.277,0.243-0.574,0.312-0.887
				C336.668,29.098,336.772,28.769,336.913,28.42z"/>
			<path fill="#58595B" d="M359.436,43.436c-0.417,0.558-0.558,1.078-0.417,1.564c0.068,0.278,0,0.557-0.209,0.834
				c-0.278,0.14-0.312,0.383-0.104,0.729c0.068,0.209,0.277,0.487,0.626,0.835c0.347,0.349,0.521,0.87,0.521,1.563l0.312,0.417
				c0.139,0.141,0.261,0.261,0.365,0.365s0.087,0.297-0.052,0.574c0,0.14,0.086,0.278,0.261,0.418
				c0.172,0.139,0.329,0.277,0.469,0.416c0.139,0.14,0.209,0.278,0.209,0.417l0.208,1.564c0.068,0.349,0.104,0.695,0.104,1.042
				c0,0.35,0.068,0.696,0.209,1.043c0.138,0.487,0.068,1.009-0.209,1.564v0.208c0.209,0.349,0.312,0.644,0.312,0.887
				c0,0.244-0.069,0.539-0.208,0.887c-0.209,0.14-0.383,0.364-0.521,0.679c-0.141,0.312-0.209,0.572-0.209,0.781h0.209l-1.043,1.877
				c-0.14,0.14-0.208,0.296-0.208,0.469c0,0.175-0.036,0.365-0.104,0.573v0.209c-0.417,0.141-0.678,0.384-0.782,0.73
				c-0.104,0.349-0.227,0.695-0.365,1.042c-0.557,0.973-1.392,1.911-2.503,2.815c-0.557,0.419-1.112,0.799-1.668,1.147
				c-0.558,0.347-1.183,0.59-1.877,0.73c-0.278,0-0.521,0.052-0.73,0.156c-0.208,0.104-0.417,0.19-0.625,0.262
				c-0.904,0.346-1.791,0.555-2.659,0.624c-0.87,0.068-1.791,0.034-2.764-0.104c-0.766-0.069-1.512-0.208-2.242-0.417
				c-0.729-0.208-1.441-0.487-2.138-0.834c-0.208-0.14-0.417-0.297-0.625-0.469c-0.209-0.175-0.417-0.331-0.626-0.47
				c-0.834-0.695-1.182-1.582-1.043-2.659c0.141-1.077,0.383-2.033,0.73-2.867c0.14-0.556,0.312-1.095,0.521-1.616
				c0.208-0.521,0.452-1.025,0.729-1.513c0.141-0.347,0.401-0.816,0.782-1.407c0.383-0.59,0.746-0.955,1.095-1.095
				c-0.349,0.14-0.607,0.349-0.782,0.625c-0.173,0.279-0.364,0.521-0.573,0.73c0.349-0.765,0.766-1.477,1.251-2.138
				c0.486-0.66,1.007-1.338,1.564-2.034c0.485-0.555,0.99-1.11,1.512-1.668c0.521-0.556,1.164-1.007,1.93-1.355
				c0.139,0,0.208-0.068,0.208-0.209h0.104c0.068-0.068,0.173-0.034,0.312,0.104c0,0.141-0.069,0.209-0.208,0.209
				c-0.558,0.486-1.061,1.008-1.512,1.563c-0.453,0.558-0.957,1.113-1.513,1.669c-0.14,0.14-0.296,0.261-0.469,0.365
				c-0.175,0.104-0.192,0.297-0.053,0.573c0.765-0.765,1.477-1.494,2.138-2.19c0.66-0.693,1.372-1.39,2.138-2.085
				c0.626-0.556,1.252-1.06,1.877-1.512c0.626-0.452,1.252-0.921,1.877-1.407c0.277-0.21,0.365-0.382,0.261-0.522
				c-0.104-0.139-0.191-0.277-0.261-0.417c-0.069,0-0.122,0.018-0.156,0.052c-0.035,0.036-0.088,0.054-0.156,0.054
				c-0.557,0.348-1.026,0.694-1.407,1.043c-0.383,0.348-0.748,0.729-1.096,1.146l-0.104,0.104c-0.141,0.07-0.313,0.122-0.521,0.156
				c-0.209,0.036-0.383,0.122-0.521,0.262c0.139-0.418,0.276-0.695,0.417-0.834l2.815-2.399c0.209-0.209,0.209-0.451,0-0.73
				l-3.024-3.649l-5.839-6.569c-0.973-1.182-1.599-2.642-1.877-4.38c-0.277-1.736-0.034-3.405,0.729-5.005
				c0.349-0.694,0.938-1.425,1.772-2.19c0.835-0.764,1.808-1.372,2.92-1.824c1.111-0.452,2.294-0.694,3.546-0.73
				c1.251-0.034,2.467,0.331,3.649,1.095c0.209,0.141,0.485,0.313,0.834,0.521c0.348,0.209,0.643,0.436,0.887,0.678
				c0.243,0.245,0.399,0.506,0.469,0.782c0.069,0.278-0.104,0.626-0.521,1.043c-0.141,0.14-0.558,0.088-1.252-0.156
				c-0.695-0.243-1.112-0.399-1.251-0.47c-0.834-0.208-1.478-0.104-1.93,0.313s-0.817,0.956-1.095,1.616
				c-0.278,0.661-0.453,1.392-0.521,2.189c-0.069,0.8-0.104,1.478-0.104,2.033c-0.07,0.558,0,1.113,0.208,1.669
				c0.209,0.557,0.485,1.112,0.834,1.668c0.626,0.975,1.304,1.913,2.034,2.815c0.729,0.904,1.476,1.809,2.241,2.712
				c0.277,0.349,0.59,0.678,0.938,0.99c0.348,0.312,0.694,0.609,1.043,0.887c0.139,0.14,0.348,0.14,0.626,0
				c0.347-0.277,0.642-0.538,0.886-0.782c0.243-0.243,0.538-0.47,0.887-0.678c0.765-0.556,1.546-1.129,2.347-1.721
				c0.798-0.59,1.58-1.199,2.346-1.825c0.068,0.07,0.139,0.104,0.209,0.104c-0.417,0.626-0.87,1.183-1.355,1.669L359.436,43.436z
				 M344.732,61.163c-0.349,0.417-0.696,0.852-1.043,1.303c-0.349,0.453-0.453,0.991-0.312,1.617
				c0.068,0.208,0.242,0.521,0.521,0.938c0.276-0.139,0.537-0.157,0.781-0.053c0.243,0.104,0.538,0.156,0.887,0.156
				c0.765,0.141,1.528,0.036,2.294-0.312c0.485-0.277,0.955-0.537,1.408-0.782c0.451-0.242,0.92-0.537,1.407-0.887
				c0.626-0.485,1.252-0.954,1.877-1.407c0.626-0.451,1.147-1.06,1.564-1.825c0.417-0.834,0.765-1.685,1.043-2.555
				c0.277-0.868,0.417-1.894,0.417-3.076l-1.043-3.232c-0.208-0.209-0.349-0.277-0.417-0.209c-0.487,0.349-0.956,0.714-1.407,1.096
				c-0.453,0.384-0.923,0.781-1.408,1.199c-0.278,0.208-0.487,0.469-0.626,0.781c-0.14,0.313-0.312,0.61-0.521,0.887l-1.668,1.877
				c-0.349,0.349-0.695,0.714-1.043,1.095c-0.349,0.383-0.695,0.782-1.043,1.199c-0.278,0.349-0.539,0.714-0.782,1.096
				C345.374,60.451,345.079,60.816,344.732,61.163z M358.288,64.187c0-0.068-0.018-0.12-0.052-0.156
				c-0.036-0.034-0.052-0.086-0.052-0.156h-0.521c0.068,0.14,0.104,0.278,0.104,0.417l0.104,0.209c-0.14,0-0.244,0.035-0.312,0.104
				l-0.626,0.521v-0.104c-0.07,0.14-0.14,0.208-0.208,0.208c-0.07,0-0.175,0.07-0.313,0.209c-0.349,0.278-0.678,0.556-0.99,0.834
				c-0.313,0.277-0.644,0.556-0.991,0.834l-1.042,0.521c-0.349,0.277-0.678,0.522-0.991,0.731c-0.312,0.207-0.644,0.416-0.99,0.625
				l-2.086,0.521v-0.208c0.139-0.141,0.382-0.279,0.73-0.418l0.729-0.312h-0.521c-0.557,0.068-1.095,0.139-1.616,0.209
				c-0.521,0.068-1.061,0-1.616-0.209c-0.14-0.07-0.261-0.088-0.365-0.052c-0.104,0.034-0.227,0.052-0.364,0.052
				c-0.418-0.07-0.835-0.052-1.252,0.052c-0.417,0.104-0.87,0.087-1.355-0.052h-0.312l0.729,0.521
				c0.417,0.209,0.799,0.312,1.147,0.312c0.347,0,0.798-0.069,1.355-0.207c0-0.071-0.141-0.176-0.417-0.314h0.625l0.521,0.314
				c-0.14,0.067-0.244,0.138-0.312,0.207c-0.07,0.068-0.175,0.104-0.312,0.104c-0.209,0.068-0.521,0.104-0.938,0.104v0.209
				c0.347,0,0.712,0.016,1.095,0.052c0.381,0.034,0.746,0.052,1.095,0.052c1.39,0.139,2.745-0.104,4.066-0.729
				c0.277-0.209,0.66-0.314,1.147-0.314c0.347-0.069,0.887-0.296,1.616-0.678c0.73-0.383,1.163-0.747,1.304-1.095l0.729-0.938
				L358.288,64.187z M351.406,68.984c-0.07,0-0.141-0.037-0.209-0.105l-0.104,0.105H351.406z M358.393,63.665l0.209-0.104h-0.313
				C358.288,63.631,358.322,63.665,358.393,63.665z"/>
		</g>
		<g>
			<path fill="#58595B" d="M28.612,14.86c0.032,0.033-0.156-0.422-0.187-0.506C28.435,14.47,28.66,14.979,28.612,14.86z"/>
			<polygon fill="#58595B" points="28.736,16.025 28.665,15.837 28.809,16.313 			"/>
			<path fill="#58595B" d="M28.458,16.138c0.346,0.766,0.049-0.169,0.209,0.086l0.082,0.174l-0.234-0.633
				C28.496,15.888,28.59,16.337,28.458,16.138z"/>
			<path fill="#58595B" d="M27.618,14.525c0.135,0.296,0.074,0.271,0.074,0.076c-0.018-0.032-0.026-0.05-0.038-0.073
				C27.65,14.534,27.641,14.538,27.618,14.525z"/>
			<path fill="#58595B" d="M27.654,14.528C27.675,14.493,27.53,14.284,27.654,14.528L27.654,14.528z"/>
			<path fill="#58595B" d="M27.591,14.761l-0.074-0.285c-0.083-0.176-0.135-0.2-0.175-0.336
				C27.362,14.305,27.445,14.478,27.591,14.761z"/>
			<path fill="#58595B" d="M27.789,15.342l-0.027-0.122C27.727,15.146,27.711,15.122,27.789,15.342z"/>
			<path fill="#58595B" d="M27.703,14.961l0.059,0.259c0.059,0.122,0.163,0.375-0.018-0.094
				C27.837,15.354,27.753,15.132,27.703,14.961z"/>
			<path fill="#58595B" d="M27.776,15.068c0.092,0.158,0.164,0.255,0.236,0.538C28.043,15.468,27.806,14.928,27.776,15.068z"/>
			<path fill="#58595B" d="M28.776,16.947l0.121,0.214l-0.083-0.27C28.856,17.025,28.675,16.705,28.776,16.947z"/>
			<path fill="#58595B" d="M27.179,14.466c0.073,0.162,0.196,0.435,0.289,0.644l-0.05-0.202
				C27.356,14.802,27.284,14.71,27.179,14.466z"/>
			<path fill="#58595B" d="M27.468,15.109l0.078,0.302C27.597,15.427,27.548,15.29,27.468,15.109z"/>
			<polygon fill="#58595B" points="28.142,16.205 27.963,15.58 28.131,16.22 			"/>
			<polygon fill="#58595B" points="27.005,14.516 26.869,14.124 27.069,14.721 			"/>
			<path fill="#58595B" d="M26.923,14.631c-0.114-0.322-0.25-0.521-0.314-0.724c-0.007,0.068,0.084,0.352,0.166,0.604
				C26.739,14.365,26.781,14.388,26.923,14.631z"/>
			<path fill="#58595B" d="M26.887,14.882c-0.024-0.08-0.067-0.22-0.112-0.37C26.792,14.589,26.823,14.7,26.887,14.882z"/>
			<path fill="#58595B" d="M27.438,15.36c-0.046-0.098-0.161-0.357-0.231-0.455l0.213,0.455H27.438z"/>
			<path fill="#58595B" d="M27.425,15.375l-0.006-0.015c-0.021-0.001-0.04-0.008-0.047-0.01
				C27.377,15.353,27.394,15.36,27.425,15.375z"/>
			<path fill="#58595B" d="M27.443,15.36h-0.006C27.459,15.404,27.467,15.419,27.443,15.36z"/>
			<path fill="#58595B" d="M27.856,15.835c0.083,0.27,0.15,0.57,0.364,0.943C28.104,16.454,27.981,16.241,27.856,15.835z"/>
			<path fill="#58595B" d="M27.71,15.929l0.09,0.088c-0.054-0.123-0.137-0.297-0.179-0.433L27.71,15.929z"/>
			<polygon fill="#58595B" points="27.749,16.086 27.71,15.929 27.677,15.897 			"/>
			<path fill="#58595B" d="M27.151,15.28c0.066,0.21,0.051,0.234,0.041,0.279c0.065,0.079,0.112,0.117,0.138,0.104
				C27.271,15.517,27.173,15.251,27.151,15.28z"/>
			<path fill="#58595B" d="M27.302,15.366l0.006,0.029C27.328,15.434,27.335,15.444,27.302,15.366z"/>
			<path fill="#58595B" d="M26.954,15.659c0.012,0.025,0.027,0.057,0.041,0.082l-0.035-0.08L26.954,15.659z"/>
			<path fill="#58595B" d="M27.372,15.747c0.058,0.082,0.02-0.035-0.03-0.184c0.006,0.055,0.004,0.09-0.012,0.1
				C27.356,15.73,27.374,15.772,27.372,15.747z"/>
			<path fill="#58595B" d="M26.913,15.128c0.055,0.088,0.101,0.168,0.145,0.238C26.983,15.225,26.865,15.005,26.913,15.128z"/>
			<path fill="#58595B" d="M27.247,15.271c-0.002-0.008-0.004-0.017-0.006-0.023C27.192,15.152,27.214,15.199,27.247,15.271z"/>
			<path fill="#58595B" d="M27.247,15.271c0.023,0.068,0.061,0.188,0.095,0.293c-0.003-0.04-0.014-0.096-0.034-0.168
				C27.294,15.362,27.27,15.314,27.247,15.271z"/>
			<path fill="#58595B" d="M28.172,18.652c-0.185-0.43-0.306-0.848-0.065-0.406c-0.097-0.341-0.732-1.735-1.111-2.505
				c0.079,0.188,0.154,0.361,0.219,0.631c0.117,0.229,0.335,0.504,0.465,0.908c0.039,0.245-0.111-0.133-0.238-0.346
				c0.256,0.523,0.265,0.808,0.618,1.585l-0.069-0.297C28.043,18.343,28.108,18.545,28.172,18.652z"/>
			<path fill="#58595B" d="M27.099,15.747l-0.005-0.061c-0.054-0.064-0.144-0.229-0.314-0.552c0.06,0.225,0.121,0.382,0.181,0.526
				l0.116,0.021L27.099,15.747z"/>
			<path fill="#58595B" d="M27.175,15.65c0.187,0.474,0.228,0.688,0.473,1.181c0.038-0.054-0.131-0.404-0.187-0.621
				c-0.036,0.154-0.087-0.271-0.262-0.509c-0.017-0.085-0.013-0.117-0.007-0.142c-0.039-0.051-0.085-0.113-0.135-0.193l0.014,0.027
				v-0.002l0.002,0.009c0.03,0.056,0.046,0.09,0.027,0.058c0,0.007,0,0.01,0.003,0.012c0.024,0.066,0.048,0.123,0.071,0.178
				c-0.067-0.086-0.057-0.119-0.071-0.178l-0.03-0.069l-0.002-0.007l0.022,0.293C27.14,15.743,27.156,15.72,27.175,15.65z"/>
			<path fill="#58595B" d="M28.599,17.803c-0.018-0.042-0.033-0.073-0.049-0.106C28.569,17.755,28.583,17.796,28.599,17.803z"/>
			<path fill="#58595B" d="M28.445,17.535c-0.021-0.067-0.095-0.257-0.054-0.217c0.076,0.133,0.094,0.226,0.158,0.378
				c-0.039-0.13-0.098-0.354-0.231-0.564l0.021,0.066c-0.101-0.146-0.391-0.711-0.414-0.777
				C28.118,16.835,28.257,17.13,28.445,17.535z"/>
			<path fill="#58595B" d="M27.862,16.711l0.027,0.259l0.209,0.39l-0.106-0.243C28.072,17.194,27.938,16.9,27.862,16.711z"/>
			<polygon fill="#58595B" points="26.847,15.432 26.643,14.937 26.9,15.65 			"/>
			<polygon fill="#58595B" points="26.777,15.532 26.595,15.105 26.681,15.373 			"/>
			<path fill="#58595B" d="M23.992,23.107l0.029,0.13C24.017,23.194,24.005,23.153,23.992,23.107z"/>
			<path fill="#58595B" d="M24.163,23.071l-0.086-0.212C24.118,22.978,24.151,23.066,24.163,23.071z"/>
			<path fill="#58595B" d="M24.545,16.592c-0.211-0.382-0.523-0.982-0.302-0.506l0.222,0.46
				C24.446,16.454,24.485,16.498,24.545,16.592z"/>
			<path fill="#58595B" d="M24.313,20.057c0.022,0.044,0.047,0.09,0.07,0.138c-0.063-0.162-0.124-0.313-0.18-0.455
				C24.236,19.839,24.274,19.944,24.313,20.057z"/>
			<path fill="#58595B" d="M25.161,21.991l-0.175-0.283C25.043,21.812,25.102,21.905,25.161,21.991z"/>
			<path fill="#58595B" d="M23.326,23.969l0.166,0.493C23.532,24.441,23.417,24.205,23.326,23.969z"/>
			<path fill="#58595B" d="M25.888,16.128c-0.111-0.172-0.166-0.236-0.195-0.251C25.846,16.128,26.055,16.519,25.888,16.128z"/>
			<path fill="#58595B" d="M21.938,18.095c0.024,0.088,0.062,0.189,0.104,0.293C22.021,18.3,21.99,18.208,21.938,18.095z"/>
			<path fill="#58595B" d="M25.614,15.91c0.028,0.046,0.042,0.067,0.065,0.104c-0.017-0.086-0.025-0.155,0.013-0.138
				C25.577,15.688,25.493,15.577,25.614,15.91z"/>
			<path fill="#58595B" d="M19.814,24.706c-0.009-0.02-0.014-0.031-0.024-0.056C19.808,24.718,19.812,24.72,19.814,24.706z"/>
			<path fill="#58595B" d="M17.715,19.956c0-0.033,0.015-0.037,0.023-0.046C17.726,19.877,17.716,19.883,17.715,19.956z"/>
			<path fill="#58595B" d="M26.306,15.494C26.313,15.456,26.286,15.443,26.306,15.494L26.306,15.494z"/>
			<path fill="#58595B" d="M27.221,17.299c0.021,0.054,0.048,0.121,0.092,0.229C27.267,17.416,27.237,17.343,27.221,17.299z"/>
			<path fill="#58595B" d="M26.75,18.884h-0.002C26.795,18.97,26.788,18.954,26.75,18.884z"/>
			<path fill="#58595B" d="M26.43,15.694c-0.032-0.054-0.062-0.098-0.087-0.126C26.363,15.601,26.391,15.643,26.43,15.694z"/>
			<path fill="#58595B" d="M26.329,15.476c0.016,0.017,0.026,0.027,0.037,0.037C26.334,15.434,26.31,15.386,26.329,15.476z"/>
			<path fill="#58595B" d="M26.29,15.532c0.007-0.011,0.028,0.006,0.053,0.036c-0.018-0.032-0.029-0.058-0.037-0.074
				C26.304,15.505,26.298,15.517,26.29,15.532z"/>
			<path fill="#58595B" d="M21.234,22.875c-0.008-0.015-0.013-0.022-0.021-0.044C21.263,23.038,21.261,23.003,21.234,22.875z"/>
			<path fill="#58595B" d="M26.258,21.64c-0.003-0.004-0.008-0.018-0.01-0.023l-0.009-0.015L26.258,21.64z"/>
			<path fill="#58595B" d="M26.345,22.019c-0.233-0.592-0.185-0.529-0.105-0.417l-0.635-1.329L26.345,22.019z"/>
			<path fill="#58595B" d="M23.668,23.4l0.227,0.403c0.226,0.724,0.079,0.502,0.374,1.076c-0.601-1.479,0.146-0.236-0.461-1.712
				l0.164,0.295c-0.017-0.009,0.02,0.077,0.004,0.067c0.362,0.677-0.397-1.086-0.227-0.91c0.078,0.098,0.189,0.305,0.243,0.487
				l-0.088-0.392c0.031,0.021,0.136,0.278,0.104,0.258l0.05-0.159l0.019,0.045c-0.079-0.239-0.202-0.607-0.254-0.767
				c0.115,0.203,0.054,0.161,0.14,0.344l-0.099-0.379c0.187,0.37,0.299,0.759,0.237,0.72c0.683,1.444-0.112-0.388,0.37,0.422
				l0.026,0.207c0.394,0.817,0.308,0.499,0.594,0.991c-0.134-0.264-0.688-1.255-0.786-1.646c0.064,0.104,0.111,0.146,0.015-0.163
				c0.227,0.522,0.204,0.381,0.229,0.334l0.302,0.69c-0.044-0.218-0.202-0.567-0.313-0.887c0.078,0.049,0.324,0.577,0.535,1.021
				c0.125,0.077-0.434-0.832-0.397-1c0.181,0.237,0.102-0.064-0.007-0.506c0.152,0.218,0.183,0.425,0.285,0.613l-0.205-0.564
				c0.015,0.01,0.088,0.18,0.123,0.266c-0.062-0.229-0.305-0.688-0.34-0.897c-0.327-0.763,0.6,1.058,0.273,0.171
				c0.102,0.189,0.182,0.425,0.306,0.688c-0.17-0.603-0.112-0.443-0.386-1.231l0.261,0.422c-0.275-0.495-0.495-1.129-0.673-1.651
				c-0.129-0.24-0.242-0.452-0.297-0.554l-0.088-0.404c0.059,0.111,0.157,0.35,0.275,0.641c-0.021-0.059-0.042-0.117-0.062-0.17
				c0.144,0.238,0.308,0.643,0.461,1.035c-0.07-0.132-0.145-0.271-0.22-0.41c0.171,0.425,0.361,0.895,0.547,1.295
				c-0.03-0.082-0.053-0.155-0.06-0.199c0.05,0.115,0.093,0.218,0.122,0.287c0.036,0.07-0.024-0.084-0.092-0.266l0.363,0.757
				l-0.133-0.306l0.316,0.431c-0.275-0.801-0.728-1.964-0.757-2.331c0.226,0.572,0.409,0.918,0.709,1.582
				c-0.35-0.688,0.047,0.342-0.077,0.225c0.064,0.061,0.201,0.381,0.243,0.493l-0.185-0.688c0.243,0.547,0.207,0.398,0.336,0.611
				c-0.507-1.064-0.245-0.753-0.352-1.101c0.166,0.358,0.322,0.73,0.23,0.668c0.426,0.782-0.498-1.293-0.131-0.634
				c-0.007,0.015-0.039-0.037,0.039,0.146c-0.116-0.332,0.072-0.113,0.197,0.209l-0.01,0.012c0.143,0.088,0.261-0.11-0.141-1.025
				c0.051,0.117,0.486,1.104,0.567,1.287l-1.247-3.132c0.344,0.788,1.244,2.626,1.376,3.101c0.071,0.103,0.157,0.22,0.072-0.075
				c-0.063-0.104-0.55-1.114-0.563-1.194c0.448,0.848,0.248,0.447,0.65,1.161c-0.098-0.157-0.635-1.395-0.585-1.37
				c0.083,0.185,0.545,1.213,0.603,1.341l-0.469-1.24c0.079,0.226,0.461,1.022,0.637,1.353c-0.117-0.231,0.08-0.01,0.047-0.14
				l-0.162-0.261c0.175,0.137-0.685-1.736-0.564-1.713c0.103,0.253,0.673,1.541,0.789,1.67c-0.262-0.625-1.266-3.004-1.404-3.514
				l0.177,0.342l-0.122-0.428c0.387,0.945,1.176,2.943,1.465,3.73c0.161,0.263,0.199,0.409,0.235,0.355
				c0.17,0.319,0.202,0.512,0.196,0.539l0.217,0.156c-0.336-0.717-0.239-0.763-0.52-1.359l0.213,0.806
				c-0.334-0.716-0.862-2.074-0.719-1.986c0.152,0.274,0.572,1.286,0.684,1.524c-0.103-0.254-0.138-0.51-0.049-0.337l0.141,0.401
				c0.172,0.247-0.361-0.988,0.011-0.33c0.042,0.037,0.485,0.898,0.293,0.473c-0.41-0.808-1.584-3.34-1.848-3.965
				c0.032,0.054,0.464,0.738,0.673,1.131c0.328,0.628,0.658,1.555,0.939,2.094c-0.089-0.197-0.184-0.445-0.211-0.527
				c0.097,0.157,0.271,0.611,0.275,0.502c-0.329-0.732,0.118,0.021-0.264-0.625c-0.053-0.228,0.115,0.127,0.152,0.073
				c-0.233-0.464-0.694-1.622-0.746-1.851c0.09,0.184,0.206,0.423,0.259,0.531c0.119,0.025,0.321,0.336,0.405,0.305
				c0.089,0.174,0.227,0.371,0.354,0.692c-0.048-0.134-0.149-0.387-0.133-0.416c0.337,0.61-0.012,0.124,0.372,0.864
				c-0.19-0.426-0.201-0.613-0.285-0.894c-0.31-0.65-0.142-0.088-0.057,0.192c-0.414-0.903-0.782-1.877-0.882-2.336
				c-0.031-0.255,0.295,0.573,0.25,0.438c0.203,0.1-0.6-1.629-0.193-1.024c0.303,0.558,0.516,1.146,0.713,1.56
				c0.041,0.242-0.252-0.328-0.28-0.291l0.169,0.254c0.069,0.2,0.098,0.361,0,0.205c0.271,0.501,0.268,0.002,0.581,0.437
				c-0.068-0.2-0.127-0.414-0.244-0.642l0.004,0.094c-0.238-0.451-0.227-0.671-0.364-0.87c-0.102-0.347-0.281-0.882-0.102-0.646
				l0.302,0.654c-0.087-0.193-0.212-0.377-0.142-0.168c-0.104-0.303,0.487,0.854,0.135-0.025l-0.245-0.436
				c-0.102-0.352-0.354-1.078-0.207-0.894c-0.312-0.642,0.021,0.079-0.354-0.667c0.45,0.935-0.161,0.023,0.333,0.998
				c-0.432-0.868-0.235-0.346-0.622-1.078c0.097,0.219,0.202,0.408,0.108,0.322c0.024,0.064,0.057,0.148,0.074,0.197l-0.011-0.016
				l0.015,0.023c0.013,0.035,0.015,0.042,0.004,0.009c0.055,0.09,0.114,0.2,0.171,0.321c0.198,0.509,0.118,0.525,0.208,0.795
				c-0.073-0.092-0.1-0.253-0.217-0.479l0.135,0.401c-0.219-0.481-0.432-0.77-0.493-1.081l-0.068,0.004
				c-0.156-0.255-0.253-0.341-0.19-0.125c-0.075-0.092,0.169,0.564,0.023,0.176l0.043,0.34l-0.055-0.121
				c-0.121-0.019,0.176,0.879-0.325,0.057c0.023,0.138,0.061,0.297-0.054,0.184l-0.201-0.411c0.025,0.163-0.308-0.364-0.122,0.075
				c-0.556-1.098-0.292-0.161-0.448-0.328l0.247,0.543c-0.058-0.009-0.03,0.164,0.015,0.409l0.225,0.476
				c0.133,0.416-0.28-0.282-0.334-0.201c-0.079-0.184-0.037-0.146,0.026-0.041c-0.587-1.041,0.172,0.876-0.274,0.125
				c0.061,0.184,0.019,0.132-0.052,0.018c0.001-0.003-0.001-0.012-0.006-0.027c-0.005-0.004-0.009-0.004-0.011-0.002
				c-0.048-0.078-0.102-0.17-0.146-0.241c0.063,0.108,0.116,0.2,0.142,0.245c-0.012,0.017-0.009,0.088,0.023,0.219l-0.245-0.51
				c0,0,0,0.006,0,0.017c-0.109-0.18,0.094,0.251,0.284,0.634c0.029,0.09,0.066,0.196,0.11,0.326
				c-0.399-0.824,0.067,0.307-0.364-0.568c0.181,0.441,0.03,0.383,0.434,1.296c-0.055-0.117-0.087-0.169-0.077-0.184
				c-0.074-0.093-0.147-0.185-0.055,0.086l-0.311-0.651l0.345,0.908c-0.217-0.382-0.336-0.609-0.531-1.129
				c0.27,0.814,0.064,0.322,0.345,1.125l-0.19-0.425c-0.018,0.026,0.201,0.612,0.025,0.27c-0.424-0.778-0.332,0.019-0.816-0.663
				c0.594,1.236-0.322-0.529,0.111,0.441c-0.143-0.291-0.238-0.449-0.331-0.715c0.058,0.324-0.323-0.418-0.005,0.423
				c-0.144-0.293-0.181-0.442-0.269-0.613c0.023,0.067,0.095,0.268,0.007,0.097c-0.088-0.174-0.103-0.256-0.148-0.389
				c-0.053,0.085,0.352,0.998,0.731,1.855c-0.222-0.387-0.214-0.321,0.011,0.254c-0.139-0.274-0.294-0.557-0.292-0.678
				c-0.045-0.028-0.347-0.337-0.04,0.352c-0.088-0.17-0.062-0.036-0.031,0.048c-0.078-0.015-0.111-0.073-0.14,0.019l0.067,0.104
				c0.349,0.839,0.031,0.207,0.029,0.331l-0.036-0.086c-0.375-0.553,0.081,0.305-0.328-0.333l0.235,0.513
				c0.484,1.114-0.386-0.615-0.258-0.168l0.152,0.289c0.133,0.393-0.758-1.475-0.852-1.6c-0.05-0.094-0.057-0.158-0.078-0.234
				c-0.371-0.623,0.286,0.682,0.291,0.865c-0.172-0.361-0.392-0.936-0.463-0.986c-0.149-0.289,0.392,1.238,0.029,0.561
				c0.134,0.277,0.268,0.555,0.33,0.777c-0.005,0.119-0.58-1.018-0.243-0.108c-0.035-0.077-0.069-0.148-0.103-0.218
				c0.064,0.245,0.049,0.431,0.23,0.922c-0.783-1.784,0.143,0.968-0.546-0.693l-0.07,0.134l-0.066-0.172
				c-0.113-0.081,0.023,0.329,0.162,0.736c-0.062-0.104-0.114-0.266-0.147-0.354c-0.237-0.295-0.217-0.222,0.03,0.646l-0.226-0.537
				c0.101,0.326-0.482-0.79-0.331-0.117c-0.021-0.062-0.059-0.169-0.085-0.248c0.137,0.686-0.844-1.401-0.123,0.6l0.113,0.519
				c0.154,0.115,0.312,0.868,0.478,1.182c0.005,0.134-0.327-0.559-0.317-0.68l0.045,0.097c-0.377-1.042-0.261-0.316-0.523-1.023
				c-0.169,0.124-0.566-0.357-0.748-0.357l0.31,0.805l-0.079-0.028c-0.082-0.185-0.244-0.63-0.191-0.606
				c-0.184-0.454,0.065,0.403,0.125,0.581c-0.199-0.307-0.298-0.958-0.332-0.968l-0.012,0.068l0.041,0.095
				c0.088,0.339,0.207,0.692,0.141,0.667c-0.088-0.154-0.188-0.498-0.212-0.525c-0.021-0.059-0.034-0.086-0.026-0.019l-0.099-0.05
				l0.247,0.637c0.074,0.326-0.084-0.014,0.198,0.706c-0.431-1.11-0.423-0.323-0.568-0.665c0.102,0.486,0.049,0.492-0.027,0.453
				c0.057,0.132,0.29,0.857,0.209,0.784c-0.44-1.515-0.294-0.628-0.656-1.704c0.249,0.711-0.088,0.219,0.269,1.227
				c-0.079-0.11-0.168-0.564-0.303-0.911c0.067,0.614-0.323-0.321-0.384-0.087c0.051,0.2,0.153,0.499,0.207,0.805l-0.329-0.982
				c0.002,0.104,0.281,1.16,0.055,0.48c0.051,0.165,0.127,0.416,0.127,0.484c-0.479-0.909-0.317,0.951-0.97-0.828
				c0.116,0.383,0.104,0.43,0.082,0.452c0.038,0.088,0.108,0.497,0.17,0.771l-0.265-0.729c0.142,0.766-0.096,0.082,0.042,0.815
				l0.007-0.142c0.129,0.873,0.455,1.894,0.682,2.998c-0.152-0.991,0.461,1.403,0.254-0.021c0.071,0.22,0.061,0.361,0.127,0.613
				c-0.079-0.479-0.072-0.586,0.029-0.389l0.02,0.119c0.125-0.16,0.296,0.285,0.548,0.545l-0.145-0.537
				c0.056,0.062,0.104,0.23,0.155,0.359c-0.16-0.832-0.117-0.017-0.299-0.932c0.32,1.086,0.26-0.057,0.611,1.181
				c0.061-0.009-0.178-0.619-0.119-0.628l0.104,0.333l-0.099-0.438c0.056,0.061,0.187,0.477,0.263,0.763
				c-0.018-0.031-0.005,0.088-0.009,0.114c0.154,0.383,0.105-0.175,0.157-0.052l-0.112-0.19c0.071-0.359,0.392,0.025,0.346-0.7
				l-0.085-0.249c-0.023-0.5,0.173,0.251,0.233-0.002l0.014,0.062c-0.051-0.257-0.056-0.395-0.014-0.374
				c0.059,0.304,0.234,0.554,0.294,0.891c-0.03-0.535-0.059-0.409-0.271-1.365l0.148,0.41c-0.091-0.385-0.15-0.581-0.128-0.707
				c0.066,0.37,0.243,0.621,0.337,1.108c0.429,0.869-0.104-0.97,0.392,0.336c-0.32-1.162-0.322-0.602-0.371-0.857
				c-0.15-0.366-0.234-0.871-0.157-0.767c0.047,0.013,0.558,1.444,0.659,1.391c-0.012-0.005,0.018,0.083,0.004,0.081
				c0.141,0.28-0.057-0.416,0.155,0.042c-0.214-0.695,0.077,0.021-0.224-0.859l-0.023,0.229c-0.024-0.246-0.338-1.287-0.077-0.812
				c0.057,0.178,0.114,0.418,0.143,0.554c0.118,0.251-0.013-0.187,0.109,0.071c0.307,0.881-0.048,0.224,0.128,0.914
				c0.16,0.361-0.11-0.672,0.195,0.29c-0.386-1.224,0.162,0.122-0.099-0.823l0.187,0.526c-0.018-0.085-0.087-0.343-0.062-0.339
				l0.213,0.697c-0.158-0.603,0.289,0.463,0.226,0.127c-0.104,0.062-0.256-0.623-0.44-0.986c-0.126-0.756,0.578,1.341,0.639,1.025
				c0.005,0.084-0.195-0.281-0.252-0.537c0.068,0.094,0.182,0.28,0.301,0.549c0.061-0.151-0.216-0.53-0.294-0.873
				c0.272,0.625-0.048-0.277-0.081-0.5l0.199,0.533c0.24,0.293-0.387-1.12-0.132-0.75l0.235,0.755l-0.02-0.212l0.219,0.609
				c-0.112-0.473-0.051-0.364,0.07-0.218c-0.155-0.368-0.36-0.966-0.318-1.003c0.154,0.301,0.174,0.512,0.215,0.407
				c0.113,0.339,0.256,0.762,0.038,0.286c0.06,0.176,0.114,0.337,0.173,0.51c0.176,0.348,0.125,0.045,0.148,0.029
				c-0.018-0.016-0.04-0.039-0.076-0.112l-0.182-0.776c0.094,0.193,0.144,0.358,0.191,0.521c-0.002-0.066-0.082-0.316-0.069-0.375
				c0.161,0.434,0.335,0.877,0.37,1.097l-0.088-0.517c0.081,0.183,0.254,0.491,0.302,0.654c0.156,0.23-0.193-0.887,0.011-0.584
				c-0.029-0.086-0.053-0.169-0.062-0.236c0.106,0.069,0.379,0.569,0.223-0.05l0.356,0.749c-0.007-0.203-0.453-0.941-0.467-1.273
				c-0.025-0.274,0.295,0.642,0.408,0.844c-0.121-0.4-0.38-1.212-0.055-0.618C23.73,23.439,23.666,23.333,23.668,23.4z M24.3,22.743
				c0.032,0.116,0.149,0.465,0.004,0.161C24.063,22.3,24.199,22.58,24.3,22.743z M24.867,21.001c0.067,0.176,0.013,0.1-0.093-0.087
				C24.767,20.864,24.791,20.878,24.867,21.001z M26.274,16.013c0.003,0.008,0.006,0.015,0.01,0.025
				C26.16,15.852,26.208,15.927,26.274,16.013z M26.442,16.21c-0.025-0.078-0.058-0.148-0.093-0.221
				c0.054,0.135,0.042,0.148,0.009,0.12C26.424,16.245,26.474,16.335,26.442,16.21z M19.768,19.327l0.06,0.138
				C19.854,19.626,19.813,19.484,19.768,19.327z"/>
			<path fill="#58595B" d="M25.063,21.767c-0.042-0.088-0.087-0.182-0.133-0.277C24.964,21.579,25.009,21.679,25.063,21.767z"/>
			<polygon fill="#58595B" points="23.295,23.876 23.29,23.872 23.326,23.969 			"/>
			<path fill="#58595B" d="M27.433,21.035c-0.047-0.069-0.098-0.159-0.148-0.255C27.342,20.907,27.397,21.011,27.433,21.035z"/>
			<path fill="#58595B" d="M26.411,15.168l0.016,0.155c0.01-0.033,0.066,0.074,0.114,0.154C26.486,15.354,26.4,15.185,26.411,15.168
				z"/>
			<path fill="#58595B" d="M28.185,18.228c-0.022-0.067,0.009-0.011-0.013-0.08l-0.105-0.242
				C28.046,17.935,28.113,18.138,28.185,18.228z"/>
			<path fill="#58595B" d="M27.21,16.878c0.194,0.438,0.156,0.276,0.15,0.183c-0.001,0.002-0.001,0.006-0.006,0.002
				C27.096,16.448,27.152,16.663,27.21,16.878z"/>
			<path fill="#58595B" d="M27.36,17.044c0-0.025,0.004-0.042,0.023-0.023C27.28,16.775,27.351,16.973,27.36,17.044z"/>
			<path fill="#58595B" d="M26.399,15.881c0.064,0.106-0.24-0.56-0.152-0.387C26.016,14.932,26.45,16.207,26.399,15.881z"/>
			<polygon fill="#58595B" points="27.864,18.309 27.618,17.773 27.792,18.217 			"/>
			<path fill="#58595B" d="M27.461,18.014l0.112,0.13c-0.04-0.09-0.059-0.146-0.068-0.19C27.468,17.946,27.389,17.854,27.461,18.014
				z"/>
			<path fill="#58595B" d="M27.505,17.953c0.02,0.005,0.028-0.015-0.002-0.106C27.496,17.856,27.488,17.882,27.505,17.953z"/>
			<polygon fill="#58595B" points="27.873,18.499 27.81,18.392 27.76,18.367 			"/>
			<path fill="#58595B" d="M26.912,18.129l0.019,0.178c0.078,0.187,0.144,0.29,0.129,0.211
				C27.014,18.384,27.001,18.304,26.912,18.129z"/>
			<path fill="#58595B" d="M27.729,19.534c-0.062-0.105-0.117-0.227-0.205-0.4l0.299,0.668L27.729,19.534z"/>
			<path fill="#58595B" d="M27.654,19.753c0.079,0.187,0.171,0.561,0.214,0.492C27.79,20.059,27.77,19.886,27.654,19.753z"/>
			<polygon fill="#58595B" points="26.516,19.251 26.525,19.237 26.022,18.15 			"/>
			<path fill="#58595B" d="M27.043,22.167c0.181,0.231-0.293-0.68-0.089-0.379c-0.105-0.266-0.166-0.244-0.254-0.475
				C26.788,21.602,26.698,21.456,27.043,22.167z"/>
			<path fill="#58595B" d="M26.7,21.313c-0.016-0.047-0.034-0.101-0.058-0.174C26.666,21.211,26.685,21.265,26.7,21.313z"/>
			<polygon fill="#58595B" points="17.454,19.364 17.368,19.13 17.472,19.519 			"/>
			<path fill="#58595B" d="M17.562,20.257l-0.16-0.746l0.115,0.684C17.521,20.161,17.522,20.09,17.562,20.257z"/>
			<path fill="#58595B" d="M25.03,24.104l-0.07-0.17c-0.086-0.18-0.103-0.188-0.135-0.209L25.03,24.104z"/>
			<polygon fill="#58595B" points="24.23,23.818 24.246,23.829 23.958,23.199 			"/>
			<path fill="#58595B" d="M24.083,24.83c0.03,0.019-0.004-0.134,0.026-0.114C24.113,24.849,23.753,24.036,24.083,24.83z"/>
		</g>
	</g>
</g>
</svg>
