<?xml version="1.0" encoding="utf-8"?>
<!-- Generator: Adobe Illustrator 16.0.4, SVG Export Plug-In . SVG Version: 6.00 Build 0)  -->
<!DOCTYPE svg PUBLIC "-//W3C//DTD SVG 1.0//EN" "http://www.w3.org/TR/2001/REC-SVG-20010904/DTD/svg10.dtd">
<svg version="1.0" xmlns="http://www.w3.org/2000/svg" xmlns:xlink="http://www.w3.org/1999/xlink" x="0px" y="0px"
	 width="139.317px" height="73.748px" viewBox="0 0 139.317 73.748" enable-background="new 0 0 139.317 73.748"
	 xml:space="preserve">
<g id="Layer_1">
</g>
<g id="home">
	<g>
		<g>
			<g>
				<path fill="#D50062" d="M38.132,39.327c0.379-0.074,0.663-0.094,0.854-0.057c0.188,0.038,0.245,0.321,0.171,0.849
					c-0.228,1.962-0.91,3.81-2.048,5.545c-1.29,1.66-2.428,3.377-3.412,5.148c-0.987,1.773-1.746,3.641-2.275,5.602
					c-0.304,0.98-0.722,1.923-1.251,2.828c-0.532,0.905-0.986,1.85-1.365,2.829c-0.455,1.358-0.893,2.735-1.309,4.131
					c-0.417,1.396-0.853,2.811-1.308,4.243c-0.228,0.604-0.722,1.056-1.479,1.357c-1.138,0.68-2.39,1.245-3.754,1.698
					c-1.896,0.679-2.921-0.039-3.071-2.15c0-0.452-0.077-0.886-0.228-1.302c-0.153-0.413-0.228-0.849-0.228-1.301
					c-0.077-0.829-0.114-1.697-0.114-2.603s0-1.771,0-2.603l0.228-6.79c0-0.227,0.018-0.47,0.057-0.735
					c0.038-0.264,0.058-0.546,0.058-0.849c-0.305,0.227-0.836,0.491-1.593,0.792c-0.986,0.604-2.03,1.001-3.128,1.188
					c-1.101,0.189-2.219,0.208-3.356,0.057c-1.062-0.074-2.2-0.264-3.412-0.566c-0.759-0.074-1.404-0.3-1.934-0.679
					c-0.531-0.377-0.986-0.866-1.365-1.471c-1.745-2.64-2.692-5.355-2.844-8.147c-0.153-2.79,0.379-5.619,1.593-8.487
					c0.529-1.132,1.175-2.206,1.934-3.225c0.757-1.019,1.554-2.018,2.389-2.999c0.606-0.753,1.251-1.432,1.934-2.037
					c0.683-0.603,1.402-1.168,2.161-1.697c0.606-0.376,1.289-0.64,2.048-0.792c0.757-0.15,1.479-0.339,2.161-0.565
					c0.455-0.15,0.91-0.264,1.365-0.34c0.455-0.074,0.947-0.15,1.479-0.227c0.683-0.074,1.365-0.074,2.048,0
					c0.984,0.152,1.593,0.152,1.82,0c0.228-0.149,0.415-0.679,0.568-1.584c0.606-2.716,1.194-5.432,1.763-8.147
					c0.569-2.716,1.156-5.469,1.764-8.261c0.151-0.603,0.265-1.205,0.341-1.811c0.075-0.603-0.039-1.205-0.341-1.811
					c-0.228-0.3-0.267-0.603-0.114-0.905c0.151-0.3,0.455-0.526,0.91-0.679c0.985-0.15,1.935-0.283,2.844-0.396
					c0.91-0.113,1.857,0.02,2.844,0.396c0.303,0.076,0.55,0.227,0.74,0.453c0.188,0.226,0.358,0.452,0.512,0.679
					c0.529,1.283,0.796,2.565,0.796,3.848c0,1.283-0.076,2.565-0.228,3.847c-0.152,1.208-0.304,2.416-0.455,3.621
					c-0.152,1.208-0.304,2.453-0.455,3.734c0,0.227-0.076,0.34-0.228,0.34c-0.228,0.076-0.512,0.339-0.853,0.792
					c-0.342,0.452-0.438,0.755-0.284,0.905c0.15,0.076,0.265,0.076,0.341,0c0.074-0.074,0.188-0.113,0.341-0.113
					c0.151-0.15,0.342-0.227,0.569-0.227c0,0.152,0.018,0.266,0.057,0.34c0.037,0.076,0.018,0.189-0.057,0.34
					c-0.228,0.378-0.455,0.774-0.683,1.188c-0.228,0.416-0.418,0.812-0.568,1.188c-0.153,0.378-0.247,0.792-0.285,1.245
					c-0.039,0.452-0.133,0.868-0.284,1.244c-0.38,1.736-0.759,3.414-1.138,5.036c-0.38,1.623-0.683,3.301-0.91,5.035
					c-0.304,1.434-0.475,2.868-0.512,4.3c-0.039,1.435-0.133,2.868-0.284,4.3c-0.076,0.152-0.076,0.266,0,0.34
					c0.074,0.076,0.114,0.152,0.114,0.227l0.341-0.453c0.074-0.3,0.151-0.565,0.228-0.792c0.074-0.227,0.151-0.489,0.228-0.792
					l0.113,1.697l-0.228,3.282c-0.076,0.302-0.304,0.565-0.682,0.792l0.454-1.019c0-0.15-0.076-0.377-0.228-0.679
					c-0.076,0.151-0.17,0.245-0.284,0.282c-0.113,0.039-0.17,0.133-0.17,0.283c-0.153,0.528-0.247,1.038-0.285,1.527
					c-0.039,0.492-0.133,1.001-0.284,1.528c-0.076,0.452-0.171,0.904-0.284,1.357c-0.114,0.452-0.171,0.905-0.171,1.357
					c-0.076,0.303-0.057,0.605,0.057,0.905c0.114,0.303,0.171,0.605,0.171,0.905c0,0.379-0.039,0.605-0.113,0.68
					c-0.608,0.378-0.836,0.831-0.683,1.357c0.151,0.529,0.151,1.019,0,1.472c-0.076,0.075-0.039,0.188,0.113,0.339l0.228-0.113
					c-0.228-0.452-0.189-0.772,0.114-0.962c0.302-0.188,0.529-0.47,0.683-0.849c1.061-2.263,2.142-4.563,3.241-6.902
					c1.099-2.338,2.219-4.64,3.356-6.902c0.455-0.829,0.967-1.642,1.535-2.434c0.569-0.792,1.155-1.564,1.764-2.319
					c0.15-0.15,0.341-0.244,0.568-0.283c0.228-0.037,0.455-0.094,0.683-0.17c0,0.152-0.02,0.283-0.057,0.396
					C38.151,39.044,38.132,39.177,38.132,39.327z M7.647,54.604c-0.076,0-0.113,0.038-0.113,0.112c0,0.076,0.037,0.152,0.113,0.227
					c0-0.074,0.018-0.113,0.057-0.113c0.038,0,0.058-0.037,0.058-0.113C7.761,54.642,7.722,54.604,7.647,54.604z M9.353,46.795
					c0.228,0.831,0.416,1.68,0.569,2.546c0.151,0.868,0.379,1.717,0.683,2.547c0.228,0.98,0.757,1.094,1.592,0.339
					c1.062-0.829,1.972-1.734,2.73-2.716c0.757-0.979,1.439-2.036,2.048-3.168c0.378-0.829,0.796-1.658,1.251-2.489
					c0.455-0.83,0.757-1.659,0.91-2.49c0.379-1.811,0.644-3.621,0.796-5.432c0.151-1.811,0.342-3.658,0.569-5.544
					c0.15-0.301,0.15-0.604,0-0.905c-0.455-0.527-1.214-0.793-2.275-0.793c-1.062,0-1.82,0.227-2.275,0.68
					c-1.29,1.357-2.237,2.811-2.844,4.356c-0.607,1.547-1.1,3.15-1.479,4.809l-1.023,3.282c-0.228,0.831-0.438,1.66-0.626,2.489
					C9.789,45.137,9.581,45.966,9.353,46.795z M9.581,54.037v0.113h0.114L9.581,54.037z M19.591,67.051
					c0.151-0.527,0.341-1.056,0.568-1.584c0.228-0.527,0.342-1.093,0.342-1.698c0.074-1.055,0.074-2.073,0-3.055
					c-0.077-0.979-0.114-1.998-0.114-3.056c0-0.15-0.039-0.244-0.113-0.282c-0.077-0.037-0.153-0.131-0.228-0.283
					c-0.077,0.152-0.153,0.246-0.228,0.283c-0.076,0.038-0.114,0.132-0.114,0.282c-0.152,0.227-0.228,0.453-0.228,0.679
					c0,0.227-0.039,0.453-0.113,0.68c-0.608,1.207-0.873,2.415-0.797,3.621c0.075,1.207,0.151,2.415,0.228,3.621
					c0.075,0.151,0.132,0.245,0.171,0.282c0.037,0.039,0.095,0.133,0.171,0.283l0.228-0.679v-0.113c0,0.076,0.074-0.037,0.228-0.34
					c0.074,0.379,0.094,0.661,0.057,0.849C19.609,66.73,19.591,66.9,19.591,67.051z M27.895,46.682l-0.113-0.112l-0.114,0.112
					c0.074,0,0.114,0.039,0.114,0.113L27.895,46.682z M31.307,22.579c0-0.15-0.02-0.244-0.057-0.283
					c-0.039-0.037-0.057-0.093-0.057-0.169l-0.228,0.113c0,0.226,0.037,0.378,0.114,0.452
					C31.155,22.692,31.231,22.655,31.307,22.579z"/>
				<path fill="#D50062" d="M41.317,55.621c0,0.529-0.19,0.68-0.568,0.453c-0.455-0.227-0.836-0.264-1.138-0.113
					c-0.228,0.076-0.494,0.057-0.797-0.057c-0.304-0.113-0.607-0.207-0.91-0.283c-0.152,0-0.304-0.037-0.454-0.112
					c-0.153-0.074-0.305-0.113-0.455-0.113c-0.455,0-0.873-0.264-1.252-0.792c-0.38-0.68-0.645-1.358-0.796-2.037
					c-0.153-0.679-0.228-1.396-0.228-2.15c0-1.056,0.037-2.093,0.113-3.111c0.075-1.019,0.151-2.055,0.228-3.112
					c0-0.603,0.019-1.226,0.058-1.867c0.037-0.64,0.057-1.262,0.057-1.867v-0.113c0.379-0.603,0.549-1.244,0.512-1.923
					c-0.039-0.68,0.018-1.358,0.171-2.037c0.151-0.453,0.265-0.923,0.341-1.415c0.075-0.489,0.151-0.999,0.228-1.527l1.024-4.865
					l0.682-2.15l0.228-1.019c0.075-0.526,0.644-0.753,1.707-0.679c1.819,0.227,3.185,1.207,4.095,2.942
					c0.151,0.226,0.188,0.491,0.113,0.792c-0.076,0.302-0.152,0.604-0.227,0.905c-0.077,0.302-0.171,0.565-0.285,0.792
					c-0.113,0.227-0.247,0.452-0.397,0.679c-0.077,0.152-0.114,0.415-0.114,0.792l-0.455,1.471h0.114
					c0,0.076,0.018,0.133,0.057,0.17c0.037,0.039,0.057,0.096,0.057,0.17c0,0.227,0.037,0.453,0.114,0.679l0.683-1.357v0.339
					c-0.153,0.379-0.267,0.756-0.342,1.132c-0.076,0.379-0.267,0.755-0.568,1.132c-0.153,0.152-0.228,0.359-0.228,0.622
					c0,0.266-0.039,0.549-0.114,0.849c-0.228,0.68-0.36,1.378-0.397,2.094c-0.039,0.718-0.097,1.453-0.171,2.207
					c-0.153,0.831-0.304,1.641-0.455,2.433c-0.153,0.792-0.304,1.604-0.455,2.433c-0.076,0.227-0.113,0.473-0.113,0.735
					c0,0.266,0,0.51,0,0.736l-0.342,2.036c0,0.453,0.075,0.981,0.228,1.585c0,0.075,0.074,0.112,0.228,0.112
					c0.151,0,0.265-0.037,0.341-0.112c0.53-0.604,1.042-1.226,1.536-1.867c0.492-0.641,1.041-1.263,1.649-1.867l1.82-2.264
					c0.605-0.679,1.175-1.375,1.706-2.094c0.529-0.716,1.061-1.488,1.593-2.319c0.15-0.227,0.302-0.716,0.455-1.471
					c0.15-1.282,0.435-2.527,0.853-3.734c0.416-1.206,0.928-2.451,1.536-3.734l1.934-4.753c0.151-0.376,0.455-0.565,0.91-0.565
					l2.957,0.565c0.53,0.303,0.797,0.718,0.797,1.245c-0.077,0.378,0.037,0.868,0.341,1.471c0.151,0.453,0.114,0.792-0.113,1.019
					s-0.418,0.453-0.569,0.679l-0.341,0.566c-0.153,0.452-0.304,0.925-0.455,1.414c-0.153,0.492-0.418,0.925-0.797,1.302
					c-0.152,0.151-0.228,0.321-0.228,0.509c0,0.189-0.076,0.359-0.227,0.51c0,0.226-0.077,0.415-0.228,0.565
					c-0.077,0.152-0.114,0.303-0.114,0.452c0.074,0,0.132-0.018,0.171-0.056c0.037-0.037,0.131-0.057,0.284-0.057
					c0-0.15,0.074-0.227,0.228-0.227l-0.341,1.132c-0.305,0.755-0.569,1.623-0.797,2.603c-0.076,0.452-0.152,0.905-0.228,1.357
					c-0.076,0.453-0.076,0.868,0,1.245c0.151,0.378,0.132,0.735-0.057,1.075c-0.19,0.339-0.247,0.698-0.171,1.074v0.566l0.228,0.113
					c0.303-0.227,0.436-0.244,0.398-0.057c-0.039,0.188-0.057,0.321-0.057,0.396l-0.342,1.245h-0.228v-0.227h-0.113
					c0,0.152,0.037,0.227,0.113,0.227c0,0.227-0.02,0.452-0.057,0.679c-0.039,0.227-0.057,0.491-0.057,0.792
					c0.074-0.074,0.113-0.15,0.113-0.226l0.342-0.34c0,0.076-0.02,0.152-0.058,0.227c-0.039,0.076-0.057,0.151-0.057,0.226
					l-0.228,1.472v1.019c0.075,0.226,0.132,0.472,0.171,0.735c0.037,0.265,0.018,0.509-0.057,0.735c0,0.227-0.077,0.642-0.228,1.245
					c-0.077,0.151-0.153,0.265-0.228,0.339c-0.077,0.076,0.037,0.113,0.341,0.113c0.075,0,0.132,0.076,0.171,0.227
					c0.037,0.152,0.057,0.302,0.057,0.452c-0.152,0.303-0.171,0.586-0.057,0.849c0.113,0.266,0.245,0.473,0.398,0.623
					c0.15,0.226,0.265,0.265,0.341,0.113c0.074-0.15,0.151-0.264,0.228-0.34c0.606-0.905,1.212-1.961,1.82-3.169
					c0.605-0.979,1.212-1.96,1.819-2.941c0.606-0.979,1.213-1.998,1.82-3.056c0.379-0.603,0.797-1.226,1.251-1.867
					c0.455-0.64,0.91-1.262,1.365-1.867l0.228-0.226c0,0.075,0.018,0.132,0.057,0.169c0.038,0.039,0.058,0.096,0.058,0.17
					l-0.342,1.132c0,0.152-0.076,0.283-0.228,0.396c-0.152,0.113-0.076,0.246,0.228,0.396c0,0.303-0.152,0.604-0.455,0.905
					c-0.076,0.227-0.152,0.416-0.228,0.565c-0.076,0.152-0.152,0.34-0.228,0.566c0,0.151,0.038,0.265,0.114,0.339
					c0.074,0.076,0.113,0.189,0.113,0.34l0.228,1.358c0.075,0.151,0.038,0.358-0.113,0.622c-0.153,0.265-0.304,0.472-0.455,0.622
					L62.703,52l-1.935,2.829c-0.152,0.152-0.228,0.266-0.228,0.34c0,0.528-0.133,0.944-0.397,1.245
					c-0.267,0.302-0.589,0.604-0.967,0.905l-0.342,0.679c-0.228,0.378-0.494,0.604-0.796,0.679c-0.304,0.076-0.608,0.189-0.91,0.34
					l-2.844,0.679c-0.91,0.152-1.612,0.02-2.104-0.396c-0.494-0.413-0.93-0.999-1.309-1.754c-0.607-1.056-1.006-2.149-1.194-3.281
					c-0.189-1.132-0.284-2.264-0.284-3.395c-0.076-0.754-0.113-1.489-0.113-2.207c0-0.716,0-1.451,0-2.206v-0.792L47.8,47.248
					c-0.304,0.378-0.588,0.718-0.853,1.019c-0.267,0.302-0.589,0.604-0.967,0.905v0.339c0.15,0,0.265-0.037,0.341-0.113
					c0.075,0,0.228-0.112,0.455-0.339L45.412,52c-0.455,0.981-1.138,1.736-2.047,2.264l-0.228,0.452l-0.342,0.227
					c-0.152,0.303-0.38,0.453-0.683,0.453C41.809,55.396,41.544,55.472,41.317,55.621z M35.515,45.89h-0.228
					c0,0.379,0,0.698,0,0.962c0,0.266-0.039,0.586-0.113,0.962h0.228c0-0.376,0.018-0.696,0.057-0.962
					C35.496,46.588,35.515,46.269,35.515,45.89z M35.402,49.397h-0.228v0.34c0,0.528,0,1.038,0,1.527
					c0,0.492,0.037,0.962,0.113,1.415c0.075,0.452,0.342,0.718,0.797,0.792c0.074,0,0.113,0.039,0.113,0.113l0.228,0.226v-0.452
					l-0.796-2.376C35.476,50.379,35.402,49.851,35.402,49.397z M35.402,45.438h0.113c0.075,0,0.114-0.037,0.114-0.113l1.365-6.563
					l0.341-1.584l0.455-1.697v-0.227h-0.228c-0.683,0.528-1.062,1.095-1.138,1.697c0,0.604-0.057,1.228-0.17,1.867
					c-0.114,0.642-0.21,1.265-0.285,1.867c-0.152,0.831-0.267,1.623-0.341,2.376C35.553,43.816,35.476,44.608,35.402,45.438z
					 M37.563,54.377c0.074-0.074,0.114-0.15,0.114-0.227l-0.683-0.34v0.34L37.563,54.377z M41.317,55.621l0.341-0.226L42,55.056
					c-0.153,0-0.267-0.018-0.342-0.057c-0.076-0.037-0.152-0.057-0.228-0.057l-1.023,0.792c0.228,0,0.398-0.018,0.512-0.057
					C41.033,55.641,41.164,55.621,41.317,55.621z M42.34,54.829c0,0.076-0.039,0.152-0.113,0.227c0.151,0,0.302-0.037,0.455-0.113
					h-0.228C42.378,54.942,42.34,54.905,42.34,54.829z M42.91,54.604c0-0.074-0.039-0.113-0.114-0.113
					C42.795,54.566,42.833,54.604,42.91,54.604z M43.137,34.574v-0.113l-0.114,0.113v0.113
					C43.098,34.688,43.137,34.65,43.137,34.574z M45.412,46.908h0.114c0-0.074-0.039-0.113-0.114-0.113V46.908z M46.891,48.945
					v-0.113l-0.114,0.227L46.891,48.945z M47.119,47.361c0.074,0,0.113,0.02,0.113,0.057c0,0.038,0.037,0.057,0.113,0.057
					l1.707-1.924l0.228-0.453v-0.339c-0.077,0-0.114,0.019-0.114,0.056c0,0.039-0.039,0.057-0.113,0.057l-1.365,1.698L47.119,47.361
					z M50.531,50.643l-0.113,0.113c0,0.076,0.074,0.265,0.227,0.565l0.228-0.679v-1.811c0-0.15-0.02-0.244-0.057-0.283
					c-0.039-0.037-0.057-0.094-0.057-0.169c-0.153,0.151-0.228,0.302-0.228,0.452V50.643z M50.872,51.888
					c0-0.074-0.039-0.15-0.113-0.227h-0.114V52c0,0.152,0.019,0.283,0.058,0.396c0.037,0.113,0.057,0.246,0.057,0.396
					C50.833,52.643,50.872,52.34,50.872,51.888z M51.099,54.377h0.114c0-0.15-0.02-0.283-0.057-0.396
					c-0.039-0.113-0.058-0.244-0.058-0.396c0-0.074-0.02-0.113-0.057-0.113c-0.039,0-0.057-0.037-0.057-0.113l-0.228,0.227
					l0.341,1.584l0.114,0.113c0.074-0.074,0.074-0.113,0-0.113C51.213,54.792,51.174,54.529,51.099,54.377z M51.782,55.734
					c-0.076,0-0.133-0.018-0.17-0.057c-0.039-0.037-0.097-0.057-0.171-0.057c-0.076,0-0.114,0.02-0.114,0.057
					c0,0.039-0.039,0.057-0.113,0.057l0.228,0.227h0.113L51.782,55.734z M52.919,38.874l-0.341,0.34
					c-0.153,0.604-0.267,1.15-0.342,1.641c-0.076,0.491-0.152,1.038-0.228,1.641c-0.152,0.981-0.267,1.943-0.341,2.886
					c-0.076,0.944-0.19,1.906-0.342,2.886h0.114L52.919,38.874z M52.919,38.874c0-0.15,0.018-0.264,0.057-0.34
					c0.038-0.074,0.058-0.187,0.058-0.339h-0.228c0,0.152,0.018,0.265,0.057,0.339C52.9,38.61,52.919,38.724,52.919,38.874z
					 M53.261,37.29c0-0.074,0.037-0.113,0.113-0.113l-0.113-0.113l-0.114,0.113C53.147,37.253,53.184,37.29,53.261,37.29z
					 M55.65,49.285l-0.342-0.34l-0.228,0.227c0.151,0.151,0.228,0.265,0.228,0.339L55.65,49.285z M55.308,52.113l-0.113,0.113
					c0,0.076,0.037,0.113,0.113,0.113l0.114-0.113L55.308,52.113z M55.422,55.734c-0.077,0-0.153,0.039-0.228,0.113
					c0.15,0.152,0.302,0.379,0.455,0.679c0.074,0,0.113-0.018,0.113-0.056c0-0.037,0.037-0.057,0.114-0.057
					C55.724,56.264,55.573,56.037,55.422,55.734z M55.308,50.077c0-0.074,0.018-0.113,0.057-0.113c0.038,0,0.058-0.037,0.058-0.113
					h-0.114V50.077z"/>
				<path fill="#D50062" d="M72.825,51.774l0.114,7.694c0,0.152,0.018,0.246,0.057,0.283c0.037,0.039,0.057,0.133,0.057,0.283
					c0.075-0.15,0.151-0.227,0.228-0.227c0.075,0,0.151-0.074,0.228-0.227l1.479-2.489c0.303-0.679,0.814-1.621,1.536-2.829
					c0.72-1.206,1.459-2.45,2.218-3.734c0.758-1.282,1.497-2.526,2.219-3.734c0.72-1.206,1.231-2.11,1.535-2.716l1.479-2.829
					c0.074-0.149,0.15-0.243,0.228-0.282c0.074-0.037,0.15-0.094,0.228-0.17c0.227,0.227,0.341,0.415,0.341,0.565
					c-0.076,0.453-0.114,0.905-0.114,1.358c0,0.452-0.076,0.868-0.227,1.244c-0.455,1.358-1.063,2.792-1.82,4.301
					c-0.759,1.51-1.536,3.018-2.332,4.526c-0.796,1.51-1.575,2.98-2.332,4.413c-0.759,1.434-1.404,2.792-1.934,4.073
					c-0.228,0.679-0.531,1.341-0.91,1.98c-0.381,0.642-0.759,1.265-1.138,1.867c-0.152,0.378-0.455,0.565-0.91,0.565
					c-0.683,0.152-1.364,0.266-2.047,0.34c-0.683,0.076-1.365,0.152-2.048,0.227c-1.214,0.076-2.161-0.283-2.844-1.075
					s-1.194-1.754-1.536-2.886c-0.341-1.132-0.568-2.319-0.682-3.564c-0.114-1.245-0.21-2.281-0.285-3.112
					c-0.304-3.242-0.38-6.336-0.228-9.278c0.151-2.942,0.53-5.922,1.138-8.939c0.606-3.319,1.326-6.563,2.161-9.731
					c0.834-3.169,1.707-6.337,2.616-9.506c0.606-1.885,1.252-3.752,1.935-5.602c0.682-1.848,1.364-3.715,2.047-5.601
					c0.303-0.754,0.644-1.472,1.024-2.15c0.378-0.679,0.643-1.433,0.796-2.264c0.228-0.753,0.587-1.225,1.081-1.414
					c0.492-0.188,1.041-0.357,1.649-0.509c0.605-0.15,1.175-0.264,1.706-0.34c0.529-0.074,1.099-0.15,1.706-0.227
					c0.379,0,0.776-0.018,1.194-0.057c0.416-0.037,0.776,0.17,1.081,0.623c0.074,0.151,0.094,0.302,0.057,0.452
					c-0.039,0.152-0.057,0.303-0.057,0.453l0.228,1.697c0.228,1.057,0.113,2.112-0.342,3.168c-0.076,0.076-0.113,0.152-0.113,0.227
					c-0.077,0.679-0.134,1.396-0.171,2.15c-0.039,0.755-0.134,1.51-0.284,2.263c-0.228,1.208-0.475,2.415-0.739,3.621
					c-0.267,1.208-0.74,2.376-1.422,3.508c-0.608,1.058-1.214,2.133-1.82,3.226c-0.608,1.094-1.214,2.169-1.82,3.225
					c-0.152,0.303-0.341,0.585-0.568,0.849c-0.228,0.266-0.418,0.548-0.569,0.849c-0.38,0.905-0.607,1.811-0.683,2.716
					c0,0.076,0.019,0.113,0.058,0.113c0.037,0,0.057,0.039,0.057,0.113c0-0.074,0.018-0.113,0.057-0.113
					c0.037,0,0.057-0.037,0.057-0.113l0.228-0.792c0,0.152-0.02,0.283-0.057,0.396c-0.039,0.113-0.057,0.246-0.057,0.396
					l-0.683,4.413c-0.076,0.604-0.171,1.188-0.284,1.754c-0.114,0.566-0.21,1.151-0.284,1.754c-0.077,0.379-0.058,0.718,0.057,1.019
					c0.113,0.303,0.132,0.604,0.057,0.905c0,0.981-0.133,2.037-0.398,3.169c-0.267,1.131-0.512,2.263-0.739,3.395
					s-0.417,2.245-0.568,3.338C72.558,49.87,72.597,50.869,72.825,51.774z M74.873,19.524c0.074-0.074,0.113-0.15,0.113-0.227
					l-0.113-0.113c-0.076,0.076-0.113,0.152-0.113,0.227C74.759,19.487,74.796,19.524,74.873,19.524z M75.783,19.524h-0.228
					l-0.342,1.018c-0.076,0.152-0.096,0.246-0.057,0.283c0.037,0.039,0.057,0.133,0.057,0.283l0.683-1.245
					c0-0.074-0.02-0.131-0.057-0.17C75.8,19.656,75.783,19.6,75.783,19.524z M76.124,19.071l-0.228-0.227
					c-0.152,0.152-0.267,0.227-0.341,0.227l0.113,0.227C75.82,19.298,75.971,19.224,76.124,19.071z M75.783,15.11
					c0,0.076-0.039,0.113-0.114,0.113l0.114,0.113l0.113-0.113C75.82,15.224,75.783,15.187,75.783,15.11z M76.238,17.939
					c0.151-0.452,0.228-0.64,0.228-0.565v-0.34l-0.228,0.453V17.939z M76.693,16.242h0.228c0,0.152,0.018,0.266,0.057,0.34
					c0.037,0.076,0.057,0.189,0.057,0.339l0.342-0.565l3.412-11.882c0.075-0.15,0.057-0.3-0.057-0.452
					c-0.114-0.15-0.21-0.301-0.284-0.453c-0.153,0.152-0.324,0.322-0.513,0.51c-0.189,0.188-0.36,0.358-0.512,0.509l-0.91,3.056
					v0.113C78.058,7.981,77.887,8.265,78,8.604c0.114,0.339,0.095,0.661-0.057,0.962c-0.152,0.151-0.21,0.358-0.171,0.622
					c0.038,0.266,0.058,0.509,0.058,0.735h-0.228c-0.228,0.227-0.342,0.303-0.342,0.227c-0.076,0.152-0.113,0.378-0.113,0.679
					c0.529-0.15,0.757-0.094,0.683,0.17c-0.077,0.266-0.114,0.472-0.114,0.622L76.693,16.242z"/>
				<path fill="#D50062" d="M81.583,50.643c0.074-3.168,0.398-6.054,0.967-8.656c0.569-2.603,1.383-5.11,2.445-7.525
					c0.606-1.433,1.309-2.79,2.104-4.073c0.797-1.282,1.649-2.564,2.56-3.848c0.606-0.679,1.252-1.282,1.934-1.811
					c0.683-0.527,1.554-0.716,2.616-0.566c0.834,0.152,1.63,0.152,2.39,0c0.757-0.149,1.553-0.149,2.389,0
					c0.984,0.152,1.951,0.359,2.9,0.623c0.947,0.265,1.877,0.548,2.787,0.849c0.228,0,0.455,0.189,0.683,0.565
					c0.15,0.604,0.302,1.171,0.455,1.697c0.15,0.529,0.302,1.095,0.455,1.697c0.15,0.605,0.228,0.981,0.228,1.132
					c0,0.755-0.077,1.284-0.228,1.584c-0.153,0.303-0.324,0.549-0.513,0.736c-0.189,0.188-0.397,0.396-0.625,0.622
					c-0.153,0.152-0.342,0.113-0.569-0.113c-0.152-0.301-0.323-0.583-0.512-0.849c-0.19-0.264-0.36-0.547-0.512-0.849
					c-0.228-0.527-0.418-1.036-0.568-1.527c-0.153-0.49-0.342-0.962-0.569-1.415c-0.228-0.603-0.588-0.999-1.08-1.188
					c-0.494-0.187-1.044-0.356-1.649-0.509c-0.455-0.074-0.816,0.039-1.081,0.34c-0.267,0.302-0.512,0.604-0.739,0.905
					c-1.441,1.584-2.599,3.32-3.47,5.205c-0.872,1.887-1.649,3.811-2.332,5.771c-0.38,1.132-0.739,2.283-1.08,3.452
					c-0.342,1.17-0.512,2.396-0.512,3.678c0.074,0.83,0.057,1.641-0.058,2.433c-0.113,0.792-0.133,1.604-0.057,2.433
					c0,0.981,0.188,2.037,0.569,3.169c0.15,0.302,0.853,0.491,2.104,0.565c1.252,0.076,2.635-0.565,4.152-1.924
					c2.122-1.811,4.303-3.602,6.541-5.375c2.235-1.771,3.885-3.412,4.948-4.922c0.302-0.377,0.586-0.754,0.853-1.132
					c0.266-0.377,0.512-0.753,0.739-1.132c0.303-0.15,0.493-0.301,0.569-0.452c0.074,0.151,0.151,0.265,0.228,0.339
					c0.074,0.076,0.113,0.152,0.113,0.227c-0.076,0.378-0.113,0.774-0.113,1.188c0,0.415-0.076,0.774-0.228,1.074
					c-0.304,0.529-0.816,1.132-1.536,1.811c-0.722,0.68-1.498,1.378-2.332,2.094c-0.835,0.718-1.631,1.415-2.389,2.094
					c-0.759,0.679-1.29,1.283-1.592,1.811c-0.228,0.378-0.532,0.661-0.91,0.849c-0.381,0.189-0.722,0.472-1.024,0.849
					c-0.38,0.378-0.948,0.925-1.706,1.641c-0.759,0.718-1.669,1.434-2.729,2.15c-1.063,0.718-2.275,1.357-3.641,1.924
					c-1.365,0.565-2.807,0.849-4.322,0.849c-1.214,0.075-2.238-0.188-3.071-0.793c-0.836-0.603-1.556-1.395-2.161-2.376
					C82.039,53.924,81.432,52.152,81.583,50.643z"/>
				<path fill="#D50062" d="M108.882,47.248c-0.074-2.188,0.228-4.281,0.91-6.28c0.683-1.998,1.667-3.865,2.957-5.602
					c0-0.074,0.038-0.113,0.114-0.113c0.683-1.508,1.573-2.79,2.673-3.848c1.099-1.056,2.293-2.036,3.583-2.941
					c0.834-0.604,1.764-1.093,2.787-1.472c1.024-0.376,2.142-0.452,3.355-0.226c0.379,0.075,0.721,0.075,1.024,0
					c0.302-0.075,0.644-0.113,1.023-0.113c0.455,0,0.796,0.038,1.023,0.113c0.53,0.151,1.042,0.321,1.536,0.509
					c0.492,0.189,0.967,0.396,1.422,0.622c0.683,0.303,1.326,0.718,1.934,1.245c0.151,0,0.228,0.152,0.228,0.452
					c-0.152,0.379-0.247,0.793-0.284,1.245c-0.039,0.453-0.134,0.905-0.284,1.358c-0.455,1.207-1.101,2.282-1.934,3.225
					c-0.836,0.944-1.783,1.83-2.845,2.659c-0.607,0.528-1.233,1.001-1.876,1.414c-0.646,0.416-1.385,0.699-2.219,0.849
					c-0.228,0.076-0.455,0.189-0.683,0.34c-0.228,0.152-0.494,0.303-0.796,0.453c-0.381,0.151-0.702,0.302-0.967,0.452
					c-0.267,0.152-0.589,0.266-0.967,0.34c-0.76,0.076-1.328,0.528-1.707,1.357c-0.531,1.358-0.967,2.716-1.308,4.074
					c-0.342,1.357-0.512,2.754-0.512,4.187c0,0.604,0.302,1.095,0.91,1.471c1.061,0.453,2.198,0.566,3.412,0.34
					c1.212-0.227,2.389-0.622,3.526-1.188c1.138-0.565,2.161-1.188,3.071-1.867c0.91-0.679,1.593-1.205,2.048-1.584l4.436-4.187
					l3.071-3.395c0.379-0.527,0.834-0.641,1.365-0.34c0.303,0.227,0.436,0.452,0.398,0.679c-0.039,0.227-0.134,0.492-0.284,0.792
					l-0.569,0.792c-1.29,1.284-2.579,2.547-3.867,3.791c-1.29,1.245-2.616,2.434-3.981,3.564c-0.38,0.303-1.023,0.831-1.934,1.584
					c-0.91,0.756-2.03,1.511-3.355,2.264c-1.328,0.755-2.826,1.396-4.493,1.924c-1.669,0.528-3.413,0.679-5.233,0.452
					c-3.793-0.226-5.991-2.45-6.598-6.676c-0.076-0.453-0.113-0.905-0.113-1.358C108.882,48.153,108.882,47.7,108.882,47.248z
					 M129.813,30.84c-0.228-0.15-0.455-0.357-0.683-0.622c-0.228-0.264-0.494-0.471-0.797-0.623
					c-0.304-0.15-0.682-0.074-1.137,0.227c-1.291,0.679-2.314,1.66-3.071,2.942c-0.455,0.755-0.968,1.471-1.536,2.149
					c-0.568,0.68-0.93,1.511-1.081,2.49c0,0.076-0.113,0.226-0.341,0.452l-0.796,1.924c-0.077,0.152-0.114,0.416-0.114,0.792
					l0.683-0.227l1.138-0.679c1.516-0.829,2.861-1.791,4.038-2.886c1.175-1.093,2.179-2.394,3.015-3.903
					c0.15-0.301,0.265-0.623,0.341-0.962C129.546,31.575,129.66,31.218,129.813,30.84z"/>
			</g>
		</g>
	</g>
</g>
</svg>
