<?xml version="1.0" encoding="utf-8"?>
<!-- Generator: Adobe Illustrator 16.0.4, SVG Export Plug-In . SVG Version: 6.00 Build 0)  -->
<!DOCTYPE svg PUBLIC "-//W3C//DTD SVG 1.0//EN" "http://www.w3.org/TR/2001/REC-SVG-20010904/DTD/svg10.dtd">
<svg version="1.0" id="Layer_1" xmlns="http://www.w3.org/2000/svg" xmlns:xlink="http://www.w3.org/1999/xlink" x="0px" y="0px"
	 width="255.123px" height="91.056px" viewBox="0 0 255.123 91.056" enable-background="new 0 0 255.123 91.056"
	 xml:space="preserve">
<g>
	<g>
		<g>
			<path fill="#9DD30D" d="M95.688,62.222c-0.28,0.732-0.147,1.283,0.397,1.653l-1.81,2.457l-1.25,1.363
				c-1.391,1.635-3.324,2.81-5.805,3.518l-1.931,0.531c-1.01,0.175-1.856,0.144-2.541-0.092c-0.687-0.233-1.349-0.632-1.981-1.188
				c-2.453-2.222-3.803-4.936-4.046-8.147c-0.083-1.101-0.049-2.152,0.098-3.161c0.148-1.005,0.316-2.011,0.51-3.02l0.009-0.962
				l-0.277,0.273c-0.371,0.271-0.716,0.52-1.038,0.746c-0.325,0.227-0.67,0.429-1.037,0.607c-0.738,0.36-1.427,0.652-2.07,0.874
				c-0.644,0.225-1.377,0.378-2.204,0.46c-1.099,0.082-2.402-0.182-3.909-0.793c-1.507-0.608-2.486-1.282-2.936-2.02
				c-0.451-0.919-0.67-1.793-0.663-2.619c0.104-1.557,0.417-3.021,0.935-4.39c0.515-1.369,1.147-2.737,1.895-4.104
				c0.746-1.457,1.723-3.007,2.93-4.646c0.185-0.273,0.417-0.522,0.695-0.75c0.276-0.225,0.506-0.429,0.693-0.61
				c0.556-0.728,1.226-1.386,2.011-1.976c0.783-0.587,1.592-1.152,2.421-1.694c0.554-0.453,1.152-0.814,1.797-1.082
				c0.642-0.271,1.379-0.491,2.205-0.667l1.929-0.395c0.918-0.174,1.788-0.211,2.612-0.112c0.823,0.101,1.647,0.244,2.47,0.436
				c0.456,0.097,1.143,0.333,2.055,0.707c0.82,0.375,1.092,0.79,0.812,1.245c-0.373,0.546-1.016,0.632-1.928,0.256
				c-1.827-0.657-3.34-0.443-4.541,0.646c-0.553,0.452-1.086,0.882-1.594,1.289s-0.994,0.885-1.455,1.43
				c-0.558,0.729-1.207,1.455-1.945,2.18c-0.741,0.729-1.207,1.593-1.398,2.599c-0.189,0.458-0.375,0.846-0.561,1.164
				c-0.188,0.319-0.374,0.662-0.56,1.025c-0.19,0.548-0.354,1.075-0.495,1.576c-0.143,0.503-0.309,1.027-0.497,1.577
				c-0.282,0.73-0.381,1.438-0.295,2.126c0.084,0.688,0.033,1.398-0.157,2.13c-0.001,0.092,0.086,0.323,0.268,0.688l0.691-0.405
				l1.111-1.227l5.006-6.274l0.418-0.684c0.469-1.096,0.892-2.19,1.27-3.287c0.375-1.095,0.753-2.191,1.131-3.288
				c0.188-0.638,0.492-1.116,0.907-1.435c0.415-0.316,1.08-0.471,1.997-0.463c0.184,0.002,0.413-0.017,0.688-0.062
				c0.276-0.043,0.504-0.017,0.688,0.075c1.281,0.012,2.127,0.25,2.535,0.711c0.408,0.464,0.561,1.105,0.463,1.93
				c-0.01,1.01-0.066,1.991-0.166,2.953c-0.102,0.961-0.248,1.946-0.439,2.951c-0.101,0.734-0.221,1.488-0.365,2.265
				c-0.146,0.778-0.312,1.533-0.502,2.263c-0.192,0.915-0.338,1.808-0.438,2.677c-0.1,0.871-0.201,1.763-0.3,2.677
				c-0.19,0.733-0.313,1.51-0.366,2.334c-0.055,0.823-0.131,1.603-0.229,2.333c-0.004,0.367,0.039,0.688,0.129,0.964l0.377,3.576
				c0,0.094,0.043,0.162,0.137,0.208c0.089,0.048,0.135,0.117,0.135,0.207l0.553-0.27l6.696-10.521l2.923-3.958
				c0.187-0.363,0.281-0.592,0.282-0.685c0.001-0.089,0.187-0.387,0.56-0.888c0.369-0.5,0.787-1.069,1.252-1.706
				c0.463-0.636,0.881-1.205,1.252-1.707c0.371-0.499,0.559-0.795,0.559-0.888c0.271,0.277,0.357,0.807,0.26,1.583
				c-0.099,0.778-0.289,1.578-0.572,2.4c-0.282,0.821-0.545,1.645-0.779,2.466c-0.237,0.823-0.357,1.463-0.362,1.92
				c-0.009,0.917-0.223,1.81-0.644,2.675c-0.42,0.868-0.91,1.733-1.469,2.598c-0.558,0.867-1.139,1.686-1.74,2.458
				C96.552,60.604,96.062,61.401,95.688,62.222z"/>
			<path fill="#9DD30D" d="M97.931,57.845c0.125-3.847,0.551-7.348,1.266-10.502c0.718-3.154,1.73-6.188,3.043-9.111
				c0.748-1.731,1.613-3.373,2.589-4.923c0.978-1.549,2.022-3.096,3.136-4.644c0.74-0.818,1.526-1.543,2.357-2.177
				c0.83-0.634,1.885-0.854,3.166-0.658c1.006,0.194,1.967,0.204,2.887,0.026c0.916-0.173,1.877-0.165,2.887,0.027
				c1.188,0.196,2.354,0.458,3.496,0.789c1.141,0.333,2.262,0.688,3.357,1.063c0.275,0.002,0.547,0.233,0.818,0.693
				c0.176,0.736,0.352,1.425,0.529,2.067c0.178,0.644,0.354,1.333,0.531,2.065c0.176,0.737,0.262,1.195,0.26,1.378
				c-0.008,0.917-0.105,1.559-0.291,1.921c-0.188,0.364-0.398,0.661-0.627,0.887c-0.232,0.228-0.484,0.476-0.764,0.749
				c-0.186,0.183-0.412,0.134-0.684-0.145c-0.182-0.365-0.387-0.712-0.609-1.035c-0.227-0.322-0.43-0.668-0.609-1.037
				c-0.268-0.643-0.492-1.263-0.67-1.861c-0.178-0.597-0.4-1.173-0.67-1.724c-0.268-0.736-0.699-1.222-1.291-1.456
				c-0.596-0.233-1.256-0.446-1.986-0.639c-0.551-0.094-0.986,0.039-1.311,0.4c-0.326,0.364-0.625,0.729-0.904,1.091
				c-1.76,1.908-3.178,4.004-4.25,6.282c-1.076,2.281-2.037,4.608-2.883,6.981c-0.473,1.37-0.92,2.764-1.346,4.18
				c-0.426,1.418-0.646,2.904-0.662,4.461c0.082,1.01,0.052,1.993-0.096,2.955c-0.146,0.96-0.18,1.944-0.096,2.953
				c-0.011,1.191,0.204,2.476,0.65,3.854c0.179,0.369,1.025,0.606,2.537,0.712c1.51,0.106,3.188-0.658,5.037-2.29
				c2.584-2.175,5.242-4.325,7.965-6.454c2.721-2.125,4.732-4.1,6.035-5.922c0.369-0.454,0.717-0.908,1.043-1.364
				c0.324-0.453,0.627-0.908,0.906-1.365c0.365-0.179,0.6-0.359,0.691-0.543c0.09,0.186,0.182,0.322,0.271,0.415
				c0.09,0.092,0.135,0.186,0.135,0.274c-0.096,0.459-0.146,0.939-0.15,1.442c-0.006,0.505-0.102,0.938-0.289,1.304
				c-0.373,0.639-0.998,1.364-1.875,2.182c-0.881,0.815-1.826,1.655-2.842,2.516c-1.016,0.863-1.988,1.7-2.91,2.516
				c-0.924,0.815-1.572,1.543-1.943,2.181c-0.279,0.457-0.65,0.797-1.109,1.02c-0.461,0.226-0.877,0.565-1.246,1.021
				c-0.465,0.454-1.158,1.111-2.08,1.973c-0.926,0.863-2.033,1.724-3.324,2.58c-1.291,0.86-2.764,1.624-4.419,2.296
				s-3.401,0.999-5.231,0.981c-1.467,0.077-2.703-0.255-3.703-0.999c-1.002-0.74-1.862-1.712-2.584-2.909
				C98.44,61.836,97.729,59.677,97.931,57.845z"/>
			<path fill="#9DD30D" d="M145.142,65.026l-0.004,0.413c-0.367-0.004-0.461,0.133-0.279,0.41c0.268,0.737,0.283,1.446,0.047,2.13
				c-0.236,0.686-0.494,1.394-0.775,2.123c-0.283,1.007-0.773,1.872-1.467,2.599c-0.693,0.728-1.412,1.454-2.15,2.178
				c-0.277,0.182-0.578,0.338-0.898,0.473c-0.322,0.136-0.621,0.293-0.896,0.474c-0.463,0.181-0.875,0.358-1.244,0.537
				c-0.369,0.182-0.781,0.359-1.242,0.537c-1.287,0.355-2.406,0.185-3.361-0.512c-0.957-0.697-1.52-1.686-1.689-2.973
				c-0.172-1.283-0.25-2.521-0.24-3.713c0.012-1.188-0.025-2.428-0.104-3.712l0.018-1.786c0.102-1.281,0.209-2.586,0.312-3.914
				c0.104-1.326,0.252-2.63,0.449-3.913c0.197-1.556,0.418-3.134,0.664-4.736c0.242-1.601,0.51-3.179,0.799-4.733l0.141-0.138
				c0.283-1.097,0.338-2.011,0.164-2.746c0.09,0,0.137-0.046,0.137-0.137l1.314-8.097c0.004-0.458-0.041-0.87-0.127-1.237
				c-0.088-0.367-0.176-0.779-0.262-1.241c-0.178-0.733,0.1-1.099,0.834-1.091c0.455,0.097,0.914,0.169,1.371,0.219
				c0.459,0.053,0.916,0.077,1.375,0.082c0.551,0.006,0.914,0.146,1.096,0.423c0-0.091,0.047-0.138,0.139-0.137
				c0.092,0,0.184-0.043,0.277-0.136c0.09-0.18,0.143-0.5,0.146-0.96c0.09,0,0.158-0.021,0.207-0.066
				c0.045-0.045,0.113-0.066,0.207-0.065c0,0.092,0.02,0.16,0.066,0.207c0.043,0.047,0.068,0.116,0.066,0.207
				c0,0.092-0.094,0.229-0.279,0.41c-0.188,0.548-0.055,0.871,0.404,0.966c0.729,0.282,1.299,0.678,1.707,1.184
				c0.408,0.509,0.791,1.039,1.152,1.591c0.541,0.922,0.898,1.843,1.074,2.761c0.174,0.918,0.301,1.881,0.385,2.89
				c-0.002,0.184-0.053,0.39-0.145,0.616c-0.094,0.229-0.189,0.435-0.279,0.617c-0.277,0.182-0.373,0.455-0.283,0.821l-0.006,0.549
				c0.092,0.094,0.137,0.275,0.135,0.552c-0.096,0.091-0.191,0.595-0.291,1.509c-0.1,0.733-0.197,1.44-0.293,2.127
				c-0.1,0.686-0.244,1.396-0.434,2.126c-0.189,0.732-0.355,1.394-0.5,1.989c-0.143,0.595-0.309,1.256-0.498,1.986l-1.158,6.175
				c-0.189,0.547-0.334,1.119-0.428,1.713c-0.1,0.597-0.197,1.167-0.293,1.716v0.137c-0.002,0.093-0.025,0.161-0.07,0.206
				c-0.049,0.046-0.07,0.115-0.07,0.206c-0.094,0.091-0.141,0.228-0.143,0.411s0.043,0.323,0.133,0.413l-0.137,0.137l-0.002,0.274
				c-0.004,0.274-0.029,0.527-0.078,0.755c-0.049,0.229-0.121,0.48-0.213,0.754l0.137,0.139l0.141-0.137
				c0.092-0.182,0.186-0.386,0.279-0.615c0.092-0.227,0.188-0.479,0.283-0.753l0.137,0.001c0.002-0.182,0.049-0.295,0.141-0.342
				c0.09-0.044,0.139-0.158,0.141-0.343c0.188-0.364,0.281-0.686,0.285-0.959v-0.139c0.467-1.002,0.912-1.983,1.334-2.941
				c0.42-0.958,0.865-1.938,1.332-2.942c0.002-0.275,0.096-0.411,0.279-0.409c0.182,0.187,0.316,0.277,0.41,0.278l0.27,0.552
				c0.365-0.086,0.502-0.062,0.412,0.072c-0.094,0.137-0.141,0.253-0.141,0.343c-0.002,0.093-0.098,0.321-0.283,0.686
				c-0.191,0.64-0.311,1.28-0.361,1.921c-0.053,0.642-0.037,1.328,0.049,2.062C144.546,64.609,144.774,64.933,145.142,65.026z
				 M138.556,20.159l-2.064,0.256c-1.012,0.174-1.336,0.766-0.979,1.776c0.178,0.462,0.355,0.875,0.537,1.242
				c0.18,0.369,0.268,0.782,0.264,1.24c-0.105,1.372,0.434,2.545,1.615,3.519c1.18,0.975,2.461,1.423,3.836,1.343
				c0.732,0.007,1.352-0.146,1.859-0.463c0.506-0.315,0.855-0.838,1.045-1.571c0.479-2.103,0.221-3.937-0.771-5.504
				c-0.178-0.551-0.496-0.828-0.953-0.833c-0.732-0.19-1.441-0.379-2.125-0.571c-0.688-0.188-1.395-0.378-2.125-0.57L138.556,20.159
				z"/>
			<path fill="#9DD30D" d="M194.81,45.018c0.459-0.087,0.803-0.106,1.031-0.06c0.227,0.049,0.293,0.394,0.195,1.033
				c-0.297,2.38-1.143,4.615-2.537,6.71c-1.578,2.001-2.971,4.073-4.182,6.213c-1.211,2.143-2.15,4.401-2.812,6.777
				c-0.379,1.188-0.895,2.328-1.545,3.422c-0.652,1.093-1.211,2.233-1.682,3.42c-0.564,1.644-1.109,3.312-1.627,5.002
				c-0.521,1.69-1.062,3.403-1.629,5.138c-0.281,0.732-0.885,1.274-1.803,1.633c-1.383,0.812-2.9,1.484-4.555,2.02
				c-2.299,0.802-3.527-0.081-3.686-2.646c0.004-0.55-0.082-1.078-0.26-1.583c-0.182-0.504-0.266-1.033-0.26-1.583
				c-0.084-1.007-0.117-2.062-0.107-3.162c0.01-1.1,0.02-2.15,0.029-3.161l0.352-8.242c0.002-0.274,0.027-0.571,0.078-0.894
				c0.049-0.318,0.076-0.663,0.078-1.03c-0.369,0.271-1.016,0.588-1.934,0.944c-1.199,0.724-2.465,1.193-3.793,1.408
				c-1.332,0.217-2.682,0.227-4.055,0.03c-1.283-0.103-2.656-0.347-4.115-0.727c-0.916-0.099-1.695-0.382-2.33-0.847
				c-0.637-0.463-1.18-1.064-1.631-1.803c-2.078-3.227-3.191-6.534-3.342-9.928c-0.152-3.391,0.52-6.818,2.02-10.289
				c0.654-1.367,1.445-2.666,2.375-3.895c0.928-1.229,1.9-2.433,2.92-3.614c0.74-0.908,1.527-1.726,2.359-2.452
				c0.832-0.723,1.709-1.402,2.631-2.037c0.738-0.449,1.564-0.763,2.482-0.938c0.918-0.174,1.791-0.396,2.619-0.662
				c0.551-0.177,1.102-0.31,1.652-0.396c0.551-0.084,1.146-0.173,1.789-0.259c0.826-0.082,1.65-0.073,2.475,0.024
				c1.188,0.196,1.922,0.203,2.197,0.021c0.277-0.181,0.512-0.82,0.707-1.918c0.764-3.291,1.506-6.583,2.225-9.875
				c0.717-3.291,1.459-6.628,2.225-10.012c0.189-0.729,0.334-1.462,0.434-2.196c0.098-0.73-0.033-1.464-0.391-2.201
				c-0.271-0.368-0.314-0.736-0.127-1.102c0.186-0.364,0.555-0.636,1.107-0.813c1.189-0.171,2.34-0.322,3.439-0.448
				c1.102-0.127,2.244,0.045,3.432,0.513c0.365,0.096,0.66,0.281,0.889,0.56c0.225,0.275,0.428,0.553,0.609,0.83
				c0.625,1.564,0.934,3.125,0.918,4.682c-0.016,1.559-0.121,3.115-0.318,4.669c-0.199,1.466-0.395,2.931-0.592,4.393
				c-0.197,1.466-0.395,2.977-0.594,4.53c-0.002,0.275-0.096,0.411-0.277,0.409c-0.275,0.091-0.623,0.408-1.039,0.954
				c-0.418,0.546-0.537,0.912-0.355,1.096c0.184,0.094,0.32,0.095,0.412,0.003c0.09-0.089,0.23-0.135,0.414-0.133
				c0.186-0.181,0.414-0.271,0.689-0.269c-0.002,0.184,0.018,0.321,0.064,0.411c0.045,0.094,0.02,0.231-0.072,0.413
				c-0.279,0.456-0.559,0.936-0.838,1.435c-0.279,0.502-0.514,0.981-0.701,1.437c-0.189,0.458-0.309,0.958-0.357,1.508
				c-0.053,0.551-0.172,1.054-0.359,1.509c-0.479,2.104-0.955,4.139-1.432,6.104c-0.479,1.967-0.863,4.001-1.156,6.104
				c-0.385,1.737-0.605,3.478-0.668,5.217c-0.062,1.741-0.193,3.48-0.393,5.219c-0.096,0.184-0.096,0.322-0.004,0.412
				c0.09,0.094,0.137,0.185,0.135,0.275l0.418-0.545c0.092-0.364,0.188-0.686,0.283-0.96c0.094-0.273,0.188-0.593,0.285-0.959
				l0.115,2.063l-0.311,3.983c-0.096,0.366-0.375,0.683-0.834,0.953l0.561-1.231c0.002-0.182-0.086-0.458-0.266-0.826
				c-0.094,0.184-0.209,0.296-0.348,0.341s-0.207,0.158-0.209,0.341c-0.191,0.641-0.311,1.258-0.361,1.853
				c-0.051,0.597-0.172,1.214-0.361,1.852c-0.096,0.549-0.215,1.099-0.357,1.646s-0.219,1.098-0.223,1.647
				c-0.096,0.366-0.076,0.733,0.059,1.101c0.135,0.369,0.199,0.736,0.195,1.102c-0.004,0.459-0.053,0.735-0.145,0.823
				c-0.74,0.454-1.02,1-0.84,1.642c0.176,0.645,0.17,1.239-0.018,1.788c-0.094,0.091-0.051,0.229,0.133,0.413l0.277-0.135
				c-0.27-0.552-0.221-0.94,0.148-1.167c0.367-0.224,0.645-0.564,0.834-1.023c1.307-2.736,2.639-5.517,3.996-8.347
				c1.354-2.826,2.732-5.61,4.135-8.345c0.559-1.002,1.186-1.981,1.883-2.937c0.695-0.956,1.414-1.888,2.156-2.797
				c0.184-0.181,0.416-0.293,0.691-0.338c0.273-0.043,0.551-0.108,0.826-0.198c-0.002,0.186-0.027,0.344-0.072,0.48
				C194.833,44.674,194.812,44.835,194.81,45.018z M157.802,63.222c-0.092-0.001-0.137,0.046-0.139,0.137
				c0,0.092,0.043,0.185,0.135,0.275c0-0.09,0.023-0.137,0.07-0.136c0.045,0,0.068-0.045,0.07-0.137
				C157.938,63.27,157.894,63.223,157.802,63.222z M159.952,53.758c0.268,1.012,0.484,2.045,0.658,3.099
				c0.174,1.058,0.439,2.09,0.795,3.1c0.264,1.196,0.902,1.339,1.922,0.432c1.291-0.996,2.4-2.084,3.328-3.267
				c0.926-1.183,1.764-2.458,2.512-3.826c0.467-1.003,0.98-2.005,1.539-3.009c0.561-1.002,0.936-2.006,1.129-3.013
				c0.479-2.194,0.818-4.391,1.023-6.588c0.203-2.196,0.455-4.438,0.75-6.727c0.186-0.363,0.189-0.731,0.01-1.1
				c-0.543-0.646-1.457-0.977-2.738-0.987c-1.283-0.013-2.201,0.253-2.756,0.798c-1.574,1.634-2.736,3.388-3.486,5.257
				c-0.752,1.872-1.365,3.814-1.842,5.825l-1.275,3.974c-0.283,1.006-0.547,2.012-0.783,3.017
				C160.497,51.75,160.237,52.754,159.952,53.758z M160.146,62.556l-0.002,0.139l0.139,0.001L160.146,62.556z M172.089,78.476
				c0.189-0.638,0.426-1.277,0.705-1.917c0.281-0.638,0.426-1.322,0.434-2.058c0.102-1.281,0.115-2.519,0.035-3.711
				c-0.082-1.19-0.115-2.428-0.104-3.712c0.002-0.184-0.045-0.297-0.135-0.346c-0.092-0.046-0.182-0.16-0.271-0.346
				c-0.094,0.185-0.188,0.297-0.277,0.341c-0.094,0.046-0.141,0.159-0.143,0.343c-0.188,0.272-0.279,0.547-0.281,0.821
				c-0.004,0.275-0.053,0.549-0.146,0.824c-0.748,1.459-1.082,2.923-1.004,4.389c0.076,1.468,0.156,2.936,0.234,4.4
				c0.088,0.186,0.154,0.301,0.201,0.346c0.047,0.048,0.113,0.162,0.205,0.347l0.281-0.824l0.002-0.137
				c-0.002,0.093,0.09-0.045,0.279-0.409c0.084,0.46,0.104,0.805,0.057,1.031C172.114,78.087,172.093,78.293,172.089,78.476z
				 M182.356,53.833l-0.135-0.139l-0.141,0.137c0.09,0,0.139,0.048,0.137,0.138L182.356,53.833z M186.755,24.6
				c0.002-0.183-0.02-0.298-0.064-0.345c-0.045-0.045-0.066-0.115-0.066-0.207l-0.275,0.135c-0.002,0.274,0.041,0.459,0.133,0.551
				C186.569,24.736,186.663,24.691,186.755,24.6z"/>
			<path fill="#9DD30D" d="M232.696,49.773c0.553-0.269,1.193-0.4,1.93-0.394c-0.189,0.365-0.281,0.731-0.287,1.097
				c-0.004,0.46-0.191,0.893-0.561,1.302c-0.371,0.407-0.65,0.842-0.838,1.298c0,0.091-0.049,0.137-0.139,0.136
				c-0.475,1.555-1.332,2.691-2.574,3.411c-1.244,0.724-2.467,1.443-3.664,2.165c-0.738,0.452-1.498,0.765-2.275,0.939
				c-0.783,0.179-1.541,0.397-2.273,0.666c-0.736,0.085-1.424,0.124-2.064,0.117c-0.643-0.005-1.285,0.081-1.926,0.258
				c-0.828,0.267-1.477,0.789-1.939,1.562c-0.467,0.774-0.885,1.48-1.258,2.119c-0.465,0.729-0.885,1.344-1.254,1.844
				c-0.371,0.5-0.926,1.021-1.664,1.563c-1.293,0.997-2.607,2.016-3.945,3.056c-1.34,1.042-2.787,1.69-4.348,1.951
				c-2.938,0.521-5.684-0.007-8.232-1.59c-0.184-0.185-0.34-0.347-0.477-0.485s-0.295-0.299-0.477-0.485
				c-0.453-0.555-0.883-1.107-1.289-1.661c-0.408-0.554-0.746-1.151-1.014-1.796c-1.262-2.487-1.783-5.147-1.574-7.987
				c0.002-0.091,0.023-0.138,0.07-0.137c0.045,0,0.07-0.045,0.07-0.136c0.002-0.182,0.025-0.343,0.074-0.48
				c0.045-0.137,0.07-0.296,0.072-0.479l0.002-0.137c0.094-0.457,0.146-1.052,0.154-1.786c0.09-0.089,0.139-0.182,0.141-0.273
				c0-0.091,0.045-0.137,0.139-0.136c0.092-0.274,0.188-0.524,0.281-0.754c0.092-0.227,0.143-0.479,0.145-0.754
				c0-0.184-0.045-0.275-0.135-0.277c0.379-1.553,0.762-3.129,1.145-4.729c0.381-1.598,0.854-3.176,1.418-4.729
				c0.939-2.374,1.9-4.746,2.887-7.121c0.984-2.372,2.355-4.558,4.117-6.558c0.461-0.453,0.945-0.861,1.453-1.225
				c0.506-0.358,0.992-0.768,1.455-1.223c0.555-0.452,1.131-0.951,1.732-1.495c0.6-0.544,1.266-0.766,2-0.668
				c0.549,0.097,1.027,0.332,1.436,0.701c0.408,0.372,0.842,0.649,1.299,0.836c0.182,0.095,0.387,0.188,0.615,0.281
				c0.229,0.094,0.434,0.097,0.619,0.006c0.826-0.269,1.674-0.418,2.545-0.457c0.871-0.037,1.719,0.04,2.541,0.229
				c0.914,0.285,1.826,0.797,2.736,1.538c0.361,0.371,0.654,0.764,0.881,1.177c0.225,0.416,0.518,0.854,0.881,1.313l-0.002,0.276
				c-0.379,1.188-0.297,2.288,0.244,3.301c0.539,1.013,0.85,2.023,0.932,3.032c0.08,1.101,0.207,2.201,0.381,3.302
				s0.256,2.157,0.246,3.163c-0.008,0.826-0.084,1.627-0.229,2.403c-0.146,0.777-0.314,1.531-0.504,2.263
				c-0.002,0.184-0.027,0.343-0.072,0.479c-0.049,0.138-0.027,0.3,0.064,0.481c-0.188,0.184-0.373,0.594-0.562,1.232l-0.418,0.546
				c-0.467,0.729-0.748,1.505-0.846,2.33c-0.102,0.822-0.521,1.598-1.26,2.323c-0.186,0.092-0.256,0.273-0.211,0.548
				c0.041,0.275,0.107,0.507,0.199,0.69c0.271,0.277,0.592,0.328,0.961,0.146c0.551-0.177,1.08-0.402,1.586-0.673
				s0.988-0.54,1.451-0.812l3.182-2.168c0.461-0.361,0.9-0.7,1.314-1.02c0.416-0.316,0.852-0.609,1.314-0.881
				c0.461-0.452,0.83-0.631,1.104-0.54c0.73,0.283,1.236,0.219,1.516-0.19c0.277-0.41,0.557-0.841,0.836-1.298
				C232.646,50.233,232.694,50.049,232.696,49.773z M196.456,59.601c0.086,0.553,0.08,1.125-0.016,1.719
				c-0.098,0.596-0.148,1.215-0.154,1.854c0,0.092,0.088,0.23,0.271,0.415l0.418-0.546c0.004-0.457,0.029-0.895,0.08-1.305
				c0.049-0.412,0.305-0.799,0.768-1.161c-0.461,0.087-0.688,0.017-0.686-0.213c0.002-0.229,0.004-0.435,0.006-0.619l-0.271-0.552
				c-0.156-2.933-0.395-4.195-0.719-3.785C195.827,55.815,195.931,57.215,196.456,59.601z M196.409,64.686l-0.139,0.138l0.137,0.138
				L196.409,64.686z M196.937,67.166c0.715,1.657,1.629,2.078,2.734,1.264l-0.805-2.068l-0.539-1.104l-0.426,1.369
				c0,0.093,0.045,0.162,0.135,0.208c0.092,0.048,0.09,0.117-0.002,0.206c-0.002,0.368-0.053,0.642-0.145,0.824l-0.545-0.417
				L196.937,67.166z M197.688,60.025c0,0.093,0.02,0.162,0.066,0.207c0.047,0.048,0.068,0.162,0.066,0.346l0.004-0.55
				L197.688,60.025z M199.942,68.981c0-0.091,0.045-0.137,0.139-0.136l-0.41-0.416L199.942,68.981z M212.251,60.713
				c0.463-0.454,0.373-0.822-0.264-1.102c-1.279-0.47-2.281-1.143-3.004-2.021c-0.727-0.876-1.312-1.868-1.76-2.972
				c-0.182-0.366-0.361-0.69-0.541-0.968l-0.4-1.24c0-0.091-0.045-0.184-0.135-0.276v-0.137c-1.055-4.685-1.01-9.401,0.135-14.156
				c0.092-0.182,0.141-0.412,0.145-0.686c-0.75,1.642-1.477,3.284-2.18,4.928c-0.701,1.643-1.336,3.333-1.9,5.067
				c-0.473,1.187-0.73,2.01-0.779,2.466c-0.053,0.459,0.008,1.33,0.182,2.612c0.084,0.552,0.217,1.081,0.396,1.584
				c0.178,0.508,0.035,1.032-0.426,1.577c-0.094,0.092-0.143,0.321-0.145,0.688c0.084,0.642,0.146,1.286,0.188,1.925
				c0.039,0.642,0.057,1.33,0.049,2.062c0.084,0.735,0.146,1.445,0.186,2.133c0.041,0.688,0.146,1.398,0.324,2.134
				c0.266,1.011,0.67,1.93,1.211,2.76c0.543,0.74,0.953,1.109,1.229,1.111c0.273,0.002,0.777-0.221,1.518-0.672
				c0.184-0.182,0.322-0.272,0.414-0.271c0.639,0.099,1.1-0.058,1.379-0.468s0.557-0.841,0.838-1.298L212.251,60.713z
				 M214.067,57.708c0.092-0.183,0.049-0.502-0.127-0.963c-0.184-0.276-0.387-0.53-0.611-0.764
				c-0.227-0.229-0.432-0.483-0.611-0.762c-0.184-0.276-0.293-0.573-0.334-0.896c-0.047-0.321-0.156-0.573-0.338-0.76
				c-0.271-0.277-0.773-0.51-1.504-0.7c-0.092-0.092-0.205-0.071-0.344,0.063c-0.139,0.136-0.209,0.297-0.211,0.48
				c-0.006,0.733,0.35,1.583,1.076,2.552c0.723,0.97,1.449,1.55,2.182,1.74C213.517,57.976,213.79,57.979,214.067,57.708z
				 M210.413,51.625l0.273,0.276c-0.092,0-0.162,0.022-0.207,0.066c-0.047,0.048-0.117,0.068-0.207,0.067l-0.002,0.137l0.416-0.271
				c0-0.091,0.021-0.158,0.07-0.204c0.045-0.046,0.068-0.114,0.07-0.205l-0.408-0.417l-0.275,0.135L210.413,51.625z M217.147,51.827
				c0.555-0.545,0.834-1.093,0.84-1.643c0-0.09-0.045-0.138-0.135-0.139c0.283-1.004,0.588-1.94,0.92-2.808
				c0.328-0.867,0.498-1.804,0.506-2.813c0.104-1.556,0.074-3.113-0.094-4.674c-0.17-1.559-0.244-3.115-0.23-4.675
				c0.01-1.007-0.213-1.788-0.666-2.343c-0.453-0.554-1.045-1.062-1.771-1.527c-1.824-1.026-2.881-0.578-3.174,1.343
				c-0.096,0.366-0.123,0.688-0.078,0.962c0.043,0.275,0.016,0.549-0.076,0.824l-1,4.114l-0.139-0.002
				c0.088,0.186,0.18,0.414,0.27,0.689c0.086,0.275,0.131,0.505,0.129,0.688l-0.047,5.085c-0.104,1.099,0.049,2.154,0.451,3.166
				c0.402,1.014,0.689,2.022,0.865,3.031l-0.004,0.413c-0.006,0.552,0.08,0.963,0.264,1.239l-0.416,0.272l-0.004,0.411
				c0.734-0.268,1.078-0.147,1.025,0.354c-0.051,0.503,0.062,0.849,0.334,1.034l0.689,0.006l1.121-2.188L217.147,51.827z"/>
			<path fill="#9DD30D" d="M248.728,55.01c-0.559,0.73-0.748,1.415-0.57,2.057c0.086,0.368-0.006,0.734-0.285,1.097
				c-0.369,0.183-0.418,0.501-0.146,0.962c0.088,0.274,0.357,0.644,0.814,1.105c0.453,0.465,0.678,1.154,0.668,2.069l0.406,0.552
				c0.182,0.188,0.342,0.349,0.477,0.487c0.137,0.138,0.111,0.392-0.076,0.755c0,0.186,0.111,0.369,0.34,0.553
				c0.225,0.187,0.43,0.371,0.613,0.557c0.18,0.186,0.271,0.37,0.27,0.552l0.254,2.064c0.088,0.46,0.129,0.918,0.125,1.375
				c-0.004,0.46,0.082,0.918,0.262,1.377c0.178,0.643,0.078,1.329-0.295,2.059l-0.002,0.275c0.271,0.462,0.404,0.852,0.402,1.171
				c-0.004,0.321-0.098,0.71-0.285,1.167c-0.277,0.182-0.51,0.476-0.697,0.886c-0.188,0.411-0.281,0.754-0.283,1.028l0.273,0.003
				l-1.396,2.461c-0.188,0.182-0.279,0.388-0.281,0.616s-0.051,0.479-0.145,0.754l-0.002,0.273c-0.553,0.18-0.896,0.497-1.041,0.952
				c-0.141,0.458-0.307,0.915-0.494,1.371c-0.746,1.274-1.857,2.501-3.334,3.679c-0.738,0.542-1.477,1.038-2.213,1.491
				c-0.738,0.45-1.566,0.763-2.48,0.938c-0.367-0.004-0.689,0.062-0.965,0.196c-0.277,0.136-0.553,0.246-0.828,0.336
				c-1.197,0.446-2.367,0.71-3.514,0.792c-1.146,0.079-2.359,0.022-3.641-0.172c-1.008-0.102-1.99-0.293-2.949-0.578
				c-0.959-0.282-1.895-0.658-2.807-1.125c-0.275-0.188-0.547-0.396-0.82-0.626c-0.271-0.231-0.543-0.44-0.816-0.626
				c-1.092-0.928-1.537-2.1-1.342-3.518c0.197-1.417,0.529-2.674,0.998-3.771c0.191-0.73,0.426-1.438,0.707-2.124
				c0.281-0.685,0.611-1.346,0.982-1.982c0.188-0.457,0.537-1.071,1.047-1.846c0.512-0.772,0.996-1.25,1.457-1.431
				c-0.461,0.182-0.805,0.453-1.039,0.815c-0.23,0.366-0.486,0.683-0.764,0.956c0.469-1.003,1.027-1.938,1.676-2.803
				c0.646-0.863,1.344-1.751,2.086-2.66c0.646-0.728,1.318-1.451,2.014-2.182c0.693-0.724,1.545-1.312,2.561-1.762
				c0.182,0.001,0.273-0.087,0.275-0.273l0.139,0.001c0.092-0.089,0.229-0.042,0.412,0.143c-0.002,0.184-0.096,0.273-0.279,0.271
				c-0.74,0.636-1.41,1.316-2.01,2.043c-0.605,0.729-1.275,1.454-2.016,2.18c-0.186,0.183-0.393,0.339-0.623,0.475
				s-0.258,0.388-0.076,0.755c1.018-0.998,1.965-1.95,2.846-2.857c0.877-0.907,1.826-1.815,2.844-2.724
				c0.83-0.724,1.662-1.38,2.492-1.97c0.83-0.586,1.66-1.197,2.49-1.832c0.369-0.271,0.486-0.498,0.35-0.684
				c-0.135-0.185-0.25-0.367-0.338-0.554c-0.092-0.001-0.16,0.022-0.207,0.066c-0.047,0.046-0.117,0.067-0.207,0.066
				c-0.738,0.452-1.361,0.902-1.867,1.356c-0.51,0.454-0.996,0.953-1.459,1.499l-0.137,0.136c-0.188,0.09-0.416,0.158-0.689,0.2
				c-0.275,0.044-0.506,0.156-0.691,0.336c0.188-0.548,0.375-0.911,0.561-1.094l3.74-3.126c0.277-0.273,0.281-0.593,0.01-0.961
				l-3.939-4.849l-7.615-8.731c-1.266-1.568-2.072-3.5-2.418-5.794c-0.344-2.294-0.002-4.489,1.023-6.589
				c0.469-0.91,1.256-1.864,2.363-2.863c1.109-0.998,2.4-1.786,3.871-2.369c1.471-0.582,3.033-0.887,4.682-0.918
				c1.65-0.029,3.248,0.467,4.797,1.488c0.273,0.188,0.637,0.419,1.094,0.698c0.455,0.278,0.84,0.582,1.16,0.904
				c0.316,0.325,0.52,0.67,0.607,1.036c0.086,0.368-0.145,0.824-0.701,1.369c-0.186,0.182-0.734,0.108-1.646-0.222
				c-0.914-0.33-1.461-0.542-1.643-0.636c-1.098-0.284-1.945-0.154-2.547,0.39s-1.09,1.25-1.463,2.117
				c-0.375,0.867-0.615,1.828-0.715,2.879c-0.102,1.053-0.154,1.945-0.162,2.679c-0.1,0.734-0.014,1.467,0.254,2.202
				c0.27,0.737,0.625,1.472,1.078,2.208c0.812,1.292,1.693,2.537,2.646,3.736c0.949,1.2,1.922,2.401,2.92,3.601
				c0.361,0.463,0.77,0.901,1.225,1.317c0.453,0.417,0.908,0.812,1.363,1.183c0.182,0.186,0.455,0.188,0.826,0.007
				c0.459-0.361,0.852-0.701,1.178-1.021c0.322-0.316,0.713-0.611,1.176-0.883c1.014-0.722,2.051-1.469,3.113-2.237
				c1.059-0.769,2.098-1.561,3.115-2.375c0.09,0.093,0.182,0.139,0.273,0.14c-0.557,0.819-1.162,1.547-1.807,2.182L248.728,55.01z
				 M229.128,78.191c-0.465,0.547-0.928,1.115-1.391,1.706c-0.465,0.593-0.609,1.3-0.432,2.125c0.088,0.276,0.312,0.69,0.676,1.244
				c0.367-0.179,0.711-0.199,1.031-0.061c0.318,0.141,0.707,0.214,1.166,0.219c1.006,0.194,2.014,0.066,3.027-0.385
				c0.643-0.357,1.266-0.696,1.865-1.014c0.598-0.313,1.219-0.696,1.865-1.149c0.83-0.633,1.662-1.243,2.492-1.832
				c0.83-0.587,1.523-1.382,2.084-2.385c0.561-1.096,1.027-2.212,1.406-3.354c0.375-1.142,0.572-2.49,0.588-4.049l-1.336-4.273
				c-0.27-0.277-0.453-0.369-0.547-0.279c-0.645,0.453-1.27,0.929-1.867,1.425c-0.604,0.5-1.227,1.02-1.871,1.563
				c-0.369,0.271-0.646,0.612-0.834,1.022c-0.188,0.411-0.42,0.8-0.699,1.163l-2.221,2.452c-0.465,0.456-0.926,0.932-1.389,1.431
				c-0.465,0.5-0.928,1.021-1.389,1.567c-0.373,0.456-0.721,0.934-1.045,1.434C229.983,77.261,229.591,77.738,229.128,78.191z
				 M246.956,82.345c0.002-0.09-0.021-0.16-0.066-0.207c-0.045-0.045-0.066-0.115-0.066-0.207l-0.686-0.006
				c0.088,0.186,0.133,0.368,0.131,0.551l0.135,0.276c-0.184-0.001-0.322,0.045-0.414,0.134l-0.832,0.68l0.002-0.138
				c-0.094,0.185-0.188,0.272-0.277,0.272c-0.094,0-0.23,0.09-0.416,0.271c-0.463,0.363-0.898,0.725-1.316,1.087
				c-0.416,0.361-0.854,0.726-1.316,1.087l-1.379,0.675c-0.465,0.36-0.9,0.679-1.314,0.948c-0.416,0.272-0.855,0.542-1.314,0.813
				l-2.754,0.661l0.002-0.274c0.186-0.183,0.506-0.362,0.967-0.54l0.967-0.403l-0.688-0.006c-0.736,0.083-1.445,0.168-2.133,0.254
				c-0.688,0.084-1.398-0.013-2.127-0.294c-0.186-0.095-0.344-0.12-0.48-0.071c-0.137,0.043-0.299,0.064-0.48,0.062
				c-0.549-0.098-1.1-0.078-1.65,0.053c-0.551,0.134-1.146,0.104-1.787-0.085l-0.412-0.003l0.955,0.696
				c0.547,0.28,1.049,0.422,1.508,0.427c0.457,0.004,1.055-0.083,1.789-0.259c0.002-0.092-0.182-0.231-0.545-0.417l0.824,0.008
				l0.684,0.418c-0.186,0.088-0.322,0.18-0.414,0.271c-0.094,0.088-0.232,0.134-0.414,0.133c-0.277,0.088-0.689,0.132-1.238,0.126
				l-0.004,0.275c0.459,0.004,0.938,0.03,1.443,0.082c0.502,0.05,0.982,0.077,1.443,0.081c1.83,0.2,3.619-0.102,5.369-0.91
				c0.367-0.271,0.873-0.404,1.516-0.398c0.457-0.087,1.17-0.379,2.139-0.873c0.967-0.495,1.543-0.971,1.73-1.427l0.975-1.229
				L246.956,82.345z M237.827,88.582c-0.092,0-0.184-0.049-0.273-0.141l-0.139,0.138L237.827,88.582z M247.101,81.66l0.275-0.135
				l-0.41-0.004C246.964,81.614,247.009,81.659,247.101,81.66z"/>
		</g>
		<g>
			<path fill="#9DD30D" d="M109.868,9.264c0.047,0.008-0.07-0.27-0.082-0.323C109.742,9.032,109.896,9.337,109.868,9.264z"/>
			<polygon fill="#9DD30D" points="109.468,10.165 109.433,10.043 109.446,10.367 			"/>
			<path fill="#9DD30D" d="M108.867,10.395c0.243,0.46,0.185-0.162,0.358-0.032l0.06,0.102l-0.101-0.407
				C109.078,10.171,109.011,10.496,108.867,10.395z"/>
			<path fill="#9DD30D" d="M108.138,9.486c0.096,0.179-0.006,0.188,0.098,0.028c-0.014-0.02-0.021-0.028-0.032-0.042
				C108.192,9.479,108.174,9.487,108.138,9.486z"/>
			<path fill="#9DD30D" d="M108.204,9.472C108.263,9.433,108.101,9.331,108.204,9.472L108.204,9.472z"/>
			<path fill="#9DD30D" d="M107.953,9.698l0.019-0.201c-0.062-0.104-0.147-0.1-0.152-0.189
				C107.769,9.432,107.83,9.535,107.953,9.698z"/>
			<path fill="#9DD30D" d="M108.013,10.078l0.016-0.088C108.002,9.949,107.983,9.934,108.013,10.078z"/>
			<path fill="#9DD30D" d="M108.06,9.804l-0.031,0.186c0.043,0.071,0.105,0.229,0.021-0.07
				C108.099,10.064,108.062,9.919,108.06,9.804z"/>
			<path fill="#9DD30D" d="M108.142,9.857c0.09,0.085,0.176,0.126,0.157,0.326C108.433,10.054,108.274,9.726,108.142,9.857z"/>
			<path fill="#9DD30D" d="M109.03,10.906l0.117,0.117l-0.01-0.182C109.142,10.931,108.968,10.758,109.03,10.906z"/>
			<path fill="#9DD30D" d="M107.327,9.657c0.035,0.104,0.138,0.261,0.197,0.389l0.016-0.143
				C107.479,9.846,107.392,9.807,107.327,9.657z"/>
			<path fill="#9DD30D" d="M107.524,10.045l-0.021,0.21C107.597,10.246,107.576,10.156,107.524,10.045z"/>
			<polygon fill="#9DD30D" points="108.211,10.617 108.215,10.186 108.185,10.631 			"/>
			<polygon fill="#9DD30D" points="106.964,9.789 106.92,9.532 106.974,9.922 			"/>
			<path fill="#9DD30D" d="M106.745,9.921c-0.042-0.208-0.191-0.305-0.201-0.442c-0.05,0.062-0.035,0.249-0.021,0.419
				C106.541,9.793,106.606,9.792,106.745,9.921z"/>
			<path fill="#9DD30D" d="M106.534,10.149c0.005-0.056-0.001-0.15-0.01-0.25C106.517,9.955,106.515,10.03,106.534,10.149z"/>
			<path fill="#9DD30D" d="M107.327,10.268c-0.033-0.058-0.113-0.212-0.193-0.26l0.155,0.271L107.327,10.268z"/>
			<path fill="#9DD30D" d="M107.293,10.288l-0.004-0.007c-0.044,0.007-0.074,0.013-0.085,0.015
				C107.213,10.294,107.242,10.291,107.293,10.288z"/>
			<path fill="#9DD30D" d="M107.337,10.266l-0.01,0.002C107.341,10.295,107.349,10.303,107.337,10.266z"/>
			<path fill="#9DD30D" d="M107.866,10.453c0.011,0.182-0.031,0.397,0.178,0.6C108.003,10.839,107.884,10.724,107.866,10.453z"/>
			<path fill="#9DD30D" d="M107.528,10.605l0.125,0.026c-0.032-0.074-0.096-0.178-0.102-0.269L107.528,10.605z"/>
			<polygon fill="#9DD30D" points="107.519,10.715 107.528,10.605 107.483,10.596 			"/>
			<path fill="#9DD30D" d="M106.815,10.347c0.012,0.141-0.031,0.169-0.074,0.212c0.08,0.034,0.15,0.041,0.205,0.019
				C106.916,10.483,106.873,10.312,106.815,10.347z"/>
			<path fill="#9DD30D" d="M107.06,10.343l-0.002,0.021C107.073,10.386,107.081,10.392,107.06,10.343z"/>
			<path fill="#9DD30D" d="M106.235,10.78c0.01,0.013,0.02,0.03,0.029,0.046l-0.018-0.05L106.235,10.78z"/>
			<path fill="#9DD30D" d="M106.978,10.625c0.066,0.038,0.062-0.042,0.049-0.14c-0.021,0.043-0.045,0.073-0.079,0.091
				C106.96,10.619,106.972,10.645,106.978,10.625z"/>
			<path fill="#9DD30D" d="M106.446,10.339c0.047,0.049,0.095,0.091,0.141,0.126C106.526,10.385,106.423,10.263,106.446,10.339z"/>
			<path fill="#9DD30D" d="M107.009,10.291l0.002-0.016C106.97,10.219,106.985,10.249,107.009,10.291z"/>
			<path fill="#9DD30D" d="M107.009,10.291c-0.004,0.051,0.008,0.127,0.018,0.195c0.016-0.031,0.027-0.072,0.029-0.122
				C107.045,10.343,107.026,10.315,107.009,10.291z"/>
			<path fill="#9DD30D" d="M106.879,12.667c-0.108-0.265-0.106-0.559,0.106-0.318c0.005-0.237-0.43-1.074-0.721-1.522
				c0.049,0.115,0.094,0.222,0.068,0.421c0.094,0.127,0.354,0.24,0.378,0.513c-0.063,0.193-0.142-0.046-0.262-0.159
				c0.192,0.306,0.051,0.547,0.29,1.018l0.031-0.219C106.806,12.474,106.819,12.614,106.879,12.667z"/>
			<path fill="#9DD30D" d="M106.457,10.771l0.024-0.05c-0.064-0.025-0.142-0.114-0.289-0.293c-0.008,0.158,0.021,0.259,0.055,0.351
				l0.206-0.052L106.457,10.771z"/>
			<path fill="#9DD30D" d="M106.655,10.642c0.092,0.298,0.053,0.463,0.242,0.747c0.104-0.068-0.022-0.271-0.006-0.424
				c-0.158,0.146-0.016-0.182-0.222-0.29c0.017-0.066,0.043-0.093,0.07-0.116c-0.05-0.021-0.101-0.052-0.154-0.093l0.013,0.016l0,0
				l0.002,0.005c0.024,0.03,0.035,0.053,0.019,0.036l-0.002,0.007c0.014,0.041,0.026,0.077,0.036,0.11
				c-0.078-0.036-0.039-0.07-0.036-0.11l-0.017-0.043l-0.002-0.005l-0.117,0.239C106.539,10.744,106.582,10.712,106.655,10.642z"/>
			<path fill="#9DD30D" d="M108.198,11.709c-0.016-0.023-0.024-0.043-0.033-0.063C108.168,11.686,108.173,11.711,108.198,11.709z"/>
			<path fill="#9DD30D" d="M108.052,11.565c-0.004-0.045-0.041-0.165,0.016-0.151c0.074,0.072,0.057,0.138,0.098,0.232
				c-0.005-0.088,0.007-0.246-0.133-0.351l0.003,0.043c-0.116-0.07-0.36-0.39-0.363-0.433
				C107.802,11.156,107.897,11.332,108.052,11.565z"/>
			<path fill="#9DD30D" d="M107.384,11.178l-0.096,0.203l0.184,0.217l-0.065-0.146C107.519,11.473,107.421,11.296,107.384,11.178z"
				/>
			<polygon fill="#9DD30D" points="106.155,10.645 106.044,10.333 106.142,10.799 			"/>
			<polygon fill="#9DD30D" points="105.972,10.77 105.864,10.506 105.881,10.687 			"/>
			<path fill="#9DD30D" d="M96.662,19.367l-0.007,0.096C96.664,19.429,96.664,19.397,96.662,19.367z"/>
			<path fill="#9DD30D" d="M96.983,19.223l-0.057-0.129C96.946,19.17,96.968,19.225,96.983,19.223z"/>
			<path fill="#9DD30D" d="M101.146,13.1c-0.186-0.207-0.442-0.542-0.291-0.257l0.16,0.271
				C101.036,13.041,101.085,13.055,101.146,13.1z"/>
			<path fill="#9DD30D" d="M98.774,16.419l0.062,0.075c-0.033-0.104-0.066-0.2-0.098-0.288
				C98.752,16.272,98.763,16.343,98.774,16.419z"/>
			<path fill="#9DD30D" d="M99.33,17.594l-0.177-0.136C99.205,17.509,99.263,17.557,99.33,17.594z"/>
			<path fill="#9DD30D" d="M95.089,20.542l0.094,0.311C95.261,20.81,95.153,20.684,95.089,20.542z"/>
			<path fill="#9DD30D" d="M103.979,11.81c-0.109-0.087-0.178-0.112-0.223-0.108C103.903,11.833,104.074,12.054,103.979,11.81z"/>
			<path fill="#9DD30D" d="M95.261,16.341c0,0.064,0.018,0.127,0.049,0.19C95.313,16.468,95.302,16.409,95.261,16.341z"/>
			<path fill="#9DD30D" d="M103.595,11.778c0.025,0.021,0.039,0.033,0.062,0.053c0.019-0.066,0.043-0.122,0.103-0.13
				C103.649,11.604,103.556,11.556,103.595,11.778z"/>
			<path fill="#9DD30D" d="M88.548,23.292c-0.012-0.011-0.018-0.018-0.029-0.028C88.533,23.304,88.539,23.304,88.548,23.292z"/>
			<path fill="#9DD30D" d="M85.496,21.1c0.013-0.026,0.041-0.038,0.067-0.054C85.542,21.034,85.521,21.042,85.496,21.1z"/>
			<path fill="#9DD30D" d="M105.114,11.012C105.147,10.976,105.106,10.979,105.114,11.012L105.114,11.012z"/>
			<path fill="#9DD30D" d="M105.828,12.052c0.005,0.035,0.019,0.081,0.045,0.147C105.847,12.129,105.832,12.082,105.828,12.052z"/>
			<path fill="#9DD30D" d="M104.022,13.736h-0.004C104.06,13.785,104.052,13.774,104.022,13.736z"/>
			<path fill="#9DD30D" d="M105.235,11.114c-0.031-0.028-0.062-0.049-0.092-0.061C105.162,11.072,105.19,11.091,105.235,11.114z"/>
			<path fill="#9DD30D" d="M105.167,10.981c0.021,0.007,0.035,0.011,0.051,0.013C105.201,10.944,105.181,10.916,105.167,10.981z"/>
			<path fill="#9DD30D" d="M105.062,11.055c0.021-0.016,0.049-0.012,0.082-0.001c-0.018-0.016-0.028-0.03-0.031-0.042
				C105.103,11.024,105.088,11.039,105.062,11.055z"/>
			<path fill="#9DD30D" d="M91.674,20.99c-0.009-0.009-0.014-0.013-0.022-0.024C91.665,21.102,91.674,21.077,91.674,20.99z"/>
			<polygon fill="#9DD30D" points="101.558,16.539 101.556,16.521 101.545,16.516 			"/>
			<path fill="#9DD30D" d="M101.519,16.823c-0.115-0.381-0.059-0.356,0.026-0.307l-0.46-0.782L101.519,16.823z"/>
			<path fill="#9DD30D" d="M95.953,19.836l0.229,0.198c0.088,0.478-0.074,0.38,0.203,0.684c-0.434-0.881,0.352-0.295-0.082-1.177
				l0.162,0.149c-0.023,0.003,0,0.056-0.025,0.056c0.347,0.351-0.226-0.684,0.006-0.646c0.094,0.036,0.201,0.142,0.214,0.267
				l0.021-0.283c0.045-0.002,0.114,0.154,0.067,0.157l0.165-0.172l0.014,0.024c-0.043-0.152-0.089-0.396-0.104-0.504
				c0.115,0.1,0.023,0.105,0.092,0.209l0.002-0.269c0.161,0.201,0.182,0.468,0.089,0.477c0.554,0.818-0.022-0.268,0.464,0.125
				l-0.047,0.166c0.323,0.46,0.312,0.237,0.592,0.486c-0.113-0.148-0.641-0.657-0.633-0.937c0.068,0.049,0.129,0.057,0.104-0.152
				c0.16,0.311,0.185,0.2,0.254,0.143l0.207,0.414c0.025-0.164-0.09-0.368-0.135-0.58c0.115-0.01,0.301,0.298,0.463,0.555
				c0.188-0.014-0.371-0.457-0.229-0.627c0.208,0.092,0.211-0.123,0.233-0.446c0.164,0.095,0.117,0.259,0.209,0.358l-0.092-0.368
				c0.023-0.001,0.069,0.104,0.094,0.155c0-0.162-0.207-0.414-0.161-0.58c-0.207-0.467,0.558,0.551,0.418-0.029
				c0.093,0.101,0.116,0.26,0.209,0.411c0-0.427,0.022-0.32-0.067-0.85l0.264,0.206c-0.25-0.263-0.326-0.688-0.379-1.04
				c-0.108-0.133-0.203-0.25-0.256-0.303l0.049-0.303c0.056,0.058,0.111,0.207,0.172,0.394c-0.006-0.039-0.012-0.079-0.02-0.116
				c0.137,0.123,0.229,0.375,0.307,0.626c-0.061-0.072-0.125-0.146-0.188-0.223c0.087,0.27,0.194,0.565,0.329,0.802
				c-0.014-0.053-0.016-0.104-0.005-0.138c0.022,0.072,0.049,0.137,0.075,0.177c0.027,0.039-0.002-0.062-0.029-0.179l0.273,0.438
				l-0.084-0.186l0.357,0.177c-0.086-0.54-0.305-1.287-0.162-1.603c0.113,0.367,0.271,0.557,0.473,0.956
				c-0.283-0.388-0.092,0.276-0.262,0.257c0.088,0.008,0.172,0.205,0.189,0.28l0.023-0.498c0.164,0.33,0.174,0.221,0.301,0.325
				c-0.375-0.621-0.055-0.517-0.066-0.761c0.118,0.214,0.208,0.447,0.072,0.452c0.371,0.422-0.231-0.838,0.099-0.488
				c-0.022,0.018-0.056-0.009-0.009,0.107c-0.036-0.226,0.195-0.152,0.256,0.055l-0.023,0.022c0.219-0.018,0.547-0.277,0.295-0.839
				c0.037,0.071,0.313,0.672,0.359,0.788l-0.623-2.008c0.211,0.485,0.893,1.547,0.879,1.891c0.077,0.046,0.17,0.097,0.176-0.114
				c-0.062-0.053-0.42-0.644-0.403-0.707c0.378,0.47,0.221,0.241,0.582,0.622c-0.095-0.079-0.423-0.842-0.341-0.854
				c0.045,0.116,0.375,0.728,0.391,0.817l-0.195-0.813c0.022,0.153,0.305,0.62,0.446,0.808c-0.089-0.134,0.154-0.062,0.165-0.157
				l-0.159-0.132c0.25,0.014-0.321-1.117-0.108-1.176c0.051,0.162,0.406,0.953,0.549,0.995c-0.143-0.394-0.696-1.89-0.666-2.264
				l0.139,0.197l0.014-0.31c0.193,0.604,0.551,1.898,0.658,2.418c0.156,0.136,0.146,0.243,0.244,0.171
				c0.139,0.18,0.094,0.331,0.066,0.358l0.316,0.005c-0.229-0.43-0.025-0.534-0.214-0.891l-0.05,0.587
				c-0.229-0.429-0.457-1.316-0.238-1.328c0.135,0.15,0.35,0.792,0.426,0.936c-0.051-0.16,0.029-0.37,0.099-0.271l0.04,0.271
				c0.179,0.115-0.123-0.659,0.199-0.303c0.057,0.005,0.4,0.502,0.279,0.241c-0.309-0.466-1.078-2.002-1.217-2.398
				c0.031,0.025,0.455,0.368,0.622,0.591c0.258,0.356,0.351,0.98,0.573,1.29c-0.057-0.122-0.09-0.287-0.098-0.343
				c0.094,0.081,0.164,0.378,0.23,0.277c-0.2-0.451,0.21-0.057-0.137-0.396c0.031-0.173,0.142,0.042,0.24-0.03
				c-0.172-0.27-0.373-1.027-0.34-1.198c0.049,0.115,0.141,0.251,0.184,0.313c0.209-0.059,0.412,0.104,0.594,0.023
				c0.066,0.101,0.217,0.192,0.271,0.398c-0.013-0.09-0.06-0.251-0.01-0.289c0.289,0.338-0.095,0.117,0.205,0.544
				c-0.115-0.264-0.025-0.423-0.023-0.623c-0.211-0.389-0.219,0.008-0.221,0.205c-0.261-0.552-0.395-1.193-0.324-1.536
				c0.088-0.207,0.233,0.328,0.223,0.235c0.33-0.031-0.205-1.077,0.218-0.786c0.256,0.311,0.327,0.701,0.466,0.946
				c-0.062,0.189-0.293-0.139-0.369-0.086l0.18,0.12c0.015,0.137-0.026,0.263-0.118,0.181c0.226,0.281,0.506-0.156,0.856,0.037
				c-0.016-0.137-0.002-0.289-0.101-0.419l-0.046,0.082c-0.193-0.255-0.049-0.454-0.196-0.547c0.001-0.244-0.036-0.606,0.169-0.508
				l0.206,0.395c-0.057-0.116-0.194-0.2-0.176-0.062c-0.026-0.204,0.446,0.457,0.269-0.102l-0.215-0.238
				c0.002-0.246-0.07-0.731,0.104-0.655c-0.23-0.376-0.008,0.057-0.299-0.374c0.33,0.551-0.312,0.115,0.078,0.673
				c-0.33-0.503-0.252-0.162-0.574-0.574c0.064,0.132,0.156,0.238,0.027,0.218c0.01,0.041,0.022,0.094,0.03,0.128l-0.013-0.008
				l0.015,0.014c0.003,0.023,0.005,0.026,0.004,0.006c0.05,0.047,0.101,0.108,0.142,0.179c0.09,0.329-0.07,0.39-0.053,0.571
				c-0.086-0.036-0.043-0.162-0.141-0.291l0.029,0.272c-0.144-0.292-0.381-0.42-0.321-0.656l-0.13,0.044
				c-0.148-0.132-0.281-0.151-0.286,0.001c-0.088-0.038,0.003,0.394-0.052,0.139l-0.111,0.271l-0.036-0.072
				c-0.21,0.052-0.167,0.668-0.637,0.238c-0.029,0.104-0.054,0.225-0.202,0.191l-0.143-0.244c-0.041,0.125-0.367-0.134-0.276,0.148
				c-0.416-0.638-0.466,0.048-0.669-0.002l0.156,0.333c-0.109,0.031-0.158,0.17-0.215,0.363l0.15,0.287
				c0.014,0.291-0.371-0.072-0.523,0.04c-0.043-0.116,0.014-0.109,0.076-0.056c-0.524-0.559-0.182,0.687-0.6,0.296
				c0.008,0.129-0.042,0.109-0.111,0.053c0.004-0.003,0.006-0.013,0.004-0.021c-0.006-0.002-0.014,0.001-0.02,0.005
				c-0.044-0.039-0.098-0.084-0.141-0.124c0.054,0.063,0.102,0.113,0.131,0.13c-0.031,0.023-0.066,0.085-0.082,0.184l-0.178-0.301
				c-0.002,0.007-0.006,0.007-0.008,0.015c-0.107-0.09,0.034,0.169,0.178,0.389c0,0.064,0.008,0.137,0.027,0.222
				c-0.293-0.481-0.049,0.235-0.375-0.271c0.096,0.278-0.16,0.325,0.092,0.887c-0.037-0.069-0.07-0.098-0.045-0.114
				c-0.088-0.036-0.179-0.068-0.15,0.111l-0.227-0.383l0.146,0.593c-0.197-0.201-0.301-0.325-0.381-0.666
				c0.06,0.561-0.055,0.249,0.029,0.791l-0.123-0.259c-0.049,0.039,0.037,0.424-0.103,0.231c-0.371-0.422-0.638,0.245-1.183-0.042
				c0.447,0.717-0.319-0.262-0.032,0.325c-0.108-0.167-0.204-0.243-0.233-0.424c-0.07,0.257-0.386-0.156-0.242,0.391
				c-0.11-0.169-0.101-0.278-0.17-0.375c0.006,0.045,0.027,0.18-0.043,0.083s-0.053-0.161-0.068-0.25
				c-0.148,0.112,0.119,0.669,0.371,1.188c-0.209-0.201-0.231-0.146-0.116,0.223c-0.117-0.153-0.255-0.305-0.185-0.418
				c-0.07,0.006-0.479-0.064-0.27,0.349c-0.072-0.095-0.096,0.012-0.087,0.065c-0.142,0.043-0.171,0.013-0.276,0.114l0.07,0.049
				c0.208,0.521-0.047,0.164-0.117,0.277l-0.023-0.053c-0.418-0.236-0.012,0.223-0.451-0.067l0.172,0.303
				c0.324,0.673-0.404-0.285-0.406,0.035l0.141,0.151c0.045,0.265-0.67-0.795-0.785-0.841c-0.045-0.05-0.022-0.105-0.022-0.159
				c-0.394-0.292,0.185,0.416,0.09,0.583c-0.138-0.204-0.252-0.57-0.368-0.564c-0.14-0.148,0.088,0.852-0.257,0.502
				c0.115,0.153,0.229,0.305,0.229,0.464c-0.071,0.113-0.6-0.493-0.418,0.084c-0.037-0.04-0.064-0.081-0.088-0.122
				c-0.004,0.176-0.133,0.356-0.033,0.669c-0.616-1.03-0.213,0.767-0.715-0.219l-0.209,0.177l-0.045-0.104
				c-0.187,0.012-0.119,0.273-0.053,0.537c-0.07-0.049-0.09-0.153-0.113-0.206c-0.324-0.088-0.324-0.036-0.26,0.546l-0.183-0.311
				c0.044,0.211-0.572-0.344-0.603,0.141c-0.018-0.04-0.043-0.104-0.049-0.157c-0.059,0.5-1.025-0.601-0.537,0.616l-0.02,0.37
				c0.254-0.013,0.218,0.522,0.4,0.673c-0.051,0.113-0.389-0.246-0.315-0.356l0.043,0.05c-0.263-0.627-0.366-0.085-0.563-0.505
				c-0.397,0.233-0.961,0.1-1.363,0.242l0.273,0.46l-0.15,0.033c-0.088-0.095-0.223-0.354-0.118-0.377
				c-0.179-0.247-0.056,0.301-0.009,0.407c-0.281-0.108-0.188-0.594-0.252-0.578l-0.062,0.073l0.043,0.047
				c0.028,0.225,0.12,0.435-0.008,0.465c-0.118-0.061-0.175-0.278-0.213-0.285c-0.015-0.034-0.033-0.046-0.052,0.007l-0.188,0.038
				l0.244,0.349c0.01,0.221-0.17,0.053,0.107,0.445c-0.422-0.608-0.75,0.055-0.914-0.12c0.018,0.327-0.09,0.371-0.235,0.397
				c0.067,0.064,0.278,0.484,0.142,0.484c-0.352-0.904-0.377-0.292-0.748-0.888c0.268,0.386-0.271,0.25,0.118,0.794
				c-0.125-0.03-0.151-0.332-0.312-0.509c-0.073,0.453-0.59-0.013-0.816,0.213c0.043,0.119,0.166,0.281,0.182,0.48l-0.394-0.529
				c-0.03,0.08,0.229,0.7-0.04,0.332c0.057,0.093,0.139,0.233,0.117,0.286c-0.777-0.359-0.939,0.921-1.911,0.054
				c0.162,0.199,0.122,0.241,0.067,0.274c0.057,0.042,0.109,0.294,0.178,0.452l-0.4-0.355c0.125,0.466-0.238,0.129-0.104,0.569
				l0.046-0.107c0.087,0.546,0.555,1.07,0.781,1.728c-0.104-0.62,0.619,0.731,0.498-0.166c0.091,0.115,0.043,0.223,0.123,0.364
				c-0.059-0.298-0.024-0.377,0.131-0.295l0.014,0.074c0.271-0.186,0.507,0.034,0.917,0.083l-0.151-0.31
				c0.088,0.015,0.145,0.109,0.209,0.174c-0.111-0.515-0.213,0.055-0.351-0.507c0.354,0.607,0.511-0.192,0.874,0.516
				c0.113-0.042-0.184-0.354-0.07-0.395l0.112,0.187l-0.078-0.267c0.089,0.013,0.229,0.247,0.302,0.411
				c-0.025-0.012-0.031,0.067-0.043,0.09c0.191,0.195,0.234-0.187,0.299-0.123l-0.158-0.08c0.227-0.306,0.711-0.192,0.818-0.729
				l-0.086-0.137c0.098-0.374,0.246,0.082,0.43-0.154l0.004,0.039c-0.016-0.168,0.015-0.271,0.086-0.285
				c0.018,0.202,0.265,0.285,0.271,0.514c0.104-0.402,0.016-0.285-0.076-0.903l0.146,0.229c-0.047-0.245-0.095-0.365-0.004-0.48
				c-0.002,0.253,0.243,0.336,0.26,0.664c0.493,0.419,0.125-0.71,0.599,0.018c-0.195-0.725-0.39-0.272-0.393-0.448
				c-0.152-0.195-0.135-0.548-0.027-0.515c0.086-0.021,0.533,0.801,0.729,0.696c-0.021,0.004,0.001,0.057-0.02,0.063
				c0.154,0.138,0.039-0.299,0.262-0.062c-0.141-0.432,0.13-0.032-0.098-0.558l-0.127,0.204c0.04-0.185-0.148-0.833,0.161-0.62
				c0.037,0.111,0.05,0.271,0.052,0.365c0.123,0.129,0.049-0.146,0.174-0.012c0.231,0.524-0.17,0.214-0.096,0.661
				c0.156,0.193,0.035-0.474,0.243,0.116c-0.257-0.753,0.242-0.004,0.12-0.611l0.139,0.316c-0.002-0.06-0.027-0.228,0.018-0.236
				l0.119,0.433c-0.053-0.391,0.357,0.205,0.373-0.035c-0.213,0.116-0.229-0.349-0.43-0.529c0.069-0.544,0.545,0.732,0.773,0.438
				c-0.018,0.062-0.243-0.109-0.248-0.285c0.088,0.035,0.222,0.116,0.335,0.261c0.167-0.164-0.187-0.302-0.193-0.535
				c0.251,0.344,0.022-0.2,0.052-0.365l0.153,0.314c0.323,0.089-0.259-0.685,0.063-0.54l0.127,0.476l0.051-0.166l0.152,0.369
				c-0.015-0.322,0.055-0.271,0.219-0.226c-0.135-0.208-0.266-0.577-0.172-0.638c0.162,0.152,0.109,0.316,0.229,0.199
				c0.064,0.214,0.151,0.477-0.053,0.218c0.037,0.11,0.07,0.212,0.107,0.317c0.18,0.178,0.209-0.044,0.26-0.072
				c-0.024-0.002-0.059-0.008-0.092-0.045l-0.008-0.536c0.09,0.102,0.11,0.208,0.133,0.312c0.024-0.054-0.019-0.211,0.029-0.27
				c0.111,0.264,0.245,0.521,0.217,0.687l0.058-0.381c0.067,0.104,0.251,0.253,0.272,0.357c0.185,0.097,0.021-0.625,0.266-0.499
				c-0.016-0.053-0.024-0.107-0.014-0.159c0.166-0.01,0.443,0.238,0.43-0.188l0.32,0.408c0.074-0.165-0.414-0.508-0.291-0.784
				c0.074-0.219,0.252,0.358,0.369,0.458c-0.045-0.266-0.154-0.796,0.168-0.497C96.047,19.83,95.978,19.783,95.953,19.836z
				 M97.378,18.844c0.003,0.08,0.049,0.312-0.068,0.14C97.162,18.612,97.274,18.768,97.378,18.844z M99.308,16.899
				c0.03,0.113-0.029,0.082-0.129-0.017C99.194,16.841,99.231,16.837,99.308,16.899z M104.769,11.484l0.004,0.016
				C104.646,11.409,104.692,11.447,104.769,11.484z M104.974,11.556c-0.006-0.051-0.027-0.096-0.053-0.137
				c0.025,0.084-0.004,0.105-0.05,0.099C104.92,11.599,104.963,11.645,104.974,11.556z M90.237,19.063l0.064,0.069
				C90.284,19.251,90.263,19.164,90.237,19.063z"/>
			<path fill="#9DD30D" d="M99.267,17.459c-0.037-0.049-0.068-0.106-0.1-0.163C99.183,17.355,99.212,17.416,99.267,17.459z"/>
			<polygon fill="#9DD30D" points="95.071,20.482 95.065,20.482 95.089,20.542 			"/>
			<path fill="#9DD30D" d="M104.077,15.246c-0.049-0.032-0.094-0.082-0.133-0.134C103.979,15.187,104.024,15.247,104.077,15.246z"/>
			<path fill="#9DD30D" d="M105.487,10.668l-0.055,0.127c0.037-0.037,0.084,0.024,0.129,0.066
				C105.526,10.787,105.461,10.687,105.487,10.668z"/>
			<path fill="#9DD30D" d="M107.144,12.289c-0.004-0.045,0.025-0.019,0.022-0.062l-0.067-0.148
				C107.045,12.114,107.06,12.25,107.144,12.289z"/>
			<path fill="#9DD30D" d="M106.043,11.689c0.127,0.268,0.144,0.15,0.185,0.07c-0.004,0.004-0.006,0.006-0.012,0.006
				C106.069,11.379,106.056,11.536,106.043,11.689z"/>
			<path fill="#9DD30D" d="M106.237,11.745c0.015-0.021,0.033-0.037,0.057-0.035C106.235,11.556,106.255,11.689,106.237,11.745z"/>
			<path fill="#9DD30D" d="M105.075,11.295c0.061,0.057-0.139-0.349-0.07-0.249C104.884,10.69,104.989,11.552,105.075,11.295z"/>
			<polygon fill="#9DD30D" points="106.485,12.551 106.317,12.231 106.399,12.513 			"/>
			<path fill="#9DD30D" d="M105.881,12.536l0.142,0.045c-0.025-0.056-0.027-0.092-0.022-0.125
				C105.933,12.474,105.835,12.437,105.881,12.536z"/>
			<path fill="#9DD30D" d="M105.999,12.455c0.035-0.007,0.062-0.029,0.057-0.091C106.04,12.375,106.007,12.403,105.999,12.455z"/>
			<polygon fill="#9DD30D" points="106.394,12.714 106.332,12.66 106.25,12.667 			"/>
			<path fill="#9DD30D" d="M104.769,12.966l-0.064,0.145c0.04,0.116,0.104,0.173,0.123,0.108
				C104.815,13.129,104.837,13.067,104.769,12.966z"/>
			<path fill="#9DD30D" d="M105.519,13.716c-0.062-0.056-0.098-0.128-0.164-0.229l0.186,0.407L105.519,13.716z"/>
			<path fill="#9DD30D" d="M105.245,13.956c0.042,0.118-0.005,0.395,0.12,0.308C105.324,14.145,105.388,14.003,105.245,13.956z"/>
			<polygon fill="#9DD30D" points="103.372,14.22 103.396,14.203 103.069,13.542 			"/>
			<path fill="#9DD30D" d="M102.733,16.505c0.205,0.096-0.176-0.421,0.039-0.281c-0.049-0.17-0.176-0.114-0.211-0.264
				C102.565,16.163,102.479,16.091,102.733,16.505z"/>
			<path fill="#9DD30D" d="M102.56,15.961c0-0.033-0.002-0.07-0.011-0.12C102.548,15.894,102.554,15.93,102.56,15.961z"/>
			<polygon fill="#9DD30D" points="85.054,20.85 84.918,20.741 85.058,20.951 			"/>
			<path fill="#9DD30D" d="M85.083,21.427l-0.182-0.434l0.097,0.419C85.011,21.385,85.032,21.334,85.083,21.427z"/>
			<path fill="#9DD30D" d="M98.04,19.567l-0.046-0.104c-0.067-0.102-0.093-0.101-0.14-0.097L98.04,19.567z"/>
			<polygon fill="#9DD30D" points="96.769,19.831 96.792,19.83 96.562,19.469 			"/>
			<path fill="#9DD30D" d="M96.081,20.792c0.048-0.001,0.049-0.108,0.096-0.112C96.128,20.792,95.83,20.328,96.081,20.792z"/>
		</g>
	</g>
	<g>
		<g>
			<path fill="#9DD30D" d="M7.377,47.909l0.032,6.008c-0.001,0.119,0.012,0.191,0.042,0.222c0.029,0.03,0.043,0.104,0.042,0.221
				c0.06-0.116,0.119-0.176,0.178-0.175c0.058,0,0.118-0.057,0.179-0.175l1.167-1.933c0.239-0.528,0.645-1.26,1.214-2.197
				c0.567-0.936,1.151-1.903,1.75-2.9c0.598-0.993,1.181-1.961,1.75-2.898c0.567-0.937,0.972-1.64,1.212-2.108l1.169-2.198
				c0.06-0.116,0.119-0.188,0.179-0.219c0.059-0.028,0.118-0.072,0.178-0.131c0.175,0.178,0.263,0.327,0.261,0.444
				c-0.062,0.353-0.095,0.706-0.099,1.06c-0.003,0.354-0.066,0.677-0.186,0.97c-0.364,1.058-0.846,2.173-1.445,3.345
				c-0.601,1.172-1.216,2.345-1.845,3.517c-0.629,1.173-1.245,2.315-1.844,3.428c-0.599,1.116-1.11,2.17-1.532,3.167
				c-0.182,0.529-0.422,1.043-0.721,1.539c-0.301,0.499-0.599,0.981-0.897,1.45c-0.122,0.294-0.358,0.438-0.711,0.437
				c-0.531,0.112-1.062,0.196-1.592,0.25c-0.531,0.054-1.062,0.106-1.592,0.16c-0.943,0.052-1.677-0.235-2.2-0.859
				c-0.524-0.623-0.915-1.378-1.172-2.265C0.638,55.181,0.47,54.251,0.39,53.28c-0.079-0.975-0.145-1.782-0.198-2.433
				c-0.212-2.535-0.248-4.951-0.108-7.246c0.139-2.296,0.455-4.62,0.95-6.971c0.495-2.586,1.078-5.114,1.75-7.581
				c0.67-2.469,1.372-4.936,2.102-7.402c0.485-1.467,1-2.92,1.543-4.358c0.543-1.438,1.087-2.891,1.631-4.357
				c0.24-0.587,0.511-1.145,0.811-1.672c0.299-0.527,0.51-1.113,0.636-1.762c0.182-0.586,0.464-0.951,0.849-1.097
				c0.384-0.142,0.811-0.271,1.285-0.386c0.472-0.111,0.914-0.195,1.328-0.252c0.412-0.054,0.854-0.108,1.327-0.164
				c0.294,0.002,0.604-0.008,0.928-0.035c0.323-0.025,0.602,0.138,0.834,0.493c0.058,0.12,0.071,0.237,0.042,0.354
				c-0.032,0.119-0.047,0.234-0.048,0.353l0.164,1.327c0.169,0.827,0.073,1.65-0.288,2.471c-0.06,0.06-0.09,0.119-0.09,0.177
				c-0.064,0.528-0.114,1.089-0.148,1.677c-0.036,0.589-0.115,1.177-0.237,1.765c-0.186,0.94-0.387,1.881-0.601,2.822
				c-0.217,0.939-0.593,1.849-1.13,2.727c-0.48,0.821-0.959,1.657-1.438,2.505c-0.48,0.851-0.958,1.686-1.437,2.505
				c-0.121,0.235-0.27,0.454-0.449,0.657c-0.179,0.206-0.328,0.427-0.448,0.659C9.648,28.76,9.464,29.464,9.4,30.17
				c-0.001,0.06,0.013,0.089,0.043,0.089c0.029,0,0.044,0.031,0.044,0.089c0-0.058,0.015-0.088,0.045-0.088
				c0.028,0,0.044-0.03,0.045-0.089l0.182-0.616c-0.001,0.119-0.018,0.221-0.047,0.31c-0.031,0.088-0.045,0.19-0.046,0.309
				l-0.563,3.441c-0.064,0.471-0.142,0.927-0.234,1.366c-0.093,0.44-0.171,0.896-0.234,1.367c-0.062,0.295-0.049,0.562,0.037,0.795
				c0.086,0.237,0.097,0.475,0.038,0.708c-0.007,0.768-0.119,1.589-0.333,2.472c-0.215,0.882-0.415,1.764-0.599,2.645
				c-0.186,0.882-0.341,1.751-0.466,2.602C7.184,46.418,7.206,47.201,7.377,47.909z M9.206,22.746
				c0.058-0.06,0.089-0.116,0.09-0.176l-0.087-0.091c-0.06,0.06-0.09,0.119-0.09,0.177C9.117,22.714,9.146,22.745,9.206,22.746z
				 M9.912,22.751L9.736,22.75l-0.273,0.793c-0.061,0.118-0.076,0.189-0.046,0.22c0.029,0.031,0.043,0.104,0.042,0.221l0.54-0.967
				c0-0.058-0.015-0.102-0.042-0.133C9.925,22.855,9.911,22.811,9.912,22.751z M10.181,22.402l-0.175-0.18
				c-0.121,0.118-0.209,0.175-0.267,0.175l0.086,0.178C9.943,22.576,10.061,22.517,10.181,22.402z M9.944,19.306
				c0,0.06-0.031,0.087-0.089,0.087l0.087,0.089l0.09-0.088C9.973,19.394,9.944,19.366,9.944,19.306z M10.277,21.517
				c0.121-0.353,0.182-0.499,0.181-0.439l0.002-0.266l-0.18,0.352L10.277,21.517z M10.643,20.196l0.177,0.002
				c-0.001,0.119,0.012,0.208,0.042,0.266c0.028,0.059,0.043,0.147,0.042,0.265l0.269-0.438l2.738-9.251
				c0.06-0.117,0.046-0.234-0.041-0.354c-0.087-0.119-0.161-0.235-0.217-0.354c-0.12,0.116-0.254,0.248-0.401,0.393
				c-0.149,0.146-0.283,0.278-0.402,0.395l-0.729,2.378l-0.001,0.089c-0.355,0.174-0.49,0.393-0.404,0.659
				c0.085,0.266,0.068,0.517-0.052,0.75c-0.12,0.118-0.165,0.278-0.137,0.484c0.026,0.207,0.04,0.397,0.039,0.574l-0.177-0.001
				c-0.178,0.176-0.267,0.234-0.266,0.174c-0.061,0.119-0.092,0.295-0.094,0.529c0.413-0.113,0.589-0.067,0.529,0.138
				c-0.062,0.207-0.092,0.368-0.093,0.485L10.643,20.196z"/>
			<path fill="#9DD30D" d="M39.865,41.324c0.355-0.174,0.767-0.258,1.239-0.253c-0.12,0.233-0.181,0.47-0.183,0.704
				c-0.003,0.297-0.124,0.573-0.361,0.837c-0.239,0.262-0.418,0.542-0.538,0.834c0,0.06-0.031,0.088-0.09,0.088
				c-0.304,0.999-0.855,1.729-1.654,2.191c-0.8,0.465-1.586,0.929-2.355,1.393c-0.475,0.291-0.963,0.49-1.464,0.604
				c-0.502,0.114-0.989,0.255-1.461,0.429c-0.473,0.055-0.915,0.079-1.326,0.076c-0.413-0.004-0.827,0.052-1.239,0.165
				c-0.532,0.172-0.947,0.508-1.247,1.004c-0.3,0.498-0.57,0.953-0.808,1.362c-0.299,0.469-0.568,0.864-0.806,1.186
				c-0.24,0.321-0.596,0.658-1.07,1.007c-0.832,0.641-1.676,1.295-2.536,1.964c-0.861,0.669-1.793,1.087-2.795,1.255
				c-1.889,0.335-3.652-0.004-5.292-1.022c-0.118-0.117-0.219-0.223-0.307-0.312c-0.087-0.088-0.189-0.192-0.306-0.312
				c-0.292-0.355-0.567-0.712-0.83-1.067c-0.261-0.356-0.479-0.741-0.651-1.155c-0.811-1.598-1.146-3.309-1.012-5.135
				c0.001-0.059,0.015-0.087,0.045-0.087c0.029,0,0.044-0.029,0.045-0.088c0.001-0.118,0.017-0.223,0.048-0.31
				c0.029-0.089,0.046-0.189,0.047-0.309l0.001-0.088c0.06-0.293,0.094-0.676,0.099-1.146c0.059-0.059,0.09-0.117,0.09-0.177
				c0-0.059,0.03-0.088,0.089-0.087c0.06-0.176,0.122-0.337,0.181-0.483c0.06-0.146,0.092-0.309,0.094-0.485
				c0.001-0.117-0.029-0.178-0.087-0.178c0.245-0.999,0.49-2.012,0.736-3.042c0.244-1.026,0.55-2.041,0.913-3.04
				c0.603-1.524,1.221-3.05,1.854-4.577c0.634-1.524,1.515-2.931,2.646-4.216c0.297-0.292,0.609-0.554,0.935-0.787
				c0.326-0.23,0.638-0.492,0.935-0.785c0.356-0.29,0.727-0.611,1.114-0.962c0.386-0.35,0.813-0.491,1.286-0.429
				c0.353,0.062,0.66,0.213,0.923,0.45c0.262,0.239,0.54,0.418,0.834,0.538c0.117,0.06,0.249,0.121,0.396,0.181
				c0.146,0.062,0.279,0.062,0.397,0.003c0.532-0.171,1.077-0.269,1.638-0.293c0.56-0.022,1.104,0.025,1.633,0.147
				c0.586,0.183,1.173,0.513,1.757,0.989c0.233,0.238,0.422,0.489,0.567,0.756c0.144,0.267,0.333,0.548,0.566,0.845l-0.001,0.176
				c-0.243,0.765-0.191,1.472,0.157,2.123c0.347,0.652,0.547,1.301,0.601,1.949c0.051,0.708,0.132,1.416,0.245,2.122
				c0.11,0.708,0.164,1.387,0.158,2.035c-0.005,0.528-0.054,1.046-0.147,1.544c-0.093,0.501-0.201,0.984-0.322,1.456
				c-0.001,0.119-0.018,0.22-0.048,0.309c-0.031,0.087-0.017,0.191,0.042,0.309c-0.121,0.118-0.24,0.383-0.361,0.792L32.61,42.67
				c-0.3,0.469-0.481,0.967-0.545,1.498c-0.063,0.528-0.334,1.027-0.809,1.494c-0.119,0.058-0.165,0.174-0.135,0.352
				c0.026,0.177,0.069,0.325,0.127,0.443c0.175,0.179,0.381,0.21,0.618,0.094c0.354-0.115,0.694-0.259,1.02-0.431
				c0.325-0.174,0.635-0.35,0.933-0.522l2.045-1.394c0.296-0.232,0.579-0.451,0.845-0.655c0.268-0.204,0.547-0.393,0.845-0.566
				c0.297-0.292,0.533-0.405,0.709-0.347c0.469,0.181,0.794,0.141,0.974-0.124c0.178-0.263,0.358-0.541,0.537-0.834
				C39.832,41.62,39.864,41.5,39.865,41.324z M16.568,47.642c0.055,0.354,0.052,0.723-0.011,1.104
				c-0.063,0.383-0.095,0.779-0.099,1.19c0,0.061,0.056,0.148,0.174,0.268l0.268-0.352c0.002-0.294,0.019-0.573,0.052-0.839
				c0.032-0.265,0.195-0.513,0.494-0.746c-0.297,0.057-0.442,0.012-0.44-0.137c0.001-0.146,0.003-0.279,0.004-0.397l-0.173-0.354
				c-0.102-1.885-0.255-2.697-0.463-2.434C16.164,45.208,16.229,46.106,16.568,47.642z M16.537,50.911l-0.088,0.087l0.087,0.09
				L16.537,50.911z M16.876,52.504c0.46,1.064,1.048,1.335,1.759,0.812l-0.517-1.329l-0.347-0.711l-0.274,0.882
				c0,0.06,0.028,0.104,0.088,0.133c0.057,0.032,0.057,0.076-0.001,0.133c-0.002,0.236-0.034,0.413-0.094,0.529l-0.351-0.269
				L16.876,52.504z M17.36,47.914c0,0.059,0.014,0.104,0.044,0.133c0.028,0.031,0.043,0.104,0.042,0.221l0.003-0.354H17.36z
				 M18.808,53.671c0-0.058,0.03-0.088,0.09-0.089l-0.263-0.268L18.808,53.671z M26.722,48.355c0.296-0.291,0.24-0.527-0.17-0.709
				c-0.822-0.302-1.466-0.733-1.931-1.298c-0.467-0.562-0.843-1.201-1.131-1.911c-0.117-0.234-0.232-0.442-0.348-0.621l-0.257-0.798
				c0-0.057-0.03-0.117-0.087-0.177l0.001-0.088c-0.679-3.011-0.65-6.044,0.086-9.1c0.059-0.117,0.091-0.265,0.093-0.44
				c-0.483,1.054-0.948,2.11-1.4,3.167c-0.451,1.055-0.859,2.143-1.223,3.257c-0.303,0.764-0.469,1.292-0.501,1.586
				c-0.033,0.295,0.006,0.854,0.117,1.68c0.054,0.354,0.14,0.694,0.255,1.019c0.115,0.325,0.023,0.662-0.274,1.013
				c-0.06,0.061-0.09,0.206-0.092,0.441c0.054,0.413,0.094,0.826,0.12,1.238c0.025,0.412,0.037,0.854,0.032,1.324
				c0.053,0.475,0.093,0.93,0.119,1.371c0.025,0.442,0.094,0.9,0.208,1.373c0.171,0.649,0.431,1.24,0.779,1.773
				c0.349,0.476,0.611,0.713,0.788,0.714c0.177,0.002,0.501-0.142,0.976-0.432c0.118-0.117,0.208-0.176,0.266-0.175
				c0.412,0.062,0.708-0.038,0.887-0.301c0.179-0.263,0.358-0.541,0.538-0.834L26.722,48.355z M27.889,46.423
				c0.06-0.117,0.032-0.322-0.082-0.619c-0.117-0.177-0.248-0.34-0.393-0.489c-0.146-0.147-0.277-0.312-0.393-0.489
				c-0.117-0.179-0.189-0.369-0.216-0.576c-0.028-0.206-0.1-0.368-0.216-0.488c-0.175-0.178-0.498-0.328-0.968-0.451
				c-0.059-0.059-0.132-0.046-0.221,0.042c-0.09,0.088-0.135,0.191-0.136,0.31c-0.005,0.472,0.226,1.018,0.691,1.641
				s0.932,0.996,1.403,1.118C27.534,46.596,27.71,46.598,27.889,46.423z M25.541,42.514l0.175,0.178
				c-0.06,0-0.104,0.016-0.133,0.044c-0.031,0.029-0.075,0.044-0.133,0.043l-0.001,0.088l0.267-0.175
				c0.001-0.058,0.015-0.102,0.045-0.132c0.03-0.027,0.044-0.072,0.045-0.131l-0.262-0.268l-0.178,0.087L25.541,42.514z
				 M29.869,42.643c0.356-0.35,0.537-0.702,0.54-1.056c0-0.058-0.03-0.089-0.088-0.09c0.183-0.646,0.379-1.246,0.591-1.804
				c0.211-0.559,0.32-1.159,0.327-1.81c0.067-1,0.047-2.001-0.061-3.004c-0.108-1.002-0.158-2.003-0.148-3.005
				c0.006-0.648-0.136-1.15-0.427-1.506c-0.293-0.356-0.671-0.683-1.14-0.983c-1.172-0.658-1.852-0.371-2.04,0.865
				c-0.062,0.235-0.079,0.439-0.05,0.617c0.027,0.177,0.01,0.354-0.049,0.529l-0.644,2.646l-0.088-0.001
				c0.057,0.121,0.115,0.266,0.172,0.444c0.056,0.177,0.085,0.325,0.084,0.442l-0.031,3.269c-0.066,0.707,0.031,1.385,0.29,2.034
				c0.259,0.651,0.443,1.301,0.556,1.949l-0.002,0.267c-0.003,0.354,0.052,0.618,0.169,0.796l-0.268,0.175l-0.002,0.264
				c0.474-0.172,0.693-0.094,0.661,0.228c-0.033,0.324,0.039,0.546,0.214,0.665l0.442,0.005l0.72-1.407L29.869,42.643z"/>
			<path fill="#9DD30D" d="M50.169,44.689c-0.358,0.471-0.48,0.91-0.366,1.322c0.057,0.236-0.004,0.472-0.184,0.705
				c-0.236,0.116-0.268,0.321-0.093,0.618c0.056,0.177,0.23,0.415,0.523,0.712c0.291,0.298,0.435,0.741,0.429,1.329l0.261,0.355
				c0.117,0.12,0.22,0.224,0.307,0.312c0.088,0.089,0.071,0.252-0.048,0.485c-0.001,0.118,0.071,0.236,0.217,0.354
				c0.146,0.121,0.277,0.239,0.394,0.357c0.116,0.12,0.175,0.236,0.173,0.354l0.165,1.327c0.055,0.296,0.083,0.591,0.081,0.885
				c-0.003,0.295,0.052,0.589,0.167,0.885c0.114,0.414,0.051,0.855-0.188,1.324l-0.002,0.176c0.173,0.297,0.26,0.549,0.258,0.754
				c-0.002,0.207-0.064,0.454-0.184,0.75c-0.178,0.114-0.327,0.305-0.447,0.568c-0.122,0.265-0.181,0.484-0.183,0.661l0.177,0.001
				l-0.898,1.583c-0.121,0.117-0.179,0.249-0.181,0.396c-0.002,0.146-0.033,0.308-0.093,0.483l-0.001,0.177
				c-0.354,0.116-0.578,0.319-0.669,0.612c-0.091,0.295-0.197,0.588-0.318,0.881c-0.479,0.82-1.194,1.608-2.143,2.366
				c-0.475,0.349-0.949,0.668-1.422,0.958c-0.475,0.289-1.007,0.49-1.596,0.604c-0.236-0.003-0.442,0.041-0.62,0.127
				s-0.355,0.156-0.532,0.215c-0.77,0.287-1.522,0.456-2.258,0.509c-0.738,0.051-1.518,0.015-2.34-0.11
				c-0.649-0.065-1.28-0.188-1.897-0.371c-0.617-0.183-1.218-0.425-1.804-0.725c-0.176-0.121-0.352-0.254-0.527-0.403
				c-0.175-0.148-0.351-0.282-0.526-0.401c-0.702-0.598-0.988-1.352-0.862-2.262c0.127-0.911,0.341-1.72,0.642-2.424
				c0.123-0.469,0.273-0.925,0.454-1.365c0.181-0.438,0.392-0.863,0.63-1.273c0.122-0.293,0.346-0.689,0.674-1.188
				c0.329-0.495,0.64-0.802,0.937-0.918c-0.297,0.117-0.518,0.291-0.668,0.524c-0.148,0.235-0.313,0.438-0.491,0.614
				c0.301-0.645,0.66-1.245,1.077-1.802c0.417-0.555,0.864-1.126,1.341-1.71c0.417-0.467,0.849-0.934,1.294-1.402
				c0.447-0.466,0.995-0.844,1.646-1.132c0.117,0.001,0.177-0.057,0.179-0.176l0.088,0.001c0.059-0.057,0.146-0.026,0.265,0.093
				c-0.001,0.117-0.061,0.176-0.178,0.175c-0.477,0.407-0.907,0.845-1.294,1.312c-0.388,0.469-0.819,0.936-1.294,1.401
				c-0.12,0.118-0.253,0.218-0.4,0.305c-0.148,0.087-0.166,0.25-0.049,0.486c0.654-0.643,1.263-1.254,1.829-1.839
				c0.564-0.583,1.173-1.166,1.827-1.749c0.535-0.465,1.069-0.889,1.603-1.267c0.533-0.377,1.067-0.77,1.601-1.178
				c0.236-0.174,0.312-0.32,0.225-0.438c-0.086-0.119-0.161-0.237-0.217-0.355c-0.06,0-0.104,0.014-0.133,0.043
				c-0.03,0.029-0.075,0.042-0.132,0.042c-0.475,0.292-0.875,0.582-1.201,0.873c-0.327,0.292-0.64,0.612-0.937,0.963l-0.089,0.087
				c-0.12,0.059-0.267,0.102-0.442,0.128c-0.177,0.028-0.326,0.101-0.445,0.216c0.121-0.352,0.241-0.585,0.36-0.702l2.405-2.011
				c0.178-0.175,0.18-0.38,0.006-0.617l-2.533-3.117l-4.894-5.612c-0.815-1.008-1.333-2.25-1.556-3.725
				c-0.221-1.476-0.001-2.887,0.659-4.235c0.3-0.584,0.806-1.199,1.52-1.841c0.712-0.642,1.541-1.148,2.488-1.523
				c0.945-0.373,1.949-0.568,3.01-0.589c1.06-0.019,2.087,0.3,3.083,0.957c0.176,0.12,0.409,0.27,0.703,0.448
				c0.292,0.179,0.541,0.374,0.746,0.582c0.204,0.208,0.333,0.431,0.391,0.667c0.055,0.236-0.093,0.528-0.45,0.878
				c-0.121,0.118-0.473,0.071-1.059-0.142c-0.588-0.213-0.939-0.349-1.057-0.408c-0.704-0.184-1.251-0.102-1.636,0.25
				c-0.387,0.35-0.701,0.803-0.94,1.359c-0.242,0.559-0.395,1.176-0.46,1.852c-0.065,0.677-0.1,1.251-0.104,1.722
				c-0.064,0.472-0.009,0.942,0.163,1.416s0.402,0.946,0.694,1.42c0.522,0.832,1.089,1.631,1.7,2.402s1.237,1.544,1.878,2.313
				c0.231,0.299,0.495,0.578,0.787,0.848c0.292,0.268,0.583,0.521,0.877,0.759c0.116,0.119,0.292,0.121,0.53,0.005
				c0.296-0.232,0.548-0.45,0.757-0.656c0.207-0.203,0.459-0.393,0.757-0.565c0.652-0.465,1.318-0.945,2.001-1.44
				c0.681-0.493,1.348-1.002,2.002-1.527c0.057,0.061,0.117,0.091,0.176,0.092c-0.359,0.524-0.747,0.995-1.162,1.401L50.169,44.689z
				 M37.57,59.59c-0.299,0.351-0.597,0.718-0.894,1.096c-0.298,0.381-0.392,0.836-0.278,1.368c0.056,0.177,0.201,0.443,0.434,0.799
				c0.235-0.114,0.457-0.128,0.664-0.039c0.204,0.092,0.454,0.138,0.75,0.141c0.646,0.125,1.294,0.042,1.946-0.246
				c0.413-0.232,0.813-0.449,1.199-0.652c0.385-0.201,0.785-0.447,1.2-0.739c0.534-0.405,1.067-0.799,1.601-1.178
				c0.534-0.377,0.98-0.888,1.34-1.533c0.36-0.703,0.661-1.421,0.904-2.156c0.241-0.732,0.369-1.601,0.378-2.604l-0.858-2.747
				c-0.175-0.179-0.292-0.237-0.352-0.18c-0.415,0.291-0.816,0.597-1.201,0.917c-0.387,0.32-0.788,0.655-1.202,1.004
				c-0.238,0.174-0.417,0.393-0.537,0.658c-0.121,0.263-0.27,0.513-0.449,0.747l-1.428,1.576c-0.299,0.293-0.596,0.599-0.893,0.919
				c-0.298,0.32-0.595,0.656-0.894,1.006c-0.238,0.294-0.462,0.602-0.671,0.922C38.12,58.995,37.867,59.299,37.57,59.59z
				 M49.031,62.262c0-0.058-0.015-0.103-0.043-0.133c-0.03-0.029-0.043-0.074-0.042-0.133l-0.442-0.004
				c0.057,0.119,0.086,0.236,0.085,0.354l0.086,0.177c-0.118-0.001-0.207,0.028-0.265,0.087l-0.535,0.437l0.001-0.088
				c-0.061,0.119-0.121,0.176-0.179,0.176c-0.06,0-0.148,0.057-0.266,0.174c-0.298,0.232-0.579,0.465-0.846,0.698
				s-0.55,0.466-0.846,0.699l-0.888,0.434c-0.298,0.232-0.578,0.438-0.846,0.61c-0.266,0.175-0.548,0.349-0.844,0.522l-1.771,0.425
				l0.001-0.178c0.119-0.116,0.325-0.231,0.622-0.347l0.621-0.259l-0.441-0.004c-0.473,0.053-0.929,0.107-1.371,0.164
				c-0.443,0.054-0.899-0.009-1.369-0.189c-0.117-0.061-0.22-0.078-0.308-0.048c-0.089,0.029-0.193,0.043-0.31,0.042
				c-0.353-0.063-0.706-0.052-1.061,0.034c-0.354,0.084-0.738,0.065-1.148-0.056l-0.265-0.002l0.614,0.448
				c0.352,0.18,0.674,0.271,0.969,0.273c0.294,0.002,0.677-0.053,1.15-0.165c0-0.061-0.117-0.15-0.35-0.271l0.529,0.005l0.44,0.271
				c-0.12,0.057-0.208,0.115-0.267,0.174c-0.06,0.058-0.148,0.087-0.266,0.086c-0.177,0.055-0.442,0.083-0.795,0.08l-0.002,0.177
				c0.294,0.002,0.603,0.021,0.927,0.055c0.322,0.03,0.631,0.05,0.926,0.053c1.177,0.128,2.327-0.066,3.452-0.585
				c0.236-0.175,0.561-0.26,0.974-0.256c0.294-0.059,0.753-0.245,1.375-0.562s0.992-0.625,1.113-0.917l0.625-0.79L49.031,62.262z
				 M43.162,66.271c-0.06,0-0.119-0.032-0.176-0.091l-0.089,0.088L43.162,66.271z M49.123,61.822l0.178-0.088l-0.265-0.003
				C49.036,61.791,49.064,61.822,49.123,61.822z"/>
		</g>
	</g>
</g>
</svg>
