<?xml version="1.0" encoding="utf-8"?>
<!-- Generator: Adobe Illustrator 16.0.4, SVG Export Plug-In . SVG Version: 6.00 Build 0)  -->
<!DOCTYPE svg PUBLIC "-//W3C//DTD SVG 1.0//EN" "http://www.w3.org/TR/2001/REC-SVG-20010904/DTD/svg10.dtd">
<svg version="1.0" id="Layer_1" xmlns="http://www.w3.org/2000/svg" xmlns:xlink="http://www.w3.org/1999/xlink" x="0px" y="0px"
	 width="246.533px" height="76.935px" viewBox="0 0 246.533 76.935" enable-background="new 0 0 246.533 76.935"
	 xml:space="preserve">
<g>
	<g>
		<g>
			<path fill="#D50062" d="M125.683,39.328c0.377-0.075,0.66-0.095,0.85-0.058c0.188,0.038,0.244,0.321,0.17,0.85
				c-0.228,1.962-0.905,3.81-2.036,5.545c-1.284,1.66-2.416,3.377-3.396,5.147c-0.981,1.773-1.736,3.642-2.263,5.603
				c-0.303,0.979-0.718,1.922-1.245,2.828c-0.528,0.904-0.981,1.85-1.357,2.829c-0.453,1.357-0.888,2.734-1.302,4.131
				c-0.415,1.396-0.849,2.811-1.301,4.242c-0.227,0.604-0.718,1.056-1.472,1.358c-1.132,0.68-2.376,1.245-3.734,1.697
				c-1.886,0.679-2.904-0.039-3.055-2.15c0-0.452-0.076-0.885-0.227-1.301c-0.152-0.414-0.227-0.849-0.227-1.301
				c-0.076-0.83-0.113-1.697-0.113-2.604c0-0.904,0-1.771,0-2.603l0.227-6.79c0-0.227,0.018-0.469,0.057-0.735
				c0.037-0.264,0.057-0.546,0.057-0.849c-0.303,0.227-0.831,0.491-1.584,0.792c-0.981,0.604-2.02,1.001-3.112,1.188
				c-1.094,0.189-2.206,0.208-3.338,0.058c-1.058-0.074-2.189-0.265-3.395-0.566c-0.755-0.075-1.397-0.3-1.924-0.68
				c-0.529-0.377-0.981-0.865-1.358-1.47c-1.736-2.641-2.679-5.355-2.829-8.147c-0.151-2.791,0.377-5.619,1.585-8.488
				c0.526-1.131,1.169-2.206,1.924-3.225c0.753-1.019,1.545-2.019,2.376-2.999c0.603-0.753,1.245-1.432,1.924-2.037
				c0.679-0.603,1.395-1.168,2.149-1.698c0.604-0.376,1.282-0.64,2.037-0.792c0.753-0.149,1.472-0.339,2.15-0.564
				c0.452-0.15,0.905-0.265,1.357-0.34c0.453-0.075,0.942-0.15,1.472-0.227c0.679-0.075,1.357-0.075,2.036,0
				c0.979,0.151,1.585,0.151,1.811,0c0.227-0.149,0.414-0.68,0.566-1.584c0.603-2.716,1.188-5.432,1.754-8.147
				c0.565-2.717,1.149-5.47,1.754-8.262c0.15-0.603,0.264-1.205,0.339-1.811c0.075-0.603-0.038-1.205-0.339-1.811
				c-0.227-0.3-0.266-0.603-0.113-0.905c0.15-0.301,0.452-0.526,0.905-0.679c0.979-0.15,1.924-0.282,2.829-0.396
				c0.905-0.113,1.848,0.02,2.829,0.396c0.3,0.076,0.546,0.227,0.735,0.453c0.188,0.227,0.357,0.453,0.509,0.68
				c0.527,1.282,0.792,2.565,0.792,3.848c0,1.283-0.075,2.564-0.226,3.847c-0.152,1.208-0.303,2.416-0.453,3.622
				c-0.152,1.208-0.302,2.453-0.452,3.734c0,0.226-0.076,0.339-0.227,0.339c-0.227,0.077-0.51,0.339-0.849,0.792
				c-0.34,0.452-0.436,0.755-0.283,0.905c0.15,0.075,0.264,0.075,0.34,0c0.074-0.074,0.188-0.113,0.339-0.113
				c0.15-0.15,0.34-0.228,0.566-0.228c0,0.153,0.018,0.267,0.057,0.341c0.037,0.075,0.018,0.188-0.057,0.339
				c-0.227,0.378-0.453,0.774-0.679,1.188c-0.227,0.416-0.416,0.812-0.566,1.188c-0.152,0.378-0.245,0.792-0.283,1.246
				c-0.038,0.452-0.132,0.868-0.282,1.244c-0.379,1.735-0.755,3.414-1.132,5.036c-0.378,1.623-0.679,3.302-0.905,5.035
				c-0.303,1.435-0.472,2.869-0.509,4.301c-0.039,1.435-0.133,2.867-0.283,4.3c-0.076,0.151-0.076,0.266,0,0.339
				c0.074,0.077,0.113,0.153,0.113,0.227l0.339-0.453c0.074-0.3,0.15-0.565,0.227-0.792c0.074-0.227,0.15-0.489,0.227-0.792
				l0.113,1.697l-0.227,3.282c-0.076,0.302-0.303,0.564-0.679,0.792l0.452-1.02c0-0.15-0.076-0.376-0.226-0.679
				c-0.076,0.151-0.17,0.245-0.283,0.283c-0.113,0.039-0.17,0.133-0.17,0.283c-0.152,0.527-0.246,1.038-0.283,1.526
				c-0.038,0.493-0.132,1.001-0.282,1.528c-0.076,0.452-0.17,0.905-0.283,1.358c-0.113,0.452-0.17,0.904-0.17,1.356
				c-0.076,0.303-0.057,0.606,0.057,0.905c0.113,0.303,0.17,0.604,0.17,0.905c0,0.379-0.039,0.604-0.113,0.68
				c-0.604,0.378-0.831,0.831-0.679,1.357c0.15,0.529,0.15,1.019,0,1.472c-0.076,0.075-0.039,0.188,0.113,0.339l0.226-0.113
				c-0.226-0.452-0.188-0.771,0.113-0.962c0.301-0.188,0.527-0.47,0.68-0.849c1.055-2.262,2.13-4.563,3.225-6.902
				c1.093-2.338,2.207-4.64,3.338-6.901c0.453-0.829,0.961-1.643,1.528-2.435c0.564-0.792,1.148-1.563,1.754-2.319
				c0.15-0.15,0.339-0.243,0.564-0.282c0.228-0.038,0.453-0.095,0.68-0.17c0,0.151-0.02,0.282-0.057,0.396
				C125.701,39.044,125.683,39.177,125.683,39.328z M95.357,54.604c-0.076,0-0.113,0.038-0.113,0.112
				c0,0.076,0.037,0.152,0.113,0.227c0-0.073,0.018-0.112,0.057-0.112c0.037,0,0.057-0.038,0.057-0.114
				C95.47,54.643,95.431,54.604,95.357,54.604z M97.054,46.795c0.227,0.831,0.414,1.68,0.566,2.547
				c0.149,0.868,0.376,1.717,0.679,2.546c0.227,0.98,0.753,1.094,1.584,0.339c1.056-0.829,1.961-1.733,2.716-2.715
				c0.753-0.979,1.433-2.037,2.037-3.168c0.376-0.83,0.792-1.659,1.244-2.49c0.453-0.83,0.754-1.659,0.905-2.489
				c0.377-1.812,0.641-3.621,0.792-5.432c0.15-1.811,0.34-3.659,0.566-5.544c0.15-0.301,0.15-0.604,0-0.905
				c-0.453-0.527-1.208-0.793-2.264-0.793c-1.057,0-1.811,0.228-2.263,0.681c-1.284,1.356-2.227,2.81-2.829,4.355
				c-0.604,1.547-1.095,3.15-1.471,4.81l-1.019,3.282c-0.227,0.831-0.436,1.66-0.623,2.489S97.28,45.966,97.054,46.795z
				 M97.28,54.038v0.112h0.113L97.28,54.038z M107.238,67.052c0.15-0.528,0.339-1.056,0.565-1.584s0.34-1.093,0.34-1.699
				c0.074-1.055,0.074-2.073,0-3.055c-0.076-0.979-0.113-1.998-0.113-3.056c0-0.15-0.039-0.244-0.113-0.283
				c-0.076-0.037-0.152-0.13-0.227-0.283c-0.075,0.153-0.151,0.246-0.226,0.283c-0.076,0.039-0.113,0.132-0.113,0.283
				c-0.152,0.227-0.227,0.452-0.227,0.678c0,0.227-0.039,0.454-0.113,0.68c-0.604,1.208-0.868,2.416-0.792,3.621
				c0.074,1.207,0.15,2.415,0.227,3.622c0.074,0.151,0.131,0.244,0.17,0.282c0.037,0.039,0.094,0.133,0.169,0.283l0.227-0.68v-0.112
				c0,0.076,0.074-0.037,0.227-0.34c0.074,0.378,0.094,0.661,0.057,0.849C107.256,66.73,107.238,66.9,107.238,67.052z M115.5,46.683
				l-0.113-0.113l-0.113,0.113c0.074,0,0.113,0.039,0.113,0.112L115.5,46.683z M118.894,22.58c0-0.15-0.02-0.245-0.057-0.283
				c-0.039-0.037-0.057-0.093-0.057-0.169l-0.227,0.114c0,0.226,0.037,0.378,0.113,0.452
				C118.741,22.692,118.818,22.656,118.894,22.58z"/>
			<path fill="#D50062" d="M128.851,55.622c0,0.528-0.189,0.68-0.566,0.453c-0.451-0.228-0.83-0.265-1.131-0.114
				c-0.227,0.077-0.492,0.057-0.793-0.056c-0.302-0.114-0.604-0.208-0.904-0.284c-0.151,0-0.303-0.038-0.452-0.112
				c-0.151-0.074-0.304-0.113-0.453-0.113c-0.452,0-0.867-0.264-1.244-0.792c-0.379-0.68-0.642-1.357-0.792-2.037
				c-0.152-0.679-0.227-1.396-0.227-2.149c0-1.057,0.037-2.093,0.113-3.112c0.073-1.019,0.149-2.054,0.227-3.112
				c0-0.603,0.018-1.226,0.057-1.866c0.037-0.641,0.057-1.263,0.057-1.867v-0.114c0.377-0.603,0.547-1.244,0.51-1.923
				c-0.039-0.68,0.018-1.358,0.17-2.037c0.15-0.453,0.264-0.923,0.339-1.415c0.074-0.489,0.149-0.999,0.228-1.527l1.019-4.864
				l0.679-2.15l0.227-1.019c0.074-0.526,0.641-0.753,1.697-0.68c1.812,0.228,3.17,1.207,4.074,2.942
				c0.149,0.226,0.188,0.491,0.112,0.792c-0.075,0.302-0.151,0.604-0.226,0.906c-0.076,0.301-0.17,0.564-0.283,0.792
				c-0.113,0.226-0.246,0.452-0.396,0.678c-0.074,0.152-0.111,0.415-0.111,0.792l-0.453,1.471h0.113c0,0.077,0.018,0.133,0.057,0.17
				c0.037,0.04,0.057,0.097,0.057,0.17c0,0.228,0.037,0.454,0.113,0.68l0.679-1.357v0.339c-0.151,0.379-0.266,0.756-0.34,1.132
				c-0.076,0.38-0.265,0.756-0.565,1.133c-0.151,0.151-0.227,0.358-0.227,0.622c0,0.265-0.039,0.549-0.113,0.848
				c-0.226,0.68-0.357,1.379-0.396,2.094c-0.039,0.718-0.097,1.453-0.171,2.207c-0.151,0.831-0.303,1.642-0.452,2.434
				c-0.151,0.792-0.302,1.604-0.452,2.432c-0.076,0.227-0.113,0.474-0.113,0.736c0,0.265,0,0.51,0,0.735l-0.34,2.037
				c0,0.453,0.075,0.981,0.227,1.584c0,0.075,0.074,0.113,0.228,0.113c0.149,0,0.265-0.038,0.34-0.113
				c0.526-0.604,1.036-1.226,1.527-1.867c0.489-0.641,1.036-1.263,1.641-1.867l1.812-2.264c0.603-0.679,1.168-1.375,1.697-2.094
				c0.526-0.715,1.055-1.487,1.584-2.319c0.149-0.226,0.301-0.716,0.452-1.471c0.15-1.282,0.433-2.527,0.849-3.734
				c0.414-1.206,0.924-2.451,1.527-3.733l1.924-4.753c0.15-0.376,0.453-0.565,0.905-0.565l2.942,0.565
				c0.525,0.302,0.792,0.717,0.792,1.245c-0.076,0.378,0.036,0.867,0.34,1.471c0.149,0.453,0.112,0.792-0.113,1.018
				c-0.227,0.228-0.416,0.453-0.565,0.68l-0.34,0.565c-0.151,0.452-0.303,0.925-0.453,1.414c-0.15,0.492-0.414,0.925-0.791,1.302
				c-0.152,0.151-0.228,0.321-0.228,0.509c0,0.188-0.075,0.358-0.226,0.51c0,0.226-0.076,0.415-0.227,0.564
				c-0.076,0.152-0.113,0.304-0.113,0.453c0.074,0,0.131-0.018,0.17-0.057c0.037-0.037,0.131-0.057,0.281-0.057
				c0-0.15,0.075-0.227,0.228-0.227l-0.339,1.132c-0.303,0.755-0.566,1.624-0.793,2.604c-0.075,0.452-0.151,0.905-0.227,1.356
				c-0.076,0.453-0.076,0.868,0,1.245c0.15,0.378,0.131,0.735-0.057,1.075c-0.189,0.339-0.246,0.698-0.17,1.074v0.565l0.227,0.114
				c0.301-0.227,0.434-0.245,0.396-0.057c-0.039,0.188-0.057,0.32-0.057,0.396l-0.34,1.245H143v-0.227h-0.113
				c0,0.151,0.037,0.227,0.113,0.227c0,0.226-0.02,0.451-0.057,0.678c-0.039,0.228-0.058,0.491-0.058,0.792
				c0.074-0.073,0.113-0.149,0.113-0.226l0.34-0.339c0,0.076-0.021,0.151-0.058,0.226c-0.039,0.077-0.057,0.151-0.057,0.227
				l-0.227,1.472v1.019c0.074,0.227,0.131,0.472,0.17,0.735c0.037,0.265,0.018,0.509-0.057,0.736c0,0.226-0.076,0.642-0.228,1.245
				c-0.076,0.151-0.151,0.265-0.228,0.339c-0.074,0.076,0.037,0.112,0.34,0.112c0.074,0,0.132,0.076,0.171,0.227
				c0.036,0.152,0.057,0.303,0.057,0.453c-0.151,0.302-0.17,0.585-0.057,0.848c0.112,0.266,0.243,0.473,0.396,0.623
				c0.15,0.226,0.264,0.265,0.34,0.113c0.074-0.15,0.15-0.265,0.228-0.34c0.603-0.905,1.206-1.962,1.812-3.17
				c0.603-0.979,1.205-1.96,1.811-2.94c0.603-0.979,1.205-1.998,1.811-3.056c0.377-0.604,0.793-1.227,1.244-1.867
				c0.453-0.641,0.905-1.263,1.357-1.867l0.228-0.226c0,0.074,0.019,0.132,0.056,0.169c0.039,0.039,0.058,0.095,0.058,0.169
				l-0.339,1.132c0,0.151-0.076,0.283-0.227,0.396c-0.152,0.113-0.076,0.246,0.227,0.396c0,0.303-0.152,0.604-0.453,0.906
				c-0.076,0.227-0.151,0.416-0.227,0.565c-0.076,0.151-0.151,0.339-0.227,0.566c0,0.15,0.037,0.264,0.113,0.338
				c0.074,0.077,0.113,0.189,0.113,0.341l0.226,1.358c0.073,0.15,0.037,0.357-0.113,0.622c-0.151,0.264-0.302,0.471-0.452,0.621
				L150.127,52l-1.925,2.829c-0.15,0.151-0.227,0.266-0.227,0.339c0,0.527-0.132,0.943-0.396,1.245
				c-0.266,0.302-0.584,0.604-0.961,0.904l-0.34,0.68c-0.227,0.377-0.492,0.604-0.793,0.678c-0.302,0.076-0.604,0.189-0.904,0.34
				l-2.829,0.679c-0.905,0.152-1.604,0.021-2.093-0.396c-0.492-0.414-0.926-1-1.303-1.755c-0.604-1.056-1-2.148-1.188-3.281
				c-0.188-1.132-0.282-2.263-0.282-3.394c-0.076-0.754-0.112-1.49-0.112-2.208c0-0.717,0-1.452,0-2.206v-0.792l-1.472,1.584
				c-0.303,0.377-0.586,0.717-0.851,1.018c-0.264,0.302-0.584,0.604-0.961,0.905v0.339c0.149,0,0.264-0.037,0.34-0.114
				c0.074,0,0.227-0.111,0.453-0.339l-1.358,2.942c-0.452,0.98-1.132,1.735-2.037,2.263l-0.226,0.452l-0.34,0.227
				c-0.152,0.304-0.379,0.454-0.68,0.454C129.34,55.396,129.076,55.472,128.851,55.622z M123.08,45.891h-0.228
				c0,0.378,0,0.698,0,0.962c0,0.267-0.038,0.585-0.112,0.961h0.227c0-0.376,0.018-0.695,0.057-0.961
				C123.06,46.588,123.08,46.269,123.08,45.891z M122.966,49.397h-0.227v0.34c0,0.529,0,1.038,0,1.527
				c0,0.493,0.037,0.962,0.112,1.415c0.074,0.452,0.341,0.718,0.792,0.792c0.075,0,0.113,0.04,0.113,0.113l0.227,0.226v-0.452
				l-0.791-2.376C123.041,50.379,122.966,49.851,122.966,49.397z M122.966,45.438h0.113c0.074,0,0.113-0.037,0.113-0.112
				l1.356-6.563l0.34-1.584l0.453-1.697v-0.227h-0.226c-0.68,0.529-1.059,1.095-1.133,1.698c0,0.604-0.057,1.228-0.17,1.866
				c-0.113,0.643-0.207,1.266-0.281,1.867c-0.152,0.832-0.267,1.624-0.34,2.376C123.117,43.816,123.041,44.608,122.966,45.438z
				 M125.117,54.377c0.074-0.073,0.113-0.15,0.113-0.227l-0.681-0.34v0.34L125.117,54.377z M128.851,55.622l0.34-0.226l0.34-0.34
				c-0.152,0-0.267-0.018-0.34-0.057c-0.076-0.038-0.151-0.058-0.227-0.058l-1.02,0.792c0.227,0,0.396-0.017,0.51-0.057
				C128.568,55.641,128.699,55.622,128.851,55.622z M129.869,54.83c0,0.076-0.038,0.151-0.112,0.226c0.149,0,0.3-0.037,0.452-0.113
				h-0.227C129.906,54.942,129.869,54.906,129.869,54.83z M130.435,54.604c0-0.075-0.039-0.113-0.113-0.113
				C130.322,54.566,130.359,54.604,130.435,54.604z M130.662,34.575v-0.114l-0.113,0.114v0.113
				C130.623,34.688,130.662,34.65,130.662,34.575z M132.924,46.909h0.112c0-0.075-0.038-0.114-0.112-0.114V46.909z M134.396,48.945
				v-0.112l-0.113,0.226L134.396,48.945z M134.621,47.361c0.074,0,0.113,0.021,0.113,0.057c0,0.039,0.037,0.057,0.113,0.057
				l1.697-1.923l0.227-0.454V44.76c-0.076,0-0.113,0.018-0.113,0.055c0,0.039-0.039,0.058-0.112,0.058l-1.356,1.697L134.621,47.361z
				 M138.017,50.643l-0.113,0.113c0,0.077,0.074,0.265,0.227,0.564l0.227-0.679v-1.81c0-0.15-0.02-0.245-0.057-0.283
				c-0.039-0.038-0.057-0.094-0.057-0.169c-0.151,0.152-0.227,0.302-0.227,0.453V50.643L138.017,50.643z M138.357,51.888
				c0-0.074-0.039-0.15-0.113-0.226h-0.113v0.339c0,0.151,0.02,0.283,0.057,0.396c0.037,0.113,0.057,0.246,0.057,0.396
				C138.318,52.643,138.357,52.34,138.357,51.888z M138.583,54.377h0.112c0-0.15-0.02-0.283-0.057-0.396
				c-0.039-0.112-0.057-0.244-0.057-0.396c0-0.073-0.021-0.113-0.057-0.113c-0.039,0-0.058-0.037-0.058-0.113l-0.228,0.227
				l0.34,1.584l0.113,0.113c0.074-0.074,0.074-0.113,0-0.113C138.695,54.792,138.656,54.53,138.583,54.377z M139.261,55.734
				c-0.076,0-0.133-0.017-0.17-0.057c-0.039-0.037-0.096-0.057-0.169-0.057c-0.076,0-0.113,0.02-0.113,0.057
				c0,0.04-0.038,0.057-0.112,0.057l0.227,0.227h0.111L139.261,55.734z M140.393,38.875l-0.34,0.339
				c-0.151,0.604-0.265,1.15-0.339,1.641c-0.076,0.491-0.152,1.038-0.227,1.642c-0.152,0.98-0.267,1.942-0.34,2.886
				c-0.076,0.945-0.188,1.906-0.34,2.886h0.113L140.393,38.875z M140.393,38.875c0-0.15,0.019-0.265,0.058-0.34
				c0.037-0.075,0.057-0.188,0.057-0.34h-0.227c0,0.152,0.018,0.265,0.057,0.34C140.374,38.61,140.393,38.725,140.393,38.875z
				 M140.734,37.291c0-0.075,0.037-0.114,0.111-0.114l-0.111-0.113l-0.113,0.113C140.619,37.253,140.656,37.291,140.734,37.291z
				 M143.109,49.286l-0.34-0.341l-0.227,0.228c0.15,0.152,0.227,0.265,0.227,0.339L143.109,49.286z M142.769,52.114l-0.113,0.112
				c0,0.077,0.037,0.113,0.113,0.113l0.113-0.113L142.769,52.114z M142.882,55.734c-0.076,0-0.152,0.039-0.227,0.113
				c0.149,0.153,0.301,0.379,0.453,0.679c0.073,0,0.112-0.018,0.112-0.055s0.037-0.057,0.113-0.057
				C143.183,56.264,143.033,56.038,142.882,55.734z M142.769,50.078c0-0.075,0.018-0.114,0.057-0.114
				c0.037,0,0.058-0.037,0.058-0.113h-0.112v0.228H142.769z"/>
			<path fill="#D50062" d="M160.195,51.774l0.113,7.694c0,0.152,0.018,0.247,0.057,0.283c0.037,0.04,0.058,0.133,0.058,0.284
				c0.074-0.15,0.149-0.228,0.228-0.228c0.073,0,0.149-0.074,0.227-0.226l1.471-2.49c0.301-0.679,0.811-1.621,1.527-2.829
				c0.717-1.206,1.451-2.45,2.207-3.733c0.753-1.282,1.488-2.527,2.205-3.735c0.718-1.206,1.227-2.11,1.529-2.715l1.471-2.829
				c0.074-0.15,0.15-0.243,0.227-0.283c0.074-0.037,0.15-0.093,0.227-0.17c0.227,0.227,0.34,0.415,0.34,0.564
				c-0.076,0.454-0.113,0.905-0.113,1.358c0,0.452-0.075,0.868-0.227,1.244c-0.453,1.358-1.058,2.792-1.811,4.301
				c-0.755,1.51-1.527,3.019-2.32,4.526c-0.791,1.511-1.565,2.98-2.318,4.414c-0.756,1.434-1.397,2.792-1.924,4.072
				c-0.228,0.68-0.528,1.342-0.905,1.98c-0.379,0.642-0.755,1.265-1.132,1.867c-0.152,0.378-0.452,0.565-0.905,0.565
				c-0.679,0.152-1.356,0.267-2.037,0.34c-0.679,0.076-1.356,0.151-2.036,0.227c-1.208,0.075-2.15-0.283-2.828-1.075
				c-0.68-0.792-1.188-1.754-1.527-2.886c-0.34-1.131-0.566-2.319-0.68-3.564c-0.115-1.245-0.209-2.28-0.283-3.111
				c-0.303-3.242-0.379-6.335-0.227-9.278c0.15-2.942,0.526-5.922,1.133-8.94c0.603-3.319,1.317-6.562,2.148-9.73
				c0.829-3.169,1.697-6.337,2.604-9.505c0.604-1.885,1.244-3.752,1.924-5.603c0.679-1.848,1.357-3.715,2.037-5.601
				c0.301-0.754,0.64-1.472,1.019-2.15c0.376-0.678,0.64-1.433,0.792-2.264c0.227-0.753,0.583-1.224,1.075-1.414
				c0.489-0.188,1.036-0.357,1.641-0.509c0.603-0.15,1.169-0.263,1.697-0.339c0.526-0.074,1.093-0.15,1.696-0.228
				c0.377,0,0.772-0.018,1.188-0.057c0.413-0.036,0.772,0.17,1.075,0.623c0.074,0.151,0.094,0.302,0.057,0.453
				c-0.039,0.151-0.057,0.303-0.057,0.453l0.227,1.696c0.227,1.058,0.112,2.112-0.34,3.168c-0.076,0.077-0.113,0.152-0.113,0.228
				c-0.076,0.679-0.133,1.396-0.17,2.149c-0.039,0.754-0.133,1.51-0.283,2.264c-0.226,1.208-0.472,2.415-0.734,3.621
				c-0.266,1.208-0.734,2.376-1.414,3.508c-0.604,1.058-1.208,2.133-1.811,3.226c-0.604,1.093-1.209,2.168-1.812,3.225
				c-0.151,0.303-0.34,0.585-0.565,0.849c-0.227,0.265-0.416,0.547-0.565,0.848c-0.378,0.906-0.604,1.812-0.679,2.717
				c0,0.075,0.018,0.112,0.057,0.112c0.037,0,0.057,0.04,0.057,0.113c0-0.074,0.019-0.113,0.058-0.113
				c0.036,0,0.057-0.037,0.057-0.112l0.226-0.793c0,0.153-0.02,0.283-0.057,0.396s-0.057,0.246-0.057,0.396l-0.68,4.412
				c-0.076,0.604-0.17,1.188-0.283,1.755c-0.111,0.565-0.207,1.15-0.281,1.754c-0.076,0.379-0.057,0.717,0.057,1.019
				c0.113,0.303,0.131,0.605,0.057,0.906c0,0.98-0.133,2.037-0.396,3.168c-0.265,1.131-0.509,2.263-0.735,3.395
				c-0.226,1.132-0.416,2.245-0.564,3.338C159.93,49.871,159.969,50.87,160.195,51.774z M162.232,19.524
				c0.074-0.074,0.113-0.149,0.113-0.227l-0.113-0.113c-0.076,0.076-0.113,0.152-0.113,0.228S162.156,19.524,162.232,19.524z
				 M163.137,19.524h-0.228l-0.338,1.018c-0.076,0.152-0.097,0.247-0.058,0.284c0.037,0.039,0.058,0.133,0.058,0.282l0.679-1.246
				c0-0.073-0.021-0.13-0.058-0.17C163.154,19.657,163.137,19.601,163.137,19.524z M163.477,19.072l-0.227-0.228
				c-0.152,0.152-0.267,0.228-0.341,0.228l0.113,0.227C163.174,19.298,163.324,19.225,163.477,19.072z M163.137,15.11
				c0,0.076-0.039,0.114-0.112,0.114l0.112,0.112l0.113-0.112C163.174,15.225,163.137,15.187,163.137,15.11z M163.59,17.939
				c0.149-0.452,0.226-0.64,0.226-0.564v-0.34l-0.226,0.452V17.939z M164.042,16.243h0.227c0,0.151,0.018,0.266,0.057,0.34
				c0.037,0.076,0.058,0.188,0.058,0.338l0.339-0.565l3.395-11.881c0.074-0.149,0.057-0.3-0.058-0.453
				c-0.112-0.149-0.209-0.301-0.282-0.453c-0.152,0.152-0.322,0.322-0.51,0.51c-0.189,0.188-0.359,0.357-0.51,0.508l-0.905,3.056
				v0.113c-0.452,0.226-0.622,0.509-0.509,0.849c0.113,0.339,0.094,0.662-0.057,0.962c-0.152,0.151-0.209,0.358-0.17,0.622
				c0.037,0.267,0.057,0.51,0.057,0.735h-0.227c-0.228,0.227-0.34,0.303-0.34,0.227c-0.076,0.153-0.113,0.378-0.113,0.68
				c0.526-0.15,0.754-0.095,0.68,0.169c-0.076,0.266-0.113,0.472-0.113,0.622L164.042,16.243z"/>
			<path fill="#D50062" d="M168.908,50.643c0.074-3.168,0.396-6.054,0.961-8.656c0.566-2.602,1.377-5.11,2.434-7.525
				c0.604-1.433,1.303-2.79,2.094-4.073c0.793-1.282,1.641-2.563,2.547-3.847c0.603-0.68,1.244-1.283,1.924-1.812
				c0.679-0.526,1.545-0.716,2.603-0.565c0.829,0.151,1.621,0.151,2.376,0c0.754-0.149,1.546-0.149,2.377,0
				c0.979,0.151,1.941,0.358,2.887,0.623c0.941,0.265,1.865,0.547,2.771,0.849c0.228,0,0.453,0.189,0.68,0.565
				c0.15,0.604,0.302,1.171,0.452,1.696c0.15,0.53,0.301,1.096,0.453,1.698c0.15,0.605,0.227,0.981,0.227,1.131
				c0,0.755-0.076,1.285-0.227,1.584c-0.152,0.304-0.322,0.549-0.51,0.736c-0.188,0.188-0.396,0.396-0.622,0.622
				c-0.152,0.151-0.341,0.113-0.565-0.113c-0.152-0.301-0.322-0.583-0.51-0.849c-0.189-0.265-0.357-0.547-0.509-0.849
				c-0.228-0.527-0.416-1.036-0.566-1.527c-0.151-0.49-0.339-0.961-0.565-1.415c-0.227-0.604-0.584-1-1.074-1.188
				c-0.491-0.187-1.038-0.356-1.641-0.509c-0.453-0.075-0.812,0.039-1.076,0.339c-0.264,0.302-0.508,0.604-0.734,0.905
				c-1.434,1.584-2.585,3.32-3.451,5.205c-0.867,1.887-1.641,3.811-2.32,5.771c-0.377,1.132-0.734,2.283-1.074,3.453
				c-0.34,1.169-0.51,2.396-0.51,3.677c0.074,0.83,0.058,1.641-0.057,2.433c-0.113,0.792-0.133,1.604-0.057,2.433
				c0,0.982,0.188,2.037,0.566,3.169c0.149,0.301,0.848,0.491,2.092,0.565c1.246,0.077,2.621-0.565,4.131-1.923
				c2.111-1.812,4.281-3.603,6.508-5.375c2.224-1.771,3.863-3.412,4.922-4.922c0.301-0.378,0.584-0.755,0.85-1.132
				c0.264-0.377,0.51-0.753,0.734-1.132c0.301-0.149,0.49-0.301,0.566-0.452c0.074,0.151,0.149,0.265,0.226,0.338
				c0.074,0.076,0.112,0.153,0.112,0.228c-0.075,0.378-0.112,0.774-0.112,1.188c0,0.415-0.075,0.774-0.226,1.074
				c-0.303,0.529-0.812,1.132-1.528,1.812c-0.718,0.68-1.49,1.378-2.319,2.094c-0.83,0.717-1.623,1.415-2.376,2.093
				c-0.755,0.679-1.284,1.283-1.585,1.812c-0.226,0.377-0.527,0.661-0.904,0.848c-0.379,0.19-0.719,0.472-1.019,0.849
				c-0.379,0.378-0.944,0.926-1.698,1.641c-0.755,0.718-1.66,1.434-2.716,2.149c-1.058,0.719-2.263,1.358-3.621,1.925
				c-1.356,0.564-2.791,0.848-4.3,0.848c-1.207,0.075-2.227-0.188-3.055-0.793c-0.832-0.603-1.549-1.395-2.15-2.376
				C169.361,53.924,168.757,52.152,168.908,50.643z"/>
			<path fill="#D50062" d="M196.064,47.249c-0.074-2.188,0.228-4.281,0.905-6.281c0.679-1.998,1.658-3.865,2.942-5.602
				c0-0.075,0.037-0.114,0.113-0.114c0.678-1.507,1.563-2.79,2.658-3.847c1.094-1.056,2.28-2.036,3.564-2.941
				c0.828-0.604,1.754-1.093,2.771-1.472c1.018-0.376,2.131-0.452,3.338-0.227c0.377,0.075,0.717,0.075,1.02,0
				c0.301-0.075,0.64-0.113,1.02-0.113c0.451,0,0.791,0.038,1.019,0.113c0.526,0.151,1.034,0.321,1.526,0.509
				c0.489,0.19,0.963,0.396,1.414,0.622c0.68,0.304,1.319,0.719,1.924,1.245c0.15,0,0.228,0.152,0.228,0.453
				c-0.151,0.379-0.246,0.792-0.283,1.245c-0.039,0.453-0.133,0.906-0.282,1.358c-0.453,1.207-1.095,2.281-1.924,3.225
				c-0.831,0.944-1.773,1.829-2.828,2.659c-0.604,0.527-1.229,1-1.867,1.414c-0.643,0.416-1.379,0.698-2.207,0.849
				c-0.227,0.076-0.453,0.189-0.68,0.34c-0.227,0.152-0.49,0.304-0.792,0.453c-0.379,0.151-0.698,0.302-0.962,0.452
				c-0.266,0.152-0.585,0.266-0.962,0.34c-0.755,0.076-1.319,0.529-1.696,1.357c-0.529,1.357-0.963,2.715-1.303,4.073
				c-0.339,1.358-0.509,2.755-0.509,4.188c0,0.604,0.301,1.095,0.905,1.471c1.056,0.453,2.188,0.566,3.395,0.34
				c1.206-0.227,2.377-0.622,3.508-1.188c1.133-0.565,2.15-1.188,3.057-1.866c0.904-0.679,1.584-1.206,2.037-1.584l4.412-4.187
				l3.055-3.396c0.377-0.527,0.83-0.641,1.358-0.34c0.302,0.227,0.433,0.453,0.396,0.679c-0.038,0.228-0.132,0.492-0.282,0.792
				l-0.566,0.792c-1.283,1.284-2.564,2.547-3.847,3.792c-1.284,1.245-2.604,2.435-3.961,3.564c-0.378,0.303-1.019,0.831-1.924,1.584
				c-0.905,0.755-2.021,1.511-3.338,2.263c-1.321,0.755-2.812,1.396-4.47,1.924c-1.66,0.528-3.396,0.679-5.205,0.452
				c-3.773-0.226-5.961-2.451-6.563-6.676c-0.076-0.453-0.112-0.905-0.112-1.358C196.064,48.153,196.064,47.701,196.064,47.249z
				 M216.885,30.84c-0.228-0.15-0.453-0.357-0.679-0.622c-0.227-0.264-0.492-0.471-0.792-0.623c-0.304-0.15-0.681-0.075-1.132,0.226
				c-1.284,0.68-2.303,1.66-3.057,2.942c-0.451,0.755-0.962,1.471-1.527,2.149c-0.565,0.68-0.924,1.511-1.074,2.489
				c0,0.076-0.113,0.227-0.34,0.452l-0.793,1.924c-0.075,0.153-0.112,0.416-0.112,0.792l0.68-0.227l1.132-0.678
				c1.508-0.83,2.846-1.792,4.018-2.887c1.169-1.092,2.168-2.393,2.999-3.903c0.149-0.3,0.263-0.623,0.339-0.961
				C216.619,31.576,216.734,31.218,216.885,30.84z"/>
			<path fill="#D50062" d="M241.326,47.136c-0.452,0.604-0.604,1.169-0.452,1.697c0.073,0.303,0,0.604-0.226,0.904
				c-0.304,0.153-0.341,0.416-0.113,0.793c0.074,0.227,0.301,0.528,0.679,0.904c0.377,0.379,0.565,0.944,0.565,1.697l0.34,0.453
				c0.149,0.151,0.283,0.283,0.396,0.396c0.112,0.113,0.095,0.323-0.057,0.624c0,0.151,0.094,0.302,0.282,0.452
				c0.188,0.153,0.356,0.303,0.51,0.453c0.15,0.151,0.226,0.302,0.226,0.452l0.228,1.698c0.074,0.379,0.113,0.755,0.113,1.132
				s0.073,0.754,0.227,1.131c0.15,0.528,0.074,1.094-0.227,1.697v0.227c0.227,0.378,0.34,0.698,0.34,0.961
				c0,0.267-0.076,0.586-0.228,0.962c-0.228,0.152-0.415,0.396-0.565,0.736c-0.151,0.339-0.227,0.622-0.227,0.849h0.227
				l-1.131,2.037c-0.152,0.151-0.228,0.321-0.228,0.509c0,0.189-0.039,0.396-0.113,0.622v0.228
				c-0.452,0.151-0.735,0.415-0.849,0.792s-0.245,0.754-0.396,1.131c-0.604,1.056-1.511,2.074-2.716,3.055
				c-0.604,0.453-1.208,0.867-1.812,1.245c-0.604,0.377-1.283,0.64-2.036,0.792c-0.304,0-0.565,0.058-0.792,0.17
				c-0.227,0.113-0.453,0.207-0.68,0.284c-0.98,0.375-1.942,0.602-2.886,0.679c-0.944,0.074-1.942,0.037-2.999-0.113
				c-0.83-0.076-1.641-0.228-2.433-0.453c-0.792-0.227-1.565-0.529-2.32-0.906c-0.226-0.151-0.452-0.321-0.679-0.509
				c-0.227-0.189-0.452-0.358-0.68-0.509c-0.904-0.756-1.281-1.718-1.131-2.887c0.151-1.168,0.416-2.207,0.791-3.111
				c0.152-0.604,0.34-1.188,0.566-1.755c0.227-0.564,0.491-1.112,0.792-1.641c0.151-0.377,0.435-0.886,0.849-1.527
				c0.416-0.641,0.811-1.035,1.188-1.188c-0.378,0.152-0.659,0.379-0.849,0.679c-0.188,0.304-0.396,0.566-0.623,0.792
				c0.38-0.829,0.832-1.602,1.358-2.318s1.093-1.451,1.697-2.208c0.526-0.603,1.075-1.205,1.642-1.811
				c0.564-0.603,1.262-1.092,2.094-1.472c0.148,0,0.226-0.073,0.226-0.227h0.113c0.073-0.073,0.188-0.036,0.34,0.113
				c0,0.153-0.076,0.228-0.228,0.228c-0.604,0.527-1.15,1.095-1.641,1.696c-0.49,0.604-1.038,1.208-1.641,1.812
				c-0.152,0.151-0.322,0.283-0.51,0.396c-0.188,0.113-0.209,0.321-0.058,0.622c0.83-0.829,1.603-1.621,2.32-2.376
				c0.716-0.753,1.487-1.509,2.319-2.264c0.678-0.603,1.357-1.148,2.037-1.641c0.678-0.49,1.356-1,2.036-1.527
				c0.3-0.227,0.396-0.414,0.282-0.566c-0.113-0.149-0.208-0.301-0.282-0.452c-0.075,0-0.133,0.02-0.17,0.057
				c-0.039,0.039-0.096,0.057-0.17,0.057c-0.604,0.378-1.114,0.755-1.526,1.131c-0.416,0.379-0.812,0.792-1.188,1.245l-0.113,0.113
				c-0.151,0.077-0.339,0.133-0.565,0.17c-0.227,0.039-0.416,0.132-0.565,0.283c0.149-0.453,0.301-0.753,0.453-0.906l3.056-2.604
				c0.227-0.226,0.227-0.488,0-0.792l-3.281-3.96l-6.338-7.13c-1.056-1.28-1.734-2.864-2.035-4.751
				c-0.302-1.885-0.039-3.695,0.791-5.432c0.379-0.754,1.019-1.546,1.924-2.377c0.904-0.829,1.961-1.488,3.168-1.979
				c1.207-0.489,2.49-0.754,3.849-0.792c1.356-0.038,2.677,0.359,3.96,1.188c0.227,0.153,0.527,0.341,0.905,0.566
				c0.377,0.226,0.696,0.473,0.962,0.735c0.264,0.265,0.434,0.548,0.51,0.849c0.074,0.303-0.113,0.68-0.566,1.133
				c-0.15,0.15-0.604,0.094-1.356-0.17c-0.755-0.265-1.208-0.435-1.358-0.511c-0.904-0.226-1.604-0.112-2.093,0.341
				c-0.491,0.451-0.888,1.037-1.188,1.754c-0.303,0.717-0.49,1.509-0.564,2.375c-0.076,0.867-0.113,1.604-0.113,2.207
				c-0.076,0.604,0,1.208,0.227,1.811c0.227,0.604,0.527,1.207,0.904,1.812c0.681,1.057,1.416,2.074,2.207,3.055
				c0.793,0.98,1.603,1.962,2.434,2.941c0.301,0.379,0.641,0.735,1.02,1.075c0.377,0.339,0.752,0.661,1.131,0.961
				c0.15,0.152,0.377,0.152,0.68,0c0.377-0.301,0.695-0.584,0.962-0.849c0.264-0.263,0.584-0.51,0.962-0.735
				c0.829-0.604,1.678-1.226,2.546-1.867c0.866-0.641,1.715-1.302,2.546-1.979c0.074,0.077,0.15,0.113,0.227,0.113
				c-0.451,0.679-0.943,1.282-1.471,1.811L241.326,47.136z M225.371,66.373c-0.379,0.452-0.754,0.924-1.131,1.414
				c-0.379,0.49-0.491,1.074-0.34,1.754c0.073,0.226,0.264,0.564,0.565,1.018c0.3-0.149,0.583-0.17,0.849-0.057
				c0.264,0.114,0.584,0.17,0.963,0.17c0.828,0.152,1.657,0.039,2.488-0.339c0.526-0.301,1.036-0.583,1.527-0.85
				c0.49-0.264,0.999-0.583,1.527-0.962c0.68-0.525,1.357-1.036,2.037-1.526c0.678-0.491,1.244-1.149,1.696-1.98
				c0.453-0.905,0.829-1.828,1.132-2.771c0.301-0.942,0.453-2.056,0.453-3.338l-1.132-3.508c-0.228-0.227-0.379-0.301-0.453-0.227
				c-0.528,0.378-1.037,0.773-1.526,1.188c-0.492,0.415-1.002,0.85-1.527,1.302c-0.303,0.227-0.529,0.509-0.68,0.849
				c-0.151,0.339-0.34,0.66-0.565,0.961l-1.812,2.037c-0.377,0.378-0.754,0.774-1.131,1.188c-0.379,0.415-0.756,0.849-1.132,1.302
				c-0.303,0.379-0.586,0.773-0.849,1.188C226.068,65.599,225.748,65.996,225.371,66.373z M240.082,69.653
				c0-0.073-0.021-0.131-0.057-0.17c-0.039-0.036-0.058-0.093-0.058-0.17h-0.565c0.074,0.152,0.113,0.304,0.113,0.453l0.113,0.228
				c-0.152,0-0.266,0.038-0.34,0.111l-0.68,0.566v-0.113c-0.076,0.152-0.151,0.228-0.227,0.228c-0.076,0-0.189,0.074-0.339,0.226
				c-0.379,0.302-0.736,0.604-1.075,0.905c-0.34,0.301-0.697,0.604-1.075,0.905l-1.132,0.565c-0.378,0.301-0.734,0.566-1.074,0.792
				c-0.34,0.228-0.699,0.452-1.074,0.679l-2.265,0.565v-0.226c0.15-0.152,0.414-0.303,0.792-0.453l0.792-0.339h-0.565
				c-0.604,0.073-1.188,0.149-1.754,0.226c-0.564,0.074-1.15,0-1.754-0.226c-0.151-0.076-0.283-0.097-0.396-0.057
				c-0.113,0.037-0.245,0.057-0.396,0.057c-0.453-0.076-0.906-0.057-1.358,0.057c-0.452,0.112-0.944,0.094-1.472-0.057h-0.34
				l0.793,0.564c0.452,0.228,0.866,0.34,1.244,0.34c0.377,0,0.866-0.077,1.471-0.228c0-0.076-0.15-0.188-0.451-0.339h0.679
				l0.565,0.339c-0.151,0.075-0.266,0.15-0.34,0.228c-0.076,0.074-0.188,0.112-0.34,0.112c-0.227,0.075-0.564,0.114-1.019,0.114
				v0.226c0.377,0,0.772,0.019,1.188,0.057c0.413,0.037,0.81,0.057,1.188,0.057c1.508,0.15,2.979-0.113,4.412-0.792
				c0.302-0.227,0.717-0.339,1.244-0.339c0.377-0.077,0.963-0.322,1.754-0.736c0.793-0.415,1.264-0.812,1.416-1.188l0.791-1.018
				L240.082,69.653z M232.613,74.858c-0.076,0-0.151-0.04-0.227-0.112l-0.113,0.112H232.613z M240.195,69.088l0.228-0.113h-0.34
				C240.082,69.05,240.119,69.088,240.195,69.088z"/>
		</g>
	</g>
	<g>
		<g>
			<path fill="#D50062" d="M9.465,51.775l0.113,7.694c0,0.152,0.018,0.246,0.057,0.283c0.037,0.039,0.057,0.133,0.057,0.284
				c0.074-0.15,0.15-0.228,0.227-0.228c0.074,0,0.15-0.074,0.227-0.227l1.471-2.489c0.301-0.679,0.81-1.621,1.527-2.829
				c0.717-1.206,1.452-2.45,2.207-3.733c0.753-1.282,1.488-2.527,2.206-3.734c0.717-1.206,1.226-2.11,1.528-2.716l1.471-2.83
				c0.074-0.149,0.15-0.243,0.227-0.282c0.074-0.037,0.15-0.094,0.227-0.169c0.226,0.226,0.339,0.415,0.339,0.565
				c-0.076,0.452-0.113,0.904-0.113,1.357s-0.075,0.869-0.226,1.245c-0.453,1.358-1.058,2.792-1.811,4.301
				c-0.755,1.509-1.528,3.019-2.32,4.525c-0.792,1.51-1.566,2.98-2.319,4.414c-0.755,1.434-1.396,2.792-1.924,4.073
				c-0.227,0.679-0.528,1.341-0.905,1.979c-0.379,0.642-0.755,1.265-1.132,1.867c-0.152,0.378-0.452,0.565-0.905,0.565
				c-0.679,0.152-1.357,0.267-2.037,0.341C6.979,66.109,6.3,66.186,5.621,66.26c-1.208,0.076-2.15-0.283-2.829-1.075
				c-0.679-0.792-1.188-1.754-1.527-2.885c-0.34-1.133-0.566-2.32-0.68-3.565c-0.114-1.244-0.208-2.28-0.282-3.111
				C0,52.381-0.076,49.287,0.076,46.345c0.15-2.942,0.526-5.922,1.132-8.938c0.603-3.32,1.318-6.563,2.149-9.731
				c0.829-3.17,1.697-6.338,2.603-9.507c0.604-1.884,1.245-3.751,1.924-5.602c0.679-1.848,1.358-3.715,2.037-5.6
				c0.301-0.755,0.64-1.472,1.019-2.15c0.376-0.679,0.64-1.433,0.792-2.264c0.227-0.753,0.583-1.225,1.075-1.415
				c0.489-0.187,1.036-0.356,1.641-0.509c0.603-0.15,1.169-0.263,1.697-0.339c0.527-0.074,1.093-0.15,1.697-0.228
				c0.377,0,0.772-0.018,1.188-0.057c0.413-0.037,0.772,0.17,1.075,0.623c0.074,0.152,0.094,0.302,0.057,0.453
				c-0.039,0.152-0.057,0.303-0.057,0.454l0.226,1.696c0.227,1.058,0.113,2.113-0.339,3.168c-0.076,0.076-0.113,0.152-0.113,0.227
				c-0.076,0.679-0.133,1.396-0.17,2.149c-0.039,0.756-0.133,1.511-0.283,2.264c-0.226,1.208-0.472,2.416-0.735,3.621
				c-0.265,1.208-0.735,2.376-1.414,3.507c-0.604,1.058-1.208,2.133-1.811,3.226c-0.604,1.094-1.208,2.169-1.811,3.226
				c-0.152,0.302-0.34,0.584-0.566,0.848c-0.226,0.266-0.415,0.548-0.565,0.849c-0.378,0.905-0.604,1.812-0.679,2.717
				c0,0.076,0.018,0.113,0.057,0.113c0.037,0,0.057,0.039,0.057,0.113c0-0.075,0.018-0.113,0.057-0.113
				c0.037,0,0.057-0.037,0.057-0.113l0.226-0.792c0,0.151-0.02,0.282-0.057,0.396c-0.038,0.113-0.057,0.246-0.057,0.396
				l-0.679,4.412c-0.076,0.604-0.17,1.188-0.283,1.755c-0.112,0.565-0.208,1.15-0.282,1.754c-0.076,0.379-0.057,0.718,0.057,1.019
				c0.113,0.303,0.131,0.604,0.057,0.905c0,0.981-0.133,2.037-0.396,3.168c-0.265,1.132-0.509,2.263-0.735,3.395
				c-0.226,1.133-0.416,2.246-0.565,3.338C9.2,49.872,9.239,50.871,9.465,51.775z M11.502,19.525
				c0.074-0.073,0.113-0.149,0.113-0.226l-0.113-0.114c-0.076,0.076-0.113,0.152-0.113,0.228
				C11.389,19.489,11.426,19.525,11.502,19.525z M12.407,19.525H12.18l-0.339,1.018c-0.076,0.152-0.096,0.247-0.057,0.284
				c0.037,0.04,0.057,0.133,0.057,0.282l0.679-1.244c0-0.074-0.02-0.132-0.057-0.171C12.425,19.658,12.407,19.601,12.407,19.525z
				 M12.748,19.073l-0.227-0.228c-0.152,0.153-0.266,0.228-0.34,0.228l0.113,0.227C12.445,19.3,12.595,19.225,12.748,19.073z
				 M12.407,15.111c0,0.077-0.039,0.113-0.113,0.113l0.113,0.113l0.113-0.113C12.445,15.225,12.407,15.188,12.407,15.111z
				 M12.861,17.94c0.15-0.453,0.226-0.64,0.226-0.565v-0.34l-0.226,0.452V17.94z M13.313,16.244h0.227
				c0,0.152,0.018,0.266,0.057,0.34c0.037,0.076,0.057,0.188,0.057,0.339l0.339-0.565l3.396-11.882
				c0.074-0.149,0.057-0.299-0.057-0.452c-0.113-0.149-0.209-0.301-0.283-0.453c-0.152,0.152-0.322,0.323-0.509,0.511
				c-0.189,0.188-0.359,0.357-0.51,0.509l-0.905,3.056v0.113c-0.452,0.226-0.622,0.509-0.509,0.848
				c0.113,0.339,0.094,0.661-0.057,0.962c-0.152,0.152-0.209,0.358-0.17,0.622c0.037,0.267,0.057,0.51,0.057,0.736h-0.227
				c-0.227,0.226-0.339,0.303-0.339,0.226c-0.076,0.152-0.113,0.379-0.113,0.68c0.526-0.15,0.753-0.093,0.679,0.17
				c-0.076,0.266-0.113,0.471-0.113,0.622L13.313,16.244z"/>
			<path fill="#D50062" d="M50.995,42.95c0.452-0.228,0.979-0.341,1.584-0.341c-0.152,0.304-0.227,0.604-0.227,0.905
				c0,0.378-0.152,0.736-0.452,1.075c-0.303,0.339-0.529,0.698-0.68,1.075c0,0.075-0.039,0.111-0.113,0.111
				c-0.378,1.284-1.074,2.227-2.093,2.83c-1.019,0.604-2.02,1.208-2.999,1.811c-0.604,0.379-1.227,0.642-1.867,0.792
				c-0.642,0.151-1.264,0.34-1.867,0.565c-0.604,0.077-1.17,0.113-1.697,0.113c-0.528,0-1.058,0.075-1.584,0.227
				c-0.679,0.227-1.208,0.662-1.584,1.302c-0.379,0.642-0.718,1.226-1.019,1.753c-0.379,0.604-0.718,1.115-1.019,1.528
				c-0.303,0.415-0.755,0.849-1.358,1.302c-1.057,0.831-2.132,1.68-3.225,2.545c-1.095,0.869-2.282,1.415-3.564,1.641
				c-2.415,0.453-4.679,0.039-6.79-1.244c-0.151-0.149-0.282-0.282-0.396-0.396c-0.113-0.112-0.246-0.244-0.396-0.396
				c-0.378-0.453-0.735-0.905-1.074-1.357c-0.34-0.453-0.623-0.942-0.85-1.471c-1.057-2.036-1.508-4.225-1.357-6.562
				c0-0.075,0.018-0.113,0.057-0.113c0.037,0,0.057-0.037,0.057-0.113c0-0.15,0.018-0.283,0.057-0.396
				c0.037-0.114,0.057-0.245,0.057-0.397v-0.112c0.074-0.376,0.113-0.866,0.113-1.472c0.074-0.073,0.112-0.15,0.112-0.227
				c0-0.074,0.038-0.113,0.113-0.113c0.074-0.227,0.15-0.433,0.227-0.622c0.074-0.188,0.113-0.396,0.113-0.623
				c0-0.15-0.039-0.227-0.113-0.227c0.301-1.282,0.604-2.583,0.905-3.904c0.301-1.318,0.679-2.62,1.132-3.903
				c0.753-1.96,1.527-3.922,2.319-5.885c0.792-1.96,1.904-3.771,3.339-5.432c0.376-0.376,0.772-0.716,1.188-1.018
				c0.414-0.302,0.81-0.641,1.188-1.02c0.452-0.376,0.923-0.792,1.414-1.244c0.49-0.453,1.036-0.641,1.642-0.565
				c0.452,0.076,0.849,0.266,1.188,0.565c0.34,0.303,0.697,0.529,1.075,0.68c0.15,0.075,0.32,0.151,0.509,0.226
				c0.188,0.076,0.357,0.076,0.51,0c0.679-0.226,1.375-0.357,2.094-0.396c0.716-0.036,1.414,0.021,2.093,0.171
				c0.754,0.226,1.509,0.642,2.264,1.244c0.301,0.303,0.546,0.623,0.735,0.962c0.188,0.339,0.433,0.698,0.735,1.074v0.227
				c-0.303,0.981-0.227,1.887,0.227,2.716c0.452,0.831,0.716,1.659,0.792,2.489c0.074,0.904,0.188,1.811,0.34,2.716
				c0.149,0.905,0.226,1.772,0.226,2.603c0,0.68-0.057,1.34-0.169,1.98c-0.113,0.642-0.246,1.265-0.396,1.867
				c0,0.152-0.02,0.282-0.057,0.396c-0.039,0.112-0.02,0.245,0.057,0.396c-0.152,0.152-0.303,0.491-0.453,1.019l-0.342,0.455
				c-0.379,0.604-0.604,1.244-0.679,1.923c-0.076,0.68-0.416,1.321-1.019,1.924c-0.152,0.076-0.209,0.227-0.17,0.453
				c0.037,0.227,0.094,0.415,0.17,0.565c0.226,0.227,0.489,0.266,0.792,0.112c0.452-0.149,0.886-0.339,1.301-0.564
				c0.414-0.228,0.811-0.454,1.188-0.68l2.603-1.812c0.377-0.299,0.735-0.583,1.075-0.849c0.34-0.263,0.696-0.508,1.075-0.735
				c0.376-0.376,0.679-0.525,0.905-0.452c0.603,0.227,1.019,0.169,1.244-0.17c0.227-0.34,0.453-0.695,0.68-1.075
				C50.957,43.328,50.995,43.176,50.995,42.95z M21.235,51.323c0.074,0.452,0.074,0.925,0,1.414c-0.076,0.491-0.113,1-0.113,1.527
				c0,0.077,0.074,0.189,0.226,0.34l0.34-0.453c0-0.376,0.018-0.734,0.057-1.074c0.037-0.34,0.244-0.66,0.622-0.962
				c-0.378,0.076-0.565,0.02-0.565-0.17c0-0.188,0-0.356,0-0.509l-0.227-0.453c-0.151-2.414-0.358-3.451-0.622-3.111
				C20.687,48.211,20.781,49.361,21.235,51.323z M21.235,55.51l-0.113,0.112l0.113,0.112V55.51z M21.688,57.546
				c0.603,1.359,1.358,1.697,2.264,1.019l-0.68-1.696l-0.452-0.906l-0.34,1.132c0,0.076,0.037,0.133,0.113,0.17
				c0.074,0.038,0.074,0.095,0,0.169c0,0.303-0.039,0.529-0.113,0.68l-0.452-0.34L21.688,57.546z M22.252,51.663
				c0,0.076,0.019,0.132,0.057,0.17c0.037,0.039,0.057,0.131,0.057,0.282v-0.452H22.252z M24.176,59.018
				c0-0.074,0.037-0.112,0.113-0.112l-0.339-0.341L24.176,59.018z M34.248,52.115c0.377-0.376,0.301-0.679-0.227-0.905
				c-1.057-0.376-1.886-0.923-2.489-1.641c-0.604-0.716-1.095-1.527-1.471-2.433c-0.152-0.301-0.303-0.564-0.453-0.792l-0.339-1.018
				c0-0.075-0.039-0.15-0.113-0.228v-0.113c-0.905-3.847-0.905-7.731,0-11.654c0.074-0.15,0.113-0.338,0.113-0.565
				c-0.605,1.357-1.188,2.716-1.754,4.073c-0.566,1.358-1.075,2.755-1.528,4.188c-0.378,0.982-0.585,1.66-0.622,2.036
				c-0.039,0.379,0.018,1.096,0.17,2.15c0.074,0.454,0.188,0.889,0.339,1.302c0.15,0.415,0.037,0.85-0.339,1.301
				c-0.076,0.076-0.113,0.267-0.113,0.566c0.074,0.529,0.131,1.057,0.17,1.584c0.037,0.528,0.057,1.093,0.057,1.697
				c0.074,0.604,0.131,1.188,0.17,1.754c0.037,0.564,0.13,1.15,0.282,1.753c0.227,0.831,0.566,1.584,1.019,2.263
				c0.453,0.605,0.792,0.905,1.019,0.905s0.64-0.188,1.245-0.565c0.149-0.149,0.263-0.227,0.339-0.227
				c0.527,0.076,0.905-0.057,1.132-0.396s0.452-0.696,0.679-1.074L34.248,52.115z M35.719,49.625
				c0.074-0.15,0.037-0.415-0.113-0.792c-0.152-0.227-0.322-0.435-0.51-0.623c-0.189-0.188-0.358-0.396-0.509-0.623
				c-0.152-0.227-0.246-0.47-0.283-0.735c-0.039-0.264-0.133-0.469-0.283-0.622c-0.226-0.227-0.642-0.414-1.244-0.564
				c-0.076-0.075-0.17-0.057-0.283,0.056c-0.113,0.113-0.17,0.247-0.17,0.397c0,0.604,0.301,1.301,0.905,2.093
				s1.206,1.264,1.811,1.415C35.266,49.853,35.492,49.853,35.719,49.625z M32.663,44.646l0.227,0.227
				c-0.076,0-0.133,0.02-0.17,0.057c-0.039,0.039-0.096,0.057-0.17,0.057V45.1l0.34-0.227c0-0.074,0.018-0.13,0.057-0.169
				c0.037-0.037,0.057-0.095,0.057-0.169l-0.34-0.341l-0.227,0.113L32.663,44.646z M38.208,44.76
				c0.452-0.453,0.679-0.905,0.679-1.358c0-0.073-0.039-0.112-0.113-0.112c0.227-0.829,0.471-1.603,0.735-2.319
				s0.396-1.489,0.396-2.32c0.074-1.281,0.037-2.563-0.113-3.847c-0.152-1.282-0.227-2.563-0.227-3.848
				c0-0.829-0.189-1.472-0.565-1.924c-0.379-0.452-0.868-0.866-1.472-1.245c-1.51-0.83-2.376-0.453-2.603,1.131
				c-0.075,0.303-0.095,0.566-0.057,0.792c0.037,0.227,0.019,0.453-0.056,0.68l-0.793,3.396h-0.112
				c0.074,0.15,0.149,0.338,0.226,0.564c0.074,0.228,0.113,0.416,0.113,0.565v4.188c-0.076,0.906,0.057,1.773,0.396,2.604
				c0.339,0.831,0.583,1.66,0.735,2.488v0.341c0,0.451,0.074,0.792,0.227,1.018l-0.34,0.226v0.341
				c0.603-0.228,0.886-0.132,0.849,0.282c-0.039,0.415,0.057,0.698,0.283,0.849h0.565l0.905-1.812L38.208,44.76z"/>
			<path fill="#D50062" d="M64.233,47.136c-0.453,0.604-0.604,1.17-0.453,1.697c0.074,0.303,0,0.604-0.226,0.904
				c-0.303,0.152-0.34,0.415-0.113,0.793c0.074,0.227,0.301,0.527,0.679,0.905c0.377,0.378,0.565,0.944,0.565,1.697l0.34,0.452
				c0.15,0.151,0.283,0.283,0.396,0.396c0.112,0.114,0.094,0.322-0.057,0.623c0,0.151,0.094,0.303,0.282,0.452
				c0.188,0.152,0.357,0.303,0.51,0.453c0.15,0.152,0.226,0.302,0.226,0.452l0.227,1.698c0.074,0.379,0.113,0.755,0.113,1.132
				c0,0.378,0.074,0.755,0.227,1.132c0.15,0.528,0.074,1.093-0.227,1.697v0.227c0.227,0.378,0.34,0.698,0.34,0.961
				c0,0.267-0.076,0.585-0.227,0.961c-0.227,0.152-0.415,0.397-0.565,0.736c-0.152,0.339-0.227,0.622-0.227,0.849h0.227
				l-1.132,2.036c-0.152,0.152-0.227,0.322-0.227,0.51c0,0.189-0.039,0.396-0.113,0.622v0.228c-0.452,0.151-0.735,0.415-0.849,0.792
				c-0.113,0.378-0.245,0.755-0.396,1.132c-0.605,1.055-1.511,2.074-2.716,3.055c-0.605,0.453-1.208,0.867-1.811,1.245
				c-0.605,0.377-1.284,0.64-2.037,0.792c-0.303,0-0.565,0.058-0.792,0.17c-0.227,0.113-0.453,0.208-0.679,0.283
				c-0.981,0.376-1.943,0.603-2.886,0.679c-0.944,0.075-1.943,0.037-2.999-0.112c-0.831-0.077-1.641-0.228-2.433-0.454
				s-1.565-0.528-2.32-0.905c-0.226-0.152-0.452-0.321-0.679-0.509c-0.227-0.19-0.452-0.358-0.679-0.509
				c-0.905-0.756-1.282-1.718-1.132-2.887c0.152-1.169,0.416-2.207,0.792-3.111c0.152-0.604,0.34-1.188,0.566-1.755
				c0.226-0.564,0.491-1.112,0.792-1.641c0.151-0.377,0.435-0.886,0.849-1.527c0.415-0.641,0.81-1.035,1.188-1.188
				c-0.378,0.152-0.659,0.378-0.849,0.678c-0.187,0.303-0.396,0.566-0.622,0.792c0.379-0.829,0.831-1.602,1.358-2.318
				c0.526-0.717,1.093-1.451,1.697-2.207c0.526-0.604,1.075-1.205,1.641-1.812c0.565-0.603,1.263-1.091,2.094-1.471
				c0.149,0,0.226-0.074,0.226-0.227h0.113c0.074-0.073,0.188-0.036,0.34,0.113c0,0.152-0.076,0.228-0.227,0.228
				c-0.604,0.528-1.151,1.094-1.641,1.696c-0.491,0.604-1.038,1.208-1.641,1.812c-0.152,0.151-0.322,0.283-0.51,0.396
				c-0.188,0.113-0.208,0.321-0.057,0.622c0.83-0.829,1.603-1.621,2.32-2.376c0.716-0.754,1.488-1.508,2.319-2.264
				c0.679-0.603,1.358-1.149,2.037-1.641c0.679-0.489,1.357-0.999,2.037-1.527c0.3-0.227,0.396-0.414,0.282-0.565
				c-0.113-0.149-0.208-0.301-0.282-0.453c-0.076,0-0.133,0.02-0.17,0.058c-0.039,0.039-0.096,0.056-0.17,0.056
				c-0.604,0.378-1.114,0.755-1.527,1.131c-0.416,0.379-0.812,0.792-1.188,1.245l-0.113,0.113c-0.152,0.077-0.339,0.134-0.565,0.17
				c-0.227,0.039-0.416,0.132-0.566,0.282c0.15-0.453,0.301-0.752,0.453-0.905l3.056-2.604c0.226-0.226,0.226-0.488,0-0.792
				l-3.282-3.96l-6.337-7.129c-1.056-1.281-1.734-2.865-2.036-4.752c-0.301-1.885-0.038-3.694,0.792-5.431
				c0.378-0.755,1.018-1.547,1.923-2.377c0.905-0.829,1.961-1.488,3.169-1.979c1.206-0.49,2.489-0.754,3.848-0.793
				c1.357-0.037,2.677,0.36,3.96,1.188c0.227,0.152,0.527,0.34,0.905,0.565c0.377,0.227,0.697,0.472,0.962,0.735
				c0.264,0.265,0.434,0.548,0.51,0.849c0.074,0.303-0.113,0.68-0.566,1.133c-0.151,0.15-0.604,0.095-1.357-0.17
				c-0.755-0.265-1.208-0.435-1.358-0.51c-0.905-0.226-1.604-0.112-2.093,0.339c-0.492,0.453-0.888,1.039-1.188,1.755
				c-0.303,0.717-0.491,1.509-0.565,2.376c-0.076,0.868-0.113,1.604-0.113,2.207c-0.076,0.604,0,1.207,0.226,1.811
				c0.227,0.604,0.527,1.207,0.905,1.811c0.68,1.058,1.415,2.075,2.207,3.055c0.792,0.981,1.602,1.963,2.433,2.942
				c0.301,0.38,0.641,0.735,1.019,1.075c0.377,0.34,0.753,0.661,1.132,0.962c0.15,0.153,0.377,0.153,0.679,0
				c0.377-0.301,0.696-0.584,0.962-0.849c0.264-0.264,0.584-0.51,0.962-0.735c0.829-0.604,1.678-1.226,2.546-1.867
				c0.866-0.641,1.715-1.302,2.546-1.979c0.074,0.076,0.15,0.113,0.227,0.113c-0.452,0.679-0.944,1.282-1.471,1.811L64.233,47.136z
				 M48.278,66.374c-0.379,0.453-0.755,0.924-1.132,1.414c-0.379,0.49-0.491,1.074-0.34,1.754c0.074,0.227,0.264,0.565,0.566,1.019
				c0.3-0.149,0.583-0.17,0.849-0.058c0.263,0.114,0.583,0.171,0.962,0.171c0.829,0.151,1.658,0.038,2.489-0.34
				c0.526-0.301,1.036-0.583,1.527-0.849c0.49-0.264,0.999-0.583,1.527-0.962c0.68-0.525,1.358-1.036,2.037-1.526
				c0.679-0.49,1.245-1.149,1.697-1.98c0.453-0.905,0.829-1.828,1.132-2.771c0.301-0.942,0.453-2.055,0.453-3.337l-1.132-3.509
				c-0.227-0.227-0.379-0.301-0.453-0.227c-0.528,0.378-1.037,0.775-1.527,1.188c-0.491,0.415-1.001,0.849-1.527,1.301
				c-0.303,0.227-0.529,0.51-0.68,0.849c-0.151,0.34-0.339,0.661-0.565,0.962l-1.811,2.038c-0.378,0.377-0.755,0.774-1.132,1.188
				c-0.378,0.415-0.755,0.848-1.131,1.301c-0.303,0.379-0.586,0.773-0.849,1.188C48.974,65.601,48.654,65.997,48.278,66.374z
				 M62.987,69.655c0-0.074-0.02-0.132-0.057-0.17c-0.039-0.037-0.057-0.094-0.057-0.17h-0.565c0.074,0.153,0.113,0.304,0.113,0.454
				l0.113,0.227c-0.152,0-0.266,0.038-0.34,0.112l-0.679,0.566v-0.113c-0.076,0.151-0.152,0.227-0.227,0.227
				c-0.076,0-0.189,0.074-0.339,0.226c-0.379,0.303-0.736,0.604-1.075,0.905c-0.34,0.301-0.698,0.604-1.075,0.906l-1.132,0.565
				c-0.378,0.301-0.735,0.565-1.075,0.792c-0.339,0.228-0.698,0.453-1.074,0.679l-2.264,0.566V75.2
				c0.15-0.153,0.414-0.304,0.792-0.454l0.792-0.338h-0.565c-0.604,0.073-1.188,0.149-1.754,0.226c-0.565,0.074-1.151,0-1.754-0.226
				c-0.152-0.077-0.283-0.097-0.396-0.058c-0.113,0.037-0.245,0.058-0.396,0.058c-0.453-0.077-0.905-0.058-1.358,0.056
				c-0.452,0.112-0.944,0.094-1.471-0.056h-0.34l0.792,0.564c0.453,0.228,0.867,0.34,1.245,0.34c0.377,0,0.866-0.076,1.471-0.227
				c0-0.076-0.151-0.189-0.452-0.339h0.679l0.565,0.339c-0.151,0.075-0.265,0.15-0.339,0.227c-0.076,0.075-0.189,0.113-0.34,0.113
				c-0.227,0.075-0.565,0.113-1.019,0.113v0.227c0.377,0,0.773,0.019,1.188,0.058c0.414,0.037,0.81,0.056,1.188,0.056
				c1.508,0.15,2.979-0.113,4.413-0.792c0.301-0.227,0.716-0.339,1.244-0.339c0.377-0.077,0.962-0.321,1.754-0.735
				c0.793-0.416,1.263-0.812,1.415-1.188l0.792-1.02L62.987,69.655z M55.521,74.859c-0.076,0-0.152-0.039-0.227-0.112l-0.113,0.112
				H55.521z M63.101,69.089l0.227-0.113h-0.34C62.987,69.052,63.025,69.089,63.101,69.089z"/>
		</g>
	</g>
</g>
</svg>
